<svg preserveAspectRatio="none" width="100%" height="100%" overflow="visible" style="display: block;" viewBox="0 0 19.9984 19.9984" fill="none" xmlns="http://www.w3.org/2000/svg">
<g id="Icon" clip-path="url(#clip0_0_28)">
<path id="Vector" d="M5.11587 0.23254H13.4873V3.95317H18.6032V9.30623C17.3882 8.45964 15.9209 8.05252 14.4433 8.15203C12.9658 8.25154 11.5663 8.85175 10.4758 9.85363C9.3853 10.8555 8.66888 12.1992 8.44476 13.663C8.22063 15.1268 8.50219 16.6233 9.24298 17.9055H1.35422e-08V3.95317H5.11587V0.23254ZM6.97619 3.95317H11.627V2.09286H6.97619V3.95317Z" fill="var(--fill-0, white)"/>
<path id="Vector_2" d="M9.76758 14.65C9.76758 13.9782 9.89994 13.3129 10.157 12.6923C10.4141 12.0717 10.7909 11.5076 11.266 11.0326C11.741 10.5575 12.305 10.1807 12.9257 9.92364C13.5463 9.66654 14.2116 9.53418 14.8834 9.53418C15.5553 9.53418 16.2205 9.66654 16.8412 9.92364C17.4618 10.1807 18.0259 10.5575 18.5009 11.0326C18.976 11.5076 19.3528 12.0717 19.6099 12.6923C19.867 13.3129 19.9993 13.9782 19.9993 14.65C19.9993 16.0069 19.4603 17.3081 18.5009 18.2675C17.5415 19.2269 16.2403 19.7659 14.8834 19.7659C13.5266 19.7659 12.2254 19.2269 11.266 18.2675C10.3066 17.3081 9.76758 16.0069 9.76758 14.65ZM17.1288 15.5802L15.8136 14.265V12.5591H13.9533V15.0351L15.8136 16.8955L17.1288 15.5802Z" fill="var(--fill-0, white)"/>
</g>
<defs>
<clipPath id="clip0_0_28">
<rect width="19.9984" height="19.9984" fill="white"/>
</clipPath>
</defs>
</svg>
