<svg preserveAspectRatio="none" width="100%" height="100%" overflow="visible" style="display: block;" viewBox="0 0 42 42" fill="none" xmlns="http://www.w3.org/2000/svg">
<g id="Group 221">
<circle id="Ellipse 49" cx="21" cy="21" r="21" fill="var(--fill-0, white)"/>
<g id="Group 21">
<path id="Union" d="M21.2031 11.3398C20.7005 10.8667 19.9097 10.8909 19.4365 11.3936C18.9635 11.8962 18.9868 12.687 19.4893 13.1602L26.4912 19.751H12.25C11.5597 19.751 11 20.3106 11 21.001C11.0002 21.6911 11.5598 22.251 12.25 22.251H26.4893L19.4893 28.8408C18.9868 29.314 18.9635 30.1048 19.4365 30.6074C19.9097 31.1101 20.7005 31.1342 21.2031 30.6611L30.2451 22.1484C30.6895 21.9569 31.0008 21.5155 31.001 21.001C31.001 20.4868 30.6907 20.0445 30.2471 19.8525L21.2031 11.3398Z" fill="var(--fill-0, #4A3AFF)"/>
</g>
</g>
</svg>
