<svg preserveAspectRatio="none" width="100%" height="100%" overflow="visible" style="display: block;" viewBox="0 0 78 73" fill="none" xmlns="http://www.w3.org/2000/svg">
<g id="Layer_1" clip-path="url(#clip0_0_636)">
<path id="Vector" d="M14.0869 16.2989C14.2057 16.0511 14.2936 15.8895 14.3709 15.7255C16.1776 11.9283 17.982 8.12999 19.784 4.33049C19.9313 4.0178 20.0977 3.9234 20.4387 3.92576C22.9278 3.9411 25.4158 3.93402 27.9049 3.93402C27.9666 3.93874 28.0286 3.93874 28.0903 3.93402C28.3493 3.89272 28.4158 4.02252 28.3885 4.24789C28.3843 4.32453 28.3843 4.40134 28.3885 4.47798V25.0213C28.3885 25.544 28.3885 25.5487 27.8764 25.6738C25.9992 26.1304 24.2003 26.8195 22.3908 27.478C22.272 27.5204 22.1591 27.5617 22.0415 27.5959C22.0165 27.6042 21.9833 27.5889 21.9155 27.5783V14.8818C21.7783 15.0088 21.675 15.1678 21.6149 15.3443C20.0244 18.5664 18.4367 21.7874 16.8517 25.0071C16.7162 25.2832 16.5689 25.4106 16.2339 25.4047C14.7962 25.3823 13.3586 25.3847 11.9209 25.4047C11.5966 25.4047 11.4457 25.3151 11.3043 25.0118C9.86743 21.7716 8.41711 18.5369 6.95332 15.3077C6.90355 15.1378 6.81069 14.9834 6.68362 14.8594C6.64797 21.033 6.84402 27.1535 6.73708 33.3164C6.87917 33.2641 6.99988 33.1666 7.08045 33.0392C8.30899 31.6798 9.5399 30.3252 10.7554 28.9506C10.8431 28.8384 10.9567 28.7489 11.0865 28.6896C11.2164 28.6302 11.3587 28.6028 11.5015 28.6095C14.0679 28.6225 16.6331 28.6166 19.1995 28.6166H19.7353C19.5737 28.7972 19.4787 28.9081 19.3789 29.0143L13.2718 35.4487C12.9689 35.7684 12.9689 35.7684 13.2029 36.1649C15.2624 39.6757 17.3218 43.1861 19.3812 46.6961C19.4751 46.818 19.5456 46.956 19.5892 47.1032C19.4703 47.1905 19.3515 47.1492 19.2327 47.1492C16.4655 47.1492 13.6984 47.1492 10.9312 47.1587C10.6318 47.1587 10.4773 47.0867 10.3371 46.8047C9.54227 45.1433 8.71889 43.5008 7.90502 41.8488C7.83017 41.6978 7.75294 41.5491 7.66739 41.3768C7.39175 41.647 7.13867 41.9054 6.87253 42.1521C6.7252 42.2889 6.75372 42.4565 6.75372 42.624C6.75372 44.0054 6.75372 45.3871 6.75372 46.7693C6.75372 47.1775 6.80243 47.161 6.34975 47.161H0.409065C0.362728 47.161 0.315203 47.161 0.270053 47.161C0.0835159 47.1799 -0.028169 47.1256 -0.00203 46.9109C0.00332372 46.8189 0.00332372 46.7267 -0.00203 46.6348C0.00509882 32.5813 0.00945532 18.531 0.0110395 4.48388C0.0110395 3.85968 -0.0840114 3.93874 0.538572 3.93756C2.93504 3.93756 5.33033 3.93756 7.7268 3.9293C8.04641 3.9293 8.20205 4.01662 8.34938 4.31633C10.1649 8.14258 11.9902 11.9645 13.8255 15.7821C13.9015 15.9296 13.974 16.0735 14.0869 16.2989Z" fill="var(--fill-0, #473DFF)"/>
<path id="Vector_2" d="M14.6613 71.7587C13.7126 71.4471 12.7927 71.0547 11.912 70.5858C5.7028 67.2654 1.84254 62.1844 0.396575 55.317C0.0698379 53.7653 -0.0192724 52.1853 0.0033022 50.5971C0.0033022 50.3611 0.0769667 50.2714 0.319347 50.2809C0.720937 50.2962 1.12372 50.2809 1.52531 50.2809H13.3069C13.8796 50.2809 13.8225 50.216 13.8225 50.8012C13.8225 52.3977 13.8225 53.9954 13.8225 55.5919C13.8225 55.9955 13.8225 56.0002 14.2217 56.0002H20.8539C21.2448 56.0002 21.2484 56.0002 21.2496 55.5919C21.2496 54.0108 21.2496 52.4292 21.2496 50.8473C21.2496 50.7399 21.2496 50.6325 21.2496 50.5251C21.2389 50.3517 21.309 50.2738 21.4872 50.2785C21.7652 50.2868 22.0444 50.2856 22.3189 50.2785C22.4745 50.2785 22.5494 50.334 22.5423 50.4921C22.5423 50.5995 22.5423 50.7068 22.5423 50.8142C22.5423 52.3969 22.5423 53.9785 22.5423 55.5589C22.5423 55.9955 22.5423 56.0002 22.9557 56.0002H29.5962C29.9907 56.0002 29.9943 55.9943 29.9954 55.5895C29.9954 54.0084 29.9954 52.4268 29.9954 50.8449C29.9954 50.7375 29.9954 50.6301 29.9954 50.5228C29.9883 50.3481 30.0643 50.2679 30.2426 50.2797C30.3352 50.2856 30.4279 50.2797 30.5218 50.2797H43.2764C43.3382 50.2797 43.3952 50.2797 43.4618 50.2797C43.7933 50.2879 43.7992 50.2879 43.8028 50.6077C43.8278 51.6668 43.7825 52.7263 43.6673 53.7795C43.3181 56.7615 42.3422 59.6374 40.8027 62.221C38.333 66.3509 34.8747 69.3673 30.4279 71.2702C30.2897 71.3518 30.1324 71.3961 29.9717 71.3988C29.8172 70.9362 29.8065 70.4406 29.696 69.9639C29.6473 69.7551 29.6247 69.5403 29.5903 69.3291C29.5273 68.9468 29.5214 68.9421 29.1602 69.0023L23.2195 69.9946C22.9177 70.0454 22.913 70.0477 22.9617 70.3415C23.0805 71.0672 23.2064 71.7929 23.3264 72.5198C23.3466 72.6378 23.3585 72.7616 23.3787 72.9221C22.7762 72.9733 22.1714 72.9942 21.5668 72.9847C21.3292 72.9752 21.2923 72.8572 21.322 72.6555C21.4349 71.8967 21.5395 71.1368 21.6464 70.3769C21.6535 70.3321 21.6666 70.2873 21.6737 70.2412C21.7201 69.8967 21.7058 69.8707 21.3719 69.8223C20.684 69.7232 19.9961 69.6312 19.307 69.5344L15.5465 69.0082C15.5014 69.0011 15.455 68.9916 15.4099 68.9869C15.0867 68.9539 15.0689 68.9657 15.0249 69.2784C14.9227 70.0076 14.8241 70.7368 14.7219 71.466C14.716 71.551 14.6922 71.6242 14.6613 71.7587Z" fill="var(--fill-0, #473DFF)"/>
<path id="Vector_3" d="M36.5378 36.1743C36.4962 35.4026 36.1706 34.8669 35.5278 34.5306C35.0278 34.2856 34.4778 34.1581 33.9203 34.1578C32.7678 34.1212 31.6438 34.3182 30.5282 34.5755C29.7616 34.747 29.0074 34.9694 28.2707 35.241C28.0568 35.3212 27.9582 35.3035 27.8762 35.0534C27.382 33.5383 26.8699 32.0279 26.3507 30.5211C26.2663 30.2792 26.3507 30.2001 26.561 30.1293C28.6236 29.4214 30.7194 28.8797 32.8914 28.6154C34.3231 28.4408 35.7536 28.3794 37.19 28.5352C38.5528 28.6898 39.861 29.019 41.0491 29.7234C42.9347 30.8397 43.8923 32.5176 44.0646 34.6651C44.0848 34.9247 44.086 35.1867 44.086 35.4463C44.086 39.2371 44.086 43.0288 44.086 46.8212C44.086 46.9286 44.086 47.0359 44.086 47.1433C44.086 47.2778 44.0325 47.3416 43.8947 47.3321C43.8329 47.3321 43.7759 47.3321 43.7093 47.3321H36.937C36.5009 47.3321 36.5413 47.3545 36.5401 46.9309V45.515C36.4582 45.456 36.4213 45.5055 36.3821 45.5515C35.4162 46.7315 34.1342 47.3498 32.6502 47.5717C31.2078 47.7876 29.782 47.7109 28.4121 47.1669C26.5253 46.4165 25.4726 44.9993 25.1352 43.037C24.9466 42.0059 25.0056 40.945 25.3075 39.9408C25.6972 38.6676 26.5158 37.7496 27.6838 37.1336C28.6236 36.6392 29.6406 36.3997 30.6897 36.2723C32.0454 36.1071 33.407 36.1967 34.7651 36.1755C35.3413 36.1672 35.9116 36.1743 36.5378 36.1743ZM34.9314 39.6989C34.4728 39.7296 33.9155 39.6446 33.3654 39.7602C33.0422 39.8134 32.7493 39.9811 32.5409 40.2322C31.8589 41.0889 32.3306 42.4742 33.3928 42.7479C34.4549 43.0217 35.9009 42.427 36.4617 41.5007C36.5122 41.4247 36.5394 41.3357 36.5401 41.2447C36.5401 40.801 36.5401 40.3561 36.5401 39.9125C36.5401 39.752 36.4748 39.6989 36.3191 39.7001C35.8914 39.7024 35.4589 39.6989 34.9314 39.6989Z" fill="var(--fill-0, #473DFF)"/>
<path id="Vector_4" d="M43.0304 26.8431C42.2422 26.3333 41.3984 25.9137 40.5151 25.5924C39.0582 25.0791 37.5318 24.7863 35.9871 24.7239C35.3931 24.6956 35.3931 24.6826 35.3931 24.1162V9.70289C35.3931 9.15538 35.3931 9.15538 35.9646 9.15538H42.4993C42.6074 9.15538 42.7156 9.15538 42.8237 9.15538C42.996 9.14476 43.0863 9.2073 43.0732 9.39138C43.0673 9.48341 43.0732 9.57545 43.0732 9.66749C43.0732 15.2244 43.0732 20.7808 43.0732 26.3369C43.0956 26.5067 43.081 26.6794 43.0304 26.8431Z" fill="var(--fill-0, #473DFF)"/>
<path id="Vector_5" d="M39.0898 7.72762C36.6589 7.7701 34.9717 5.79129 35.2949 3.28268C35.5919 0.981735 37.5773 -0.246613 39.7195 0.0412997C41.3306 0.257234 42.4463 1.11035 42.8728 2.68207C43.3053 4.27621 43.0202 5.73701 41.7132 6.87214C40.9908 7.50461 40.1021 7.74532 39.0898 7.72762Z" fill="var(--fill-0, #473DFF)"/>
<path id="Vector_6" d="M60.5032 38.5036C60.3975 38.7113 60.4331 38.8646 60.432 39.0121C60.432 39.549 60.4236 40.0871 60.432 40.624C60.432 40.8269 60.3987 40.9414 60.1563 40.9284C59.8318 40.9113 59.5066 40.9113 59.182 40.9284C58.9444 40.939 58.9004 40.8423 58.9004 40.6311C58.9088 39.1726 58.9004 37.7142 58.9064 36.2557C58.9064 35.9395 58.9147 35.9395 59.2474 35.9312C60.2882 35.9041 60.2882 35.9053 60.9167 36.7171L62.1773 38.349C62.327 38.2522 62.2807 38.1354 62.2819 38.0387C62.2819 37.4404 62.2926 36.841 62.2819 36.2428C62.2819 36.0009 62.3591 35.9183 62.6015 35.9324C62.9104 35.9513 63.2205 35.9442 63.5294 35.9324C63.7195 35.9265 63.8063 35.9796 63.8063 36.1897C63.7991 37.6945 63.7991 39.199 63.8063 40.703C63.8063 40.8564 63.7564 40.9296 63.5972 40.9272C63.2562 40.9272 62.9163 40.919 62.5765 40.9272C62.3876 40.9272 62.3068 40.8092 62.213 40.6912C61.7805 40.1312 61.3448 39.5718 60.906 39.0133C60.786 38.854 60.6613 38.703 60.5032 38.5036Z" fill="var(--fill-0, #473DFF)"/>
<path id="Vector_7" d="M63.3789 44.6548V44.1309C63.3789 43.5928 63.3789 43.0559 63.3789 42.519C63.3789 42.3503 63.4229 42.2653 63.6165 42.2701C63.9872 42.2795 64.3579 42.2701 64.7298 42.2701C64.8653 42.2701 64.9282 42.3255 64.9199 42.4612C64.9199 42.5072 64.9199 42.5532 64.9199 42.5993C64.9199 44.0428 64.9199 45.4855 64.9199 46.9274C64.9199 47.246 64.9128 47.2519 64.5872 47.2519C64.2308 47.2519 63.8435 47.3298 63.5322 47.2106C63.2209 47.0914 63.0937 46.7174 62.8858 46.453C62.4688 45.9268 62.0541 45.3911 61.6216 44.8329C61.5552 44.9479 61.5309 45.0821 61.5527 45.2129C61.5527 45.8123 61.5456 46.4106 61.5527 47.0088C61.5527 47.1834 61.5028 47.2601 61.3151 47.2566C60.9587 47.2483 60.6022 47.2472 60.2458 47.2566C60.0569 47.2566 60.0165 47.1752 60.0177 47.0065C60.0177 45.5185 60.0248 44.0294 60.0177 42.5403C60.0177 42.3043 60.1127 42.2559 60.3194 42.2665C60.5663 42.2836 60.814 42.2836 61.0608 42.2665C61.1738 42.2515 61.2886 42.2695 61.3914 42.3183C61.4942 42.3672 61.5804 42.4447 61.6395 42.5414C62.085 43.1491 62.5567 43.7379 63.0189 44.3326C63.1092 44.4506 63.2042 44.5592 63.2969 44.6725L63.3789 44.6548Z" fill="var(--fill-0, #473DFF)"/>
<path id="Vector_8" d="M56.528 34.5991C56.469 34.5139 56.4444 34.4099 56.4591 34.3076C56.4591 32.85 56.4591 31.3923 56.4591 29.9347C56.4591 29.6161 56.4662 29.6125 56.7894 29.6102C57.4536 29.6102 58.1177 29.6102 58.7819 29.6102C58.9986 29.6087 59.2149 29.6269 59.4282 29.6644C60.7031 29.9158 61.4409 30.8444 61.4196 32.1613C61.3994 33.4097 60.5879 34.3265 59.3261 34.5271C59.1299 34.5635 58.9314 34.5856 58.732 34.5932C57.9882 34.6038 57.248 34.5991 56.528 34.5991ZM58.1296 32.0692C58.1296 32.4043 58.1296 32.7406 58.1296 33.0757C58.1296 33.1666 58.1296 33.2598 58.2353 33.3023C58.6334 33.4557 59.3308 33.222 59.5423 32.8397C59.6682 32.6194 59.7344 32.3704 59.7344 32.117C59.7344 31.8636 59.6682 31.6146 59.5423 31.3943C59.2952 30.9341 58.8603 30.8833 58.3934 30.8963C58.2021 30.8963 58.1165 30.9494 58.126 31.1536C58.1403 31.458 58.1296 31.7636 58.1296 32.0692Z" fill="var(--fill-0, #473DFF)"/>
<path id="Vector_9" d="M49.9684 40.9237C49.5977 40.9237 49.227 40.9155 48.8563 40.9237C48.6508 40.9237 48.5486 40.8883 48.5498 40.6488C48.5593 39.1608 48.5557 37.6729 48.5498 36.185C48.5498 36.028 48.5783 35.9195 48.7755 35.9265C49.6393 35.956 50.5067 35.8605 51.3657 35.982C52.7463 36.1767 53.5483 37.1325 53.5162 38.5201C53.4877 39.8063 52.5918 40.7432 51.2587 40.8801C50.8322 40.9355 50.4009 40.9202 49.9684 40.9237ZM50.2263 38.4293C50.2263 38.7514 50.2263 39.0735 50.2263 39.3968C50.2263 39.4841 50.212 39.5785 50.3296 39.6222C50.6944 39.7603 51.3787 39.5738 51.5879 39.247C51.7339 39.0276 51.8171 38.7729 51.8286 38.5102C51.8401 38.2475 51.7795 37.9866 51.6532 37.7555C51.4156 37.2717 50.9558 37.2033 50.4651 37.2186C50.2857 37.2186 50.2167 37.2847 50.2215 37.4617C50.2322 37.7838 50.2263 38.1059 50.2263 38.4293Z" fill="var(--fill-0, #473DFF)"/>
<path id="Vector_10" d="M50.3244 31.2763C50.6808 30.8397 51.0646 30.4055 51.4104 29.9453C51.4891 29.8251 51.6003 29.7294 51.7311 29.6689C51.862 29.6084 52.0073 29.5856 52.1506 29.6031C52.608 29.6302 53.0666 29.6102 53.6286 29.6102L52.7078 30.6285C52.4809 30.8786 52.2658 31.1406 52.0258 31.3777C51.8666 31.537 51.8642 31.6609 51.9866 31.8497C52.4821 32.6073 52.9621 33.3743 53.448 34.1389C53.5288 34.2663 53.6048 34.3973 53.7308 34.6026C53.2947 34.6026 52.9157 34.5625 52.5426 34.612C51.9486 34.6923 51.5601 34.494 51.3165 33.9336C51.1608 33.5725 50.9113 33.2504 50.7034 32.9105C50.328 33.1524 50.1913 33.4616 50.2127 33.8923C50.246 34.6002 50.221 34.6002 49.5272 34.6002C49.2955 34.6002 49.0638 34.5873 48.8333 34.6002C48.6028 34.6132 48.5446 34.5165 48.5469 34.3053C48.5541 33.4934 48.5469 32.6804 48.5469 31.8674C48.5469 31.209 48.5553 30.5494 48.5469 29.891C48.5469 29.668 48.6159 29.5948 48.838 29.6031C49.2075 29.6184 49.5794 29.6208 49.9489 29.6031C50.1866 29.5913 50.2317 29.6986 50.2258 29.904C50.2139 30.3016 50.2258 30.7004 50.2258 31.0993C50.217 31.1357 50.2222 31.174 50.2405 31.2068C50.2587 31.2395 50.2887 31.2643 50.3244 31.2763Z" fill="var(--fill-0, #473DFF)"/>
<path id="Vector_11" d="M56.1333 40.9237C55.5321 40.9237 54.9297 40.9237 54.3273 40.9237C53.9899 40.9237 53.984 40.9166 53.9828 40.6087C53.9828 39.1526 53.9828 37.6953 53.9768 36.2428C53.9768 36.0009 54.0529 35.9289 54.2941 35.9313C55.4977 35.9419 56.7024 35.9313 57.906 35.9313C58.2256 35.9313 58.2339 35.9395 58.2316 36.2675C58.2316 36.5566 58.3504 36.9153 58.184 37.1159C58.0177 37.3165 57.6339 37.1808 57.3523 37.1915C56.889 37.208 56.4256 37.1915 55.9634 37.1915C55.6545 37.1915 55.6759 37.2021 55.6509 37.4947C55.626 37.7873 55.7697 37.7885 55.9836 37.7862C56.5539 37.7791 57.1254 37.7921 57.6969 37.7791C57.9108 37.7791 58.0106 37.8286 57.9951 38.0599C57.9791 38.3047 57.9791 38.5503 57.9951 38.795C58.0094 39.0015 57.9298 39.0558 57.7314 39.0511C57.1753 39.0405 56.6204 39.0511 56.068 39.0511C55.645 39.0511 55.6414 39.0664 55.6569 39.4428C55.664 39.634 55.7519 39.6659 55.9147 39.6635C56.5789 39.6635 57.243 39.6635 57.906 39.6635C58.3349 39.6635 58.3052 39.6399 58.3052 40.0623C58.3052 40.2617 58.2957 40.4623 58.3052 40.6606C58.3147 40.8588 58.2399 40.9284 58.0391 40.9261C57.3999 40.9178 56.7666 40.9237 56.1333 40.9237Z" fill="var(--fill-0, #473DFF)"/>
<path id="Vector_12" d="M65.6444 31.3317C65.2085 31.1023 64.7477 30.923 64.2709 30.7972C64.1226 30.7535 63.9666 30.7422 63.8135 30.7642C63.7705 30.7682 63.7297 30.7852 63.6968 30.813C63.6639 30.8407 63.6404 30.8779 63.6295 30.9194C63.6186 30.9609 63.6208 31.0048 63.6359 31.045C63.6509 31.0852 63.6781 31.1198 63.7137 31.1441C63.8788 31.2928 64.0975 31.3341 64.3078 31.3919C64.6818 31.4815 65.0469 31.6048 65.3985 31.7601C66.3169 32.2026 66.3632 33.1831 66.0353 33.7955C65.7846 34.2675 65.3497 34.5035 64.8543 34.6038C63.76 34.8315 62.7442 34.592 61.796 34.028C61.6439 33.9371 61.5703 33.8533 61.6772 33.6657C61.8566 33.3471 62.0075 33.0108 62.1667 32.6887C62.3283 32.6557 62.4044 32.7772 62.4982 32.8374C62.9022 33.092 63.3476 33.2749 63.8147 33.3778C63.9495 33.4134 64.0902 33.4211 64.2281 33.4002C64.3529 33.3766 64.4658 33.3271 64.4884 33.1796C64.4975 33.1178 64.4846 33.0548 64.4518 33.0016C64.419 32.9483 64.3685 32.9082 64.3089 32.8881C64.1253 32.8094 63.9358 32.7447 63.7422 32.6946C63.4116 32.622 63.088 32.521 62.7751 32.3925C62.276 32.166 61.9434 31.8026 61.916 31.2373C61.8877 30.9684 61.9346 30.6969 62.0515 30.4527C62.1685 30.2085 62.351 30.0011 62.579 29.8532C62.931 29.6278 63.3369 29.4992 63.7553 29.4804C64.5289 29.4274 65.3028 29.5801 65.9973 29.9229C66.1755 30.0066 66.2646 30.0881 66.1458 30.3016C65.9676 30.6214 65.8226 30.9601 65.6444 31.3317Z" fill="var(--fill-0, #473DFF)"/>
<path id="Vector_13" d="M73.8806 40.9225C73.3673 40.9225 72.8469 40.9225 72.3265 40.9225C72.134 40.9225 72.1186 40.775 72.0698 40.6499C71.9047 40.2287 71.9047 40.2287 71.4603 40.2287C71.0884 40.2287 70.7177 40.2405 70.347 40.2287C70.2579 40.2144 70.1666 40.2342 70.0917 40.2842C70.0167 40.3341 69.9636 40.4104 69.9431 40.4977C69.7862 40.9308 69.7755 40.9272 69.3383 40.9272H68.1252C68.1374 40.7812 68.1812 40.6396 68.2535 40.5119C68.8476 39.1148 69.4524 37.7224 70.0215 36.3159C70.151 35.9973 70.3221 35.9065 70.6393 35.9289C70.9789 35.9466 71.3192 35.9466 71.6587 35.9289C71.7341 35.9187 71.8106 35.9364 71.8737 35.9786C71.9368 36.0208 71.9821 36.0846 72.0009 36.1578C72.6271 37.7071 73.2639 39.2517 73.9019 40.7986C73.9019 40.8199 73.8901 40.8529 73.8806 40.9225ZM71.0005 37.6127C70.808 38.1449 70.6548 38.5697 70.492 39.0181C70.8262 39.0505 71.1629 39.0505 71.4972 39.0181L71.0005 37.6127Z" fill="var(--fill-0, #473DFF)"/>
<path id="Vector_14" d="M71.6253 44.217C71.3877 43.9952 71.2154 43.804 70.9778 43.6837C70.3754 43.3769 69.7398 43.6235 69.5211 44.2595C69.4136 44.5651 69.4136 44.8979 69.5211 45.2035C69.7267 45.7934 70.2697 46.0495 70.8519 45.8371C71.0092 45.7752 71.1581 45.694 71.295 45.5952C71.636 45.3592 71.6337 45.3592 71.9319 45.6731L72.5759 46.3551C71.7584 47.1752 70.8198 47.541 69.7006 47.2897C68.4293 47.0065 67.6249 45.8666 67.7235 44.5533C67.764 43.9349 68.0295 43.3522 68.4707 42.9138C68.9118 42.4755 69.4985 42.2115 70.1212 42.1709C70.5216 42.1355 70.9252 42.1792 71.3086 42.2995C71.692 42.4198 72.0476 42.6143 72.3549 42.8718C72.5378 43.0182 72.564 43.1314 72.3905 43.3132C72.1315 43.594 71.895 43.8949 71.6253 44.217Z" fill="var(--fill-0, #473DFF)"/>
<path id="Vector_15" d="M53.1528 46.3646C52.327 47.1905 51.3706 47.5587 50.2371 47.2826C48.9432 46.9699 48.2172 45.8666 48.3182 44.466C48.4085 43.2636 49.3876 42.3007 50.6565 42.1804C51.0646 42.1377 51.4772 42.1777 51.8693 42.298C52.2614 42.4182 52.6249 42.6163 52.9377 42.8801C53.129 43.0347 53.1278 43.1468 52.9662 43.3202C52.7048 43.5999 52.4636 43.9008 52.1963 44.2135C51.8399 43.8595 51.5048 43.5256 50.9749 43.5527C50.8512 43.5595 50.7301 43.5908 50.6187 43.6447C50.5073 43.6986 50.4079 43.774 50.3262 43.8666C49.9056 44.3138 49.908 45.148 50.3262 45.5999C50.7777 46.0896 51.3254 46.0235 52.2011 45.3521L53.1528 46.3646Z" fill="var(--fill-0, #473DFF)"/>
<path id="Vector_16" d="M67.2636 40.9237C66.7646 40.9237 66.3131 40.9131 65.8723 40.9237C65.6418 40.9308 65.586 40.8435 65.5884 40.6287C65.5991 39.7083 65.5884 38.7891 65.5884 37.8699C65.5807 37.7631 65.5807 37.6558 65.5884 37.549C65.6264 37.2918 65.5005 37.2387 65.2735 37.2505C64.9812 37.2646 64.6866 37.2505 64.3943 37.2505C64.241 37.2505 64.1567 37.1974 64.1709 37.0381C64.1709 37.0227 64.1709 37.0074 64.1709 36.9921C64.1796 36.6562 64.1872 36.3199 64.1935 35.9832C64.5202 35.8534 64.86 35.9301 65.1939 35.9265C66.2419 35.9136 67.291 35.9195 68.3401 35.9265C68.6894 35.9265 68.6965 35.9324 68.6965 36.2805C68.6965 36.5094 68.6858 36.7407 68.6965 36.9696C68.7072 37.1985 68.6098 37.2623 68.3971 37.2528C68.1203 37.241 67.8411 37.2623 67.5654 37.2528C67.3278 37.2398 67.2446 37.3177 67.2482 37.562C67.2613 38.4352 67.2482 39.3083 67.2482 40.1815L67.2636 40.9237Z" fill="var(--fill-0, #473DFF)"/>
<path id="Vector_17" d="M74.2124 38.4222C74.2124 37.7024 74.2124 36.9814 74.2124 36.2605C74.2124 35.9395 74.2207 35.936 74.5475 35.9324C74.8742 35.9289 75.2271 35.9442 75.5669 35.9324C75.8045 35.9206 75.8912 35.9938 75.8865 36.2392C75.8734 37.0062 75.8865 37.7732 75.8865 38.539C75.8865 38.7537 75.8865 38.9685 75.8865 39.1832C75.8865 39.5372 75.8924 39.5372 76.2346 39.5455C76.7277 39.5455 77.222 39.5549 77.7162 39.5455C77.9455 39.5396 78.0133 39.6281 78.0002 39.8428C77.9824 40.1033 77.9824 40.3647 78.0002 40.6252C78.0192 40.8706 77.9253 40.9402 77.6877 40.9379C76.8691 40.9261 76.0516 40.9379 75.233 40.9379C74.9859 40.9379 74.7376 40.9249 74.4916 40.9379C74.2457 40.9508 74.2077 40.8529 74.2112 40.6417C74.2195 39.8948 74.2124 39.1585 74.2124 38.4222Z" fill="var(--fill-0, #473DFF)"/>
<path id="Vector_18" d="M53.541 47.2542C53.4797 47.1679 53.455 47.0611 53.4721 46.9569C53.4721 45.515 53.4721 44.0723 53.4721 42.6288C53.4721 42.2748 53.478 42.2748 53.819 42.2748C54.16 42.2748 54.4998 42.2889 54.8385 42.2689C55.0903 42.2535 55.1497 42.3515 55.1474 42.5839C55.1367 43.4429 55.1474 44.302 55.1474 45.1622C55.1551 45.3001 55.1551 45.4384 55.1474 45.5763C55.1177 45.8229 55.2234 45.8867 55.461 45.8796C55.9696 45.8631 56.4805 45.8796 56.9902 45.8725C57.1625 45.8725 57.2444 45.9209 57.2385 46.1085C57.229 46.4153 57.2278 46.7221 57.2385 47.0289C57.2456 47.2153 57.1684 47.2649 56.9949 47.2649C56.3141 47.2578 55.6345 47.2649 54.9549 47.2649L53.541 47.2542Z" fill="var(--fill-0, #473DFF)"/>
<path id="Vector_19" d="M57.6462 47.2544V44.7765C57.6462 44.0555 57.6462 43.3346 57.6462 42.6148C57.6462 42.2761 57.6521 42.275 58.0026 42.2714C58.3266 42.2714 58.6505 42.2714 58.9745 42.2714C59.3024 42.2714 59.3095 42.2773 59.3107 42.5935C59.3107 43.6162 59.3107 44.6432 59.3107 45.6744C59.3107 46.104 59.3012 46.5335 59.3107 46.963C59.3167 47.1671 59.2787 47.2698 59.0363 47.2591C58.6014 47.2403 58.1547 47.2544 57.6462 47.2544Z" fill="var(--fill-0, #473DFF)"/>
<path id="Vector_20" d="M54.0748 29.6102C54.5726 29.6102 55.0039 29.6196 55.434 29.6102C55.6657 29.6031 55.7714 29.6621 55.7501 29.9158C55.7287 30.1895 55.7501 30.4668 55.7501 30.7418C55.7501 31.8903 55.7501 33.0388 55.7501 34.1873C55.7501 34.6003 55.7501 34.6003 55.3164 34.6026C54.9778 34.6026 54.638 34.6026 54.2993 34.6026C54.1425 34.6026 54.0712 34.5424 54.0795 34.3867C54.0795 34.2946 54.0795 34.2026 54.0795 34.1117V29.6102H54.0748Z" fill="var(--fill-0, #473DFF)"/>
<path id="Vector_21" d="M67.2639 44.761C67.2639 45.4973 67.2556 46.2336 67.2639 46.9699C67.2639 47.1834 67.2187 47.2708 66.9847 47.259C66.5997 47.2401 66.2136 47.2483 65.8274 47.259C65.6504 47.259 65.5898 47.2011 65.5898 47.023C65.5961 45.5213 65.5961 44.0188 65.5898 42.5155C65.5898 42.3397 65.6456 42.2689 65.8274 42.2736C66.2278 42.2818 66.6306 42.2854 67.031 42.2736C67.2223 42.2665 67.2686 42.3444 67.2686 42.5096C67.2603 43.2589 67.2627 44.0129 67.2639 44.761Z" fill="var(--fill-0, #473DFF)"/>
</g>
<defs>
<clipPath id="clip0_0_636">
<rect width="78" height="73" fill="white"/>
</clipPath>
</defs>
</svg>
