<svg preserveAspectRatio="none" width="100%" height="100%" overflow="visible" style="display: block;" viewBox="0 0 15.9965 15.9965" fill="none" xmlns="http://www.w3.org/2000/svg">
<g id="Icon" clip-path="url(#clip0_0_12)">
<path id="Vector" d="M13.1213 15.9965H13.4171C13.6648 15.9885 13.8966 15.8606 14.0405 15.6528L15.8548 13.0384C15.9747 12.8625 16.0226 12.6467 15.9827 12.4308C15.9631 12.3256 15.9226 12.2254 15.8636 12.1361C15.8045 12.0469 15.7281 11.9704 15.639 11.9112L11.7146 9.29681C11.3869 9.08095 10.9473 9.12894 10.6836 9.41678L9.18101 11.0397C8.57353 10.68 7.55847 10.0324 6.75921 9.23291C5.95995 8.43341 5.31254 7.41807 4.95288 6.81846L6.57538 5.31543C6.86311 5.0516 6.91906 4.61189 6.69527 4.28409L4.08168 0.358645C3.9618 0.182759 3.77796 0.0548417 3.57016 0.0148676C3.35436 -0.0251064 3.13856 0.0148677 2.96272 0.142785L0.349138 1.94961C0.14133 2.09352 0.0134483 2.32537 0.00545564 2.57321C-0.0185222 3.14084 -0.122426 8.20156 3.83392 12.151C7.39862 15.7167 11.8585 15.9885 13.1213 15.9885V15.9965Z" fill="var(--fill-0, white)"/>
</g>
<defs>
<clipPath id="clip0_0_12">
<rect width="15.9965" height="15.9965" fill="white"/>
</clipPath>
</defs>
</svg>
