<svg preserveAspectRatio="none" width="100%" height="100%" overflow="visible" style="display: block;" viewBox="0 0 19.9984 19.9984" fill="none" xmlns="http://www.w3.org/2000/svg">
<g id="Icon" clip-path="url(#clip0_0_85)">
<path id="Vector" d="M10.3675 0.416016C14.1515 0.416016 16.0436 0.415809 17.4064 1.31746C18.0149 1.72012 18.5363 2.24149 18.939 2.85003C19.8406 4.2128 19.8404 6.10496 19.8404 9.88894C19.8404 13.6729 19.8406 15.5651 18.939 16.9278C18.5363 17.5364 18.0149 18.0577 17.4064 18.4604C16.0436 19.3621 14.1515 19.3618 10.3675 19.3618C6.58348 19.3618 4.69131 19.3621 3.32855 18.4604C2.72001 18.0577 2.19864 17.5364 1.79598 16.9278C0.894326 15.5651 0.894531 13.6729 0.894531 9.88894C0.894531 6.10496 0.894326 4.2128 1.79598 2.85003C2.19864 2.24149 2.72001 1.72012 3.32855 1.31746C4.69131 0.415809 6.58348 0.416016 10.3675 0.416016ZM10.3685 4.98493C7.66014 4.98505 5.46464 7.18061 5.46448 9.88894C5.46448 12.5974 7.66004 14.7939 10.3685 14.794C13.077 14.794 15.2725 12.5974 15.2725 9.88894C15.2723 7.18054 13.0769 4.98493 10.3685 4.98493ZM10.3685 6.64393C12.1606 6.64393 13.6133 8.09692 13.6135 9.88894C13.6135 11.6811 12.1607 13.1339 10.3685 13.1339C8.57641 13.1338 7.12348 11.681 7.12348 9.88894C7.12363 8.09698 8.57652 6.64404 10.3685 6.64393ZM15.4667 3.58599C14.8305 3.58599 14.3147 4.10198 14.3145 4.73824C14.3145 5.37467 14.8304 5.89049 15.4667 5.89049C16.1031 5.89043 16.6191 5.37463 16.6191 4.73824C16.6188 4.10202 16.103 3.58606 15.4667 3.58599Z" fill="var(--fill-0, white)"/>
</g>
<defs>
<clipPath id="clip0_0_85">
<rect width="19.9984" height="19.9984" fill="white"/>
</clipPath>
</defs>
</svg>
