<svg preserveAspectRatio="none" width="100%" height="100%" overflow="visible" style="display: block;" viewBox="0 0 175 53" fill="none" xmlns="http://www.w3.org/2000/svg">
<g id="Vector">
<path d="M168.259 46.618H171.69L170.007 43.086L168.259 46.618ZM170.612 41.0116L175 50.1594H173.447L172.015 47.1693H168.027L166.558 50.1594H165.777L170.258 41.0116H170.612ZM156.814 41.2265H158.376V47.0198C158.372 47.3882 158.441 47.7536 158.58 48.0944C158.709 48.4268 158.909 48.7267 159.166 48.9727C159.433 49.2323 159.749 49.4356 160.096 49.5707C160.478 49.7215 160.885 49.7945 161.295 49.7856C161.705 49.7953 162.113 49.7222 162.495 49.5707C162.843 49.4397 163.16 49.2359 163.424 48.9727C163.676 48.7239 163.872 48.4246 164.001 48.0944C164.14 47.7536 164.21 47.3882 164.205 47.0198V41.2265H164.884V47.0198C164.887 47.4596 164.812 47.8964 164.661 48.3093C164.501 48.714 164.253 49.0779 163.936 49.3745C163.571 49.7028 163.139 49.9482 162.671 50.094C162.07 50.2857 161.442 50.3773 160.812 50.3649C160.233 50.3736 159.658 50.282 159.11 50.094C158.65 49.9439 158.225 49.6989 157.864 49.3745C157.536 49.074 157.279 48.7037 157.111 48.2906C156.935 47.8807 156.847 47.4382 156.851 46.9918L156.814 41.2265ZM149.961 49.9164C150.451 49.8704 150.928 49.7308 151.365 49.5053C151.769 49.2832 152.123 48.9812 152.407 48.6176C152.7 48.2302 152.914 47.789 153.039 47.3188C153.337 46.2175 153.337 45.0563 153.039 43.955C152.914 43.4763 152.7 43.0259 152.407 42.6281C152.133 42.2662 151.779 41.9721 151.375 41.7685C150.928 41.5652 150.443 41.46 149.952 41.46C149.462 41.46 148.977 41.5652 148.53 41.7685C148.121 41.9665 147.767 42.2615 147.498 42.6281C147.205 43.0259 146.99 43.4763 146.865 43.955C146.722 44.5038 146.653 45.0696 146.661 45.6369C146.654 46.2134 146.723 46.7883 146.865 47.3468C146.99 47.837 147.205 48.2996 147.498 48.7111C147.76 49.1027 148.115 49.4235 148.53 49.6455C148.974 49.8672 149.466 49.9762 149.961 49.9632M154.982 52.9999C154.527 53.0017 154.073 52.961 153.625 52.8785C153.18 52.7973 152.742 52.6849 152.314 52.5421C151.909 52.3875 151.514 52.2065 151.133 52.0001C150.763 51.823 150.403 51.6265 150.054 51.4115C149.745 51.2246 149.45 51.0154 149.171 50.7854C148.942 50.5963 148.728 50.3902 148.53 50.1687C148.007 50.0496 147.511 49.8307 147.07 49.524C146.218 48.924 145.569 48.0762 145.21 47.0946C145.039 46.6247 144.951 46.1281 144.95 45.6276C144.949 45.2106 145.005 44.7955 145.117 44.3942C145.236 44.0063 145.405 43.6356 145.619 43.2916C146.066 42.5941 146.684 42.0244 147.414 41.6377C147.804 41.4364 148.216 41.2797 148.641 41.1705C149.091 41.0571 149.553 41.0006 150.017 41.0023C150.481 40.9995 150.944 41.056 151.393 41.1705C151.819 41.278 152.231 41.4348 152.621 41.6377C152.991 41.833 153.334 42.0747 153.643 42.3572C153.943 42.633 154.206 42.9471 154.424 43.2916C154.639 43.6342 154.805 44.0053 154.917 44.3942C155.037 44.7941 155.096 45.2099 155.094 45.6276C155.092 45.9742 155.048 46.3193 154.964 46.6554C154.876 46.9788 154.754 47.2919 154.601 47.5898C154.436 47.9195 154.24 48.2325 154.015 48.5242C153.784 48.8019 153.525 49.0554 153.244 49.281C152.956 49.5106 152.644 49.708 152.314 49.8697C151.973 50.0294 151.614 50.1455 151.245 50.2154C151.366 50.5534 151.542 50.8691 151.765 51.1498C152.015 51.4544 152.306 51.7218 152.63 51.9441C152.975 52.1903 153.354 52.3854 153.755 52.5234C154.166 52.6734 154.6 52.7493 155.038 52.7477L154.982 52.9999ZM137.624 46.646H141.054L139.362 43.114L137.624 46.646ZM139.967 41.0397L144.355 50.1874H142.765L141.343 47.1973H137.354L135.876 50.1874H135.095L139.585 41.0397H139.967Z" fill="var(--fill-0, #473DFF)"/>
<path d="M156.219 22.0994H159.008C160.014 22.1076 161.017 21.9691 161.983 21.6883C162.831 21.4417 163.63 21.0497 164.345 20.5297C164.997 20.0309 165.531 19.3925 165.907 18.6609C166.288 17.9155 166.483 17.0881 166.474 16.2501C166.477 15.4791 166.322 14.7156 166.018 14.0076C165.731 13.3403 165.306 12.7417 164.773 12.2509C164.231 11.7532 163.6 11.3632 162.913 11.1016C162.138 10.8231 161.319 10.6839 160.496 10.6905H156.275L156.219 22.0994ZM151.468 9.01789H161.36C162.88 8.99439 164.397 9.17349 165.87 9.55049C167.019 9.83749 168.107 10.3348 169.077 11.0175C169.893 11.6032 170.559 12.3749 171.021 13.2694C171.455 14.1391 171.678 15.0997 171.671 16.0726C171.675 16.8897 171.507 17.6985 171.179 18.446C170.83 19.2125 170.338 19.9042 169.728 20.4829C169.074 21.1015 168.331 21.618 167.525 22.0153C166.617 22.4759 165.655 22.8182 164.661 23.0338L175 36.2556H169.468L159.585 23.4356H156.219V36.2462H151.468V9.01789ZM94.0455 34.2466H99.2243C100.438 34.2638 101.649 34.1352 102.832 33.8635C103.732 33.6644 104.588 33.3035 105.361 32.7983C105.989 32.3877 106.501 31.8213 106.848 31.1537C107.171 30.4906 107.336 29.7614 107.332 29.0233C107.336 28.2025 107.188 27.3882 106.895 26.6219C106.601 25.8711 106.117 25.2107 105.491 24.7064C104.732 24.11 103.863 23.6717 102.934 23.4169C101.676 23.081 100.377 22.9237 99.0755 22.9497H94.0455V34.2466ZM94.0455 21.2678H100.126C100.991 21.2815 101.852 21.1488 102.674 20.8754C103.359 20.6455 103.991 20.2801 104.533 19.8008C105.031 19.3438 105.427 18.7867 105.695 18.1656C105.96 17.5133 106.093 16.8145 106.086 16.11C106.098 15.3581 105.939 14.6133 105.621 13.9328C105.28 13.2594 104.775 12.6839 104.152 12.2602C103.385 11.7506 102.531 11.3894 101.632 11.195C100.411 10.9269 99.1632 10.8015 97.9133 10.8213H94.0455V21.2678ZM89.2944 9.01789H100.731C102.131 9.0037 103.527 9.16695 104.887 9.50377C106.036 9.78473 107.132 10.2518 108.131 10.8867C108.973 11.4219 109.687 12.1364 110.223 12.9797C110.725 13.7998 110.986 14.7456 110.977 15.7082C110.985 16.3801 110.901 17.0499 110.725 17.6984C110.562 18.2938 110.28 18.85 109.898 19.3336C109.446 19.885 108.913 20.3639 108.317 20.7539C107.533 21.2727 106.705 21.7229 105.844 22.0994V22.1835C106.805 22.3166 107.744 22.5806 108.634 22.9684C109.411 23.3143 110.123 23.7951 110.735 24.3887C111.309 24.9607 111.767 25.6399 112.083 26.3883C112.404 27.1798 112.562 28.0285 112.548 28.8832C112.553 29.8884 112.314 30.8796 111.85 31.7704C111.359 32.6897 110.673 33.4901 109.842 34.1158C108.9 34.8209 107.838 35.3495 106.709 35.6762C105.379 36.073 103.996 36.2652 102.609 36.2462H89.2944V9.01789ZM66.9336 22.0994H69.7229C70.7292 22.1076 71.7314 21.9691 72.6982 21.6883C73.5466 21.4436 74.3459 21.0515 75.0598 20.5297C75.714 20.0306 76.2506 19.3925 76.6311 18.6609C77.0093 17.9148 77.2008 17.0873 77.1889 16.2501C77.1971 15.4786 77.0418 14.7141 76.7333 14.0076C76.446 13.3426 76.025 12.7446 75.4967 12.2509C74.9418 11.747 74.2944 11.3566 73.5907 11.1016C72.8154 10.8223 71.997 10.6831 71.1734 10.6905H66.9615L66.9336 22.0994ZM62.1732 9.01789H72.0195C73.5394 8.99317 75.0559 9.17229 76.5288 9.55049C77.6814 9.83762 78.7718 10.3349 79.7458 11.0175C80.5589 11.606 81.2243 12.3771 81.689 13.2694C82.1229 14.1391 82.3459 15.0997 82.3398 16.0726C82.3451 16.8909 82.1738 17.7006 81.8377 18.446C81.4936 19.1968 81.0109 19.8754 80.4152 20.4456C79.7627 21.0662 79.0196 21.583 78.2117 21.978C77.3269 22.4287 76.39 22.7677 75.4224 22.9871L85.752 36.2088H80.2292L70.2901 23.4356H66.9336V36.2462H62.1732V9.01789ZM4.76039 34.2466H9.92987C11.1401 34.2623 12.348 34.1337 13.5281 33.8635C14.4274 33.6626 15.2839 33.3019 16.057 32.7983C16.6849 32.3901 17.1948 31.8229 17.5353 31.1537C17.8618 30.492 18.0275 29.7619 18.0188 29.0233C18.0214 28.2035 17.8765 27.3899 17.5911 26.6219C17.2974 25.8687 16.8097 25.2076 16.1779 24.7064C15.4228 24.1101 14.5566 23.6716 13.6303 23.4169C12.3692 23.0801 11.0672 22.9229 9.76251 22.9497H4.74179L4.76039 34.2466ZM4.76039 21.2678H10.8317C11.6969 21.2822 12.5582 21.1495 13.3793 20.8754C14.0652 20.6476 14.6979 20.282 15.2388 19.8008C15.7419 19.349 16.1389 18.7905 16.401 18.1656C16.6733 17.5153 16.8094 16.8155 16.8008 16.11C16.8088 15.3585 16.65 14.6148 16.3359 13.9328C15.9949 13.2594 15.4895 12.6839 14.8669 12.2602C14.0969 11.7507 13.2393 11.3895 12.338 11.195C11.1169 10.9261 9.86881 10.8007 8.6189 10.8213H4.76039V21.2678ZM0 9.01789H11.4454C12.8424 9.00428 14.2357 9.16753 15.5921 9.50377C16.7447 9.78313 17.844 10.2503 18.8463 10.8867C19.6985 11.4179 20.4225 12.1328 20.9662 12.9797C21.4679 13.7998 21.7289 14.7456 21.7193 15.7082C21.7261 16.3794 21.6448 17.0486 21.4775 17.6984C21.3064 18.2814 21.022 18.8245 20.6407 19.2963C20.1828 19.8454 19.6471 20.3239 19.0508 20.7165C18.2608 21.2478 17.4272 21.7104 16.5591 22.0994V22.1835C17.5202 22.3157 18.4587 22.5798 19.3484 22.9684C20.1276 23.3119 20.8393 23.7929 21.4496 24.3887C22.0227 24.9584 22.4806 25.6343 22.7978 26.379C23.1148 27.1717 23.2727 28.0195 23.2627 28.8738C23.265 29.8798 23.0224 30.871 22.556 31.7611C22.0648 32.6779 21.383 33.4778 20.5571 34.1064C19.6144 34.8115 18.553 35.3401 17.4238 35.6669C16.0903 36.0638 14.7048 36.256 13.3142 36.2369H0V9.01789Z" fill="#473DFF"/>
<path fill-rule="evenodd" clip-rule="evenodd" d="M41.8393 7.61629C49.6865 8.08349 55.9252 14.2785 55.9252 21.9219C55.9252 29.8362 49.2309 36.2462 40.9839 36.2462C32.737 36.2462 26.0427 29.8362 26.0427 21.9219C26.0427 14.2785 32.2721 8.03677 40.1193 7.61629C37.9436 13.8394 33.9828 17.4275 33.9828 20.9595C33.9828 25.0521 35.7215 29.1541 40.9468 29.1541C46.172 29.1541 47.9293 25.0521 47.9293 20.9595C47.9293 17.3994 44.0057 13.8394 41.83 7.61629" fill="var(--fill-0, #473DFF)"/>
<path fill-rule="evenodd" clip-rule="evenodd" d="M40.984 0.000958151C41.5491 0.0283846 42.0938 0.221842 42.5507 0.557366C43.0075 0.892889 43.3563 1.35573 43.5539 1.88855C43.7516 2.42137 43.7893 3.00076 43.6625 3.55492C43.5356 4.10909 43.2498 4.61368 42.8404 5.00619C42.431 5.39869 41.916 5.66187 41.3593 5.7631C40.8025 5.86434 40.2284 5.79918 39.7081 5.57571C39.1878 5.35223 38.7442 4.98027 38.4322 4.50589C38.1202 4.03151 37.9536 3.47556 37.9529 2.90693C37.9614 2.51589 38.0466 2.13037 38.2036 1.77249C38.3606 1.41461 38.5864 1.0914 38.868 0.821418C39.1496 0.551432 39.4815 0.339978 39.8446 0.199184C40.2077 0.0583898 40.5949 -0.0089737 40.984 0.000958151Z" fill="var(--fill-0, #473DFF)"/>
<path fill-rule="evenodd" clip-rule="evenodd" d="M132.008 7.61629C139.864 8.03677 146.094 14.2785 146.094 21.9219C146.094 29.8362 139.399 36.2462 131.152 36.2462C122.905 36.2462 116.211 29.8362 116.211 21.9219C116.211 14.2785 122.44 8.03677 130.288 7.61629C128.112 13.8394 124.17 17.4275 124.17 20.9595C124.17 25.0521 125.909 29.1541 131.134 29.1541C136.359 29.1541 138.116 25.0521 138.116 20.9595C138.116 17.3994 134.193 13.8394 132.008 7.61629Z" fill="var(--fill-0, #473DFF)"/>
<path fill-rule="evenodd" clip-rule="evenodd" d="M131.152 0.00095815C131.718 0.0283846 132.262 0.221842 132.719 0.557366C133.176 0.892889 133.525 1.35573 133.722 1.88855C133.92 2.42137 133.958 3.00076 133.831 3.55492C133.704 4.10909 133.418 4.61368 133.009 5.00619C132.599 5.39869 132.084 5.66187 131.528 5.7631C130.971 5.86434 130.397 5.79918 129.877 5.57571C129.356 5.35223 128.913 4.98027 128.601 4.50589C128.289 4.03151 128.122 3.47556 128.121 2.90693C128.141 2.11797 128.471 1.36898 129.039 0.824221C129.607 0.279461 130.367 -0.0166032 131.152 0.00095815Z" fill="var(--fill-0, #473DFF)"/>
</g>
</svg>
