<svg preserveAspectRatio="xMidYMid meet" width="100%" height="100%" overflow="visible" style="display: block;" viewBox="0 0 17.0012 32.0069" fill="none" xmlns="http://www.w3.org/2000/svg">
<path id="Vector" d="M16.0012 5.51326C16.003 4.91331 15.8848 4.31905 15.6535 3.76546C15.4222 3.21186 15.0826 2.7101 14.6546 2.28968C14.2266 1.86926 13.7188 1.53867 13.1612 1.31736C12.6035 1.09604 12.0073 0.988475 11.4075 1.00098C10.8076 1.01348 10.2164 1.1458 9.66842 1.39016C9.12048 1.63452 8.62693 1.98598 8.21681 2.42387C7.80669 2.86176 7.48827 3.37724 7.28029 3.93999C7.0723 4.50274 6.97894 5.1014 7.00571 5.70076C6.12401 5.92746 5.30546 6.35183 4.61206 6.94173C3.91865 7.53162 3.36857 8.27157 3.00348 9.10553C2.63838 9.93949 2.46785 10.8456 2.50479 11.7552C2.54174 12.6649 2.78519 13.5542 3.21671 14.3558C2.45798 14.9722 1.86135 15.7646 1.47872 16.6642C1.09609 17.5637 0.939047 18.5431 1.02126 19.5172C1.10347 20.4913 1.42244 21.4306 1.95042 22.2533C2.4784 23.076 3.19941 23.7572 4.05071 24.2378C3.94558 25.0511 4.00832 25.8774 4.23504 26.6655C4.46176 27.4537 4.84765 28.187 5.36889 28.8202C5.89012 29.4534 6.53563 29.973 7.26554 30.3469C7.99545 30.7208 8.79428 30.9412 9.61267 30.9943C10.4311 31.0474 11.2517 30.9321 12.0238 30.6557C12.7959 30.3792 13.5032 29.9474 14.1018 29.3869C14.7005 28.8264 15.178 28.1491 15.5047 27.3969C15.8313 26.6446 16.0003 25.8334 16.0012 25.0133V5.51326Z" stroke="var(--stroke-0, white)" stroke-width="2" stroke-linecap="round" stroke-linejoin="round"/>
</svg>
