<svg preserveAspectRatio="none" width="100%" height="100%" overflow="visible" style="display: block;" viewBox="0 0 55 44" fill="none" xmlns="http://www.w3.org/2000/svg">
<path id="Vector" d="M41.9394 16.4995H28.8769V21.3124C28.8769 24.7244 26.1011 27.5005 22.6894 27.5005C19.2777 27.5005 16.5019 24.7244 16.5019 21.3124V10.8616L10.9246 14.2134C9.266 15.2018 8.25194 16.998 8.25194 18.9232V22.9884L1.37696 26.959C0.0621162 27.7153 -0.393352 29.3998 0.371491 30.7148L7.24648 42.6267C8.00273 43.9417 9.6871 44.3886 11.0019 43.6323L19.8879 38.5014H31.6269C34.6605 38.5014 37.1269 36.0348 37.1269 33.0009H38.5019C40.023 33.0009 41.2519 31.7719 41.2519 30.2507V24.7502H41.9394C43.0823 24.7502 44.0019 23.8306 44.0019 22.6876V18.5622C44.0019 17.4191 43.0823 16.4995 41.9394 16.4995ZM54.6323 13.2852L47.7573 1.37326C47.0011 0.0583021 45.3167 -0.388611 44.0019 0.367703L35.116 5.49861H26.3332C25.3019 5.49861 24.2964 5.79082 23.4199 6.33227L20.541 8.12852C19.7332 8.627 19.2519 9.51223 19.2519 10.4576V21.3124C19.2519 23.2118 20.7902 24.7502 22.6894 24.7502C24.5886 24.7502 26.1269 23.2118 26.1269 21.3124V13.7493H41.9394C44.5948 13.7493 46.7519 15.9065 46.7519 18.5622V21.0116L53.6269 17.041C54.9417 16.2761 55.3886 14.6002 54.6323 13.2852Z" fill="var(--fill-0, #FF7500)"/>
</svg>
