<svg preserveAspectRatio="none" width="100%" height="100%" overflow="visible" style="display: block;" viewBox="0 0 101 95" fill="none" xmlns="http://www.w3.org/2000/svg">
<g id="Layer_1" clip-path="url(#clip0_0_686)">
<path id="Vector" d="M18.2407 21.2109C18.3946 20.8885 18.5084 20.6781 18.6084 20.4646C20.9479 15.5231 23.2844 10.5801 25.6178 5.63557C25.8085 5.22864 26.0239 5.10579 26.4655 5.10886C29.6886 5.12883 32.9102 5.11961 36.1333 5.11961C36.2132 5.12576 36.2934 5.12576 36.3733 5.11961C36.7087 5.06587 36.7949 5.23478 36.7595 5.52808C36.7541 5.62782 36.7541 5.72777 36.7595 5.82751V32.5619C36.7595 33.2422 36.7595 33.2483 36.0964 33.4111C33.6656 34.0054 31.3363 34.9021 28.9932 35.759C28.8394 35.8143 28.6932 35.868 28.5409 35.9125C28.5086 35.9233 28.4655 35.9033 28.3778 35.8895V19.3667C28.2001 19.5321 28.0663 19.7389 27.9886 19.9686C25.9291 24.1618 23.8731 28.3534 21.8208 32.5435C21.6454 32.9028 21.4546 33.0687 21.0208 33.061C19.1592 33.0318 17.2976 33.0349 15.4361 33.061C15.0161 33.061 14.8207 32.9443 14.6376 32.5496C12.7771 28.3329 10.8991 24.1234 9.00366 19.921C8.93922 19.6999 8.81897 19.499 8.65443 19.3375C8.60827 27.3717 8.86212 35.3367 8.72366 43.357C8.90764 43.2889 9.06394 43.162 9.16828 42.9962C10.7591 41.2272 12.3529 39.4643 13.9268 37.6754C14.0404 37.5295 14.1875 37.413 14.3556 37.3358C14.5238 37.2585 14.7081 37.2228 14.893 37.2316C18.2161 37.2485 21.5377 37.2408 24.8608 37.2408H25.5547C25.3455 37.4758 25.2224 37.6201 25.0931 37.7583L17.1853 46.1318C16.793 46.548 16.793 46.5479 17.0961 47.0639C19.7628 51.6328 22.4295 56.2011 25.0962 60.7689C25.2178 60.9275 25.309 61.1071 25.3655 61.2987C25.2116 61.4123 25.0578 61.3586 24.9039 61.3586C21.3208 61.3586 17.7376 61.3586 14.1545 61.3709C13.7668 61.3709 13.5668 61.2772 13.3853 60.9102C12.356 58.7481 11.2899 56.6106 10.236 54.4608C10.1391 54.2642 10.0391 54.0707 9.92829 53.8465C9.57136 54.1982 9.24367 54.5345 8.89905 54.8554C8.70827 55.0335 8.7452 55.2516 8.7452 55.4697C8.7452 57.2673 8.7452 59.0655 8.7452 60.8641C8.7452 61.3954 8.80828 61.3739 8.22211 61.3739H0.529687C0.469686 61.3739 0.408147 61.3739 0.349685 61.3739C0.108142 61.3985 -0.0364753 61.3279 -0.00262859 61.0484C0.00430379 60.9287 0.00430379 60.8088 -0.00262859 60.6891C0.00660232 42.4004 0.0122434 24.1157 0.0142947 5.83519C0.0142947 5.02287 -0.108784 5.12576 0.697382 5.12422C3.80051 5.12422 6.90209 5.12422 10.0052 5.11347C10.4191 5.11347 10.6206 5.2271 10.8114 5.61714C13.1622 10.5965 15.5258 15.5702 17.9023 20.5383C18.0007 20.7303 18.0946 20.9176 18.2407 21.2109Z" fill="var(--fill-0, #473DFF)"/>
<path id="Vector_2" d="M18.9846 93.3846C17.756 92.9791 16.5649 92.4684 15.4245 91.8582C7.38439 87.5371 2.38585 80.9249 0.513514 71.9878C0.0904311 69.9686 -0.0249553 67.9124 0.00427593 65.8455C0.00427593 65.5384 0.099662 65.4217 0.413513 65.434C0.933521 65.454 1.45507 65.434 1.97508 65.434H17.2307C17.9722 65.434 17.8984 65.3495 17.8984 66.1112C17.8984 68.1888 17.8984 70.268 17.8984 72.3456C17.8984 72.8708 17.8984 72.8769 18.4153 72.8769H27.0031C27.5093 72.8769 27.5139 72.8769 27.5155 72.3456C27.5155 70.288 27.5155 68.2298 27.5155 66.1711C27.5155 66.0313 27.5155 65.8916 27.5155 65.7519C27.5016 65.5261 27.5924 65.4248 27.8232 65.4309C28.1832 65.4417 28.5447 65.4401 28.9001 65.4309C29.1016 65.4309 29.1986 65.5031 29.1893 65.7089C29.1893 65.8486 29.1893 65.9884 29.1893 66.1281C29.1893 68.1878 29.1893 70.246 29.1893 72.3026C29.1893 72.8708 29.1893 72.8769 29.7247 72.8769H38.3233C38.8341 72.8769 38.8387 72.8693 38.8402 72.3426C38.8402 70.2849 38.8402 68.2267 38.8402 66.168C38.8402 66.0283 38.8402 65.8885 38.8402 65.7488C38.831 65.5215 38.9295 65.4171 39.1603 65.4325C39.2803 65.4401 39.4003 65.4325 39.5218 65.4325H56.0374C56.1174 65.4325 56.1913 65.4325 56.2774 65.4325C56.7067 65.4432 56.7144 65.4432 56.719 65.8594C56.7514 67.2376 56.6928 68.6164 56.5436 69.987C56.0914 73.8677 54.8277 77.6103 52.8343 80.9725C49.6363 86.347 45.1583 90.2725 39.4003 92.7488C39.2213 92.855 39.0176 92.9127 38.8095 92.9162C38.6095 92.3143 38.5956 91.6693 38.4526 91.049C38.3895 90.7772 38.3602 90.4977 38.3156 90.2228C38.2341 89.7253 38.2264 89.7192 37.7587 89.7975L30.0663 91.0889C29.6755 91.1549 29.6693 91.158 29.7324 91.5404C29.8863 92.4847 30.0493 93.4291 30.2047 94.375C30.2309 94.5286 30.2463 94.6898 30.2724 94.8987C29.4922 94.9653 28.7092 94.9924 27.9262 94.98C27.6185 94.9678 27.5708 94.8142 27.6093 94.5516C27.7555 93.5642 27.8909 92.5753 28.0293 91.5864C28.0385 91.5281 28.0555 91.4697 28.0647 91.4098C28.1247 90.9614 28.1062 90.9277 27.6739 90.8647C26.7831 90.7357 25.8924 90.6159 25 90.49L20.1307 89.8051C20.0723 89.7959 20.0123 89.7837 19.9538 89.7775C19.5353 89.7345 19.5123 89.7499 19.4553 90.1568C19.323 91.1058 19.1953 92.0548 19.063 93.0038C19.0553 93.1143 19.0246 93.2095 18.9846 93.3846Z" fill="var(--fill-0, #473DFF)"/>
<path id="Vector_3" d="M47.3117 47.0762C47.2579 46.0719 46.8363 45.3748 46.004 44.9371C45.3566 44.6183 44.6444 44.4523 43.9224 44.4519C42.4301 44.4043 40.9747 44.6607 39.5301 44.9955C38.5374 45.2187 37.5609 45.5081 36.6069 45.8615C36.33 45.9659 36.2023 45.9429 36.0962 45.6174C35.4561 43.6457 34.7931 41.6802 34.1207 39.7192C34.0115 39.4044 34.1207 39.3015 34.3931 39.2094C37.0639 38.2881 39.7777 37.5832 42.5901 37.2393C44.444 37.012 46.2963 36.9321 48.1563 37.1348C49.921 37.336 51.6148 37.7644 53.1533 38.6812C55.5949 40.1338 56.8349 42.3174 57.058 45.1122C57.0842 45.45 57.0857 45.7909 57.0857 46.1287C57.0857 51.062 57.0857 55.9963 57.0857 60.9317C57.0857 61.0714 57.0857 61.2112 57.0857 61.3509C57.0857 61.526 57.0165 61.6089 56.838 61.5966C56.758 61.5966 56.6842 61.5966 56.598 61.5966H47.8286C47.264 61.5966 47.3163 61.6258 47.3148 61.0745V59.2318C47.2086 59.155 47.1609 59.2195 47.1102 59.2794C45.8594 60.815 44.1994 61.6196 42.2778 61.9083C40.4101 62.1893 38.5639 62.0895 36.79 61.3816C34.3469 60.405 32.9838 58.5608 32.5469 56.0071C32.3026 54.6652 32.379 53.2846 32.7699 51.9777C33.2746 50.3208 34.3346 49.1262 35.8469 48.3246C37.0639 47.6812 38.3808 47.3695 39.7393 47.2036C41.4947 46.9886 43.2578 47.1053 45.0163 47.0777C45.7625 47.067 46.5009 47.0762 47.3117 47.0762ZM45.2317 51.6629C44.6378 51.7029 43.9163 51.5923 43.204 51.7428C42.7854 51.812 42.4061 52.0302 42.1362 52.357C41.2532 53.4718 41.8639 55.2746 43.2393 55.6309C44.6147 55.9871 46.4871 55.2132 47.2132 54.0078C47.2786 53.9088 47.3139 53.7931 47.3148 53.6745C47.3148 53.0972 47.3148 52.5183 47.3148 51.9409C47.3148 51.732 47.2302 51.6629 47.0286 51.6645C46.4748 51.6675 45.9148 51.6629 45.2317 51.6629Z" fill="var(--fill-0, #473DFF)"/>
<path id="Vector_4" d="M55.7189 34.9328C54.6982 34.2693 53.6056 33.7233 52.4619 33.3051C50.5753 32.6372 48.5988 32.2562 46.5987 32.1749C45.8295 32.1381 45.8295 32.1212 45.8295 31.3841V12.627C45.8295 11.9145 45.8295 11.9145 46.5695 11.9145H55.0312C55.1712 11.9145 55.3112 11.9145 55.4512 11.9145C55.6743 11.9007 55.7912 11.9821 55.7743 12.2217C55.7666 12.3414 55.7743 12.4612 55.7743 12.581C55.7743 19.8125 55.7743 27.0436 55.7743 34.2741C55.8033 34.4951 55.7844 34.7197 55.7189 34.9328Z" fill="var(--fill-0, #473DFF)"/>
<path id="Vector_5" d="M50.6163 10.0565C47.4685 10.1118 45.2839 7.53661 45.7024 4.27198C46.087 1.2776 48.6578 -0.320935 51.4317 0.0537462C53.5179 0.334757 54.9625 1.44498 55.5148 3.49037C56.0748 5.56493 55.7056 7.46598 54.0133 8.9432C53.0779 9.76627 51.9271 10.0795 50.6163 10.0565Z" fill="var(--fill-0, #473DFF)"/>
<path id="Vector_6" d="M78.3439 50.1074C78.207 50.3777 78.2532 50.5773 78.2516 50.7692C78.2516 51.4679 78.2409 52.1681 78.2516 52.8668C78.2516 53.131 78.2086 53.2799 77.8947 53.263C77.4745 53.2407 77.0534 53.2407 76.6331 53.263C76.3254 53.2768 76.2685 53.1509 76.2685 52.876C76.2793 50.9781 76.2685 49.0801 76.2762 47.1821C76.2762 46.7706 76.287 46.7706 76.7178 46.7598C78.0655 46.7245 78.0655 46.7261 78.8793 47.7825L80.5117 49.9062C80.7055 49.7803 80.6455 49.6283 80.6471 49.5024C80.6471 48.7238 80.6609 47.9438 80.6471 47.1652C80.6471 46.8504 80.7471 46.7429 81.0609 46.7614C81.4609 46.7859 81.8625 46.7767 82.2625 46.7614C82.5086 46.7537 82.6209 46.8228 82.6209 47.0961C82.6117 49.0545 82.6117 51.0124 82.6209 52.9697C82.6209 53.1693 82.5563 53.2645 82.3502 53.2615C81.9086 53.2615 81.4686 53.2507 81.0286 53.2615C80.784 53.2615 80.6794 53.1079 80.5578 52.9544C79.9978 52.2255 79.4337 51.4976 78.8655 50.7708C78.7101 50.5635 78.5486 50.3669 78.3439 50.1074Z" fill="var(--fill-0, #473DFF)"/>
<path id="Vector_7" d="M82.0675 58.1124V57.4306C82.0675 56.7304 82.0675 56.0317 82.0675 55.333C82.0675 55.1134 82.1245 55.0028 82.3752 55.009C82.8552 55.0213 83.3353 55.009 83.8168 55.009C83.9922 55.009 84.0737 55.0811 84.063 55.2577C84.063 55.3176 84.063 55.3775 84.063 55.4374C84.063 57.3159 84.063 59.1934 84.063 61.0699C84.063 61.4845 84.0537 61.4922 83.6322 61.4922C83.1706 61.4922 82.6691 61.5935 82.266 61.4384C81.8629 61.2833 81.6983 60.7966 81.4291 60.4526C80.8891 59.7677 80.3521 59.0706 79.7921 58.3442C79.7061 58.4939 79.6746 58.6685 79.7029 58.8387C79.7029 59.6188 79.6937 60.3973 79.7029 61.1759C79.7029 61.4031 79.6383 61.5029 79.3952 61.4983C78.9337 61.4876 78.4721 61.486 78.0106 61.4983C77.7659 61.4983 77.7136 61.3924 77.7152 61.1728C77.7152 59.2364 77.7244 57.2985 77.7152 55.3606C77.7152 55.0535 77.8382 54.9905 78.1059 55.0044C78.4256 55.0266 78.7463 55.0266 79.066 55.0044C79.2122 54.9848 79.3609 55.0082 79.494 55.0718C79.6271 55.1353 79.7387 55.2363 79.8152 55.3622C80.3921 56.153 81.0029 56.9192 81.6014 57.6932C81.7183 57.8467 81.8414 57.988 81.9614 58.1354L82.0675 58.1124Z" fill="var(--fill-0, #473DFF)"/>
<path id="Vector_8" d="M73.1965 45.0262C73.1201 44.9154 73.0883 44.78 73.1073 44.6469C73.1073 42.75 73.1073 40.853 73.1073 38.9561C73.1073 38.5414 73.1165 38.5368 73.535 38.5338C74.395 38.5338 75.255 38.5338 76.115 38.5338C76.3956 38.5319 76.6757 38.5555 76.9519 38.6044C78.6027 38.9315 79.5581 40.14 79.5304 41.8537C79.5043 43.4783 78.4535 44.6715 76.8196 44.9325C76.5657 44.98 76.3086 45.0087 76.0504 45.0185C75.0873 45.0323 74.1288 45.0262 73.1965 45.0262ZM75.2704 41.7339C75.2704 42.17 75.2704 42.6077 75.2704 43.0438C75.2704 43.162 75.2704 43.2833 75.4073 43.3386C75.9227 43.5382 76.8258 43.2342 77.0996 42.7366C77.2627 42.4499 77.3484 42.1258 77.3484 41.7961C77.3484 41.4664 77.2627 41.1423 77.0996 40.8556C76.7796 40.2567 76.2166 40.1907 75.6119 40.2075C75.3642 40.2075 75.2535 40.2766 75.2658 40.5423C75.2842 40.9385 75.2704 41.3362 75.2704 41.7339Z" fill="var(--fill-0, #473DFF)"/>
<path id="Vector_9" d="M64.7027 53.2569C64.2227 53.2569 63.7427 53.2461 63.2627 53.2569C62.9965 53.2569 62.8642 53.2108 62.8658 52.8991C62.8781 50.9627 62.8734 49.0264 62.8658 47.09C62.8658 46.8858 62.9027 46.7445 63.1581 46.7537C64.2765 46.7921 65.3996 46.6677 66.512 46.8259C68.2997 47.0793 69.3382 48.3231 69.2966 50.1289C69.2597 51.8027 68.0997 53.0219 66.3735 53.2001C65.8212 53.2722 65.2627 53.2523 64.7027 53.2569ZM65.0366 50.0107C65.0366 50.4299 65.0366 50.8491 65.0366 51.2698C65.0366 51.3835 65.0181 51.5063 65.1704 51.5631C65.6427 51.7428 66.5289 51.5002 66.7997 51.0748C66.9888 50.7894 67.0965 50.4579 67.1114 50.116C67.1263 49.7741 67.0478 49.4346 66.8843 49.1339C66.5766 48.5043 65.9812 48.4152 65.3458 48.4352C65.1135 48.4352 65.0242 48.5212 65.0304 48.7515C65.0442 49.1707 65.0366 49.5899 65.0366 50.0107Z" fill="var(--fill-0, #473DFF)"/>
<path id="Vector_10" d="M65.1636 40.702C65.6252 40.1338 66.1221 39.5687 66.5698 38.9699C66.6718 38.8135 66.8157 38.6889 66.9852 38.6102C67.1546 38.5315 67.3428 38.5018 67.5283 38.5245C68.1206 38.5599 68.7145 38.5338 69.4422 38.5338L68.2498 39.859C67.956 40.1845 67.6775 40.5254 67.3668 40.8341C67.1606 41.0414 67.1575 41.2026 67.316 41.4483C67.9575 42.4341 68.5791 43.4322 69.2083 44.4273C69.3129 44.5931 69.4114 44.7636 69.5745 45.0308C69.0099 45.0308 68.5191 44.9786 68.036 45.0431C67.2668 45.1475 66.7637 44.8895 66.4483 44.1601C66.2467 43.6902 65.9237 43.271 65.6544 42.8288C65.1683 43.1436 64.9913 43.5459 65.019 44.1064C65.0621 45.0277 65.0298 45.0277 64.1313 45.0277C63.8313 45.0277 63.5313 45.0108 63.2328 45.0277C62.9344 45.0446 62.859 44.9187 62.8621 44.6438C62.8713 43.5873 62.8621 42.5293 62.8621 41.4713C62.8621 40.6145 62.8728 39.7561 62.8621 38.8992C62.8621 38.609 62.9513 38.5138 63.239 38.5245C63.7175 38.5445 64.199 38.5476 64.6775 38.5245C64.9852 38.5092 65.0436 38.6489 65.0359 38.9161C65.0206 39.4336 65.0359 39.9526 65.0359 40.4717C65.0246 40.519 65.0314 40.5689 65.055 40.6116C65.0786 40.6542 65.1174 40.6865 65.1636 40.702Z" fill="var(--fill-0, #473DFF)"/>
<path id="Vector_11" d="M72.6854 53.2569C71.907 53.2569 71.127 53.2569 70.3469 53.2569C69.91 53.2569 69.9023 53.2477 69.9008 52.8469C69.9008 50.952 69.9008 49.0555 69.8931 47.1652C69.8931 46.8505 69.9916 46.7568 70.3039 46.7599C71.8624 46.7737 73.4224 46.7599 74.9809 46.7599C75.3947 46.7599 75.4055 46.7706 75.4024 47.1975C75.4024 47.5737 75.5563 48.0405 75.3409 48.3016C75.1255 48.5626 74.6285 48.386 74.2639 48.3999C73.6639 48.4214 73.0639 48.3999 72.4654 48.3999C72.0654 48.3999 72.0931 48.4137 72.0608 48.7945C72.0285 49.1753 72.2147 49.1769 72.4916 49.1738C73.2301 49.1646 73.9701 49.1815 74.7101 49.1646C74.987 49.1646 75.1162 49.2291 75.0962 49.53C75.0755 49.8486 75.0755 50.1681 75.0962 50.4867C75.1147 50.7554 75.0116 50.8261 74.7547 50.8199C74.0347 50.8061 73.3162 50.8199 72.6008 50.8199C72.0531 50.8199 72.0485 50.8399 72.0685 51.3297C72.0777 51.5785 72.1916 51.62 72.4024 51.6169C73.2624 51.6169 74.1224 51.6169 74.9809 51.6169C75.5363 51.6169 75.4978 51.5862 75.4978 52.1359C75.4978 52.3954 75.4855 52.6565 75.4978 52.9144C75.5101 53.1724 75.4132 53.263 75.1532 53.26C74.3255 53.2492 73.5055 53.2569 72.6854 53.2569Z" fill="var(--fill-0, #473DFF)"/>
<path id="Vector_12" d="M85.0011 40.7742C84.4367 40.4756 83.84 40.2423 83.2226 40.0786C83.0306 40.0216 82.8285 40.007 82.6303 40.0356C82.5746 40.0407 82.5218 40.0629 82.4792 40.0991C82.4366 40.1352 82.4062 40.1836 82.392 40.2376C82.3779 40.2916 82.3808 40.3487 82.4003 40.401C82.4198 40.4533 82.455 40.4984 82.5011 40.53C82.7149 40.7235 82.998 40.7773 83.2703 40.8525C83.7547 40.9691 84.2274 41.1295 84.6826 41.3316C85.8719 41.9074 85.9319 43.1835 85.5073 43.9805C85.1826 44.5947 84.6195 44.9018 83.978 45.0323C82.5611 45.3287 81.2456 45.017 80.0179 44.283C79.821 44.1647 79.7256 44.0557 79.8641 43.8116C80.0964 43.3969 80.2918 42.9593 80.4979 42.5401C80.7072 42.4971 80.8056 42.6553 80.9272 42.7336C81.4502 43.0649 82.027 43.3029 82.6318 43.4369C82.8064 43.4832 82.9886 43.4932 83.1672 43.4661C83.3288 43.4353 83.4749 43.3708 83.5041 43.1789C83.516 43.0985 83.4993 43.0166 83.4568 42.9473C83.4144 42.8779 83.3489 42.8257 83.2718 42.7996C83.034 42.6972 82.7886 42.613 82.538 42.5478C82.1099 42.4533 81.6908 42.3218 81.2856 42.1547C80.6395 41.8598 80.2087 41.3869 80.1733 40.6513C80.1366 40.3013 80.1973 39.948 80.3488 39.6302C80.5002 39.3124 80.7366 39.0425 81.0318 38.8501C81.4876 38.5568 82.0131 38.3893 82.5549 38.3649C83.5567 38.2959 84.5588 38.4947 85.458 38.9407C85.6888 39.0497 85.8042 39.1557 85.6503 39.4336C85.4196 39.8498 85.2319 40.2905 85.0011 40.7742Z" fill="var(--fill-0, #473DFF)"/>
<path id="Vector_13" d="M95.6659 53.2553C95.0012 53.2553 94.3274 53.2553 93.6535 53.2553C93.4043 53.2553 93.3843 53.0634 93.3212 52.9006C93.1074 52.3524 93.1074 52.3524 92.532 52.3524C92.0504 52.3524 91.5704 52.3678 91.0904 52.3524C90.975 52.3338 90.8568 52.3596 90.7597 52.4246C90.6626 52.4896 90.5939 52.5889 90.5673 52.7025C90.3642 53.2661 90.3504 53.2615 89.7842 53.2615H88.2134C88.2293 53.0715 88.2859 52.8871 88.3796 52.721C89.1488 50.9028 89.9319 49.0908 90.6689 47.2604C90.8366 46.8458 91.0581 46.7276 91.4689 46.7568C91.9086 46.7798 92.3492 46.7798 92.7889 46.7568C92.8865 46.7435 92.9856 46.7666 93.0673 46.8215C93.149 46.8764 93.2076 46.9594 93.232 47.0547C94.0428 49.0709 94.8674 51.081 95.6935 53.0941C95.6935 53.1217 95.6782 53.1647 95.6659 53.2553ZM91.9366 48.948C91.6873 49.6406 91.4889 50.1934 91.2781 50.7769C91.7109 50.8191 92.1468 50.8191 92.5797 50.7769L91.9366 48.948Z" fill="var(--fill-0, #473DFF)"/>
<path id="Vector_14" d="M92.7456 57.5427C92.4379 57.254 92.2149 57.0052 91.9072 56.8486C91.1271 56.4494 90.3041 56.7703 90.021 57.598C89.8817 57.9957 89.8817 58.4287 90.021 58.8264C90.2871 59.5942 90.9902 59.9274 91.7441 59.651C91.9478 59.5705 92.1406 59.4648 92.3179 59.3362C92.7595 59.0291 92.7564 59.0291 93.1426 59.4376L93.9764 60.3252C92.9179 61.3924 91.7025 61.8684 90.2533 61.5413C88.6071 61.1728 87.5656 59.6894 87.6932 57.9803C87.7457 57.1755 88.0895 56.4172 88.6608 55.8468C89.232 55.2763 89.9916 54.9327 90.7979 54.88C91.3165 54.8338 91.8391 54.8907 92.3355 55.0472C92.8319 55.2038 93.2924 55.457 93.6903 55.7921C93.9272 55.9825 93.961 56.13 93.7364 56.3664C93.401 56.7319 93.0949 57.1235 92.7456 57.5427Z" fill="var(--fill-0, #473DFF)"/>
<path id="Vector_15" d="M68.826 60.3374C67.7568 61.4123 66.5183 61.8914 65.0506 61.5321C63.3752 61.1252 62.4352 59.6894 62.5659 57.8667C62.6828 56.3019 63.9506 55.0489 65.5937 54.8923C66.1221 54.8367 66.6564 54.8888 67.1641 55.0453C67.6719 55.2018 68.1425 55.4595 68.5475 55.8029C68.7952 56.004 68.7937 56.1499 68.5845 56.3757C68.246 56.7396 67.9337 57.1312 67.5875 57.5381C67.126 57.0774 66.6921 56.6428 66.006 56.6782C65.8458 56.6871 65.689 56.7278 65.5447 56.7979C65.4005 56.868 65.2717 56.9662 65.166 57.0866C64.6213 57.6686 64.6244 58.7543 65.166 59.3424C65.7506 59.9797 66.4598 59.8937 67.5937 59.0199L68.826 60.3374Z" fill="var(--fill-0, #473DFF)"/>
<path id="Vector_16" d="M87.0978 53.2569C86.4516 53.2569 85.867 53.2431 85.2962 53.2569C84.9978 53.2661 84.9255 53.1525 84.9285 52.873C84.9424 51.6752 84.9285 50.479 84.9285 49.2828C84.9185 49.1438 84.9185 49.0042 84.9285 48.8651C84.9778 48.5304 84.8147 48.4613 84.5208 48.4766C84.1424 48.4951 83.7608 48.4766 83.3824 48.4766C83.1839 48.4766 83.0747 48.4075 83.0931 48.2002C83.0931 48.1803 83.0931 48.1603 83.0931 48.1403C83.1044 47.7032 83.1141 47.2656 83.1224 46.8274C83.5454 46.6585 83.9854 46.7583 84.4178 46.7537C85.7747 46.7368 87.1332 46.7445 88.4917 46.7537C88.944 46.7537 88.9532 46.7614 88.9532 47.2144C88.9532 47.5123 88.9394 47.8133 88.9532 48.1112C88.9671 48.4091 88.8409 48.492 88.5655 48.4797C88.207 48.4643 87.8455 48.492 87.4886 48.4797C87.1809 48.4628 87.0732 48.5642 87.0778 48.882C87.0947 50.0184 87.0778 51.1547 87.0778 52.291L87.0978 53.2569Z" fill="var(--fill-0, #473DFF)"/>
<path id="Vector_17" d="M96.0955 50.0014C96.0955 49.0647 96.0955 48.1265 96.0955 47.1883C96.0955 46.7706 96.1063 46.766 96.5294 46.7614C96.9525 46.7568 97.4094 46.7767 97.8494 46.7614C98.1571 46.746 98.2694 46.8412 98.2633 47.1606C98.2464 48.1588 98.2633 49.1569 98.2633 50.1535C98.2633 50.4329 98.2633 50.7124 98.2633 50.9919C98.2633 51.4526 98.271 51.4526 98.7141 51.4633C99.3525 51.4633 99.9925 51.4756 100.633 51.4633C100.929 51.4556 101.017 51.5708 101 51.8503C100.977 52.1893 100.977 52.5294 101 52.8684C101.025 53.1878 100.903 53.2784 100.596 53.2753C99.5356 53.2599 98.4771 53.2753 97.4171 53.2753C97.0971 53.2753 96.7756 53.2584 96.4571 53.2753C96.1386 53.2922 96.0894 53.1647 96.094 52.8899C96.1048 51.9178 96.0955 50.9596 96.0955 50.0014Z" fill="var(--fill-0, #473DFF)"/>
<path id="Vector_18" d="M69.3287 61.4953C69.2494 61.3829 69.2174 61.244 69.2395 61.1083C69.2395 59.2318 69.2395 57.3543 69.2395 55.4758C69.2395 55.0151 69.2472 55.0151 69.6888 55.0151C70.1303 55.0151 70.5703 55.0335 71.0088 55.0074C71.3349 54.9875 71.4119 55.1149 71.4088 55.4174C71.3949 56.5353 71.4088 57.6532 71.4088 58.7727C71.4188 58.9522 71.4188 59.1321 71.4088 59.3117C71.3703 59.6326 71.5072 59.7155 71.8149 59.7063C72.4734 59.6848 73.135 59.7063 73.795 59.6971C74.018 59.6971 74.1242 59.7601 74.1165 60.0042C74.1042 60.4035 74.1027 60.8027 74.1165 61.202C74.1257 61.4446 74.0257 61.5091 73.8011 61.5091C72.9196 61.4999 72.0396 61.5091 71.1595 61.5091L69.3287 61.4953Z" fill="var(--fill-0, #473DFF)"/>
<path id="Vector_19" d="M74.6444 61.4955V58.2708C74.6444 57.3325 74.6444 56.3943 74.6444 55.4576C74.6444 55.0169 74.6521 55.0153 75.1059 55.0107C75.5254 55.0107 75.9449 55.0107 76.3644 55.0107C76.789 55.0107 76.7983 55.0184 76.7998 55.43C76.7998 56.7608 76.7998 58.0973 76.7998 59.4393C76.7998 59.9983 76.7875 60.5572 76.7998 61.1162C76.8075 61.3819 76.7583 61.5154 76.4444 61.5016C75.8813 61.4771 75.3029 61.4955 74.6444 61.4955Z" fill="var(--fill-0, #473DFF)"/>
<path id="Vector_20" d="M70.0199 38.5338C70.6645 38.5338 71.223 38.5461 71.7799 38.5338C72.0799 38.5246 72.2169 38.6013 72.1892 38.9315C72.1615 39.2877 72.1892 39.6486 72.1892 40.0064C72.1892 41.501 72.1892 42.9957 72.1892 44.4903C72.1892 45.0277 72.1892 45.0277 71.6276 45.0308C71.1892 45.0308 70.7491 45.0308 70.3107 45.0308C70.1076 45.0308 70.0153 44.9525 70.0261 44.7498C70.0261 44.63 70.0261 44.5102 70.0261 44.392V38.5338H70.0199Z" fill="var(--fill-0, #473DFF)"/>
<path id="Vector_21" d="M87.0981 58.2506C87.0981 59.2088 87.0873 60.167 87.0981 61.1252C87.0981 61.4031 87.0396 61.5167 86.7366 61.5014C86.2381 61.4768 85.7381 61.4876 85.2381 61.5014C85.0088 61.5014 84.9304 61.4261 84.9304 61.1943C84.9386 59.24 84.9386 57.2847 84.9304 55.3284C84.9304 55.0996 85.0027 55.0074 85.2381 55.0136C85.7565 55.0243 86.2781 55.0289 86.7965 55.0136C87.0442 55.0044 87.1042 55.1057 87.1042 55.3207C87.0935 56.2958 87.0966 57.277 87.0981 58.2506Z" fill="var(--fill-0, #473DFF)"/>
</g>
<defs>
<clipPath id="clip0_0_686">
<rect width="101" height="95" fill="white"/>
</clipPath>
</defs>
</svg>
