<svg preserveAspectRatio="none" width="100%" height="100%" overflow="visible" style="display: block;" viewBox="0 0 138.088 81.0163" fill="none" xmlns="http://www.w3.org/2000/svg">
<g id="Vector">
<mask id="path-1-outside-1_0_685" maskUnits="userSpaceOnUse" x="-0.912082" y="-4.86374e-05" width="139" height="82" fill="black">
<rect fill="white" x="-0.912082" y="-4.86374e-05" width="139" height="82"/>
<path d="M57.878 34.0861C58.4592 34.3268 58.8006 34.7898 59.1757 35.1725C62.1136 38.1108 65.0473 41.0563 67.977 44.009C69.37 45.4195 69.2071 45.2929 70.4371 44.0584C75.4764 39.0007 80.5105 33.9462 85.5395 28.8947C85.847 28.586 86.1176 28.1725 86.6804 27.9965C86.9449 28.3978 86.8188 28.8607 86.8188 29.2836C86.8188 35.6633 86.7819 42.0429 86.8618 48.4195C86.8618 49.8146 86.5174 50.7961 85.3427 51.5059C84.8753 51.7899 84.5462 52.2899 83.8051 52.543V35.4657C83.0025 35.6447 82.698 36.1447 82.3259 36.5182C78.2933 40.547 74.2689 44.582 70.2526 48.6232C69.2409 49.6386 69.2286 49.6417 68.2507 48.6602C65.8705 46.2621 63.4964 43.8547 60.8456 41.1756V61.8023C60.3074 62.1387 59.9753 61.9196 59.6616 61.8023C47.8559 57.5307 40.5215 49.2281 38.5688 36.8021C35.7918 19.1138 48.2833 3.57046 64.8249 1.33279C75.7788 -0.151785 85.0659 3.34515 92.4833 11.518C96.9885 16.481 99.5225 22.4317 100.119 29.1601C100.196 30.0305 100.251 30.9009 100.307 31.7743C100.34 32.2805 100.107 32.4719 99.587 32.5213C97.3606 32.728 97.2837 32.6818 97.1607 30.4966C96.7955 24.1535 94.2982 18.1222 90.0768 13.3875C85.8553 8.65278 80.159 5.49453 73.9183 4.42849C55.0642 1.25254 38.7071 17.4286 41.6255 36.4626C43.037 45.6571 48.0373 52.4195 56.079 56.9473C56.3865 57.1233 56.7156 57.2838 57.0415 57.4319C57.512 57.648 57.7089 57.4319 57.7181 56.9659C57.7181 56.5554 57.7181 56.1418 57.7181 55.7313C57.7181 49.046 57.7181 42.3588 57.7181 35.6694C57.7427 35.1787 57.6504 34.6725 57.878 34.0861Z"/>
<path d="M51.9578 19.2095C53.7045 20.9996 55.4359 22.8052 57.1857 24.5829C60.8759 28.299 64.5662 32.0027 68.2564 35.6941C69.2312 36.6694 69.2497 36.6725 70.2461 35.6725C75.2792 30.6231 80.3102 25.5716 85.3392 20.5181C85.7605 20.0922 86.2125 19.6971 86.8522 19.1014C86.8522 20.4595 86.8276 21.5706 86.8522 22.657C86.8522 23.2403 86.5662 23.6107 86.1941 23.9842C80.7633 29.4287 75.3171 34.8639 69.9232 40.3423C69.1728 41.1016 68.8499 40.6509 68.361 40.154C64.2545 36.0141 60.1338 31.8772 55.9986 27.7435C55.648 27.3916 55.402 26.9256 54.7224 26.7404V52.5769C53.5631 52.0523 52.8588 51.2313 52.0439 50.5646C51.4688 50.0955 51.6318 49.4411 51.6318 48.8424C51.6318 40.5131 51.6318 32.1848 51.6318 23.8576V19.4039L51.9578 19.2095Z"/>
<path d="M77.8515 62.0708C77.5439 61.5461 77.6823 61.0245 77.6823 60.5276C77.6823 56.0553 77.7069 51.5769 77.6516 47.1108C77.6516 45.9534 77.8668 45.0429 78.7925 44.2837C79.3706 43.8114 79.8042 43.1571 80.3055 42.5861L80.6499 42.7682V57.4628C86.3483 55.9905 94.7282 47.6973 96.3335 38.7065H88.7838C89.648 37.4719 90.6535 36.6293 91.5761 35.7373C91.8529 35.4688 92.2619 35.583 92.6125 35.583C94.7138 35.583 96.8142 35.583 98.9136 35.583C100.144 35.583 100.144 35.6108 99.9653 36.7744C99.0903 42.5159 96.6428 47.9004 92.896 52.3269C89.1491 56.7534 84.2503 60.0478 78.7463 61.8424C78.448 61.935 78.159 61.9937 77.8515 62.0708Z"/>
<path d="M13.4872 69.9629H13.3765L9.42788 79.6851L8.28391 79.8888L4.33534 69.9629H4.26153C4.23693 71.0493 4.20003 72.1357 4.15083 73.2221C4.10162 74.3086 4.07702 75.395 4.07702 76.4814C4.07702 77.1604 4.08317 77.6543 4.09547 77.9629C4.12007 78.2715 4.13237 78.4259 4.13237 78.4259C4.15698 78.6604 4.31074 78.8271 4.59366 78.9259C4.88888 79.0123 5.31325 79.1111 5.86679 79.2222L5.81144 79.7592C5.43011 79.7345 5.01188 79.716 4.55675 79.7037C4.11392 79.7037 3.65879 79.7037 3.19136 79.7037C2.88384 79.7037 2.62552 79.7037 2.41641 79.7037C2.20729 79.7037 2.00433 79.7037 1.80752 79.7037C1.623 79.716 1.40159 79.7345 1.14327 79.7592L1.08792 79.2222C1.64146 79.1111 2.03508 79.0061 2.2688 78.9073C2.51481 78.8086 2.65012 78.6481 2.67473 78.4259C2.78543 77.574 2.86539 76.7468 2.91459 75.9444C2.96379 75.1295 2.99455 74.3024 3.00685 73.4629C3.03145 72.6234 3.04375 71.7221 3.04375 70.7592C3.04375 69.8456 3.03145 69.2098 3.00685 68.8517C2.98225 68.4814 2.96995 68.2962 2.96995 68.2962C2.94534 68.0616 2.82234 67.9011 2.60092 67.8147C2.39181 67.7159 2.01048 67.611 1.45694 67.4999L1.5123 66.9628C1.77061 66.9752 2.09044 66.9875 2.47176 66.9999C2.86539 66.9999 3.25902 67.006 3.65264 67.0184C4.05857 67.0184 4.41529 67.0184 4.72281 67.0184L9.11421 77.9444L13.5056 67.0184C13.8131 67.0184 14.1699 67.0184 14.5758 67.0184C14.994 67.006 15.3999 66.9999 15.7936 66.9999C16.1872 66.9875 16.5132 66.9752 16.7715 66.9628L16.8268 67.4999C16.2733 67.611 15.8858 67.7159 15.6644 67.8147C15.4553 67.9011 15.3384 68.0616 15.3138 68.2962C15.3138 68.2962 15.3015 68.4135 15.2769 68.648C15.2523 68.8826 15.24 69.3456 15.24 70.0369C15.24 70.111 15.24 70.2962 15.24 70.5925C15.2523 70.8888 15.2646 71.2283 15.2769 71.611C15.2892 71.9814 15.3015 72.3332 15.3138 72.6666C15.3261 72.9876 15.3323 73.2221 15.3323 73.3703C15.3815 74.4073 15.4245 75.2592 15.4614 75.9258C15.5106 76.5802 15.5475 77.0925 15.5722 77.4629C15.5968 77.8209 15.6152 78.074 15.6275 78.2222C15.6521 78.358 15.6644 78.4259 15.6644 78.4259C15.689 78.6604 15.8182 78.8271 16.0519 78.9259C16.2856 79.0123 16.6792 79.1111 17.2328 79.2222L17.1774 79.7592C16.7961 79.7345 16.4086 79.716 16.015 79.7037C15.6214 79.7037 15.1908 79.7037 14.7234 79.7037C13.7639 79.7037 12.8967 79.7222 12.1218 79.7592L12.0664 79.2222C12.62 79.1111 13.032 79.0123 13.3026 78.9259C13.5733 78.8271 13.7086 78.6604 13.7086 78.4259C13.7086 78.4259 13.7086 78.2839 13.7086 77.9999C13.7209 77.7036 13.727 77.2962 13.727 76.7777C13.727 76.3703 13.7209 75.8765 13.7086 75.2962C13.6963 74.7036 13.6778 74.0802 13.6532 73.4258C13.6286 72.7715 13.5979 72.1419 13.561 71.5369C13.5364 70.932 13.5118 70.4073 13.4872 69.9629Z"/>
<path d="M17.7286 79.7592L17.6733 79.2222C18.2514 79.1111 18.6635 78.9938 18.9095 78.8703C19.1555 78.7345 19.3154 78.5493 19.3893 78.3148L23.0611 67.0369L24.611 66.8517L28.9101 78.4259C28.9962 78.6357 29.1377 78.7962 29.3345 78.9073C29.5436 79.0185 29.9249 79.1234 30.4785 79.2222L30.4231 79.7592C30.0172 79.7345 29.6174 79.716 29.2238 79.7037C28.8301 79.7037 28.4119 79.7037 27.9691 79.7037C26.9973 79.7037 26.1301 79.7222 25.3675 79.7592L25.3121 79.2222C25.9517 79.0987 26.3823 78.9876 26.6037 78.8888C26.8251 78.7901 26.9358 78.6666 26.9358 78.5185L25.921 75.2221H21.751L20.7546 78.5185C20.7546 78.6666 20.8715 78.7901 21.1052 78.8888C21.3389 78.9876 21.751 79.0987 22.3415 79.2222L22.2861 79.7592C21.8802 79.7345 21.4804 79.716 21.0868 79.7037C20.6931 79.7037 20.2749 79.7037 19.8321 79.7037C19.4508 79.7037 19.1248 79.7037 18.8542 79.7037C18.5835 79.716 18.2084 79.7345 17.7286 79.7592ZM22.0093 74.3703H25.6258L23.7622 68.7777H23.6884L22.0093 74.3703Z"/>
<path d="M34.6731 78.4259C34.6977 78.6604 34.8268 78.8271 35.0606 78.9259C35.3066 79.0123 35.7125 79.1111 36.2783 79.2222L36.223 79.7592C35.8294 79.7345 35.4296 79.716 35.0237 79.7037C34.6177 79.7037 34.1749 79.7037 33.6952 79.7037C32.7234 79.7037 31.85 79.7222 31.0751 79.7592L31.0197 79.2222C31.5733 79.1111 31.9792 79.0123 32.2375 78.9259C32.4958 78.8271 32.6373 78.6604 32.6619 78.4259C32.6619 78.4259 32.6742 78.2839 32.6988 77.9999C32.7234 77.7036 32.748 77.1913 32.7726 76.4629C32.7972 75.7221 32.8095 74.6913 32.8095 73.3703C32.8095 72.0369 32.7972 71.0061 32.7726 70.2777C32.748 69.5369 32.7234 69.0246 32.6988 68.7406C32.6742 68.4443 32.6619 68.2962 32.6619 68.2962C32.6373 68.0616 32.5143 67.9011 32.2929 67.8147C32.0838 67.7159 31.7024 67.611 31.1489 67.4999L31.2043 66.9628C31.5979 66.9752 31.9915 66.9875 32.3851 66.9999C32.7911 67.0122 33.2216 67.0184 33.6767 67.0184H36.8688C37.7052 67.0184 38.3941 67.1604 38.9353 67.4443C39.4766 67.7159 39.8763 68.0801 40.1347 68.5369C40.393 68.9814 40.5221 69.4628 40.5221 69.9814C40.5221 70.611 40.3438 71.2345 39.9871 71.8517C39.6303 72.469 38.9784 73.0123 38.0312 73.4814L41.2786 78.9073C41.2786 78.9073 41.3955 78.9506 41.6292 79.037C41.8629 79.1111 42.2566 79.1728 42.8101 79.2222L42.7547 79.7592C42.4595 79.7592 42.1335 79.7654 41.7768 79.7777C41.4201 79.7901 41.0757 79.8024 40.7435 79.8148C40.4237 79.8271 40.1593 79.8395 39.9501 79.8518C39.741 79.8641 39.6365 79.8703 39.6365 79.8703L36.3706 73.7406C36.2107 73.753 36.0077 73.7653 35.7617 73.7777C35.5157 73.7777 35.0852 73.7777 34.4701 73.7777C34.4701 74.7777 34.4763 75.5863 34.4886 76.2036C34.5132 76.8086 34.5378 77.2715 34.5624 77.5925C34.5993 77.9135 34.6239 78.1357 34.6362 78.2592C34.6608 78.3703 34.6731 78.4259 34.6731 78.4259ZM37.367 72.8703C37.8221 72.5863 38.1788 72.1974 38.4371 71.7036C38.7078 71.1974 38.8431 70.6233 38.8431 69.9814C38.8431 69.2777 38.5848 68.7406 38.0681 68.3702C37.5638 67.9875 36.8011 67.7962 35.7802 67.7962C35.3373 67.7962 35.0483 67.8209 34.913 67.8702C34.7899 67.9196 34.7038 68.0307 34.6546 68.2036C34.6546 68.2036 34.6362 68.3517 34.5993 68.648C34.5747 68.932 34.5439 69.4258 34.507 70.1295C34.4824 70.8332 34.4701 71.8085 34.4701 73.0555C35.8232 73.0555 36.7888 72.9937 37.367 72.8703Z"/>
<path d="M48.8764 79.9259C47.4987 79.9259 46.3178 79.6728 45.3337 79.1666C44.362 78.6481 43.6116 77.9135 43.0827 76.9629C42.566 75.9999 42.3077 74.8518 42.3077 73.5184C42.3077 72.2098 42.5845 71.0555 43.138 70.0554C43.6916 69.0554 44.4604 68.2715 45.4444 67.7036C46.4408 67.1357 47.5786 66.8517 48.8579 66.8517C49.6206 66.8517 50.2479 66.9011 50.7399 66.9999C51.2443 67.0863 51.6871 67.1295 52.0684 67.1295C52.4006 67.1295 52.7204 67.0925 53.0279 67.0184C53.0279 67.4628 53.0464 67.9628 53.0833 68.5184C53.1325 69.0616 53.1878 69.5246 53.2493 69.9073L52.7511 70.1295C52.5051 69.3394 52.0438 68.7406 51.3673 68.3332C50.703 67.9135 49.8604 67.7036 48.8395 67.7036C47.9169 67.7036 47.1112 67.932 46.4224 68.3888C45.7335 68.8456 45.1984 69.4875 44.8171 70.3147C44.4358 71.1295 44.2451 72.0925 44.2451 73.2036C44.2451 74.3641 44.4419 75.3826 44.8355 76.2592C45.2292 77.1234 45.7766 77.8024 46.4777 78.2962C47.1789 78.7777 47.9969 79.0185 48.9317 79.0185C50.0388 79.0185 50.9675 78.7901 51.7179 78.3333C52.4682 77.8641 52.9787 77.2098 53.2493 76.3703L53.7475 76.5925C53.6368 76.9876 53.5445 77.4073 53.4707 77.8518C53.3969 78.2962 53.3477 78.7036 53.3231 79.074C51.7732 79.6419 50.291 79.9259 48.8764 79.9259Z"/>
<path d="M67.9401 72.8703C67.9401 73.7592 67.811 74.6295 67.5526 75.4814C67.3066 76.3333 66.913 77.0987 66.3718 77.7777C65.8428 78.4567 65.1478 78.9999 64.2868 79.4074C63.438 79.8024 62.4109 80 61.2054 80C59.8154 80 58.6776 79.7407 57.7919 79.2222C56.9186 78.7036 56.2728 77.9876 55.8545 77.074C55.4486 76.1481 55.2457 75.0863 55.2457 73.8888C55.2457 72.9999 55.3687 72.1357 55.6147 71.2962C55.873 70.4443 56.2666 69.6789 56.7956 68.9999C57.3368 68.3209 58.0318 67.7838 58.8806 67.3888C59.7416 66.9814 60.7749 66.7776 61.9804 66.7776C63.3827 66.7776 64.5205 67.0369 65.3938 67.5554C66.2672 68.0616 66.9068 68.7715 67.3128 69.6851C67.731 70.5987 67.9401 71.6604 67.9401 72.8703ZM66.0027 73.9258C66.0027 73.1234 65.9412 72.3518 65.8182 71.611C65.6952 70.8703 65.4738 70.2036 65.154 69.611C64.8465 69.0061 64.4098 68.5307 63.8439 68.1851C63.2904 67.8394 62.5708 67.6665 61.6851 67.6665C60.9348 67.6665 60.2951 67.8085 59.7662 68.0925C59.2496 68.3641 58.819 68.7221 58.4746 69.1665C58.1425 69.5986 57.878 70.0678 57.6812 70.574C57.4967 71.0801 57.3676 71.5678 57.2937 72.0369C57.2199 72.5061 57.183 72.9011 57.183 73.2221C57.183 73.9876 57.2507 74.7221 57.386 75.4258C57.5336 76.1296 57.7735 76.7592 58.1056 77.3147C58.4377 77.8703 58.8806 78.3086 59.4341 78.6296C59.9876 78.9506 60.6765 79.1111 61.5006 79.1111C62.1772 79.1111 62.7676 78.9938 63.272 78.7592C63.7886 78.5123 64.2191 78.1913 64.5635 77.7962C64.908 77.4012 65.1847 76.9752 65.3938 76.5184C65.6153 76.0493 65.769 75.5925 65.8551 75.1481C65.9535 74.6913 66.0027 74.2839 66.0027 73.9258Z"/>
<path d="M80.9692 79.0185C81.6211 79.0185 82.2484 78.9506 82.8512 78.8148C83.4539 78.679 83.9214 78.5246 84.2535 78.3518C84.2412 77.4629 84.2166 76.7407 84.1797 76.1851C84.1428 75.6296 84.1243 75.3518 84.1243 75.3518C84.0997 75.1172 83.9767 74.9567 83.7553 74.8703C83.5462 74.7715 83.1649 74.6666 82.6113 74.5555L82.6667 74.0184C83.0603 74.0308 83.4539 74.0431 83.8475 74.0555C84.2535 74.0678 84.684 74.074 85.1391 74.074C85.4467 74.074 85.6927 74.074 85.8772 74.074C86.0617 74.0616 86.2339 74.0555 86.3938 74.0555C86.566 74.0431 86.7813 74.0308 87.0396 74.0184L87.095 74.5555C86.7259 74.6295 86.4738 74.6974 86.3385 74.7592C86.2155 74.8209 86.1478 74.895 86.1355 74.9814C86.1232 75.0678 86.1048 75.1913 86.0802 75.3518L85.951 78.6851C84.9792 79.1049 84.0936 79.4197 83.294 79.6296C82.4945 79.8271 81.7011 79.9259 80.9138 79.9259C79.5976 79.9259 78.4475 79.6851 77.4634 79.2036C76.4793 78.7222 75.7105 78.0061 75.157 77.0555C74.6158 76.1049 74.3452 74.9258 74.3452 73.5184C74.3452 72.6295 74.4928 71.79 74.788 70.9999C75.0832 70.1974 75.5199 69.4875 76.098 68.8702C76.6762 68.2406 77.3896 67.7468 78.2384 67.3888C79.0871 67.0307 80.065 66.8517 81.1721 66.8517C81.9717 66.8517 82.6298 66.9011 83.1464 66.9999C83.663 67.0863 84.1489 67.1295 84.6041 67.1295C84.8993 67.1295 85.2006 67.0925 85.5082 67.0184V67.2962C85.5082 67.5431 85.5143 67.8332 85.5266 68.1665C85.5512 68.4875 85.582 68.8085 85.6189 69.1295C85.6558 69.4382 85.6927 69.6974 85.7296 69.9073L85.2129 70.1295C85.0161 69.4999 84.7025 69.0122 84.2719 68.6665C83.8414 68.3085 83.3494 68.0616 82.7958 67.9258C82.2546 67.7777 81.6887 67.7036 81.0983 67.7036C80.2742 67.7036 79.4931 67.9011 78.755 68.2962C78.0293 68.6789 77.4327 69.2777 76.9652 70.0925C76.5101 70.895 76.2825 71.932 76.2825 73.2036C76.2825 73.8826 76.3686 74.5678 76.5409 75.2592C76.7131 75.9505 76.9837 76.5802 77.3527 77.1481C77.7217 77.7036 78.2015 78.1543 78.7919 78.4999C79.3946 78.8456 80.1204 79.0185 80.9692 79.0185Z"/>
<path d="M91.6485 78.4259C91.6731 78.6604 91.8023 78.8271 92.036 78.9259C92.282 79.0123 92.688 79.1111 93.2538 79.2222L93.1984 79.7592C92.8048 79.7345 92.405 79.716 91.9991 79.7037C91.5932 79.7037 91.1504 79.7037 90.6706 79.7037C89.6989 79.7037 88.8255 79.7222 88.0505 79.7592L87.9952 79.2222C88.5487 79.1111 88.9547 79.0123 89.213 78.9259C89.4713 78.8271 89.6128 78.6604 89.6374 78.4259C89.6374 78.4259 89.6497 78.2839 89.6743 77.9999C89.6989 77.7036 89.7235 77.1913 89.7481 76.4629C89.7727 75.7221 89.785 74.6913 89.785 73.3703C89.785 72.0369 89.7727 71.0061 89.7481 70.2777C89.7235 69.5369 89.6989 69.0246 89.6743 68.7406C89.6497 68.4443 89.6374 68.2962 89.6374 68.2962C89.6128 68.0616 89.4897 67.9011 89.2683 67.8147C89.0592 67.7159 88.6779 67.611 88.1243 67.4999L88.1797 66.9628C88.5733 66.9752 88.967 66.9875 89.3606 66.9999C89.7665 67.0122 90.197 67.0184 90.6522 67.0184H93.8442C94.6807 67.0184 95.3695 67.1604 95.9108 67.4443C96.452 67.7159 96.8518 68.0801 97.1101 68.5369C97.3684 68.9814 97.4976 69.4628 97.4976 69.9814C97.4976 70.611 97.3192 71.2345 96.9625 71.8517C96.6058 72.469 95.9538 73.0123 95.0067 73.4814L98.2541 78.9073C98.2541 78.9073 98.3709 78.9506 98.6047 79.037C98.8384 79.1111 99.232 79.1728 99.7855 79.2222L99.7302 79.7592C99.435 79.7592 99.109 79.7654 98.7523 79.7777C98.3955 79.7901 98.0511 79.8024 97.719 79.8148C97.3992 79.8271 97.1347 79.8395 96.9256 79.8518C96.7165 79.8641 96.6119 79.8703 96.6119 79.8703L93.3461 73.7406C93.1861 73.753 92.9832 73.7653 92.7372 73.7777C92.4911 73.7777 92.0606 73.7777 91.4456 73.7777C91.4456 74.7777 91.4517 75.5863 91.464 76.2036C91.4886 76.8086 91.5132 77.2715 91.5378 77.5925C91.5747 77.9135 91.5993 78.1357 91.6116 78.2592C91.6362 78.3703 91.6485 78.4259 91.6485 78.4259ZM94.3424 72.8703C94.7975 72.5863 95.1543 72.1974 95.4126 71.7036C95.6832 71.1974 95.8185 70.6233 95.8185 69.9814C95.8185 69.2777 95.5602 68.7406 95.0436 68.3702C94.5392 67.9875 93.7766 67.7962 92.7556 67.7962C92.3128 67.7962 92.0237 67.8209 91.8884 67.8702C91.7654 67.9196 91.6793 68.0307 91.6301 68.2036C91.6301 68.2036 91.6116 68.3517 91.5747 68.648C91.5501 68.932 91.5194 69.4258 91.4825 70.1295C91.4579 70.8332 91.4456 71.8085 91.4456 73.0555C92.7987 73.0555 93.7643 72.9937 94.3424 72.8703Z"/>
<path d="M111.996 72.8703C111.996 73.7592 111.867 74.6295 111.609 75.4814C111.363 76.3333 110.969 77.0987 110.428 77.7777C109.899 78.4567 109.204 78.9999 108.343 79.4074C107.494 79.8024 106.467 80 105.261 80C103.871 80 102.734 79.7407 101.848 79.2222C100.975 78.7036 100.329 77.9876 99.9105 77.074C99.5046 76.1481 99.3016 75.0863 99.3016 73.8888C99.3016 72.9999 99.4246 72.1357 99.6707 71.2962C99.929 70.4443 100.323 69.6789 100.852 68.9999C101.393 68.3209 102.088 67.7838 102.937 67.3888C103.798 66.9814 104.831 66.7776 106.036 66.7776C107.439 66.7776 108.576 67.0369 109.45 67.5554C110.323 68.0616 110.963 68.7715 111.369 69.6851C111.787 70.5987 111.996 71.6604 111.996 72.8703ZM110.059 73.9258C110.059 73.1234 109.997 72.3518 109.874 71.611C109.751 70.8703 109.53 70.2036 109.21 69.611C108.902 69.0061 108.466 68.5307 107.9 68.1851C107.346 67.8394 106.627 67.6665 105.741 67.6665C104.991 67.6665 104.351 67.8085 103.822 68.0925C103.306 68.3641 102.875 68.7221 102.531 69.1665C102.198 69.5986 101.934 70.0678 101.737 70.574C101.553 71.0801 101.424 71.5678 101.35 72.0369C101.276 72.5061 101.239 72.9011 101.239 73.2221C101.239 73.9876 101.307 74.7221 101.442 75.4258C101.59 76.1296 101.829 76.7592 102.162 77.3147C102.494 77.8703 102.937 78.3086 103.49 78.6296C104.044 78.9506 104.732 79.1111 105.557 79.1111C106.233 79.1111 106.824 78.9938 107.328 78.7592C107.845 78.5123 108.275 78.1913 108.62 77.7962C108.964 77.4012 109.241 76.9752 109.45 76.5184C109.671 76.0493 109.825 75.5925 109.911 75.1481C110.01 74.6913 110.059 74.2839 110.059 73.9258Z"/>
<path d="M123.678 68.2962C123.654 68.0616 123.494 67.9011 123.198 67.8147C122.916 67.7159 122.497 67.611 121.944 67.4999L121.999 66.9628C122.393 66.9752 122.811 66.9875 123.254 66.9999C123.709 67.0122 124.164 67.0184 124.619 67.0184C124.927 67.0184 125.179 67.0184 125.376 67.0184C125.573 67.006 125.757 66.9999 125.929 66.9999C126.114 66.9875 126.335 66.9752 126.593 66.9628L126.649 67.4999C126.095 67.611 125.708 67.7159 125.486 67.8147C125.265 67.9011 125.148 68.0616 125.136 68.2962C125.087 69.432 125.05 70.574 125.025 71.7221C125.001 72.8579 124.97 73.9937 124.933 75.1295C124.908 76.0061 124.73 76.8086 124.398 77.537C124.078 78.2654 123.555 78.8456 122.829 79.2777C122.104 79.7098 121.132 79.9259 119.914 79.9259C118.881 79.9259 117.995 79.8024 117.257 79.5555C116.531 79.3086 115.972 78.858 115.578 78.2036C115.184 77.537 114.975 76.5802 114.951 75.3333C114.938 74.1604 114.92 72.9876 114.895 71.8147C114.871 70.6419 114.846 69.469 114.822 68.2962C114.822 68.0616 114.705 67.9011 114.471 67.8147C114.25 67.7159 113.862 67.611 113.309 67.4999L113.364 66.9628C113.758 66.9752 114.151 66.9875 114.545 66.9999C114.951 67.0122 115.381 67.0184 115.836 67.0184C116.304 67.0184 116.722 67.0122 117.091 66.9999C117.472 66.9875 117.854 66.9752 118.235 66.9628L118.29 67.4999C117.737 67.611 117.349 67.7159 117.128 67.8147C116.919 67.9011 116.802 68.0616 116.777 68.2962C116.777 68.2962 116.759 68.4567 116.722 68.7777C116.697 69.0986 116.673 69.6542 116.648 70.4443C116.624 71.2221 116.611 72.3209 116.611 73.7406C116.611 74.5308 116.63 75.2468 116.667 75.8888C116.716 76.5184 116.839 77.0555 117.036 77.4999C117.245 77.9444 117.571 78.2839 118.014 78.5185C118.469 78.753 119.102 78.8703 119.914 78.8703C120.751 78.8703 121.421 78.7407 121.925 78.4814C122.442 78.2222 122.836 77.8518 123.106 77.3703C123.389 76.8888 123.58 76.3147 123.678 75.6481C123.777 74.9814 123.826 74.2407 123.826 73.4258C123.826 72.0925 123.813 71.0554 123.789 70.3147C123.764 69.574 123.74 69.0554 123.715 68.7591C123.69 68.4505 123.678 68.2962 123.678 68.2962Z"/>
<path d="M130.113 67.0184H132.918C133.877 67.0184 134.665 67.1789 135.28 67.4999C135.895 67.8209 136.35 68.2406 136.645 68.7591C136.94 69.2653 137.088 69.8147 137.088 70.4073C137.088 71.0616 136.897 71.7036 136.516 72.3332C136.135 72.9629 135.581 73.4876 134.855 73.9073C134.142 74.3147 133.262 74.5184 132.217 74.5184C131.811 74.5184 131.374 74.4814 130.907 74.4073C130.907 75.4073 130.913 76.1851 130.925 76.7407C130.938 77.2839 130.956 77.6789 130.981 77.9259C131.005 78.1604 131.024 78.3024 131.036 78.3518C131.048 78.4012 131.054 78.4259 131.054 78.4259C131.079 78.6604 131.208 78.8271 131.442 78.9259C131.676 79.0123 132.069 79.1111 132.623 79.2222L132.567 79.7592C132.186 79.7345 131.799 79.716 131.405 79.7037C131.011 79.7037 130.581 79.7037 130.113 79.7037C129.154 79.7037 128.287 79.7222 127.512 79.7592L127.456 79.2222C128.01 79.1111 128.416 79.0123 128.674 78.9259C128.932 78.8271 129.074 78.6604 129.099 78.4259C129.099 78.4259 129.111 78.2839 129.135 77.9999C129.16 77.7036 129.185 77.1913 129.209 76.4629C129.234 75.7221 129.246 74.6913 129.246 73.3703C129.246 72.0369 129.234 71.0061 129.209 70.2777C129.185 69.5369 129.16 69.0246 129.135 68.7406C129.111 68.4443 129.099 68.2962 129.099 68.2962C129.074 68.0616 128.951 67.9011 128.729 67.8147C128.52 67.7159 128.139 67.611 127.586 67.4999L127.641 66.9628C128.034 66.9752 128.428 66.9875 128.822 66.9999C129.228 67.0122 129.658 67.0184 130.113 67.0184ZM130.907 73.6851C131.263 73.7221 131.602 73.7406 131.922 73.7406C132.943 73.7406 133.761 73.4999 134.376 73.0184C135.003 72.5246 135.317 71.7345 135.317 70.648C135.317 69.5987 135.046 68.8641 134.505 68.4443C133.976 68.0122 133.213 67.7962 132.217 67.7962C131.786 67.7962 131.503 67.827 131.368 67.8888C131.233 67.9381 131.14 68.1172 131.091 68.4258C131.091 68.4258 131.079 68.4999 131.054 68.648C131.042 68.7962 131.024 69.0616 130.999 69.4443C130.974 69.827 130.95 70.3641 130.925 71.0554C130.913 71.7345 130.907 72.611 130.907 73.6851Z"/>
</mask>
<path d="M57.878 34.0861C58.4592 34.3268 58.8006 34.7898 59.1757 35.1725C62.1136 38.1108 65.0473 41.0563 67.977 44.009C69.37 45.4195 69.2071 45.2929 70.4371 44.0584C75.4764 39.0007 80.5105 33.9462 85.5395 28.8947C85.847 28.586 86.1176 28.1725 86.6804 27.9965C86.9449 28.3978 86.8188 28.8607 86.8188 29.2836C86.8188 35.6633 86.7819 42.0429 86.8618 48.4195C86.8618 49.8146 86.5174 50.7961 85.3427 51.5059C84.8753 51.7899 84.5462 52.2899 83.8051 52.543V35.4657C83.0025 35.6447 82.698 36.1447 82.3259 36.5182C78.2933 40.547 74.2689 44.582 70.2526 48.6232C69.2409 49.6386 69.2286 49.6417 68.2507 48.6602C65.8705 46.2621 63.4964 43.8547 60.8456 41.1756V61.8023C60.3074 62.1387 59.9753 61.9196 59.6616 61.8023C47.8559 57.5307 40.5215 49.2281 38.5688 36.8021C35.7918 19.1138 48.2833 3.57046 64.8249 1.33279C75.7788 -0.151785 85.0659 3.34515 92.4833 11.518C96.9885 16.481 99.5225 22.4317 100.119 29.1601C100.196 30.0305 100.251 30.9009 100.307 31.7743C100.34 32.2805 100.107 32.4719 99.587 32.5213C97.3606 32.728 97.2837 32.6818 97.1607 30.4966C96.7955 24.1535 94.2982 18.1222 90.0768 13.3875C85.8553 8.65278 80.159 5.49453 73.9183 4.42849C55.0642 1.25254 38.7071 17.4286 41.6255 36.4626C43.037 45.6571 48.0373 52.4195 56.079 56.9473C56.3865 57.1233 56.7156 57.2838 57.0415 57.4319C57.512 57.648 57.7089 57.4319 57.7181 56.9659C57.7181 56.5554 57.7181 56.1418 57.7181 55.7313C57.7181 49.046 57.7181 42.3588 57.7181 35.6694C57.7427 35.1787 57.6504 34.6725 57.878 34.0861Z" fill="var(--fill-0, #473DFF)"/>
<path d="M51.9578 19.2095C53.7045 20.9996 55.4359 22.8052 57.1857 24.5829C60.8759 28.299 64.5662 32.0027 68.2564 35.6941C69.2312 36.6694 69.2497 36.6725 70.2461 35.6725C75.2792 30.6231 80.3102 25.5716 85.3392 20.5181C85.7605 20.0922 86.2125 19.6971 86.8522 19.1014C86.8522 20.4595 86.8276 21.5706 86.8522 22.657C86.8522 23.2403 86.5662 23.6107 86.1941 23.9842C80.7633 29.4287 75.3171 34.8639 69.9232 40.3423C69.1728 41.1016 68.8499 40.6509 68.361 40.154C64.2545 36.0141 60.1338 31.8772 55.9986 27.7435C55.648 27.3916 55.402 26.9256 54.7224 26.7404V52.5769C53.5631 52.0523 52.8588 51.2313 52.0439 50.5646C51.4688 50.0955 51.6318 49.4411 51.6318 48.8424C51.6318 40.5131 51.6318 32.1848 51.6318 23.8576V19.4039L51.9578 19.2095Z" fill="var(--fill-0, #473DFF)"/>
<path d="M77.8515 62.0708C77.5439 61.5461 77.6823 61.0245 77.6823 60.5276C77.6823 56.0553 77.7069 51.5769 77.6516 47.1108C77.6516 45.9534 77.8668 45.0429 78.7925 44.2837C79.3706 43.8114 79.8042 43.1571 80.3055 42.5861L80.6499 42.7682V57.4628C86.3483 55.9905 94.7282 47.6973 96.3335 38.7065H88.7838C89.648 37.4719 90.6535 36.6293 91.5761 35.7373C91.8529 35.4688 92.2619 35.583 92.6125 35.583C94.7138 35.583 96.8142 35.583 98.9136 35.583C100.144 35.583 100.144 35.6108 99.9653 36.7744C99.0903 42.5159 96.6428 47.9004 92.896 52.3269C89.1491 56.7534 84.2503 60.0478 78.7463 61.8424C78.448 61.935 78.159 61.9937 77.8515 62.0708Z" fill="var(--fill-0, #473DFF)"/>
<path d="M13.4872 69.9629H13.3765L9.42788 79.6851L8.28391 79.8888L4.33534 69.9629H4.26153C4.23693 71.0493 4.20003 72.1357 4.15083 73.2221C4.10162 74.3086 4.07702 75.395 4.07702 76.4814C4.07702 77.1604 4.08317 77.6543 4.09547 77.9629C4.12007 78.2715 4.13237 78.4259 4.13237 78.4259C4.15698 78.6604 4.31074 78.8271 4.59366 78.9259C4.88888 79.0123 5.31325 79.1111 5.86679 79.2222L5.81144 79.7592C5.43011 79.7345 5.01188 79.716 4.55675 79.7037C4.11392 79.7037 3.65879 79.7037 3.19136 79.7037C2.88384 79.7037 2.62552 79.7037 2.41641 79.7037C2.20729 79.7037 2.00433 79.7037 1.80752 79.7037C1.623 79.716 1.40159 79.7345 1.14327 79.7592L1.08792 79.2222C1.64146 79.1111 2.03508 79.0061 2.2688 78.9073C2.51481 78.8086 2.65012 78.6481 2.67473 78.4259C2.78543 77.574 2.86539 76.7468 2.91459 75.9444C2.96379 75.1295 2.99455 74.3024 3.00685 73.4629C3.03145 72.6234 3.04375 71.7221 3.04375 70.7592C3.04375 69.8456 3.03145 69.2098 3.00685 68.8517C2.98225 68.4814 2.96995 68.2962 2.96995 68.2962C2.94534 68.0616 2.82234 67.9011 2.60092 67.8147C2.39181 67.7159 2.01048 67.611 1.45694 67.4999L1.5123 66.9628C1.77061 66.9752 2.09044 66.9875 2.47176 66.9999C2.86539 66.9999 3.25902 67.006 3.65264 67.0184C4.05857 67.0184 4.41529 67.0184 4.72281 67.0184L9.11421 77.9444L13.5056 67.0184C13.8131 67.0184 14.1699 67.0184 14.5758 67.0184C14.994 67.006 15.3999 66.9999 15.7936 66.9999C16.1872 66.9875 16.5132 66.9752 16.7715 66.9628L16.8268 67.4999C16.2733 67.611 15.8858 67.7159 15.6644 67.8147C15.4553 67.9011 15.3384 68.0616 15.3138 68.2962C15.3138 68.2962 15.3015 68.4135 15.2769 68.648C15.2523 68.8826 15.24 69.3456 15.24 70.0369C15.24 70.111 15.24 70.2962 15.24 70.5925C15.2523 70.8888 15.2646 71.2283 15.2769 71.611C15.2892 71.9814 15.3015 72.3332 15.3138 72.6666C15.3261 72.9876 15.3323 73.2221 15.3323 73.3703C15.3815 74.4073 15.4245 75.2592 15.4614 75.9258C15.5106 76.5802 15.5475 77.0925 15.5722 77.4629C15.5968 77.8209 15.6152 78.074 15.6275 78.2222C15.6521 78.358 15.6644 78.4259 15.6644 78.4259C15.689 78.6604 15.8182 78.8271 16.0519 78.9259C16.2856 79.0123 16.6792 79.1111 17.2328 79.2222L17.1774 79.7592C16.7961 79.7345 16.4086 79.716 16.015 79.7037C15.6214 79.7037 15.1908 79.7037 14.7234 79.7037C13.7639 79.7037 12.8967 79.7222 12.1218 79.7592L12.0664 79.2222C12.62 79.1111 13.032 79.0123 13.3026 78.9259C13.5733 78.8271 13.7086 78.6604 13.7086 78.4259C13.7086 78.4259 13.7086 78.2839 13.7086 77.9999C13.7209 77.7036 13.727 77.2962 13.727 76.7777C13.727 76.3703 13.7209 75.8765 13.7086 75.2962C13.6963 74.7036 13.6778 74.0802 13.6532 73.4258C13.6286 72.7715 13.5979 72.1419 13.561 71.5369C13.5364 70.932 13.5118 70.4073 13.4872 69.9629Z" fill="var(--fill-0, #473DFF)"/>
<path d="M17.7286 79.7592L17.6733 79.2222C18.2514 79.1111 18.6635 78.9938 18.9095 78.8703C19.1555 78.7345 19.3154 78.5493 19.3893 78.3148L23.0611 67.0369L24.611 66.8517L28.9101 78.4259C28.9962 78.6357 29.1377 78.7962 29.3345 78.9073C29.5436 79.0185 29.9249 79.1234 30.4785 79.2222L30.4231 79.7592C30.0172 79.7345 29.6174 79.716 29.2238 79.7037C28.8301 79.7037 28.4119 79.7037 27.9691 79.7037C26.9973 79.7037 26.1301 79.7222 25.3675 79.7592L25.3121 79.2222C25.9517 79.0987 26.3823 78.9876 26.6037 78.8888C26.8251 78.7901 26.9358 78.6666 26.9358 78.5185L25.921 75.2221H21.751L20.7546 78.5185C20.7546 78.6666 20.8715 78.7901 21.1052 78.8888C21.3389 78.9876 21.751 79.0987 22.3415 79.2222L22.2861 79.7592C21.8802 79.7345 21.4804 79.716 21.0868 79.7037C20.6931 79.7037 20.2749 79.7037 19.8321 79.7037C19.4508 79.7037 19.1248 79.7037 18.8542 79.7037C18.5835 79.716 18.2084 79.7345 17.7286 79.7592ZM22.0093 74.3703H25.6258L23.7622 68.7777H23.6884L22.0093 74.3703Z" fill="var(--fill-0, #473DFF)"/>
<path d="M34.6731 78.4259C34.6977 78.6604 34.8268 78.8271 35.0606 78.9259C35.3066 79.0123 35.7125 79.1111 36.2783 79.2222L36.223 79.7592C35.8294 79.7345 35.4296 79.716 35.0237 79.7037C34.6177 79.7037 34.1749 79.7037 33.6952 79.7037C32.7234 79.7037 31.85 79.7222 31.0751 79.7592L31.0197 79.2222C31.5733 79.1111 31.9792 79.0123 32.2375 78.9259C32.4958 78.8271 32.6373 78.6604 32.6619 78.4259C32.6619 78.4259 32.6742 78.2839 32.6988 77.9999C32.7234 77.7036 32.748 77.1913 32.7726 76.4629C32.7972 75.7221 32.8095 74.6913 32.8095 73.3703C32.8095 72.0369 32.7972 71.0061 32.7726 70.2777C32.748 69.5369 32.7234 69.0246 32.6988 68.7406C32.6742 68.4443 32.6619 68.2962 32.6619 68.2962C32.6373 68.0616 32.5143 67.9011 32.2929 67.8147C32.0838 67.7159 31.7024 67.611 31.1489 67.4999L31.2043 66.9628C31.5979 66.9752 31.9915 66.9875 32.3851 66.9999C32.7911 67.0122 33.2216 67.0184 33.6767 67.0184H36.8688C37.7052 67.0184 38.3941 67.1604 38.9353 67.4443C39.4766 67.7159 39.8763 68.0801 40.1347 68.5369C40.393 68.9814 40.5221 69.4628 40.5221 69.9814C40.5221 70.611 40.3438 71.2345 39.9871 71.8517C39.6303 72.469 38.9784 73.0123 38.0312 73.4814L41.2786 78.9073C41.2786 78.9073 41.3955 78.9506 41.6292 79.037C41.8629 79.1111 42.2566 79.1728 42.8101 79.2222L42.7547 79.7592C42.4595 79.7592 42.1335 79.7654 41.7768 79.7777C41.4201 79.7901 41.0757 79.8024 40.7435 79.8148C40.4237 79.8271 40.1593 79.8395 39.9501 79.8518C39.741 79.8641 39.6365 79.8703 39.6365 79.8703L36.3706 73.7406C36.2107 73.753 36.0077 73.7653 35.7617 73.7777C35.5157 73.7777 35.0852 73.7777 34.4701 73.7777C34.4701 74.7777 34.4763 75.5863 34.4886 76.2036C34.5132 76.8086 34.5378 77.2715 34.5624 77.5925C34.5993 77.9135 34.6239 78.1357 34.6362 78.2592C34.6608 78.3703 34.6731 78.4259 34.6731 78.4259ZM37.367 72.8703C37.8221 72.5863 38.1788 72.1974 38.4371 71.7036C38.7078 71.1974 38.8431 70.6233 38.8431 69.9814C38.8431 69.2777 38.5848 68.7406 38.0681 68.3702C37.5638 67.9875 36.8011 67.7962 35.7802 67.7962C35.3373 67.7962 35.0483 67.8209 34.913 67.8702C34.7899 67.9196 34.7038 68.0307 34.6546 68.2036C34.6546 68.2036 34.6362 68.3517 34.5993 68.648C34.5747 68.932 34.5439 69.4258 34.507 70.1295C34.4824 70.8332 34.4701 71.8085 34.4701 73.0555C35.8232 73.0555 36.7888 72.9937 37.367 72.8703Z" fill="var(--fill-0, #473DFF)"/>
<path d="M48.8764 79.9259C47.4987 79.9259 46.3178 79.6728 45.3337 79.1666C44.362 78.6481 43.6116 77.9135 43.0827 76.9629C42.566 75.9999 42.3077 74.8518 42.3077 73.5184C42.3077 72.2098 42.5845 71.0555 43.138 70.0554C43.6916 69.0554 44.4604 68.2715 45.4444 67.7036C46.4408 67.1357 47.5786 66.8517 48.8579 66.8517C49.6206 66.8517 50.2479 66.9011 50.7399 66.9999C51.2443 67.0863 51.6871 67.1295 52.0684 67.1295C52.4006 67.1295 52.7204 67.0925 53.0279 67.0184C53.0279 67.4628 53.0464 67.9628 53.0833 68.5184C53.1325 69.0616 53.1878 69.5246 53.2493 69.9073L52.7511 70.1295C52.5051 69.3394 52.0438 68.7406 51.3673 68.3332C50.703 67.9135 49.8604 67.7036 48.8395 67.7036C47.9169 67.7036 47.1112 67.932 46.4224 68.3888C45.7335 68.8456 45.1984 69.4875 44.8171 70.3147C44.4358 71.1295 44.2451 72.0925 44.2451 73.2036C44.2451 74.3641 44.4419 75.3826 44.8355 76.2592C45.2292 77.1234 45.7766 77.8024 46.4777 78.2962C47.1789 78.7777 47.9969 79.0185 48.9317 79.0185C50.0388 79.0185 50.9675 78.7901 51.7179 78.3333C52.4682 77.8641 52.9787 77.2098 53.2493 76.3703L53.7475 76.5925C53.6368 76.9876 53.5445 77.4073 53.4707 77.8518C53.3969 78.2962 53.3477 78.7036 53.3231 79.074C51.7732 79.6419 50.291 79.9259 48.8764 79.9259Z" fill="var(--fill-0, #473DFF)"/>
<path d="M67.9401 72.8703C67.9401 73.7592 67.811 74.6295 67.5526 75.4814C67.3066 76.3333 66.913 77.0987 66.3718 77.7777C65.8428 78.4567 65.1478 78.9999 64.2868 79.4074C63.438 79.8024 62.4109 80 61.2054 80C59.8154 80 58.6776 79.7407 57.7919 79.2222C56.9186 78.7036 56.2728 77.9876 55.8545 77.074C55.4486 76.1481 55.2457 75.0863 55.2457 73.8888C55.2457 72.9999 55.3687 72.1357 55.6147 71.2962C55.873 70.4443 56.2666 69.6789 56.7956 68.9999C57.3368 68.3209 58.0318 67.7838 58.8806 67.3888C59.7416 66.9814 60.7749 66.7776 61.9804 66.7776C63.3827 66.7776 64.5205 67.0369 65.3938 67.5554C66.2672 68.0616 66.9068 68.7715 67.3128 69.6851C67.731 70.5987 67.9401 71.6604 67.9401 72.8703ZM66.0027 73.9258C66.0027 73.1234 65.9412 72.3518 65.8182 71.611C65.6952 70.8703 65.4738 70.2036 65.154 69.611C64.8465 69.0061 64.4098 68.5307 63.8439 68.1851C63.2904 67.8394 62.5708 67.6665 61.6851 67.6665C60.9348 67.6665 60.2951 67.8085 59.7662 68.0925C59.2496 68.3641 58.819 68.7221 58.4746 69.1665C58.1425 69.5986 57.878 70.0678 57.6812 70.574C57.4967 71.0801 57.3676 71.5678 57.2937 72.0369C57.2199 72.5061 57.183 72.9011 57.183 73.2221C57.183 73.9876 57.2507 74.7221 57.386 75.4258C57.5336 76.1296 57.7735 76.7592 58.1056 77.3147C58.4377 77.8703 58.8806 78.3086 59.4341 78.6296C59.9876 78.9506 60.6765 79.1111 61.5006 79.1111C62.1772 79.1111 62.7676 78.9938 63.272 78.7592C63.7886 78.5123 64.2191 78.1913 64.5635 77.7962C64.908 77.4012 65.1847 76.9752 65.3938 76.5184C65.6153 76.0493 65.769 75.5925 65.8551 75.1481C65.9535 74.6913 66.0027 74.2839 66.0027 73.9258Z" fill="var(--fill-0, #473DFF)"/>
<path d="M80.9692 79.0185C81.6211 79.0185 82.2484 78.9506 82.8512 78.8148C83.4539 78.679 83.9214 78.5246 84.2535 78.3518C84.2412 77.4629 84.2166 76.7407 84.1797 76.1851C84.1428 75.6296 84.1243 75.3518 84.1243 75.3518C84.0997 75.1172 83.9767 74.9567 83.7553 74.8703C83.5462 74.7715 83.1649 74.6666 82.6113 74.5555L82.6667 74.0184C83.0603 74.0308 83.4539 74.0431 83.8475 74.0555C84.2535 74.0678 84.684 74.074 85.1391 74.074C85.4467 74.074 85.6927 74.074 85.8772 74.074C86.0617 74.0616 86.2339 74.0555 86.3938 74.0555C86.566 74.0431 86.7813 74.0308 87.0396 74.0184L87.095 74.5555C86.7259 74.6295 86.4738 74.6974 86.3385 74.7592C86.2155 74.8209 86.1478 74.895 86.1355 74.9814C86.1232 75.0678 86.1048 75.1913 86.0802 75.3518L85.951 78.6851C84.9792 79.1049 84.0936 79.4197 83.294 79.6296C82.4945 79.8271 81.7011 79.9259 80.9138 79.9259C79.5976 79.9259 78.4475 79.6851 77.4634 79.2036C76.4793 78.7222 75.7105 78.0061 75.157 77.0555C74.6158 76.1049 74.3452 74.9258 74.3452 73.5184C74.3452 72.6295 74.4928 71.79 74.788 70.9999C75.0832 70.1974 75.5199 69.4875 76.098 68.8702C76.6762 68.2406 77.3896 67.7468 78.2384 67.3888C79.0871 67.0307 80.065 66.8517 81.1721 66.8517C81.9717 66.8517 82.6298 66.9011 83.1464 66.9999C83.663 67.0863 84.1489 67.1295 84.6041 67.1295C84.8993 67.1295 85.2006 67.0925 85.5082 67.0184V67.2962C85.5082 67.5431 85.5143 67.8332 85.5266 68.1665C85.5512 68.4875 85.582 68.8085 85.6189 69.1295C85.6558 69.4382 85.6927 69.6974 85.7296 69.9073L85.2129 70.1295C85.0161 69.4999 84.7025 69.0122 84.2719 68.6665C83.8414 68.3085 83.3494 68.0616 82.7958 67.9258C82.2546 67.7777 81.6887 67.7036 81.0983 67.7036C80.2742 67.7036 79.4931 67.9011 78.755 68.2962C78.0293 68.6789 77.4327 69.2777 76.9652 70.0925C76.5101 70.895 76.2825 71.932 76.2825 73.2036C76.2825 73.8826 76.3686 74.5678 76.5409 75.2592C76.7131 75.9505 76.9837 76.5802 77.3527 77.1481C77.7217 77.7036 78.2015 78.1543 78.7919 78.4999C79.3946 78.8456 80.1204 79.0185 80.9692 79.0185Z" fill="var(--fill-0, #473DFF)"/>
<path d="M91.6485 78.4259C91.6731 78.6604 91.8023 78.8271 92.036 78.9259C92.282 79.0123 92.688 79.1111 93.2538 79.2222L93.1984 79.7592C92.8048 79.7345 92.405 79.716 91.9991 79.7037C91.5932 79.7037 91.1504 79.7037 90.6706 79.7037C89.6989 79.7037 88.8255 79.7222 88.0505 79.7592L87.9952 79.2222C88.5487 79.1111 88.9547 79.0123 89.213 78.9259C89.4713 78.8271 89.6128 78.6604 89.6374 78.4259C89.6374 78.4259 89.6497 78.2839 89.6743 77.9999C89.6989 77.7036 89.7235 77.1913 89.7481 76.4629C89.7727 75.7221 89.785 74.6913 89.785 73.3703C89.785 72.0369 89.7727 71.0061 89.7481 70.2777C89.7235 69.5369 89.6989 69.0246 89.6743 68.7406C89.6497 68.4443 89.6374 68.2962 89.6374 68.2962C89.6128 68.0616 89.4897 67.9011 89.2683 67.8147C89.0592 67.7159 88.6779 67.611 88.1243 67.4999L88.1797 66.9628C88.5733 66.9752 88.967 66.9875 89.3606 66.9999C89.7665 67.0122 90.197 67.0184 90.6522 67.0184H93.8442C94.6807 67.0184 95.3695 67.1604 95.9108 67.4443C96.452 67.7159 96.8518 68.0801 97.1101 68.5369C97.3684 68.9814 97.4976 69.4628 97.4976 69.9814C97.4976 70.611 97.3192 71.2345 96.9625 71.8517C96.6058 72.469 95.9538 73.0123 95.0067 73.4814L98.2541 78.9073C98.2541 78.9073 98.3709 78.9506 98.6047 79.037C98.8384 79.1111 99.232 79.1728 99.7855 79.2222L99.7302 79.7592C99.435 79.7592 99.109 79.7654 98.7523 79.7777C98.3955 79.7901 98.0511 79.8024 97.719 79.8148C97.3992 79.8271 97.1347 79.8395 96.9256 79.8518C96.7165 79.8641 96.6119 79.8703 96.6119 79.8703L93.3461 73.7406C93.1861 73.753 92.9832 73.7653 92.7372 73.7777C92.4911 73.7777 92.0606 73.7777 91.4456 73.7777C91.4456 74.7777 91.4517 75.5863 91.464 76.2036C91.4886 76.8086 91.5132 77.2715 91.5378 77.5925C91.5747 77.9135 91.5993 78.1357 91.6116 78.2592C91.6362 78.3703 91.6485 78.4259 91.6485 78.4259ZM94.3424 72.8703C94.7975 72.5863 95.1543 72.1974 95.4126 71.7036C95.6832 71.1974 95.8185 70.6233 95.8185 69.9814C95.8185 69.2777 95.5602 68.7406 95.0436 68.3702C94.5392 67.9875 93.7766 67.7962 92.7556 67.7962C92.3128 67.7962 92.0237 67.8209 91.8884 67.8702C91.7654 67.9196 91.6793 68.0307 91.6301 68.2036C91.6301 68.2036 91.6116 68.3517 91.5747 68.648C91.5501 68.932 91.5194 69.4258 91.4825 70.1295C91.4579 70.8332 91.4456 71.8085 91.4456 73.0555C92.7987 73.0555 93.7643 72.9937 94.3424 72.8703Z" fill="var(--fill-0, #473DFF)"/>
<path d="M111.996 72.8703C111.996 73.7592 111.867 74.6295 111.609 75.4814C111.363 76.3333 110.969 77.0987 110.428 77.7777C109.899 78.4567 109.204 78.9999 108.343 79.4074C107.494 79.8024 106.467 80 105.261 80C103.871 80 102.734 79.7407 101.848 79.2222C100.975 78.7036 100.329 77.9876 99.9105 77.074C99.5046 76.1481 99.3016 75.0863 99.3016 73.8888C99.3016 72.9999 99.4246 72.1357 99.6707 71.2962C99.929 70.4443 100.323 69.6789 100.852 68.9999C101.393 68.3209 102.088 67.7838 102.937 67.3888C103.798 66.9814 104.831 66.7776 106.036 66.7776C107.439 66.7776 108.576 67.0369 109.45 67.5554C110.323 68.0616 110.963 68.7715 111.369 69.6851C111.787 70.5987 111.996 71.6604 111.996 72.8703ZM110.059 73.9258C110.059 73.1234 109.997 72.3518 109.874 71.611C109.751 70.8703 109.53 70.2036 109.21 69.611C108.902 69.0061 108.466 68.5307 107.9 68.1851C107.346 67.8394 106.627 67.6665 105.741 67.6665C104.991 67.6665 104.351 67.8085 103.822 68.0925C103.306 68.3641 102.875 68.7221 102.531 69.1665C102.198 69.5986 101.934 70.0678 101.737 70.574C101.553 71.0801 101.424 71.5678 101.35 72.0369C101.276 72.5061 101.239 72.9011 101.239 73.2221C101.239 73.9876 101.307 74.7221 101.442 75.4258C101.59 76.1296 101.829 76.7592 102.162 77.3147C102.494 77.8703 102.937 78.3086 103.49 78.6296C104.044 78.9506 104.732 79.1111 105.557 79.1111C106.233 79.1111 106.824 78.9938 107.328 78.7592C107.845 78.5123 108.275 78.1913 108.62 77.7962C108.964 77.4012 109.241 76.9752 109.45 76.5184C109.671 76.0493 109.825 75.5925 109.911 75.1481C110.01 74.6913 110.059 74.2839 110.059 73.9258Z" fill="var(--fill-0, #473DFF)"/>
<path d="M123.678 68.2962C123.654 68.0616 123.494 67.9011 123.198 67.8147C122.916 67.7159 122.497 67.611 121.944 67.4999L121.999 66.9628C122.393 66.9752 122.811 66.9875 123.254 66.9999C123.709 67.0122 124.164 67.0184 124.619 67.0184C124.927 67.0184 125.179 67.0184 125.376 67.0184C125.573 67.006 125.757 66.9999 125.929 66.9999C126.114 66.9875 126.335 66.9752 126.593 66.9628L126.649 67.4999C126.095 67.611 125.708 67.7159 125.486 67.8147C125.265 67.9011 125.148 68.0616 125.136 68.2962C125.087 69.432 125.05 70.574 125.025 71.7221C125.001 72.8579 124.97 73.9937 124.933 75.1295C124.908 76.0061 124.73 76.8086 124.398 77.537C124.078 78.2654 123.555 78.8456 122.829 79.2777C122.104 79.7098 121.132 79.9259 119.914 79.9259C118.881 79.9259 117.995 79.8024 117.257 79.5555C116.531 79.3086 115.972 78.858 115.578 78.2036C115.184 77.537 114.975 76.5802 114.951 75.3333C114.938 74.1604 114.92 72.9876 114.895 71.8147C114.871 70.6419 114.846 69.469 114.822 68.2962C114.822 68.0616 114.705 67.9011 114.471 67.8147C114.25 67.7159 113.862 67.611 113.309 67.4999L113.364 66.9628C113.758 66.9752 114.151 66.9875 114.545 66.9999C114.951 67.0122 115.381 67.0184 115.836 67.0184C116.304 67.0184 116.722 67.0122 117.091 66.9999C117.472 66.9875 117.854 66.9752 118.235 66.9628L118.29 67.4999C117.737 67.611 117.349 67.7159 117.128 67.8147C116.919 67.9011 116.802 68.0616 116.777 68.2962C116.777 68.2962 116.759 68.4567 116.722 68.7777C116.697 69.0986 116.673 69.6542 116.648 70.4443C116.624 71.2221 116.611 72.3209 116.611 73.7406C116.611 74.5308 116.63 75.2468 116.667 75.8888C116.716 76.5184 116.839 77.0555 117.036 77.4999C117.245 77.9444 117.571 78.2839 118.014 78.5185C118.469 78.753 119.102 78.8703 119.914 78.8703C120.751 78.8703 121.421 78.7407 121.925 78.4814C122.442 78.2222 122.836 77.8518 123.106 77.3703C123.389 76.8888 123.58 76.3147 123.678 75.6481C123.777 74.9814 123.826 74.2407 123.826 73.4258C123.826 72.0925 123.813 71.0554 123.789 70.3147C123.764 69.574 123.74 69.0554 123.715 68.7591C123.69 68.4505 123.678 68.2962 123.678 68.2962Z" fill="var(--fill-0, #473DFF)"/>
<path d="M130.113 67.0184H132.918C133.877 67.0184 134.665 67.1789 135.28 67.4999C135.895 67.8209 136.35 68.2406 136.645 68.7591C136.94 69.2653 137.088 69.8147 137.088 70.4073C137.088 71.0616 136.897 71.7036 136.516 72.3332C136.135 72.9629 135.581 73.4876 134.855 73.9073C134.142 74.3147 133.262 74.5184 132.217 74.5184C131.811 74.5184 131.374 74.4814 130.907 74.4073C130.907 75.4073 130.913 76.1851 130.925 76.7407C130.938 77.2839 130.956 77.6789 130.981 77.9259C131.005 78.1604 131.024 78.3024 131.036 78.3518C131.048 78.4012 131.054 78.4259 131.054 78.4259C131.079 78.6604 131.208 78.8271 131.442 78.9259C131.676 79.0123 132.069 79.1111 132.623 79.2222L132.567 79.7592C132.186 79.7345 131.799 79.716 131.405 79.7037C131.011 79.7037 130.581 79.7037 130.113 79.7037C129.154 79.7037 128.287 79.7222 127.512 79.7592L127.456 79.2222C128.01 79.1111 128.416 79.0123 128.674 78.9259C128.932 78.8271 129.074 78.6604 129.099 78.4259C129.099 78.4259 129.111 78.2839 129.135 77.9999C129.16 77.7036 129.185 77.1913 129.209 76.4629C129.234 75.7221 129.246 74.6913 129.246 73.3703C129.246 72.0369 129.234 71.0061 129.209 70.2777C129.185 69.5369 129.16 69.0246 129.135 68.7406C129.111 68.4443 129.099 68.2962 129.099 68.2962C129.074 68.0616 128.951 67.9011 128.729 67.8147C128.52 67.7159 128.139 67.611 127.586 67.4999L127.641 66.9628C128.034 66.9752 128.428 66.9875 128.822 66.9999C129.228 67.0122 129.658 67.0184 130.113 67.0184ZM130.907 73.6851C131.263 73.7221 131.602 73.7406 131.922 73.7406C132.943 73.7406 133.761 73.4999 134.376 73.0184C135.003 72.5246 135.317 71.7345 135.317 70.648C135.317 69.5987 135.046 68.8641 134.505 68.4443C133.976 68.0122 133.213 67.7962 132.217 67.7962C131.786 67.7962 131.503 67.827 131.368 67.8888C131.233 67.9381 131.14 68.1172 131.091 68.4258C131.091 68.4258 131.079 68.4999 131.054 68.648C131.042 68.7962 131.024 69.0616 130.999 69.4443C130.974 69.827 130.95 70.3641 130.925 71.0554C130.913 71.7345 130.907 72.611 130.907 73.6851Z" fill="var(--fill-0, #473DFF)"/>
<path d="M57.878 34.0861C58.4592 34.3268 58.8006 34.7898 59.1757 35.1725C62.1136 38.1108 65.0473 41.0563 67.977 44.009C69.37 45.4195 69.2071 45.2929 70.4371 44.0584C75.4764 39.0007 80.5105 33.9462 85.5395 28.8947C85.847 28.586 86.1176 28.1725 86.6804 27.9965C86.9449 28.3978 86.8188 28.8607 86.8188 29.2836C86.8188 35.6633 86.7819 42.0429 86.8618 48.4195C86.8618 49.8146 86.5174 50.7961 85.3427 51.5059C84.8753 51.7899 84.5462 52.2899 83.8051 52.543V35.4657C83.0025 35.6447 82.698 36.1447 82.3259 36.5182C78.2933 40.547 74.2689 44.582 70.2526 48.6232C69.2409 49.6386 69.2286 49.6417 68.2507 48.6602C65.8705 46.2621 63.4964 43.8547 60.8456 41.1756V61.8023C60.3074 62.1387 59.9753 61.9196 59.6616 61.8023C47.8559 57.5307 40.5215 49.2281 38.5688 36.8021C35.7918 19.1138 48.2833 3.57046 64.8249 1.33279C75.7788 -0.151785 85.0659 3.34515 92.4833 11.518C96.9885 16.481 99.5225 22.4317 100.119 29.1601C100.196 30.0305 100.251 30.9009 100.307 31.7743C100.34 32.2805 100.107 32.4719 99.587 32.5213C97.3606 32.728 97.2837 32.6818 97.1607 30.4966C96.7955 24.1535 94.2982 18.1222 90.0768 13.3875C85.8553 8.65278 80.159 5.49453 73.9183 4.42849C55.0642 1.25254 38.7071 17.4286 41.6255 36.4626C43.037 45.6571 48.0373 52.4195 56.079 56.9473C56.3865 57.1233 56.7156 57.2838 57.0415 57.4319C57.512 57.648 57.7089 57.4319 57.7181 56.9659C57.7181 56.5554 57.7181 56.1418 57.7181 55.7313C57.7181 49.046 57.7181 42.3588 57.7181 35.6694C57.7427 35.1787 57.6504 34.6725 57.878 34.0861Z" stroke="var(--stroke-0, #473DFF)" stroke-width="2" mask="url(#path-1-outside-1_0_685)"/>
<path d="M51.9578 19.2095C53.7045 20.9996 55.4359 22.8052 57.1857 24.5829C60.8759 28.299 64.5662 32.0027 68.2564 35.6941C69.2312 36.6694 69.2497 36.6725 70.2461 35.6725C75.2792 30.6231 80.3102 25.5716 85.3392 20.5181C85.7605 20.0922 86.2125 19.6971 86.8522 19.1014C86.8522 20.4595 86.8276 21.5706 86.8522 22.657C86.8522 23.2403 86.5662 23.6107 86.1941 23.9842C80.7633 29.4287 75.3171 34.8639 69.9232 40.3423C69.1728 41.1016 68.8499 40.6509 68.361 40.154C64.2545 36.0141 60.1338 31.8772 55.9986 27.7435C55.648 27.3916 55.402 26.9256 54.7224 26.7404V52.5769C53.5631 52.0523 52.8588 51.2313 52.0439 50.5646C51.4688 50.0955 51.6318 49.4411 51.6318 48.8424C51.6318 40.5131 51.6318 32.1848 51.6318 23.8576V19.4039L51.9578 19.2095Z" stroke="var(--stroke-0, #473DFF)" stroke-width="2" mask="url(#path-1-outside-1_0_685)"/>
<path d="M77.8515 62.0708C77.5439 61.5461 77.6823 61.0245 77.6823 60.5276C77.6823 56.0553 77.7069 51.5769 77.6516 47.1108C77.6516 45.9534 77.8668 45.0429 78.7925 44.2837C79.3706 43.8114 79.8042 43.1571 80.3055 42.5861L80.6499 42.7682V57.4628C86.3483 55.9905 94.7282 47.6973 96.3335 38.7065H88.7838C89.648 37.4719 90.6535 36.6293 91.5761 35.7373C91.8529 35.4688 92.2619 35.583 92.6125 35.583C94.7138 35.583 96.8142 35.583 98.9136 35.583C100.144 35.583 100.144 35.6108 99.9653 36.7744C99.0903 42.5159 96.6428 47.9004 92.896 52.3269C89.1491 56.7534 84.2503 60.0478 78.7463 61.8424C78.448 61.935 78.159 61.9937 77.8515 62.0708Z" stroke="var(--stroke-0, #473DFF)" stroke-width="2" mask="url(#path-1-outside-1_0_685)"/>
<path d="M13.4872 69.9629H13.3765L9.42788 79.6851L8.28391 79.8888L4.33534 69.9629H4.26153C4.23693 71.0493 4.20003 72.1357 4.15083 73.2221C4.10162 74.3086 4.07702 75.395 4.07702 76.4814C4.07702 77.1604 4.08317 77.6543 4.09547 77.9629C4.12007 78.2715 4.13237 78.4259 4.13237 78.4259C4.15698 78.6604 4.31074 78.8271 4.59366 78.9259C4.88888 79.0123 5.31325 79.1111 5.86679 79.2222L5.81144 79.7592C5.43011 79.7345 5.01188 79.716 4.55675 79.7037C4.11392 79.7037 3.65879 79.7037 3.19136 79.7037C2.88384 79.7037 2.62552 79.7037 2.41641 79.7037C2.20729 79.7037 2.00433 79.7037 1.80752 79.7037C1.623 79.716 1.40159 79.7345 1.14327 79.7592L1.08792 79.2222C1.64146 79.1111 2.03508 79.0061 2.2688 78.9073C2.51481 78.8086 2.65012 78.6481 2.67473 78.4259C2.78543 77.574 2.86539 76.7468 2.91459 75.9444C2.96379 75.1295 2.99455 74.3024 3.00685 73.4629C3.03145 72.6234 3.04375 71.7221 3.04375 70.7592C3.04375 69.8456 3.03145 69.2098 3.00685 68.8517C2.98225 68.4814 2.96995 68.2962 2.96995 68.2962C2.94534 68.0616 2.82234 67.9011 2.60092 67.8147C2.39181 67.7159 2.01048 67.611 1.45694 67.4999L1.5123 66.9628C1.77061 66.9752 2.09044 66.9875 2.47176 66.9999C2.86539 66.9999 3.25902 67.006 3.65264 67.0184C4.05857 67.0184 4.41529 67.0184 4.72281 67.0184L9.11421 77.9444L13.5056 67.0184C13.8131 67.0184 14.1699 67.0184 14.5758 67.0184C14.994 67.006 15.3999 66.9999 15.7936 66.9999C16.1872 66.9875 16.5132 66.9752 16.7715 66.9628L16.8268 67.4999C16.2733 67.611 15.8858 67.7159 15.6644 67.8147C15.4553 67.9011 15.3384 68.0616 15.3138 68.2962C15.3138 68.2962 15.3015 68.4135 15.2769 68.648C15.2523 68.8826 15.24 69.3456 15.24 70.0369C15.24 70.111 15.24 70.2962 15.24 70.5925C15.2523 70.8888 15.2646 71.2283 15.2769 71.611C15.2892 71.9814 15.3015 72.3332 15.3138 72.6666C15.3261 72.9876 15.3323 73.2221 15.3323 73.3703C15.3815 74.4073 15.4245 75.2592 15.4614 75.9258C15.5106 76.5802 15.5475 77.0925 15.5722 77.4629C15.5968 77.8209 15.6152 78.074 15.6275 78.2222C15.6521 78.358 15.6644 78.4259 15.6644 78.4259C15.689 78.6604 15.8182 78.8271 16.0519 78.9259C16.2856 79.0123 16.6792 79.1111 17.2328 79.2222L17.1774 79.7592C16.7961 79.7345 16.4086 79.716 16.015 79.7037C15.6214 79.7037 15.1908 79.7037 14.7234 79.7037C13.7639 79.7037 12.8967 79.7222 12.1218 79.7592L12.0664 79.2222C12.62 79.1111 13.032 79.0123 13.3026 78.9259C13.5733 78.8271 13.7086 78.6604 13.7086 78.4259C13.7086 78.4259 13.7086 78.2839 13.7086 77.9999C13.7209 77.7036 13.727 77.2962 13.727 76.7777C13.727 76.3703 13.7209 75.8765 13.7086 75.2962C13.6963 74.7036 13.6778 74.0802 13.6532 73.4258C13.6286 72.7715 13.5979 72.1419 13.561 71.5369C13.5364 70.932 13.5118 70.4073 13.4872 69.9629Z" stroke="var(--stroke-0, #473DFF)" stroke-width="2" mask="url(#path-1-outside-1_0_685)"/>
<path d="M17.7286 79.7592L17.6733 79.2222C18.2514 79.1111 18.6635 78.9938 18.9095 78.8703C19.1555 78.7345 19.3154 78.5493 19.3893 78.3148L23.0611 67.0369L24.611 66.8517L28.9101 78.4259C28.9962 78.6357 29.1377 78.7962 29.3345 78.9073C29.5436 79.0185 29.9249 79.1234 30.4785 79.2222L30.4231 79.7592C30.0172 79.7345 29.6174 79.716 29.2238 79.7037C28.8301 79.7037 28.4119 79.7037 27.9691 79.7037C26.9973 79.7037 26.1301 79.7222 25.3675 79.7592L25.3121 79.2222C25.9517 79.0987 26.3823 78.9876 26.6037 78.8888C26.8251 78.7901 26.9358 78.6666 26.9358 78.5185L25.921 75.2221H21.751L20.7546 78.5185C20.7546 78.6666 20.8715 78.7901 21.1052 78.8888C21.3389 78.9876 21.751 79.0987 22.3415 79.2222L22.2861 79.7592C21.8802 79.7345 21.4804 79.716 21.0868 79.7037C20.6931 79.7037 20.2749 79.7037 19.8321 79.7037C19.4508 79.7037 19.1248 79.7037 18.8542 79.7037C18.5835 79.716 18.2084 79.7345 17.7286 79.7592ZM22.0093 74.3703H25.6258L23.7622 68.7777H23.6884L22.0093 74.3703Z" stroke="var(--stroke-0, #473DFF)" stroke-width="2" mask="url(#path-1-outside-1_0_685)"/>
<path d="M34.6731 78.4259C34.6977 78.6604 34.8268 78.8271 35.0606 78.9259C35.3066 79.0123 35.7125 79.1111 36.2783 79.2222L36.223 79.7592C35.8294 79.7345 35.4296 79.716 35.0237 79.7037C34.6177 79.7037 34.1749 79.7037 33.6952 79.7037C32.7234 79.7037 31.85 79.7222 31.0751 79.7592L31.0197 79.2222C31.5733 79.1111 31.9792 79.0123 32.2375 78.9259C32.4958 78.8271 32.6373 78.6604 32.6619 78.4259C32.6619 78.4259 32.6742 78.2839 32.6988 77.9999C32.7234 77.7036 32.748 77.1913 32.7726 76.4629C32.7972 75.7221 32.8095 74.6913 32.8095 73.3703C32.8095 72.0369 32.7972 71.0061 32.7726 70.2777C32.748 69.5369 32.7234 69.0246 32.6988 68.7406C32.6742 68.4443 32.6619 68.2962 32.6619 68.2962C32.6373 68.0616 32.5143 67.9011 32.2929 67.8147C32.0838 67.7159 31.7024 67.611 31.1489 67.4999L31.2043 66.9628C31.5979 66.9752 31.9915 66.9875 32.3851 66.9999C32.7911 67.0122 33.2216 67.0184 33.6767 67.0184H36.8688C37.7052 67.0184 38.3941 67.1604 38.9353 67.4443C39.4766 67.7159 39.8763 68.0801 40.1347 68.5369C40.393 68.9814 40.5221 69.4628 40.5221 69.9814C40.5221 70.611 40.3438 71.2345 39.9871 71.8517C39.6303 72.469 38.9784 73.0123 38.0312 73.4814L41.2786 78.9073C41.2786 78.9073 41.3955 78.9506 41.6292 79.037C41.8629 79.1111 42.2566 79.1728 42.8101 79.2222L42.7547 79.7592C42.4595 79.7592 42.1335 79.7654 41.7768 79.7777C41.4201 79.7901 41.0757 79.8024 40.7435 79.8148C40.4237 79.8271 40.1593 79.8395 39.9501 79.8518C39.741 79.8641 39.6365 79.8703 39.6365 79.8703L36.3706 73.7406C36.2107 73.753 36.0077 73.7653 35.7617 73.7777C35.5157 73.7777 35.0852 73.7777 34.4701 73.7777C34.4701 74.7777 34.4763 75.5863 34.4886 76.2036C34.5132 76.8086 34.5378 77.2715 34.5624 77.5925C34.5993 77.9135 34.6239 78.1357 34.6362 78.2592C34.6608 78.3703 34.6731 78.4259 34.6731 78.4259ZM37.367 72.8703C37.8221 72.5863 38.1788 72.1974 38.4371 71.7036C38.7078 71.1974 38.8431 70.6233 38.8431 69.9814C38.8431 69.2777 38.5848 68.7406 38.0681 68.3702C37.5638 67.9875 36.8011 67.7962 35.7802 67.7962C35.3373 67.7962 35.0483 67.8209 34.913 67.8702C34.7899 67.9196 34.7038 68.0307 34.6546 68.2036C34.6546 68.2036 34.6362 68.3517 34.5993 68.648C34.5747 68.932 34.5439 69.4258 34.507 70.1295C34.4824 70.8332 34.4701 71.8085 34.4701 73.0555C35.8232 73.0555 36.7888 72.9937 37.367 72.8703Z" stroke="var(--stroke-0, #473DFF)" stroke-width="2" mask="url(#path-1-outside-1_0_685)"/>
<path d="M48.8764 79.9259C47.4987 79.9259 46.3178 79.6728 45.3337 79.1666C44.362 78.6481 43.6116 77.9135 43.0827 76.9629C42.566 75.9999 42.3077 74.8518 42.3077 73.5184C42.3077 72.2098 42.5845 71.0555 43.138 70.0554C43.6916 69.0554 44.4604 68.2715 45.4444 67.7036C46.4408 67.1357 47.5786 66.8517 48.8579 66.8517C49.6206 66.8517 50.2479 66.9011 50.7399 66.9999C51.2443 67.0863 51.6871 67.1295 52.0684 67.1295C52.4006 67.1295 52.7204 67.0925 53.0279 67.0184C53.0279 67.4628 53.0464 67.9628 53.0833 68.5184C53.1325 69.0616 53.1878 69.5246 53.2493 69.9073L52.7511 70.1295C52.5051 69.3394 52.0438 68.7406 51.3673 68.3332C50.703 67.9135 49.8604 67.7036 48.8395 67.7036C47.9169 67.7036 47.1112 67.932 46.4224 68.3888C45.7335 68.8456 45.1984 69.4875 44.8171 70.3147C44.4358 71.1295 44.2451 72.0925 44.2451 73.2036C44.2451 74.3641 44.4419 75.3826 44.8355 76.2592C45.2292 77.1234 45.7766 77.8024 46.4777 78.2962C47.1789 78.7777 47.9969 79.0185 48.9317 79.0185C50.0388 79.0185 50.9675 78.7901 51.7179 78.3333C52.4682 77.8641 52.9787 77.2098 53.2493 76.3703L53.7475 76.5925C53.6368 76.9876 53.5445 77.4073 53.4707 77.8518C53.3969 78.2962 53.3477 78.7036 53.3231 79.074C51.7732 79.6419 50.291 79.9259 48.8764 79.9259Z" stroke="var(--stroke-0, #473DFF)" stroke-width="2" mask="url(#path-1-outside-1_0_685)"/>
<path d="M67.9401 72.8703C67.9401 73.7592 67.811 74.6295 67.5526 75.4814C67.3066 76.3333 66.913 77.0987 66.3718 77.7777C65.8428 78.4567 65.1478 78.9999 64.2868 79.4074C63.438 79.8024 62.4109 80 61.2054 80C59.8154 80 58.6776 79.7407 57.7919 79.2222C56.9186 78.7036 56.2728 77.9876 55.8545 77.074C55.4486 76.1481 55.2457 75.0863 55.2457 73.8888C55.2457 72.9999 55.3687 72.1357 55.6147 71.2962C55.873 70.4443 56.2666 69.6789 56.7956 68.9999C57.3368 68.3209 58.0318 67.7838 58.8806 67.3888C59.7416 66.9814 60.7749 66.7776 61.9804 66.7776C63.3827 66.7776 64.5205 67.0369 65.3938 67.5554C66.2672 68.0616 66.9068 68.7715 67.3128 69.6851C67.731 70.5987 67.9401 71.6604 67.9401 72.8703ZM66.0027 73.9258C66.0027 73.1234 65.9412 72.3518 65.8182 71.611C65.6952 70.8703 65.4738 70.2036 65.154 69.611C64.8465 69.0061 64.4098 68.5307 63.8439 68.1851C63.2904 67.8394 62.5708 67.6665 61.6851 67.6665C60.9348 67.6665 60.2951 67.8085 59.7662 68.0925C59.2496 68.3641 58.819 68.7221 58.4746 69.1665C58.1425 69.5986 57.878 70.0678 57.6812 70.574C57.4967 71.0801 57.3676 71.5678 57.2937 72.0369C57.2199 72.5061 57.183 72.9011 57.183 73.2221C57.183 73.9876 57.2507 74.7221 57.386 75.4258C57.5336 76.1296 57.7735 76.7592 58.1056 77.3147C58.4377 77.8703 58.8806 78.3086 59.4341 78.6296C59.9876 78.9506 60.6765 79.1111 61.5006 79.1111C62.1772 79.1111 62.7676 78.9938 63.272 78.7592C63.7886 78.5123 64.2191 78.1913 64.5635 77.7962C64.908 77.4012 65.1847 76.9752 65.3938 76.5184C65.6153 76.0493 65.769 75.5925 65.8551 75.1481C65.9535 74.6913 66.0027 74.2839 66.0027 73.9258Z" stroke="var(--stroke-0, #473DFF)" stroke-width="2" mask="url(#path-1-outside-1_0_685)"/>
<path d="M80.9692 79.0185C81.6211 79.0185 82.2484 78.9506 82.8512 78.8148C83.4539 78.679 83.9214 78.5246 84.2535 78.3518C84.2412 77.4629 84.2166 76.7407 84.1797 76.1851C84.1428 75.6296 84.1243 75.3518 84.1243 75.3518C84.0997 75.1172 83.9767 74.9567 83.7553 74.8703C83.5462 74.7715 83.1649 74.6666 82.6113 74.5555L82.6667 74.0184C83.0603 74.0308 83.4539 74.0431 83.8475 74.0555C84.2535 74.0678 84.684 74.074 85.1391 74.074C85.4467 74.074 85.6927 74.074 85.8772 74.074C86.0617 74.0616 86.2339 74.0555 86.3938 74.0555C86.566 74.0431 86.7813 74.0308 87.0396 74.0184L87.095 74.5555C86.7259 74.6295 86.4738 74.6974 86.3385 74.7592C86.2155 74.8209 86.1478 74.895 86.1355 74.9814C86.1232 75.0678 86.1048 75.1913 86.0802 75.3518L85.951 78.6851C84.9792 79.1049 84.0936 79.4197 83.294 79.6296C82.4945 79.8271 81.7011 79.9259 80.9138 79.9259C79.5976 79.9259 78.4475 79.6851 77.4634 79.2036C76.4793 78.7222 75.7105 78.0061 75.157 77.0555C74.6158 76.1049 74.3452 74.9258 74.3452 73.5184C74.3452 72.6295 74.4928 71.79 74.788 70.9999C75.0832 70.1974 75.5199 69.4875 76.098 68.8702C76.6762 68.2406 77.3896 67.7468 78.2384 67.3888C79.0871 67.0307 80.065 66.8517 81.1721 66.8517C81.9717 66.8517 82.6298 66.9011 83.1464 66.9999C83.663 67.0863 84.1489 67.1295 84.6041 67.1295C84.8993 67.1295 85.2006 67.0925 85.5082 67.0184V67.2962C85.5082 67.5431 85.5143 67.8332 85.5266 68.1665C85.5512 68.4875 85.582 68.8085 85.6189 69.1295C85.6558 69.4382 85.6927 69.6974 85.7296 69.9073L85.2129 70.1295C85.0161 69.4999 84.7025 69.0122 84.2719 68.6665C83.8414 68.3085 83.3494 68.0616 82.7958 67.9258C82.2546 67.7777 81.6887 67.7036 81.0983 67.7036C80.2742 67.7036 79.4931 67.9011 78.755 68.2962C78.0293 68.6789 77.4327 69.2777 76.9652 70.0925C76.5101 70.895 76.2825 71.932 76.2825 73.2036C76.2825 73.8826 76.3686 74.5678 76.5409 75.2592C76.7131 75.9505 76.9837 76.5802 77.3527 77.1481C77.7217 77.7036 78.2015 78.1543 78.7919 78.4999C79.3946 78.8456 80.1204 79.0185 80.9692 79.0185Z" stroke="var(--stroke-0, #473DFF)" stroke-width="2" mask="url(#path-1-outside-1_0_685)"/>
<path d="M91.6485 78.4259C91.6731 78.6604 91.8023 78.8271 92.036 78.9259C92.282 79.0123 92.688 79.1111 93.2538 79.2222L93.1984 79.7592C92.8048 79.7345 92.405 79.716 91.9991 79.7037C91.5932 79.7037 91.1504 79.7037 90.6706 79.7037C89.6989 79.7037 88.8255 79.7222 88.0505 79.7592L87.9952 79.2222C88.5487 79.1111 88.9547 79.0123 89.213 78.9259C89.4713 78.8271 89.6128 78.6604 89.6374 78.4259C89.6374 78.4259 89.6497 78.2839 89.6743 77.9999C89.6989 77.7036 89.7235 77.1913 89.7481 76.4629C89.7727 75.7221 89.785 74.6913 89.785 73.3703C89.785 72.0369 89.7727 71.0061 89.7481 70.2777C89.7235 69.5369 89.6989 69.0246 89.6743 68.7406C89.6497 68.4443 89.6374 68.2962 89.6374 68.2962C89.6128 68.0616 89.4897 67.9011 89.2683 67.8147C89.0592 67.7159 88.6779 67.611 88.1243 67.4999L88.1797 66.9628C88.5733 66.9752 88.967 66.9875 89.3606 66.9999C89.7665 67.0122 90.197 67.0184 90.6522 67.0184H93.8442C94.6807 67.0184 95.3695 67.1604 95.9108 67.4443C96.452 67.7159 96.8518 68.0801 97.1101 68.5369C97.3684 68.9814 97.4976 69.4628 97.4976 69.9814C97.4976 70.611 97.3192 71.2345 96.9625 71.8517C96.6058 72.469 95.9538 73.0123 95.0067 73.4814L98.2541 78.9073C98.2541 78.9073 98.3709 78.9506 98.6047 79.037C98.8384 79.1111 99.232 79.1728 99.7855 79.2222L99.7302 79.7592C99.435 79.7592 99.109 79.7654 98.7523 79.7777C98.3955 79.7901 98.0511 79.8024 97.719 79.8148C97.3992 79.8271 97.1347 79.8395 96.9256 79.8518C96.7165 79.8641 96.6119 79.8703 96.6119 79.8703L93.3461 73.7406C93.1861 73.753 92.9832 73.7653 92.7372 73.7777C92.4911 73.7777 92.0606 73.7777 91.4456 73.7777C91.4456 74.7777 91.4517 75.5863 91.464 76.2036C91.4886 76.8086 91.5132 77.2715 91.5378 77.5925C91.5747 77.9135 91.5993 78.1357 91.6116 78.2592C91.6362 78.3703 91.6485 78.4259 91.6485 78.4259ZM94.3424 72.8703C94.7975 72.5863 95.1543 72.1974 95.4126 71.7036C95.6832 71.1974 95.8185 70.6233 95.8185 69.9814C95.8185 69.2777 95.5602 68.7406 95.0436 68.3702C94.5392 67.9875 93.7766 67.7962 92.7556 67.7962C92.3128 67.7962 92.0237 67.8209 91.8884 67.8702C91.7654 67.9196 91.6793 68.0307 91.6301 68.2036C91.6301 68.2036 91.6116 68.3517 91.5747 68.648C91.5501 68.932 91.5194 69.4258 91.4825 70.1295C91.4579 70.8332 91.4456 71.8085 91.4456 73.0555C92.7987 73.0555 93.7643 72.9937 94.3424 72.8703Z" stroke="var(--stroke-0, #473DFF)" stroke-width="2" mask="url(#path-1-outside-1_0_685)"/>
<path d="M111.996 72.8703C111.996 73.7592 111.867 74.6295 111.609 75.4814C111.363 76.3333 110.969 77.0987 110.428 77.7777C109.899 78.4567 109.204 78.9999 108.343 79.4074C107.494 79.8024 106.467 80 105.261 80C103.871 80 102.734 79.7407 101.848 79.2222C100.975 78.7036 100.329 77.9876 99.9105 77.074C99.5046 76.1481 99.3016 75.0863 99.3016 73.8888C99.3016 72.9999 99.4246 72.1357 99.6707 71.2962C99.929 70.4443 100.323 69.6789 100.852 68.9999C101.393 68.3209 102.088 67.7838 102.937 67.3888C103.798 66.9814 104.831 66.7776 106.036 66.7776C107.439 66.7776 108.576 67.0369 109.45 67.5554C110.323 68.0616 110.963 68.7715 111.369 69.6851C111.787 70.5987 111.996 71.6604 111.996 72.8703ZM110.059 73.9258C110.059 73.1234 109.997 72.3518 109.874 71.611C109.751 70.8703 109.53 70.2036 109.21 69.611C108.902 69.0061 108.466 68.5307 107.9 68.1851C107.346 67.8394 106.627 67.6665 105.741 67.6665C104.991 67.6665 104.351 67.8085 103.822 68.0925C103.306 68.3641 102.875 68.7221 102.531 69.1665C102.198 69.5986 101.934 70.0678 101.737 70.574C101.553 71.0801 101.424 71.5678 101.35 72.0369C101.276 72.5061 101.239 72.9011 101.239 73.2221C101.239 73.9876 101.307 74.7221 101.442 75.4258C101.59 76.1296 101.829 76.7592 102.162 77.3147C102.494 77.8703 102.937 78.3086 103.49 78.6296C104.044 78.9506 104.732 79.1111 105.557 79.1111C106.233 79.1111 106.824 78.9938 107.328 78.7592C107.845 78.5123 108.275 78.1913 108.62 77.7962C108.964 77.4012 109.241 76.9752 109.45 76.5184C109.671 76.0493 109.825 75.5925 109.911 75.1481C110.01 74.6913 110.059 74.2839 110.059 73.9258Z" stroke="var(--stroke-0, #473DFF)" stroke-width="2" mask="url(#path-1-outside-1_0_685)"/>
<path d="M123.678 68.2962C123.654 68.0616 123.494 67.9011 123.198 67.8147C122.916 67.7159 122.497 67.611 121.944 67.4999L121.999 66.9628C122.393 66.9752 122.811 66.9875 123.254 66.9999C123.709 67.0122 124.164 67.0184 124.619 67.0184C124.927 67.0184 125.179 67.0184 125.376 67.0184C125.573 67.006 125.757 66.9999 125.929 66.9999C126.114 66.9875 126.335 66.9752 126.593 66.9628L126.649 67.4999C126.095 67.611 125.708 67.7159 125.486 67.8147C125.265 67.9011 125.148 68.0616 125.136 68.2962C125.087 69.432 125.05 70.574 125.025 71.7221C125.001 72.8579 124.97 73.9937 124.933 75.1295C124.908 76.0061 124.73 76.8086 124.398 77.537C124.078 78.2654 123.555 78.8456 122.829 79.2777C122.104 79.7098 121.132 79.9259 119.914 79.9259C118.881 79.9259 117.995 79.8024 117.257 79.5555C116.531 79.3086 115.972 78.858 115.578 78.2036C115.184 77.537 114.975 76.5802 114.951 75.3333C114.938 74.1604 114.92 72.9876 114.895 71.8147C114.871 70.6419 114.846 69.469 114.822 68.2962C114.822 68.0616 114.705 67.9011 114.471 67.8147C114.25 67.7159 113.862 67.611 113.309 67.4999L113.364 66.9628C113.758 66.9752 114.151 66.9875 114.545 66.9999C114.951 67.0122 115.381 67.0184 115.836 67.0184C116.304 67.0184 116.722 67.0122 117.091 66.9999C117.472 66.9875 117.854 66.9752 118.235 66.9628L118.29 67.4999C117.737 67.611 117.349 67.7159 117.128 67.8147C116.919 67.9011 116.802 68.0616 116.777 68.2962C116.777 68.2962 116.759 68.4567 116.722 68.7777C116.697 69.0986 116.673 69.6542 116.648 70.4443C116.624 71.2221 116.611 72.3209 116.611 73.7406C116.611 74.5308 116.63 75.2468 116.667 75.8888C116.716 76.5184 116.839 77.0555 117.036 77.4999C117.245 77.9444 117.571 78.2839 118.014 78.5185C118.469 78.753 119.102 78.8703 119.914 78.8703C120.751 78.8703 121.421 78.7407 121.925 78.4814C122.442 78.2222 122.836 77.8518 123.106 77.3703C123.389 76.8888 123.58 76.3147 123.678 75.6481C123.777 74.9814 123.826 74.2407 123.826 73.4258C123.826 72.0925 123.813 71.0554 123.789 70.3147C123.764 69.574 123.74 69.0554 123.715 68.7591C123.69 68.4505 123.678 68.2962 123.678 68.2962Z" stroke="var(--stroke-0, #473DFF)" stroke-width="2" mask="url(#path-1-outside-1_0_685)"/>
<path d="M130.113 67.0184H132.918C133.877 67.0184 134.665 67.1789 135.28 67.4999C135.895 67.8209 136.35 68.2406 136.645 68.7591C136.94 69.2653 137.088 69.8147 137.088 70.4073C137.088 71.0616 136.897 71.7036 136.516 72.3332C136.135 72.9629 135.581 73.4876 134.855 73.9073C134.142 74.3147 133.262 74.5184 132.217 74.5184C131.811 74.5184 131.374 74.4814 130.907 74.4073C130.907 75.4073 130.913 76.1851 130.925 76.7407C130.938 77.2839 130.956 77.6789 130.981 77.9259C131.005 78.1604 131.024 78.3024 131.036 78.3518C131.048 78.4012 131.054 78.4259 131.054 78.4259C131.079 78.6604 131.208 78.8271 131.442 78.9259C131.676 79.0123 132.069 79.1111 132.623 79.2222L132.567 79.7592C132.186 79.7345 131.799 79.716 131.405 79.7037C131.011 79.7037 130.581 79.7037 130.113 79.7037C129.154 79.7037 128.287 79.7222 127.512 79.7592L127.456 79.2222C128.01 79.1111 128.416 79.0123 128.674 78.9259C128.932 78.8271 129.074 78.6604 129.099 78.4259C129.099 78.4259 129.111 78.2839 129.135 77.9999C129.16 77.7036 129.185 77.1913 129.209 76.4629C129.234 75.7221 129.246 74.6913 129.246 73.3703C129.246 72.0369 129.234 71.0061 129.209 70.2777C129.185 69.5369 129.16 69.0246 129.135 68.7406C129.111 68.4443 129.099 68.2962 129.099 68.2962C129.074 68.0616 128.951 67.9011 128.729 67.8147C128.52 67.7159 128.139 67.611 127.586 67.4999L127.641 66.9628C128.034 66.9752 128.428 66.9875 128.822 66.9999C129.228 67.0122 129.658 67.0184 130.113 67.0184ZM130.907 73.6851C131.263 73.7221 131.602 73.7406 131.922 73.7406C132.943 73.7406 133.761 73.4999 134.376 73.0184C135.003 72.5246 135.317 71.7345 135.317 70.648C135.317 69.5987 135.046 68.8641 134.505 68.4443C133.976 68.0122 133.213 67.7962 132.217 67.7962C131.786 67.7962 131.503 67.827 131.368 67.8888C131.233 67.9381 131.14 68.1172 131.091 68.4258C131.091 68.4258 131.079 68.4999 131.054 68.648C131.042 68.7962 131.024 69.0616 130.999 69.4443C130.974 69.827 130.95 70.3641 130.925 71.0554C130.913 71.7345 130.907 72.611 130.907 73.6851Z" stroke="var(--stroke-0, #473DFF)" stroke-width="2" mask="url(#path-1-outside-1_0_685)"/>
</g>
</svg>
