<svg preserveAspectRatio="none" width="100%" height="100%" overflow="visible" style="display: block;" viewBox="0 0 19.9984 15.9965" fill="none" xmlns="http://www.w3.org/2000/svg">
<g id="Icon" clip-path="url(#clip0_0_17)">
<path id="Vector" d="M10.4423 15.0481L6.33935 14.9714C5.01093 14.9447 3.6792 14.998 2.37682 14.7212C0.395596 14.3076 0.25524 12.2796 0.108371 10.5785C-0.0939988 8.18689 -0.0156555 5.75191 0.366242 3.38032C0.581836 2.04959 1.43029 1.25555 2.74239 1.16914C7.17168 0.855552 11.6304 0.892715 16.0499 1.03901C16.5167 1.05243 16.9866 1.12573 17.4469 1.20917C19.7187 1.61612 19.7741 3.91432 19.9213 5.84897C20.0682 7.80359 20.0063 9.76823 19.7255 11.7096C19.5003 13.3169 19.0694 14.6648 17.2509 14.7949C14.9726 14.9651 12.7466 15.102 10.4618 15.0585C10.4619 15.0481 10.4488 15.0481 10.4423 15.0481ZM8.03015 10.9788C9.74708 9.97135 11.4313 8.98074 13.1383 7.98009C11.4183 6.97268 9.73726 5.98207 8.03015 4.98141V10.9788Z" fill="var(--fill-0, white)"/>
</g>
<defs>
<clipPath id="clip0_0_17">
<rect width="19.9984" height="15.9965" fill="white"/>
</clipPath>
</defs>
</svg>
