<svg preserveAspectRatio="none" width="100%" height="100%" overflow="visible" style="display: block;" viewBox="0 0 42 42" fill="none" xmlns="http://www.w3.org/2000/svg">
<g id="Group 221">
<circle id="Ellipse 49" cx="21" cy="21" r="21" fill="var(--fill-0, white)"/>
<g id="Group 21">
<path id="Union" d="M21.2021 11.3398C20.6995 10.8667 19.9087 10.8909 19.4355 11.3936C18.9625 11.8962 18.9858 12.687 19.4883 13.1602L26.4902 19.751H12.249C11.5587 19.751 10.999 20.3106 10.999 21.001C10.9993 21.6911 11.5588 22.251 12.249 22.251H26.4883L19.4883 28.8408C18.9859 29.314 18.9625 30.1048 19.4355 30.6074C19.9087 31.1101 20.6995 31.1342 21.2021 30.6611L30.2441 22.1484C30.6885 21.9569 30.9998 21.5155 31 21.001C31 20.4868 30.6897 20.0445 30.2461 19.8525L21.2021 11.3398Z" fill="var(--fill-0, #4A3AFF)"/>
</g>
</g>
</svg>
