<svg preserveAspectRatio="none" width="100%" height="100%" overflow="visible" style="display: block;" viewBox="0 0 449.238 307.76" fill="none" xmlns="http://www.w3.org/2000/svg">
<g id="Screen">
<g id="Screen body">
<path id="Body" d="M224.731 0.89857H435.767C442.711 0.89857 448.34 6.53082 448.34 13.4786V306.862H224.731H224.507H0.898041V13.4786C0.898041 6.53082 6.52689 0.89857 13.4704 0.89857H224.507H224.731Z" fill="var(--fill-0, black)"/>
<path id="Inner border" fill-rule="evenodd" clip-rule="evenodd" d="M435.767 1.79714H13.4704C7.02285 1.79714 1.79607 7.02709 1.79607 13.4786V305.963H447.442V13.4786C447.442 7.02709 442.215 1.79714 435.767 1.79714ZM435.767 0.89857H13.4704C6.52689 0.89857 0.898041 6.53082 0.898041 13.4786V306.862H448.34V13.4786C448.34 6.53082 442.711 0.89857 435.767 0.89857Z" fill="var(--fill-0, #201F24)"/>
<path id="Outer border" fill-rule="evenodd" clip-rule="evenodd" d="M449.238 307.76H1.14441e-05V13.4786C1.14441e-05 6.03455 6.03092 0 13.4704 0H435.767C443.207 0 449.238 6.03455 449.238 13.4786V307.76ZM435.767 0.89857H13.4704C6.52689 0.89857 0.898038 6.53082 0.898038 13.4786V306.862H448.34V13.4786C448.34 6.53082 442.711 0.89857 435.767 0.89857Z" fill="var(--fill-0, #7D7D7F)"/>
<path id="Rectangle" d="M2.17602 295.18H446.993V303.717C446.993 304.709 446.189 305.514 445.197 305.514H3.97207C2.98014 305.514 2.17602 304.709 2.17602 303.717V295.18Z" fill="url(#paint0_linear_0_1013)"/>
</g>
<path id="&#208;&#161;helka" d="M250.998 9.21035C250.998 8.08713 252.345 8.08713 253.019 8.08713H195.994C196.668 8.08713 198.015 8.08713 198.015 9.21035V13.4786C198.015 15.4636 199.623 17.0728 201.607 17.0728H247.406C249.39 17.0728 250.998 15.4636 250.998 13.4786V9.21035Z" fill="var(--fill-0, black)"/>
<g id="Camera">
<path id="Ellipse 1" d="M224.506 9.19707C225.403 9.19707 226.131 9.92588 226.131 10.824C226.131 11.722 225.403 12.45 224.506 12.45C223.609 12.4498 222.881 11.7218 222.881 10.824C222.881 9.92603 223.609 9.19731 224.506 9.19707Z" fill="var(--fill-0, #0F0F0F)" stroke="var(--stroke-0, #151515)" stroke-width="0.260621"/>
<ellipse id="Ellipse 4" cx="224.331" cy="11.2334" rx="0.409579" ry="0.409827" fill="var(--fill-0, #16181E)"/>
<ellipse id="Ellipse 3" cx="224.331" cy="10.6479" rx="0.409579" ry="0.409827" fill="var(--fill-0, #0A0B0D)"/>
<ellipse id="Ellipse 2" opacity="0.6" cx="224.506" cy="10.8236" rx="0.585112" ry="0.585467" fill="var(--fill-0, #1F2531)"/>
</g>
</g>
<defs>
<linearGradient id="paint0_linear_0_1013" x1="224.282" y1="295.18" x2="224.282" y2="305.514" gradientUnits="userSpaceOnUse">
<stop stop-color="#222222"/>
<stop offset="0.0852114" stop-color="#242424"/>
<stop offset="0.830431" stop-color="#242424"/>
<stop offset="1" stop-color="#201F24"/>
</linearGradient>
</defs>
</svg>
