<svg preserveAspectRatio="none" width="100%" height="100%" overflow="visible" style="display: block;" viewBox="0 0 40 40" fill="none" xmlns="http://www.w3.org/2000/svg">
<g id="Building">
<path id="Vector" d="M25.7735 30.7173C25.7622 32.6423 24.194 34.1927 22.269 34.1813H10.1191C8.19577 34.191 6.62757 32.639 6.61783 30.7142V21.9293C6.62595 21.1735 6.98435 20.4648 7.58762 20.0092L14.1929 14.7078C15.3589 13.7867 17.0048 13.7867 18.1693 14.7078L24.8037 20.0043C25.4038 20.46 25.7605 21.167 25.7735 21.9195V30.7173Z" stroke="var(--stroke-0, white)" stroke-width="1.5" stroke-linecap="round" stroke-linejoin="round"/>
<path id="Vector_2" opacity="0.4" d="M16.193 27.8712V33.7855" stroke="var(--stroke-0, white)" stroke-width="1.5" stroke-linecap="round" stroke-linejoin="round"/>
<path id="Vector_3" opacity="0.4" d="M30.8927 34.0025H33.0562C35.0232 34.0025 36.6173 32.4083 36.6173 30.4412V9.3816C36.6173 7.41445 35.0232 5.82032 33.0562 5.82032H24.3507C22.395 5.82032 20.8105 7.40473 20.8105 9.36052V10.8249" stroke="var(--stroke-0, white)" stroke-width="1.5" stroke-linecap="round" stroke-linejoin="round"/>
<path id="Vector_4" opacity="0.4" d="M31.2288 27.0963V27.113" stroke="var(--stroke-0, white)" stroke-width="1.5" stroke-linecap="round" stroke-linejoin="round"/>
<path id="Vector_5" opacity="0.4" d="M31.2288 20.0753V20.0587" stroke="var(--stroke-0, white)" stroke-width="1.5" stroke-linecap="round" stroke-linejoin="round"/>
<path id="Vector_6" opacity="0.4" d="M26.1295 13.0208V13.0375" stroke="var(--stroke-0, white)" stroke-width="1.5" stroke-linecap="round" stroke-linejoin="round"/>
<path id="Vector_7" opacity="0.4" d="M31.2288 13.0208V13.0375" stroke="var(--stroke-0, white)" stroke-width="1.5" stroke-linecap="round" stroke-linejoin="round"/>
</g>
</svg>
