<svg preserveAspectRatio="none" width="100%" height="100%" overflow="visible" style="display: block;" viewBox="0 0 3724.74 1723.74" fill="none" xmlns="http://www.w3.org/2000/svg">
<g id="Vector" style="mix-blend-mode:overlay">
<path d="M85.486 0.872368H0.872368V91.5039M85.486 0.872368V91.5039M85.486 0.872368H170.1M85.486 91.5039H0.872368M85.486 91.5039V182.136M85.486 91.5039H170.1M0.872368 91.5039V182.136M85.486 182.136H0.872368M85.486 182.136V272.767M85.486 182.136H170.1M0.872368 182.136V272.767M85.486 272.767H0.872368M85.486 272.767V363.399M85.486 272.767H170.1M0.872368 272.767V363.399M85.486 363.399H0.872368M85.486 363.399V454.03M85.486 363.399H170.1M0.872368 363.399V454.03M85.486 454.03H0.872368M85.486 454.03V544.662M85.486 454.03H170.1M0.872368 454.03V544.662M85.486 544.662H0.872368M85.486 544.662V635.293M85.486 544.662H170.1M0.872368 544.662V635.293M85.486 635.293H0.872368M85.486 635.293V725.925M85.486 635.293H170.1M0.872368 635.293V725.925M85.486 725.925H0.872368M85.486 725.925V816.557M85.486 725.925H170.1M0.872368 725.925V816.557M85.486 816.557H0.872368M85.486 816.557V907.188M85.486 816.557H170.1M0.872368 816.557V907.188M85.486 907.188H0.872368M85.486 907.188V997.82M85.486 907.188H170.1M0.872368 907.188V997.82M85.486 997.82H0.872368M85.486 997.82V1088.45M85.486 997.82H170.1M0.872368 997.82V1088.45M85.486 1088.45H0.872368M85.486 1088.45V1179.08M85.486 1088.45H170.1M0.872368 1088.45V1179.08M85.486 1179.08H0.872368M85.486 1179.08V1269.71M85.486 1179.08H170.1M0.872368 1179.08V1269.71M85.486 1269.71H0.872368M85.486 1269.71V1360.35M85.486 1269.71H170.1M0.872368 1269.71V1360.35M85.486 1360.35H0.872368M85.486 1360.35V1450.98M85.486 1360.35H170.1M0.872368 1360.35V1450.98M85.486 1450.98H0.872368M85.486 1450.98V1541.61M85.486 1450.98H170.1M0.872368 1450.98V1541.61M85.486 1541.61H0.872368M85.486 1541.61V1632.24M85.486 1541.61H170.1M0.872368 1541.61V1632.24M85.486 1632.24H0.872368M85.486 1632.24V1722.87M85.486 1632.24H170.1M0.872368 1632.24V1722.87H85.486M85.486 1722.87H170.1M170.1 0.872368V91.5039M170.1 0.872368H254.713M170.1 91.5039V182.136M170.1 91.5039H254.713M170.1 182.136V272.767M170.1 182.136H254.713M170.1 272.767V363.399M170.1 272.767H254.713M170.1 363.399V454.03M170.1 363.399H254.713M170.1 454.03V544.662M170.1 454.03H254.713M170.1 544.662V635.293M170.1 544.662H254.713M170.1 635.293V725.925M170.1 635.293H254.713M170.1 725.925V816.557M170.1 725.925H254.713M170.1 816.557V907.188M170.1 816.557H254.713M170.1 907.188V997.82M170.1 907.188H254.713M170.1 997.82V1088.45M170.1 997.82H254.713M170.1 1088.45V1179.08M170.1 1088.45H254.713M170.1 1179.08V1269.71M170.1 1179.08H254.713M170.1 1269.71V1360.35M170.1 1269.71H254.713M170.1 1360.35V1450.98M170.1 1360.35H254.713M170.1 1450.98V1541.61M170.1 1450.98H254.713M170.1 1541.61V1632.24M170.1 1541.61H254.713M170.1 1632.24V1722.87M170.1 1632.24H254.713M170.1 1722.87H254.713M254.713 0.872368V91.5039M254.713 0.872368H339.327M254.713 91.5039V182.136M254.713 91.5039H339.327M254.713 182.136V272.767M254.713 182.136H339.327M254.713 272.767V363.399M254.713 272.767H339.327M254.713 363.399V454.03M254.713 363.399H339.327M254.713 454.03V544.662M254.713 454.03H339.327M254.713 544.662V635.293M254.713 544.662H339.327M254.713 635.293V725.925M254.713 635.293H339.327M254.713 725.925V816.557M254.713 725.925H339.327M254.713 816.557V907.188M254.713 816.557H339.327M254.713 907.188V997.82M254.713 907.188H339.327M254.713 997.82V1088.45M254.713 997.82H339.327M254.713 1088.45V1179.08M254.713 1088.45H339.327M254.713 1179.08V1269.71M254.713 1179.08H339.327M254.713 1269.71V1360.35M254.713 1269.71H339.327M254.713 1360.35V1450.98M254.713 1360.35H339.327M254.713 1450.98V1541.61M254.713 1450.98H339.327M254.713 1541.61V1632.24M254.713 1541.61H339.327M254.713 1632.24V1722.87M254.713 1632.24H339.327M254.713 1722.87H339.327M339.327 0.872368V91.5039M339.327 0.872368H423.941M339.327 91.5039V182.136M339.327 91.5039H423.941M339.327 182.136V272.767M339.327 182.136H423.941M339.327 272.767V363.399M339.327 272.767H423.941M339.327 363.399V454.03M339.327 363.399H423.941M339.327 454.03V544.662M339.327 454.03H423.941M339.327 544.662V635.293M339.327 544.662H423.941M339.327 635.293V725.925M339.327 635.293H423.941M339.327 725.925V816.557M339.327 725.925H423.941M339.327 816.557V907.188M339.327 816.557H423.941M339.327 907.188V997.82M339.327 907.188H423.941M339.327 997.82V1088.45M339.327 997.82H423.941M339.327 1088.45V1179.08M339.327 1088.45H423.941M339.327 1179.08V1269.71M339.327 1179.08H423.941M339.327 1269.71V1360.35M339.327 1269.71H423.941M339.327 1360.35V1450.98M339.327 1360.35H423.941M339.327 1450.98V1541.61M339.327 1450.98H423.941M339.327 1541.61V1632.24M339.327 1541.61H423.941M339.327 1632.24V1722.87M339.327 1632.24H423.941M339.327 1722.87H423.941M423.941 0.872368V91.5039M423.941 0.872368H508.554M423.941 91.5039V182.136M423.941 91.5039H508.554M423.941 182.136V272.767M423.941 182.136H508.554M423.941 272.767V363.399M423.941 272.767H508.554M423.941 363.399V454.03M423.941 363.399H508.554M423.941 454.03V544.662M423.941 454.03H508.554M423.941 544.662V635.293M423.941 544.662H508.554M423.941 635.293V725.925M423.941 635.293H508.554M423.941 725.925V816.557M423.941 725.925H508.554M423.941 816.557V907.188M423.941 816.557H508.554M423.941 907.188V997.82M423.941 907.188H508.554M423.941 997.82V1088.45M423.941 997.82H508.554M423.941 1088.45V1179.08M423.941 1088.45H508.554M423.941 1179.08V1269.71M423.941 1179.08H508.554M423.941 1269.71V1360.35M423.941 1269.71H508.554M423.941 1360.35V1450.98M423.941 1360.35H508.554M423.941 1450.98V1541.61M423.941 1450.98H508.554M423.941 1541.61V1632.24M423.941 1541.61H508.554M423.941 1632.24V1722.87M423.941 1632.24H508.554M423.941 1722.87H508.554M508.554 0.872368V91.5039M508.554 0.872368H593.168M508.554 91.5039V182.136M508.554 91.5039H593.168M508.554 182.136V272.767M508.554 182.136H593.168M508.554 272.767V363.399M508.554 272.767H593.168M508.554 363.399V454.03M508.554 363.399H593.168M508.554 454.03V544.662M508.554 454.03H593.168M508.554 544.662V635.293M508.554 544.662H593.168M508.554 635.293V725.925M508.554 635.293H593.168M508.554 725.925V816.557M508.554 725.925H593.168M508.554 816.557V907.188M508.554 816.557H593.168M508.554 907.188V997.82M508.554 907.188H593.168M508.554 997.82V1088.45M508.554 997.82H593.168M508.554 1088.45V1179.08M508.554 1088.45H593.168M508.554 1179.08V1269.71M508.554 1179.08H593.168M508.554 1269.71V1360.35M508.554 1269.71H593.168M508.554 1360.35V1450.98M508.554 1360.35H593.168M508.554 1450.98V1541.61M508.554 1450.98H593.168M508.554 1541.61V1632.24M508.554 1541.61H593.168M508.554 1632.24V1722.87M508.554 1632.24H593.168M508.554 1722.87H593.168M593.168 0.872368V91.5039M593.168 0.872368H677.781M593.168 91.5039V182.136M593.168 91.5039H677.781M593.168 182.136V272.767M593.168 182.136H677.781M593.168 272.767V363.399M593.168 272.767H677.781M593.168 363.399V454.03M593.168 363.399H677.781M593.168 454.03V544.662M593.168 454.03H677.781M593.168 544.662V635.293M593.168 544.662H677.781M593.168 635.293V725.925M593.168 635.293H677.781M593.168 725.925V816.557M593.168 725.925H677.781M593.168 816.557V907.188M593.168 816.557H677.781M593.168 907.188V997.82M593.168 907.188H677.781M593.168 997.82V1088.45M593.168 997.82H677.781M593.168 1088.45V1179.08M593.168 1088.45H677.781M593.168 1179.08V1269.71M593.168 1179.08H677.781M593.168 1269.71V1360.35M593.168 1269.71H677.781M593.168 1360.35V1450.98M593.168 1360.35H677.781M593.168 1450.98V1541.61M593.168 1450.98H677.781M593.168 1541.61V1632.24M593.168 1541.61H677.781M593.168 1632.24V1722.87M593.168 1632.24H677.781M593.168 1722.87H677.781M677.781 0.872368V91.5039M677.781 0.872368H762.395M677.781 91.5039V182.136M677.781 91.5039H762.395M677.781 182.136V272.767M677.781 182.136H762.395M677.781 272.767V363.399M677.781 272.767H762.395M677.781 363.399V454.03M677.781 363.399H762.395M677.781 454.03V544.662M677.781 454.03H762.395M677.781 544.662V635.293M677.781 544.662H762.395M677.781 635.293V725.925M677.781 635.293H762.395M677.781 725.925V816.557M677.781 725.925H762.395M677.781 816.557V907.188M677.781 816.557H762.395M677.781 907.188V997.82M677.781 907.188H762.395M677.781 997.82V1088.45M677.781 997.82H762.395M677.781 1088.45V1179.08M677.781 1088.45H762.395M677.781 1179.08V1269.71M677.781 1179.08H762.395M677.781 1269.71V1360.35M677.781 1269.71H762.395M677.781 1360.35V1450.98M677.781 1360.35H762.395M677.781 1450.98V1541.61M677.781 1450.98H762.395M677.781 1541.61V1632.24M677.781 1541.61H762.395M677.781 1632.24V1722.87M677.781 1632.24H762.395M677.781 1722.87H762.395M762.395 0.872368V91.5039M762.395 0.872368H847.009M762.395 91.5039V182.136M762.395 91.5039H847.009M762.395 182.136V272.767M762.395 182.136H847.009M762.395 272.767V363.399M762.395 272.767H847.009M762.395 363.399V454.03M762.395 363.399H847.009M762.395 454.03V544.662M762.395 454.03H847.009M762.395 544.662V635.293M762.395 544.662H847.009M762.395 635.293V725.925M762.395 635.293H847.009M762.395 725.925V816.557M762.395 725.925H847.009M762.395 816.557V907.188M762.395 816.557H847.009M762.395 907.188V997.82M762.395 907.188H847.009M762.395 997.82V1088.45M762.395 997.82H847.009M762.395 1088.45V1179.08M762.395 1088.45H847.009M762.395 1179.08V1269.71M762.395 1179.08H847.009M762.395 1269.71V1360.35M762.395 1269.71H847.009M762.395 1360.35V1450.98M762.395 1360.35H847.009M762.395 1450.98V1541.61M762.395 1450.98H847.009M762.395 1541.61V1632.24M762.395 1541.61H847.009M762.395 1632.24V1722.87M762.395 1632.24H847.009M762.395 1722.87H847.009M847.009 0.872368V91.5039M847.009 0.872368H931.622M847.009 91.5039V182.136M847.009 91.5039H931.622M847.009 182.136V272.767M847.009 182.136H931.622M847.009 272.767V363.399M847.009 272.767H931.622M847.009 363.399V454.03M847.009 363.399H931.622M847.009 454.03V544.662M847.009 454.03H931.622M847.009 544.662V635.293M847.009 544.662H931.622M847.009 635.293V725.925M847.009 635.293H931.622M847.009 725.925V816.557M847.009 725.925H931.622M847.009 816.557V907.188M847.009 816.557H931.622M847.009 907.188V997.82M847.009 907.188H931.622M847.009 997.82V1088.45M847.009 997.82H931.622M847.009 1088.45V1179.08M847.009 1088.45H931.622M847.009 1179.08V1269.71M847.009 1179.08H931.622M847.009 1269.71V1360.35M847.009 1269.71H931.622M847.009 1360.35V1450.98M847.009 1360.35H931.622M847.009 1450.98V1541.61M847.009 1450.98H931.622M847.009 1541.61V1632.24M847.009 1541.61H931.622M847.009 1632.24V1722.87M847.009 1632.24H931.622M847.009 1722.87H931.622M931.622 0.872368V91.5039M931.622 0.872368H1016.24M931.622 91.5039V182.136M931.622 91.5039H1016.24M931.622 182.136V272.767M931.622 182.136H1016.24M931.622 272.767V363.399M931.622 272.767H1016.24M931.622 363.399V454.03M931.622 363.399H1016.24M931.622 454.03V544.662M931.622 454.03H1016.24M931.622 544.662V635.293M931.622 544.662H1016.24M931.622 635.293V725.925M931.622 635.293H1016.24M931.622 725.925V816.557M931.622 725.925H1016.24M931.622 816.557V907.188M931.622 816.557H1016.24M931.622 907.188V997.82M931.622 907.188H1016.24M931.622 997.82V1088.45M931.622 997.82H1016.24M931.622 1088.45V1179.08M931.622 1088.45H1016.24M931.622 1179.08V1269.71M931.622 1179.08H1016.24M931.622 1269.71V1360.35M931.622 1269.71H1016.24M931.622 1360.35V1450.98M931.622 1360.35H1016.24M931.622 1450.98V1541.61M931.622 1450.98H1016.24M931.622 1541.61V1632.24M931.622 1541.61H1016.24M931.622 1632.24V1722.87M931.622 1632.24H1016.24M931.622 1722.87H1016.24M1016.24 0.872368V91.5039M1016.24 0.872368H1100.85M1016.24 91.5039V182.136M1016.24 91.5039H1100.85M1016.24 182.136V272.767M1016.24 182.136H1100.85M1016.24 272.767V363.399M1016.24 272.767H1100.85M1016.24 363.399V454.03M1016.24 363.399H1100.85M1016.24 454.03V544.662M1016.24 454.03H1100.85M1016.24 544.662V635.293M1016.24 544.662H1100.85M1016.24 635.293V725.925M1016.24 635.293H1100.85M1016.24 725.925V816.557M1016.24 725.925H1100.85M1016.24 816.557V907.188M1016.24 816.557H1100.85M1016.24 907.188V997.82M1016.24 907.188H1100.85M1016.24 997.82V1088.45M1016.24 997.82H1100.85M1016.24 1088.45V1179.08M1016.24 1088.45H1100.85M1016.24 1179.08V1269.71M1016.24 1179.08H1100.85M1016.24 1269.71V1360.35M1016.24 1269.71H1100.85M1016.24 1360.35V1450.98M1016.24 1360.35H1100.85M1016.24 1450.98V1541.61M1016.24 1450.98H1100.85M1016.24 1541.61V1632.24M1016.24 1541.61H1100.85M1016.24 1632.24V1722.87M1016.24 1632.24H1100.85M1016.24 1722.87H1100.85M1100.85 0.872368V91.5039M1100.85 0.872368H1185.46M1100.85 91.5039V182.136M1100.85 91.5039H1185.46M1100.85 182.136V272.767M1100.85 182.136H1185.46M1100.85 272.767V363.399M1100.85 272.767H1185.46M1100.85 363.399V454.03M1100.85 363.399H1185.46M1100.85 454.03V544.662M1100.85 454.03H1185.46M1100.85 544.662V635.293M1100.85 544.662H1185.46M1100.85 635.293V725.925M1100.85 635.293H1185.46M1100.85 725.925V816.557M1100.85 725.925H1185.46M1100.85 816.557V907.188M1100.85 816.557H1185.46M1100.85 907.188V997.82M1100.85 907.188H1185.46M1100.85 997.82V1088.45M1100.85 997.82H1185.46M1100.85 1088.45V1179.08M1100.85 1088.45H1185.46M1100.85 1179.08V1269.71M1100.85 1179.08H1185.46M1100.85 1269.71V1360.35M1100.85 1269.71H1185.46M1100.85 1360.35V1450.98M1100.85 1360.35H1185.46M1100.85 1450.98V1541.61M1100.85 1450.98H1185.46M1100.85 1541.61V1632.24M1100.85 1541.61H1185.46M1100.85 1632.24V1722.87M1100.85 1632.24H1185.46M1100.85 1722.87H1185.46M1185.46 0.872368V91.5039M1185.46 0.872368H1270.08M1185.46 91.5039V182.136M1185.46 91.5039H1270.08M1185.46 182.136V272.767M1185.46 182.136H1270.08M1185.46 272.767V363.399M1185.46 272.767H1270.08M1185.46 363.399V454.03M1185.46 363.399H1270.08M1185.46 454.03V544.662M1185.46 454.03H1270.08M1185.46 544.662V635.293M1185.46 544.662H1270.08M1185.46 635.293V725.925M1185.46 635.293H1270.08M1185.46 725.925V816.557M1185.46 725.925H1270.08M1185.46 816.557V907.188M1185.46 816.557H1270.08M1185.46 907.188V997.82M1185.46 907.188H1270.08M1185.46 997.82V1088.45M1185.46 997.82H1270.08M1185.46 1088.45V1179.08M1185.46 1088.45H1270.08M1185.46 1179.08V1269.71M1185.46 1179.08H1270.08M1185.46 1269.71V1360.35M1185.46 1269.71H1270.08M1185.46 1360.35V1450.98M1185.46 1360.35H1270.08M1185.46 1450.98V1541.61M1185.46 1450.98H1270.08M1185.46 1541.61V1632.24M1185.46 1541.61H1270.08M1185.46 1632.24V1722.87M1185.46 1632.24H1270.08M1185.46 1722.87H1270.08M1270.08 0.872368V91.5039M1270.08 0.872368H1354.69M1270.08 91.5039V182.136M1270.08 91.5039H1354.69M1270.08 182.136V272.767M1270.08 182.136H1354.69M1270.08 272.767V363.399M1270.08 272.767H1354.69M1270.08 363.399V454.03M1270.08 363.399H1354.69M1270.08 454.03V544.662M1270.08 454.03H1354.69M1270.08 544.662V635.293M1270.08 544.662H1354.69M1270.08 635.293V725.925M1270.08 635.293H1354.69M1270.08 725.925V816.557M1270.08 725.925H1354.69M1270.08 816.557V907.188M1270.08 816.557H1354.69M1270.08 907.188V997.82M1270.08 907.188H1354.69M1270.08 997.82V1088.45M1270.08 997.82H1354.69M1270.08 1088.45V1179.08M1270.08 1088.45H1354.69M1270.08 1179.08V1269.71M1270.08 1179.08H1354.69M1270.08 1269.71V1360.35M1270.08 1269.71H1354.69M1270.08 1360.35V1450.98M1270.08 1360.35H1354.69M1270.08 1450.98V1541.61M1270.08 1450.98H1354.69M1270.08 1541.61V1632.24M1270.08 1541.61H1354.69M1270.08 1632.24V1722.87M1270.08 1632.24H1354.69M1270.08 1722.87H1354.69M1354.69 0.872368V91.5039M1354.69 0.872368H1439.3M1354.69 91.5039V182.136M1354.69 91.5039H1439.3M1354.69 182.136V272.767M1354.69 182.136H1439.3M1354.69 272.767V363.399M1354.69 272.767H1439.3M1354.69 363.399V454.03M1354.69 363.399H1439.3M1354.69 454.03V544.662M1354.69 454.03H1439.3M1354.69 544.662V635.293M1354.69 544.662H1439.3M1354.69 635.293V725.925M1354.69 635.293H1439.3M1354.69 725.925V816.557M1354.69 725.925H1439.3M1354.69 816.557V907.188M1354.69 816.557H1439.3M1354.69 907.188V997.82M1354.69 907.188H1439.3M1354.69 997.82V1088.45M1354.69 997.82H1439.3M1354.69 1088.45V1179.08M1354.69 1088.45H1439.3M1354.69 1179.08V1269.71M1354.69 1179.08H1439.3M1354.69 1269.71V1360.35M1354.69 1269.71H1439.3M1354.69 1360.35V1450.98M1354.69 1360.35H1439.3M1354.69 1450.98V1541.61M1354.69 1450.98H1439.3M1354.69 1541.61V1632.24M1354.69 1541.61H1439.3M1354.69 1632.24V1722.87M1354.69 1632.24H1439.3M1354.69 1722.87H1439.3M1439.3 0.872368V91.5039M1439.3 0.872368H1523.92M1439.3 91.5039V182.136M1439.3 91.5039H1523.92M1439.3 182.136V272.767M1439.3 182.136H1523.92M1439.3 272.767V363.399M1439.3 272.767H1523.92M1439.3 363.399V454.03M1439.3 363.399H1523.92M1439.3 454.03V544.662M1439.3 454.03H1523.92M1439.3 544.662V635.293M1439.3 544.662H1523.92M1439.3 635.293V725.925M1439.3 635.293H1523.92M1439.3 725.925V816.557M1439.3 725.925H1523.92M1439.3 816.557V907.188M1439.3 816.557H1523.92M1439.3 907.188V997.82M1439.3 907.188H1523.92M1439.3 997.82V1088.45M1439.3 997.82H1523.92M1439.3 1088.45V1179.08M1439.3 1088.45H1523.92M1439.3 1179.08V1269.71M1439.3 1179.08H1523.92M1439.3 1269.71V1360.35M1439.3 1269.71H1523.92M1439.3 1360.35V1450.98M1439.3 1360.35H1523.92M1439.3 1450.98V1541.61M1439.3 1450.98H1523.92M1439.3 1541.61V1632.24M1439.3 1541.61H1523.92M1439.3 1632.24V1722.87M1439.3 1632.24H1523.92M1439.3 1722.87H1523.92M1523.92 0.872368V91.5039M1523.92 0.872368H1608.53M1523.92 91.5039V182.136M1523.92 91.5039H1608.53M1523.92 182.136V272.767M1523.92 182.136H1608.53M1523.92 272.767V363.399M1523.92 272.767H1608.53M1523.92 363.399V454.03M1523.92 363.399H1608.53M1523.92 454.03V544.662M1523.92 454.03H1608.53M1523.92 544.662V635.293M1523.92 544.662H1608.53M1523.92 635.293V725.925M1523.92 635.293H1608.53M1523.92 725.925V816.557M1523.92 725.925H1608.53M1523.92 816.557V907.188M1523.92 816.557H1608.53M1523.92 907.188V997.82M1523.92 907.188H1608.53M1523.92 997.82V1088.45M1523.92 997.82H1608.53M1523.92 1088.45V1179.08M1523.92 1088.45H1608.53M1523.92 1179.08V1269.71M1523.92 1179.08H1608.53M1523.92 1269.71V1360.35M1523.92 1269.71H1608.53M1523.92 1360.35V1450.98M1523.92 1360.35H1608.53M1523.92 1450.98V1541.61M1523.92 1450.98H1608.53M1523.92 1541.61V1632.24M1523.92 1541.61H1608.53M1523.92 1632.24V1722.87M1523.92 1632.24H1608.53M1523.92 1722.87H1608.53M1608.53 0.872368V91.5039M1608.53 0.872368H1693.15M1608.53 91.5039V182.136M1608.53 91.5039H1693.15M1608.53 182.136V272.767M1608.53 182.136H1693.15M1608.53 272.767V363.399M1608.53 272.767H1693.15M1608.53 363.399V454.03M1608.53 363.399H1693.15M1608.53 454.03V544.662M1608.53 454.03H1693.15M1608.53 544.662V635.293M1608.53 544.662H1693.15M1608.53 635.293V725.925M1608.53 635.293H1693.15M1608.53 725.925V816.557M1608.53 725.925H1693.15M1608.53 816.557V907.188M1608.53 816.557H1693.15M1608.53 907.188V997.82M1608.53 907.188H1693.15M1608.53 997.82V1088.45M1608.53 997.82H1693.15M1608.53 1088.45V1179.08M1608.53 1088.45H1693.15M1608.53 1179.08V1269.71M1608.53 1179.08H1693.15M1608.53 1269.71V1360.35M1608.53 1269.71H1693.15M1608.53 1360.35V1450.98M1608.53 1360.35H1693.15M1608.53 1450.98V1541.61M1608.53 1450.98H1693.15M1608.53 1541.61V1632.24M1608.53 1541.61H1693.15M1608.53 1632.24V1722.87M1608.53 1632.24H1693.15M1608.53 1722.87H1693.15M1693.15 0.872368V91.5039M1693.15 0.872368H1777.76M1693.15 91.5039V182.136M1693.15 91.5039H1777.76M1693.15 182.136V272.767M1693.15 182.136H1777.76M1693.15 272.767V363.399M1693.15 272.767H1777.76M1693.15 363.399V454.03M1693.15 363.399H1777.76M1693.15 454.03V544.662M1693.15 454.03H1777.76M1693.15 544.662V635.293M1693.15 544.662H1777.76M1693.15 635.293V725.925M1693.15 635.293H1777.76M1693.15 725.925V816.557M1693.15 725.925H1777.76M1693.15 816.557V907.188M1693.15 816.557H1777.76M1693.15 907.188V997.82M1693.15 907.188H1777.76M1693.15 997.82V1088.45M1693.15 997.82H1777.76M1693.15 1088.45V1179.08M1693.15 1088.45H1777.76M1693.15 1179.08V1269.71M1693.15 1179.08H1777.76M1693.15 1269.71V1360.35M1693.15 1269.71H1777.76M1693.15 1360.35V1450.98M1693.15 1360.35H1777.76M1693.15 1450.98V1541.61M1693.15 1450.98H1777.76M1693.15 1541.61V1632.24M1693.15 1541.61H1777.76M1693.15 1632.24V1722.87M1693.15 1632.24H1777.76M1693.15 1722.87H1777.76M1777.76 0.872368V91.5039M1777.76 0.872368H1862.37M1777.76 91.5039V182.136M1777.76 91.5039H1862.37M1777.76 182.136V272.767M1777.76 182.136H1862.37M1777.76 272.767V363.399M1777.76 272.767H1862.37M1777.76 363.399V454.03M1777.76 363.399H1862.37M1777.76 454.03V544.662M1777.76 454.03H1862.37M1777.76 544.662V635.293M1777.76 544.662H1862.37M1777.76 635.293V725.925M1777.76 635.293H1862.37M1777.76 725.925V816.557M1777.76 725.925H1862.37M1777.76 816.557V907.188M1777.76 816.557H1862.37M1777.76 907.188V997.82M1777.76 907.188H1862.37M1777.76 997.82V1088.45M1777.76 997.82H1862.37M1777.76 1088.45V1179.08M1777.76 1088.45H1862.37M1777.76 1179.08V1269.71M1777.76 1179.08H1862.37M1777.76 1269.71V1360.35M1777.76 1269.71H1862.37M1777.76 1360.35V1450.98M1777.76 1360.35H1862.37M1777.76 1450.98V1541.61M1777.76 1450.98H1862.37M1777.76 1541.61V1632.24M1777.76 1541.61H1862.37M1777.76 1632.24V1722.87M1777.76 1632.24H1862.37M1777.76 1722.87H1862.37M1862.37 0.872368V91.5039M1862.37 0.872368H1946.99M1862.37 91.5039V182.136M1862.37 91.5039H1946.99M1862.37 182.136V272.767M1862.37 182.136H1946.99M1862.37 272.767V363.399M1862.37 272.767H1946.99M1862.37 363.399V454.03M1862.37 363.399H1946.99M1862.37 454.03V544.662M1862.37 454.03H1946.99M1862.37 544.662V635.293M1862.37 544.662H1946.99M1862.37 635.293V725.925M1862.37 635.293H1946.99M1862.37 725.925V816.557M1862.37 725.925H1946.99M1862.37 816.557V907.188M1862.37 816.557H1946.99M1862.37 907.188V997.82M1862.37 907.188H1946.99M1862.37 997.82V1088.45M1862.37 997.82H1946.99M1862.37 1088.45V1179.08M1862.37 1088.45H1946.99M1862.37 1179.08V1269.71M1862.37 1179.08H1946.99M1862.37 1269.71V1360.35M1862.37 1269.71H1946.99M1862.37 1360.35V1450.98M1862.37 1360.35H1946.99M1862.37 1450.98V1541.61M1862.37 1450.98H1946.99M1862.37 1541.61V1632.24M1862.37 1541.61H1946.99M1862.37 1632.24V1722.87M1862.37 1632.24H1946.99M1862.37 1722.87H1946.99M1946.99 0.872368V91.5039M1946.99 0.872368H2031.6M1946.99 91.5039V182.136M1946.99 91.5039H2031.6M1946.99 182.136V272.767M1946.99 182.136H2031.6M1946.99 272.767V363.399M1946.99 272.767H2031.6M1946.99 363.399V454.03M1946.99 363.399H2031.6M1946.99 454.03V544.662M1946.99 454.03H2031.6M1946.99 544.662V635.293M1946.99 544.662H2031.6M1946.99 635.293V725.925M1946.99 635.293H2031.6M1946.99 725.925V816.557M1946.99 725.925H2031.6M1946.99 816.557V907.188M1946.99 816.557H2031.6M1946.99 907.188V997.82M1946.99 907.188H2031.6M1946.99 997.82V1088.45M1946.99 997.82H2031.6M1946.99 1088.45V1179.08M1946.99 1088.45H2031.6M1946.99 1179.08V1269.71M1946.99 1179.08H2031.6M1946.99 1269.71V1360.35M1946.99 1269.71H2031.6M1946.99 1360.35V1450.98M1946.99 1360.35H2031.6M1946.99 1450.98V1541.61M1946.99 1450.98H2031.6M1946.99 1541.61V1632.24M1946.99 1541.61H2031.6M1946.99 1632.24V1722.87M1946.99 1632.24H2031.6M1946.99 1722.87H2031.6M2031.6 0.872368V91.5039M2031.6 0.872368H2116.21M2031.6 91.5039V182.136M2031.6 91.5039H2116.21M2031.6 182.136V272.767M2031.6 182.136H2116.21M2031.6 272.767V363.399M2031.6 272.767H2116.21M2031.6 363.399V454.03M2031.6 363.399H2116.21M2031.6 454.03V544.662M2031.6 454.03H2116.21M2031.6 544.662V635.293M2031.6 544.662H2116.21M2031.6 635.293V725.925M2031.6 635.293H2116.21M2031.6 725.925V816.557M2031.6 725.925H2116.21M2031.6 816.557V907.188M2031.6 816.557H2116.21M2031.6 907.188V997.82M2031.6 907.188H2116.21M2031.6 997.82V1088.45M2031.6 997.82H2116.21M2031.6 1088.45V1179.08M2031.6 1088.45H2116.21M2031.6 1179.08V1269.71M2031.6 1179.08H2116.21M2031.6 1269.71V1360.35M2031.6 1269.71H2116.21M2031.6 1360.35V1450.98M2031.6 1360.35H2116.21M2031.6 1450.98V1541.61M2031.6 1450.98H2116.21M2031.6 1541.61V1632.24M2031.6 1541.61H2116.21M2031.6 1632.24V1722.87M2031.6 1632.24H2116.21M2031.6 1722.87H2116.21M2116.21 0.872368V91.5039M2116.21 0.872368H2200.83M2116.21 91.5039V182.136M2116.21 91.5039H2200.83M2116.21 182.136V272.767M2116.21 182.136H2200.83M2116.21 272.767V363.399M2116.21 272.767H2200.83M2116.21 363.399V454.03M2116.21 363.399H2200.83M2116.21 454.03V544.662M2116.21 454.03H2200.83M2116.21 544.662V635.293M2116.21 544.662H2200.83M2116.21 635.293V725.925M2116.21 635.293H2200.83M2116.21 725.925V816.557M2116.21 725.925H2200.83M2116.21 816.557V907.188M2116.21 816.557H2200.83M2116.21 907.188V997.82M2116.21 907.188H2200.83M2116.21 997.82V1088.45M2116.21 997.82H2200.83M2116.21 1088.45V1179.08M2116.21 1088.45H2200.83M2116.21 1179.08V1269.71M2116.21 1179.08H2200.83M2116.21 1269.71V1360.35M2116.21 1269.71H2200.83M2116.21 1360.35V1450.98M2116.21 1360.35H2200.83M2116.21 1450.98V1541.61M2116.21 1450.98H2200.83M2116.21 1541.61V1632.24M2116.21 1541.61H2200.83M2116.21 1632.24V1722.87M2116.21 1632.24H2200.83M2116.21 1722.87H2200.83M2200.83 0.872368V91.5039M2200.83 0.872368H2285.44M2200.83 91.5039V182.136M2200.83 91.5039H2285.44M2200.83 182.136V272.767M2200.83 182.136H2285.44M2200.83 272.767V363.399M2200.83 272.767H2285.44M2200.83 363.399V454.03M2200.83 363.399H2285.44M2200.83 454.03V544.662M2200.83 454.03H2285.44M2200.83 544.662V635.293M2200.83 544.662H2285.44M2200.83 635.293V725.925M2200.83 635.293H2285.44M2200.83 725.925V816.557M2200.83 725.925H2285.44M2200.83 816.557V907.188M2200.83 816.557H2285.44M2200.83 907.188V997.82M2200.83 907.188H2285.44M2200.83 997.82V1088.45M2200.83 997.82H2285.44M2200.83 1088.45V1179.08M2200.83 1088.45H2285.44M2200.83 1179.08V1269.71M2200.83 1179.08H2285.44M2200.83 1269.71V1360.35M2200.83 1269.71H2285.44M2200.83 1360.35V1450.98M2200.83 1360.35H2285.44M2200.83 1450.98V1541.61M2200.83 1450.98H2285.44M2200.83 1541.61V1632.24M2200.83 1541.61H2285.44M2200.83 1632.24V1722.87M2200.83 1632.24H2285.44M2200.83 1722.87H2285.44M2285.44 0.872368V91.5039M2285.44 0.872368H2370.05M2285.44 91.5039V182.136M2285.44 91.5039H2370.05M2285.44 182.136V272.767M2285.44 182.136H2370.05M2285.44 272.767V363.399M2285.44 272.767H2370.05M2285.44 363.399V454.03M2285.44 363.399H2370.05M2285.44 454.03V544.662M2285.44 454.03H2370.05M2285.44 544.662V635.293M2285.44 544.662H2370.05M2285.44 635.293V725.925M2285.44 635.293H2370.05M2285.44 725.925V816.557M2285.44 725.925H2370.05M2285.44 816.557V907.188M2285.44 816.557H2370.05M2285.44 907.188V997.82M2285.44 907.188H2370.05M2285.44 997.82V1088.45M2285.44 997.82H2370.05M2285.44 1088.45V1179.08M2285.44 1088.45H2370.05M2285.44 1179.08V1269.71M2285.44 1179.08H2370.05M2285.44 1269.71V1360.35M2285.44 1269.71H2370.05M2285.44 1360.35V1450.98M2285.44 1360.35H2370.05M2285.44 1450.98V1541.61M2285.44 1450.98H2370.05M2285.44 1541.61V1632.24M2285.44 1541.61H2370.05M2285.44 1632.24V1722.87M2285.44 1632.24H2370.05M2285.44 1722.87H2370.05M2370.05 0.872368V91.5039M2370.05 0.872368H2454.67M2370.05 91.5039V182.136M2370.05 91.5039H2454.67M2370.05 182.136V272.767M2370.05 182.136H2454.67M2370.05 272.767V363.399M2370.05 272.767H2454.67M2370.05 363.399V454.03M2370.05 363.399H2454.67M2370.05 454.03V544.662M2370.05 454.03H2454.67M2370.05 544.662V635.293M2370.05 544.662H2454.67M2370.05 635.293V725.925M2370.05 635.293H2454.67M2370.05 725.925V816.557M2370.05 725.925H2454.67M2370.05 816.557V907.188M2370.05 816.557H2454.67M2370.05 907.188V997.82M2370.05 907.188H2454.67M2370.05 997.82V1088.45M2370.05 997.82H2454.67M2370.05 1088.45V1179.08M2370.05 1088.45H2454.67M2370.05 1179.08V1269.71M2370.05 1179.08H2454.67M2370.05 1269.71V1360.35M2370.05 1269.71H2454.67M2370.05 1360.35V1450.98M2370.05 1360.35H2454.67M2370.05 1450.98V1541.61M2370.05 1450.98H2454.67M2370.05 1541.61V1632.24M2370.05 1541.61H2454.67M2370.05 1632.24V1722.87M2370.05 1632.24H2454.67M2370.05 1722.87H2454.67M2454.67 0.872368V91.5039M2454.67 0.872368H2539.28M2454.67 91.5039V182.136M2454.67 91.5039H2539.28M2454.67 182.136V272.767M2454.67 182.136H2539.28M2454.67 272.767V363.399M2454.67 272.767H2539.28M2454.67 363.399V454.03M2454.67 363.399H2539.28M2454.67 454.03V544.662M2454.67 454.03H2539.28M2454.67 544.662V635.293M2454.67 544.662H2539.28M2454.67 635.293V725.925M2454.67 635.293H2539.28M2454.67 725.925V816.557M2454.67 725.925H2539.28M2454.67 816.557V907.188M2454.67 816.557H2539.28M2454.67 907.188V997.82M2454.67 907.188H2539.28M2454.67 997.82V1088.45M2454.67 997.82H2539.28M2454.67 1088.45V1179.08M2454.67 1088.45H2539.28M2454.67 1179.08V1269.71M2454.67 1179.08H2539.28M2454.67 1269.71V1360.35M2454.67 1269.71H2539.28M2454.67 1360.35V1450.98M2454.67 1360.35H2539.28M2454.67 1450.98V1541.61M2454.67 1450.98H2539.28M2454.67 1541.61V1632.24M2454.67 1541.61H2539.28M2454.67 1632.24V1722.87M2454.67 1632.24H2539.28M2454.67 1722.87H2539.28M2539.28 0.872368V91.5039M2539.28 0.872368H2623.9M2539.28 91.5039V182.136M2539.28 91.5039H2623.9M2539.28 182.136V272.767M2539.28 182.136H2623.9M2539.28 272.767V363.399M2539.28 272.767H2623.9M2539.28 363.399V454.03M2539.28 363.399H2623.9M2539.28 454.03V544.662M2539.28 454.03H2623.9M2539.28 544.662V635.293M2539.28 544.662H2623.9M2539.28 635.293V725.925M2539.28 635.293H2623.9M2539.28 725.925V816.557M2539.28 725.925H2623.9M2539.28 816.557V907.188M2539.28 816.557H2623.9M2539.28 907.188V997.82M2539.28 907.188H2623.9M2539.28 997.82V1088.45M2539.28 997.82H2623.9M2539.28 1088.45V1179.08M2539.28 1088.45H2623.9M2539.28 1179.08V1269.71M2539.28 1179.08H2623.9M2539.28 1269.71V1360.35M2539.28 1269.71H2623.9M2539.28 1360.35V1450.98M2539.28 1360.35H2623.9M2539.28 1450.98V1541.61M2539.28 1450.98H2623.9M2539.28 1541.61V1632.24M2539.28 1541.61H2623.9M2539.28 1632.24V1722.87M2539.28 1632.24H2623.9M2539.28 1722.87H2623.9M2623.9 0.872368V91.5039M2623.9 0.872368H2708.51M2623.9 91.5039V182.136M2623.9 91.5039H2708.51M2623.9 182.136V272.767M2623.9 182.136H2708.51M2623.9 272.767V363.399M2623.9 272.767H2708.51M2623.9 363.399V454.03M2623.9 363.399H2708.51M2623.9 454.03V544.662M2623.9 454.03H2708.51M2623.9 544.662V635.293M2623.9 544.662H2708.51M2623.9 635.293V725.925M2623.9 635.293H2708.51M2623.9 725.925V816.557M2623.9 725.925H2708.51M2623.9 816.557V907.188M2623.9 816.557H2708.51M2623.9 907.188V997.82M2623.9 907.188H2708.51M2623.9 997.82V1088.45M2623.9 997.82H2708.51M2623.9 1088.45V1179.08M2623.9 1088.45H2708.51M2623.9 1179.08V1269.71M2623.9 1179.08H2708.51M2623.9 1269.71V1360.35M2623.9 1269.71H2708.51M2623.9 1360.35V1450.98M2623.9 1360.35H2708.51M2623.9 1450.98V1541.61M2623.9 1450.98H2708.51M2623.9 1541.61V1632.24M2623.9 1541.61H2708.51M2623.9 1632.24V1722.87M2623.9 1632.24H2708.51M2623.9 1722.87H2708.51M2708.51 0.872368V91.5039M2708.51 0.872368H2793.12M2708.51 91.5039V182.136M2708.51 91.5039H2793.12M2708.51 182.136V272.767M2708.51 182.136H2793.12M2708.51 272.767V363.399M2708.51 272.767H2793.12M2708.51 363.399V454.03M2708.51 363.399H2793.12M2708.51 454.03V544.662M2708.51 454.03H2793.12M2708.51 544.662V635.293M2708.51 544.662H2793.12M2708.51 635.293V725.925M2708.51 635.293H2793.12M2708.51 725.925V816.557M2708.51 725.925H2793.12M2708.51 816.557V907.188M2708.51 816.557H2793.12M2708.51 907.188V997.82M2708.51 907.188H2793.12M2708.51 997.82V1088.45M2708.51 997.82H2793.12M2708.51 1088.45V1179.08M2708.51 1088.45H2793.12M2708.51 1179.08V1269.71M2708.51 1179.08H2793.12M2708.51 1269.71V1360.35M2708.51 1269.71H2793.12M2708.51 1360.35V1450.98M2708.51 1360.35H2793.12M2708.51 1450.98V1541.61M2708.51 1450.98H2793.12M2708.51 1541.61V1632.24M2708.51 1541.61H2793.12M2708.51 1632.24V1722.87M2708.51 1632.24H2793.12M2708.51 1722.87H2793.12M2793.12 0.872368V91.5039M2793.12 0.872368H2877.74M2793.12 91.5039V182.136M2793.12 91.5039H2877.74M2793.12 182.136V272.767M2793.12 182.136H2877.74M2793.12 272.767V363.399M2793.12 272.767H2877.74M2793.12 363.399V454.03M2793.12 363.399H2877.74M2793.12 454.03V544.662M2793.12 454.03H2877.74M2793.12 544.662V635.293M2793.12 544.662H2877.74M2793.12 635.293V725.925M2793.12 635.293H2877.74M2793.12 725.925V816.557M2793.12 725.925H2877.74M2793.12 816.557V907.188M2793.12 816.557H2877.74M2793.12 907.188V997.82M2793.12 907.188H2877.74M2793.12 997.82V1088.45M2793.12 997.82H2877.74M2793.12 1088.45V1179.08M2793.12 1088.45H2877.74M2793.12 1179.08V1269.71M2793.12 1179.08H2877.74M2793.12 1269.71V1360.35M2793.12 1269.71H2877.74M2793.12 1360.35V1450.98M2793.12 1360.35H2877.74M2793.12 1450.98V1541.61M2793.12 1450.98H2877.74M2793.12 1541.61V1632.24M2793.12 1541.61H2877.74M2793.12 1632.24V1722.87M2793.12 1632.24H2877.74M2793.12 1722.87H2877.74M2877.74 0.872368V91.5039M2877.74 0.872368H2962.35M2877.74 91.5039V182.136M2877.74 91.5039H2962.35M2877.74 182.136V272.767M2877.74 182.136H2962.35M2877.74 272.767V363.399M2877.74 272.767H2962.35M2877.74 363.399V454.03M2877.74 363.399H2962.35M2877.74 454.03V544.662M2877.74 454.03H2962.35M2877.74 544.662V635.293M2877.74 544.662H2962.35M2877.74 635.293V725.925M2877.74 635.293H2962.35M2877.74 725.925V816.557M2877.74 725.925H2962.35M2877.74 816.557V907.188M2877.74 816.557H2962.35M2877.74 907.188V997.82M2877.74 907.188H2962.35M2877.74 997.82V1088.45M2877.74 997.82H2962.35M2877.74 1088.45V1179.08M2877.74 1088.45H2962.35M2877.74 1179.08V1269.71M2877.74 1179.08H2962.35M2877.74 1269.71V1360.35M2877.74 1269.71H2962.35M2877.74 1360.35V1450.98M2877.74 1360.35H2962.35M2877.74 1450.98V1541.61M2877.74 1450.98H2962.35M2877.74 1541.61V1632.24M2877.74 1541.61H2962.35M2877.74 1632.24V1722.87M2877.74 1632.24H2962.35M2877.74 1722.87H2962.35M2962.35 0.872368V91.5039M2962.35 0.872368H3046.96M2962.35 91.5039V182.136M2962.35 91.5039H3046.96M2962.35 182.136V272.767M2962.35 182.136H3046.96M2962.35 272.767V363.399M2962.35 272.767H3046.96M2962.35 363.399V454.03M2962.35 363.399H3046.96M2962.35 454.03V544.662M2962.35 454.03H3046.96M2962.35 544.662V635.293M2962.35 544.662H3046.96M2962.35 635.293V725.925M2962.35 635.293H3046.96M2962.35 725.925V816.557M2962.35 725.925H3046.96M2962.35 816.557V907.188M2962.35 816.557H3046.96M2962.35 907.188V997.82M2962.35 907.188H3046.96M2962.35 997.82V1088.45M2962.35 997.82H3046.96M2962.35 1088.45V1179.08M2962.35 1088.45H3046.96M2962.35 1179.08V1269.71M2962.35 1179.08H3046.96M2962.35 1269.71V1360.35M2962.35 1269.71H3046.96M2962.35 1360.35V1450.98M2962.35 1360.35H3046.96M2962.35 1450.98V1541.61M2962.35 1450.98H3046.96M2962.35 1541.61V1632.24M2962.35 1541.61H3046.96M2962.35 1632.24V1722.87M2962.35 1632.24H3046.96M2962.35 1722.87H3046.96M3046.96 0.872368V91.5039M3046.96 0.872368H3131.58M3046.96 91.5039V182.136M3046.96 91.5039H3131.58M3046.96 182.136V272.767M3046.96 182.136H3131.58M3046.96 272.767V363.399M3046.96 272.767H3131.58M3046.96 363.399V454.03M3046.96 363.399H3131.58M3046.96 454.03V544.662M3046.96 454.03H3131.58M3046.96 544.662V635.293M3046.96 544.662H3131.58M3046.96 635.293V725.925M3046.96 635.293H3131.58M3046.96 725.925V816.557M3046.96 725.925H3131.58M3046.96 816.557V907.188M3046.96 816.557H3131.58M3046.96 907.188V997.82M3046.96 907.188H3131.58M3046.96 997.82V1088.45M3046.96 997.82H3131.58M3046.96 1088.45V1179.08M3046.96 1088.45H3131.58M3046.96 1179.08V1269.71M3046.96 1179.08H3131.58M3046.96 1269.71V1360.35M3046.96 1269.71H3131.58M3046.96 1360.35V1450.98M3046.96 1360.35H3131.58M3046.96 1450.98V1541.61M3046.96 1450.98H3131.58M3046.96 1541.61V1632.24M3046.96 1541.61H3131.58M3046.96 1632.24V1722.87M3046.96 1632.24H3131.58M3046.96 1722.87H3131.58M3131.58 0.872368V91.5039M3131.58 0.872368H3216.19M3131.58 91.5039V182.136M3131.58 91.5039H3216.19M3131.58 182.136V272.767M3131.58 182.136H3216.19M3131.58 272.767V363.399M3131.58 272.767H3216.19M3131.58 363.399V454.03M3131.58 363.399H3216.19M3131.58 454.03V544.662M3131.58 454.03H3216.19M3131.58 544.662V635.293M3131.58 544.662H3216.19M3131.58 635.293V725.925M3131.58 635.293H3216.19M3131.58 725.925V816.557M3131.58 725.925H3216.19M3131.58 816.557V907.188M3131.58 816.557H3216.19M3131.58 907.188V997.82M3131.58 907.188H3216.19M3131.58 997.82V1088.45M3131.58 997.82H3216.19M3131.58 1088.45V1179.08M3131.58 1088.45H3216.19M3131.58 1179.08V1269.71M3131.58 1179.08H3216.19M3131.58 1269.71V1360.35M3131.58 1269.71H3216.19M3131.58 1360.35V1450.98M3131.58 1360.35H3216.19M3131.58 1450.98V1541.61M3131.58 1450.98H3216.19M3131.58 1541.61V1632.24M3131.58 1541.61H3216.19M3131.58 1632.24V1722.87M3131.58 1632.24H3216.19M3131.58 1722.87H3216.19M3216.19 0.872368V91.5039M3216.19 0.872368H3300.8M3216.19 91.5039V182.136M3216.19 91.5039H3300.8M3216.19 182.136V272.767M3216.19 182.136H3300.8M3216.19 272.767V363.399M3216.19 272.767H3300.8M3216.19 363.399V454.03M3216.19 363.399H3300.8M3216.19 454.03V544.662M3216.19 454.03H3300.8M3216.19 544.662V635.293M3216.19 544.662H3300.8M3216.19 635.293V725.925M3216.19 635.293H3300.8M3216.19 725.925V816.557M3216.19 725.925H3300.8M3216.19 816.557V907.188M3216.19 816.557H3300.8M3216.19 907.188V997.82M3216.19 907.188H3300.8M3216.19 997.82V1088.45M3216.19 997.82H3300.8M3216.19 1088.45V1179.08M3216.19 1088.45H3300.8M3216.19 1179.08V1269.71M3216.19 1179.08H3300.8M3216.19 1269.71V1360.35M3216.19 1269.71H3300.8M3216.19 1360.35V1450.98M3216.19 1360.35H3300.8M3216.19 1450.98V1541.61M3216.19 1450.98H3300.8M3216.19 1541.61V1632.24M3216.19 1541.61H3300.8M3216.19 1632.24V1722.87M3216.19 1632.24H3300.8M3216.19 1722.87H3300.8M3300.8 0.872368V91.5039M3300.8 0.872368H3385.42M3300.8 91.5039V182.136M3300.8 91.5039H3385.42M3300.8 182.136V272.767M3300.8 182.136H3385.42M3300.8 272.767V363.399M3300.8 272.767H3385.42M3300.8 363.399V454.03M3300.8 363.399H3385.42M3300.8 454.03V544.662M3300.8 454.03H3385.42M3300.8 544.662V635.293M3300.8 544.662H3385.42M3300.8 635.293V725.925M3300.8 635.293H3385.42M3300.8 725.925V816.557M3300.8 725.925H3385.42M3300.8 816.557V907.188M3300.8 816.557H3385.42M3300.8 907.188V997.82M3300.8 907.188H3385.42M3300.8 997.82V1088.45M3300.8 997.82H3385.42M3300.8 1088.45V1179.08M3300.8 1088.45H3385.42M3300.8 1179.08V1269.71M3300.8 1179.08H3385.42M3300.8 1269.71V1360.35M3300.8 1269.71H3385.42M3300.8 1360.35V1450.98M3300.8 1360.35H3385.42M3300.8 1450.98V1541.61M3300.8 1450.98H3385.42M3300.8 1541.61V1632.24M3300.8 1541.61H3385.42M3300.8 1632.24V1722.87M3300.8 1632.24H3385.42M3300.8 1722.87H3385.42M3385.42 0.872368V91.5039M3385.42 0.872368H3470.03M3385.42 91.5039V182.136M3385.42 91.5039H3470.03M3385.42 182.136V272.767M3385.42 182.136H3470.03M3385.42 272.767V363.399M3385.42 272.767H3470.03M3385.42 363.399V454.03M3385.42 363.399H3470.03M3385.42 454.03V544.662M3385.42 454.03H3470.03M3385.42 544.662V635.293M3385.42 544.662H3470.03M3385.42 635.293V725.925M3385.42 635.293H3470.03M3385.42 725.925V816.557M3385.42 725.925H3470.03M3385.42 816.557V907.188M3385.42 816.557H3470.03M3385.42 907.188V997.82M3385.42 907.188H3470.03M3385.42 997.82V1088.45M3385.42 997.82H3470.03M3385.42 1088.45V1179.08M3385.42 1088.45H3470.03M3385.42 1179.08V1269.71M3385.42 1179.08H3470.03M3385.42 1269.71V1360.35M3385.42 1269.71H3470.03M3385.42 1360.35V1450.98M3385.42 1360.35H3470.03M3385.42 1450.98V1541.61M3385.42 1450.98H3470.03M3385.42 1541.61V1632.24M3385.42 1541.61H3470.03M3385.42 1632.24V1722.87M3385.42 1632.24H3470.03M3385.42 1722.87H3470.03M3470.03 0.872368V91.5039M3470.03 0.872368H3554.64M3470.03 91.5039V182.136M3470.03 91.5039H3554.64M3470.03 182.136V272.767M3470.03 182.136H3554.64M3470.03 272.767V363.399M3470.03 272.767H3554.64M3470.03 363.399V454.03M3470.03 363.399H3554.64M3470.03 454.03V544.662M3470.03 454.03H3554.64M3470.03 544.662V635.293M3470.03 544.662H3554.64M3470.03 635.293V725.925M3470.03 635.293H3554.64M3470.03 725.925V816.557M3470.03 725.925H3554.64M3470.03 816.557V907.188M3470.03 816.557H3554.64M3470.03 907.188V997.82M3470.03 907.188H3554.64M3470.03 997.82V1088.45M3470.03 997.82H3554.64M3470.03 1088.45V1179.08M3470.03 1088.45H3554.64M3470.03 1179.08V1269.71M3470.03 1179.08H3554.64M3470.03 1269.71V1360.35M3470.03 1269.71H3554.64M3470.03 1360.35V1450.98M3470.03 1360.35H3554.64M3470.03 1450.98V1541.61M3470.03 1450.98H3554.64M3470.03 1541.61V1632.24M3470.03 1541.61H3554.64M3470.03 1632.24V1722.87M3470.03 1632.24H3554.64M3470.03 1722.87H3554.64M3554.64 0.872368V91.5039M3554.64 0.872368H3639.26M3554.64 91.5039V182.136M3554.64 91.5039H3639.26M3554.64 182.136V272.767M3554.64 182.136H3639.26M3554.64 272.767V363.399M3554.64 272.767H3639.26M3554.64 363.399V454.03M3554.64 363.399H3639.26M3554.64 454.03V544.662M3554.64 454.03H3639.26M3554.64 544.662V635.293M3554.64 544.662H3639.26M3554.64 635.293V725.925M3554.64 635.293H3639.26M3554.64 725.925V816.557M3554.64 725.925H3639.26M3554.64 816.557V907.188M3554.64 816.557H3639.26M3554.64 907.188V997.82M3554.64 907.188H3639.26M3554.64 997.82V1088.45M3554.64 997.82H3639.26M3554.64 1088.45V1179.08M3554.64 1088.45H3639.26M3554.64 1179.08V1269.71M3554.64 1179.08H3639.26M3554.64 1269.71V1360.35M3554.64 1269.71H3639.26M3554.64 1360.35V1450.98M3554.64 1360.35H3639.26M3554.64 1450.98V1541.61M3554.64 1450.98H3639.26M3554.64 1541.61V1632.24M3554.64 1541.61H3639.26M3554.64 1632.24V1722.87M3554.64 1632.24H3639.26M3554.64 1722.87H3639.26M3639.26 0.872368V91.5039M3639.26 0.872368H3723.87V91.5039M3639.26 91.5039V182.136M3639.26 91.5039H3723.87M3639.26 182.136V272.767M3639.26 182.136H3723.87M3639.26 272.767V363.399M3639.26 272.767H3723.87M3639.26 363.399V454.03M3639.26 363.399H3723.87M3639.26 454.03V544.662M3639.26 454.03H3723.87M3639.26 544.662V635.293M3639.26 544.662H3723.87M3639.26 635.293V725.925M3639.26 635.293H3723.87M3639.26 725.925V816.557M3639.26 725.925H3723.87M3639.26 816.557V907.188M3639.26 816.557H3723.87M3639.26 907.188V997.82M3639.26 907.188H3723.87M3639.26 997.82V1088.45M3639.26 997.82H3723.87M3639.26 1088.45V1179.08M3639.26 1088.45H3723.87M3639.26 1179.08V1269.71M3639.26 1179.08H3723.87M3639.26 1269.71V1360.35M3639.26 1269.71H3723.87M3639.26 1360.35V1450.98M3639.26 1360.35H3723.87M3639.26 1450.98V1541.61M3639.26 1450.98H3723.87M3639.26 1541.61V1632.24M3639.26 1541.61H3723.87M3639.26 1632.24V1722.87M3639.26 1632.24H3723.87M3639.26 1722.87H3723.87V1632.24M3723.87 91.5039V182.136M3723.87 182.136V272.767M3723.87 272.767V363.399M3723.87 363.399V454.03M3723.87 454.03V544.662M3723.87 544.662V635.293M3723.87 635.293V725.925M3723.87 725.925V816.557M3723.87 816.557V907.188M3723.87 907.188V997.82M3723.87 997.82V1088.45M3723.87 1088.45V1179.08M3723.87 1179.08V1269.71M3723.87 1269.71V1360.35M3723.87 1360.35V1450.98M3723.87 1450.98V1541.61M3723.87 1541.61V1632.24" stroke="url(#paint0_radial_0_307)" stroke-width="1.74474"/>
</g>
<defs>
<radialGradient id="paint0_radial_0_307" cx="0" cy="0" r="1" gradientUnits="userSpaceOnUse" gradientTransform="translate(1862.37 861.872) rotate(90) scale(861 1503.19)">
<stop stop-color="white"/>
<stop offset="1" stop-color="white" stop-opacity="0.2"/>
</radialGradient>
</defs>
</svg>
