<svg preserveAspectRatio="none" width="100%" height="100%" overflow="visible" style="display: block;" viewBox="0 0 19.9984 15.9965" fill="none" xmlns="http://www.w3.org/2000/svg">
<g id="Icon" clip-path="url(#clip0_0_15)">
<path id="Vector" fill-rule="evenodd" clip-rule="evenodd" d="M7.17143 9.33214L10.0012 11.267L12.729 9.38514L18.8435 15.4177C18.6822 15.4704 18.5115 15.497 18.3315 15.4977H1.66687C1.44688 15.4977 1.2369 15.4547 1.04392 15.3777L7.17143 9.33214ZM19.9984 4.37454V13.8308C19.9984 14.0778 19.9444 14.3117 19.8484 14.5227L13.8549 8.6092L19.9984 4.37454ZM-1.05667e-07 4.42754L6.04152 8.55921L0.105991 14.4167C0.0364598 14.2292 0.00057884 14.0308 -1.05667e-07 13.8308V4.42754ZM18.3315 0.49885C19.2515 0.49885 19.9984 1.24479 19.9984 2.16572V2.75167L9.9972 9.64612L-1.05667e-07 2.80867V2.16572C-1.05667e-07 1.24579 0.74594 0.49885 1.66687 0.49885H18.3315Z" fill="var(--fill-0, white)"/>
</g>
<defs>
<clipPath id="clip0_0_15">
<rect width="19.9984" height="15.9965" fill="white"/>
</clipPath>
</defs>
</svg>
