<svg preserveAspectRatio="none" width="100%" height="100%" overflow="visible" style="display: block;" viewBox="0 0 86 125" fill="none" xmlns="http://www.w3.org/2000/svg">
<g id="Layer_1" clip-path="url(#clip0_0_524)">
<path id="Vector" d="M0.0183463 58.7007C0.0183463 39.9229 0.0183463 21.1453 0.0183463 2.36807C0.0183463 1.95606 0.00667138 1.54405 0.0316891 1.13204C0.0717174 0.494248 0.500354 0.0146672 1.01739 -0.000165229C1.62865 -0.0166457 2.12484 0.476943 2.15152 1.17159C2.17487 1.77478 2.15653 2.37961 2.15653 2.98444C2.15986 10.3413 2.16125 17.6985 2.1607 25.0559C2.1607 25.4877 2.2641 25.9359 2.0231 26.3471C1.99577 26.3955 1.98205 26.4502 1.98337 26.5055C1.98469 26.5609 2.001 26.6149 2.0306 26.6619C2.25743 27.0467 2.1632 27.4678 2.1632 27.8724C2.16653 53.9527 2.1682 80.0319 2.1682 106.11C2.1682 107.373 2.14819 108.636 2.18655 109.9C2.23241 111.443 2.74528 112.846 4.21048 113.532C6.61051 114.657 9.45085 114.026 10.2564 110.967C10.4049 110.401 10.389 109.824 10.389 109.247L10.399 52.9976C10.399 51.5973 10.4024 50.1965 10.409 48.7951C10.409 48.5215 10.3982 48.2471 10.4924 47.9802C10.6867 47.4182 11.0578 47.1734 11.6282 47.2385C12.1578 47.3003 12.4555 47.5871 12.5139 48.1598C12.5474 48.5709 12.5597 48.9835 12.5505 49.3958C12.5505 64.4952 12.5505 79.594 12.5505 94.6923C12.5505 100.955 12.5189 107.211 12.5664 113.469C12.5814 115.435 12.3362 117.366 11.9301 119.262C11.5965 120.805 11.0128 122.305 9.81361 123.472C8.95383 124.312 7.95563 124.834 6.74227 124.949C6.07742 125.008 5.4075 124.981 4.75003 124.866C3.40824 124.639 2.56181 123.722 1.86715 122.679C1.09911 121.526 0.693824 120.235 0.449485 118.861C0.0358587 116.525 0 114.182 0 111.82C0.021682 94.113 0.0255736 76.4064 0.0116749 58.6999L0.0183463 58.7007Z" fill="var(--fill-0, #473DFF)"/>
<path id="Vector_2" d="M77.6257 95.1589C77.6257 87.3636 77.6257 79.5684 77.6257 71.7731C77.6116 71.3607 77.6244 70.9479 77.6641 70.5371C77.6999 70.277 77.8331 70.0396 78.0373 69.8718C78.2416 69.704 78.5021 69.618 78.7674 69.6307C79.3953 69.6488 79.8265 70.0237 79.879 70.6253C79.9049 70.9252 79.8898 71.2293 79.8898 71.5317C79.8898 84.4046 79.8898 97.2774 79.8898 110.15C79.8898 111.147 79.9866 112.128 80.4211 113.04C80.7671 113.767 81.2658 114.045 82.0055 113.978C82.5117 113.932 82.8536 113.703 83.1238 113.249C83.7751 112.151 83.8026 110.941 83.841 109.742C83.881 108.48 83.8627 107.217 83.8627 105.951C83.8671 94.423 83.8699 82.8952 83.871 71.3677C83.871 71.1205 83.861 70.8733 83.8843 70.6261C83.9071 70.3719 84.0238 70.1348 84.2121 69.9601C84.4004 69.7855 84.6472 69.6854 84.9054 69.679C85.1636 69.6725 85.4151 69.7602 85.6121 69.9253C85.8091 70.0905 85.9376 70.3214 85.9733 70.5742C85.9938 70.7933 85.9989 71.0136 85.9883 71.2334C85.8921 86.4119 85.8921 101.59 85.9883 116.769C85.9933 117.73 86.04 118.7 85.8624 119.644C85.6364 120.849 85.4371 122.064 84.7933 123.16C83.7976 124.854 82.1139 125.287 80.4311 124.815C79.8945 124.655 79.4323 124.314 79.126 123.85C78.7315 123.269 78.3604 122.66 78.1703 121.955C77.7533 120.404 77.6149 118.829 77.6157 117.232C77.6207 109.876 77.6207 102.52 77.6157 95.1638L77.6257 95.1589Z" fill="var(--fill-0, #473DFF)"/>
<path id="Vector_3" d="M35.3263 95.3146C35.3263 87.3551 35.3263 79.3956 35.3263 71.4361C35.3263 71.1625 35.3147 70.8857 35.3405 70.6121C35.3939 70.0526 35.7733 69.6801 36.2937 69.6488C36.8574 69.6142 37.4295 70.0246 37.4937 70.5668C37.5314 71.0052 37.5431 71.4454 37.5287 71.8852C37.5321 80.6687 37.534 89.4514 37.5346 98.2333C37.5346 102.213 37.5329 106.193 37.5296 110.173C37.5296 110.889 37.6221 111.594 37.7155 112.301C37.7819 112.766 37.9949 113.199 38.3243 113.537C38.8989 114.164 39.8754 114.189 40.4491 113.547C41.0596 112.864 41.2872 112.004 41.3965 111.132C41.4857 110.427 41.4673 109.708 41.4673 108.994C41.4673 104.603 41.464 100.211 41.4573 95.8206C41.4482 95.5193 41.4663 95.2179 41.5115 94.9199C41.6049 94.4123 41.9285 94.119 42.3972 94.0712C42.8658 94.0234 43.1861 94.2467 43.4246 94.6315C43.6264 94.9611 43.6155 95.308 43.6155 95.6656C43.6155 101.155 43.6322 106.644 43.6155 112.134C43.6097 114.493 43.6864 116.856 43.4988 119.211C43.3762 120.751 43.0393 122.249 42.1403 123.56C40.7869 125.538 37.4337 125.485 36.3696 123.306C35.8292 122.2 35.4406 121.081 35.383 119.854C35.3372 118.895 35.3188 117.934 35.318 116.97C35.313 109.751 35.313 102.533 35.318 95.3154L35.3263 95.3146Z" fill="var(--fill-0, #473DFF)"/>
<path id="Vector_4" d="M50.0844 114.292C50.0844 112.864 50.0844 111.435 50.0844 110.007C50.0747 109.787 50.0822 109.567 50.1069 109.348C50.2037 108.758 50.6298 108.396 51.1844 108.407C51.7389 108.417 52.1767 108.79 52.2218 109.383C52.2668 109.976 52.2318 110.59 52.2476 111.196C52.2726 112.116 52.5945 112.903 53.3317 113.509C54.3082 114.317 56.0703 114.261 56.7408 112.589C57.1414 111.62 57.3435 110.582 57.3354 109.536C57.3237 108.794 57.3079 108.052 57.3512 107.311C57.4621 105.43 57.2136 103.578 56.8242 101.754C56.4989 100.231 55.9394 98.7698 55.2514 97.3574C54.2799 95.3657 52.8105 93.702 51.6355 91.8455C50.1344 89.4682 48.7852 87.0217 48.1514 84.253C47.5084 81.4431 47.6318 78.6785 48.8394 76.0416C49.9343 73.6519 51.6197 71.6957 53.8162 70.1976C54.0754 70.0379 54.351 69.9058 54.6385 69.8037C55.1855 69.5829 55.5299 69.6389 55.8368 70.0106C56.1437 70.3822 56.0795 70.7827 55.8735 71.1642C55.5608 71.7468 55.1989 72.2972 54.706 72.7554C53.8721 73.5267 53.1166 74.3639 52.3477 75.1953C50.2504 77.463 49.8718 80.1271 50.4046 83.0285C50.6707 84.4779 51.3161 85.7856 51.9215 87.1057C52.9639 89.3792 54.2023 91.5554 55.5391 93.6658C56.0395 94.4527 56.6032 95.1968 57.0827 96.0002C57.9979 97.534 58.6992 99.183 59.1675 100.902C59.8472 103.374 59.8038 105.902 59.7604 108.424C59.7329 109.99 59.7521 111.555 59.5336 113.11C59.1608 115.768 58.8956 118.451 57.9408 120.994C57.6346 121.847 57.2282 122.662 56.7299 123.421C55.7968 124.805 54.6626 125.167 53.3234 124.928C52.4427 124.77 51.7898 124.281 51.3528 123.545C50.6857 122.419 50.3379 121.185 50.2045 119.885C50.011 118.021 50.1186 116.153 50.0844 114.292Z" fill="var(--fill-0, #473DFF)"/>
<path id="Vector_5" d="M22.8491 97.4513C22.8491 89.3017 22.8491 81.1519 22.8491 73.0017C22.8491 72.3705 22.8366 71.7402 22.8491 71.1065C22.847 70.8877 22.8788 70.6698 22.9433 70.4605C23.0236 70.2406 23.1777 70.0546 23.38 69.9334C23.5823 69.8122 23.8205 69.7633 24.0549 69.7947C24.5369 69.8474 24.863 70.1432 24.9422 70.6352C24.968 70.8539 24.9761 71.0744 24.9664 71.2944C24.9481 85.1522 24.9292 99.0098 24.9097 112.867C24.9097 113.415 24.9489 113.965 24.9389 114.515C24.9322 114.895 25.1057 115.073 25.4701 115.1C25.7461 115.122 26.0238 115.153 26.304 115.147C27.1922 115.127 28.0803 115.106 28.9676 115.065C30.2693 115 31.0916 115.696 31.1591 116.984C31.1916 117.613 31.1691 118.246 31.165 118.879C31.1575 120.251 31.1741 121.624 31.1274 122.994C31.0782 124.421 30.4603 124.972 29.036 124.964C27.3125 124.957 25.5907 124.948 23.8706 124.937C23.1084 124.937 22.9208 124.789 22.8699 124.054C22.8266 123.425 22.8349 122.793 22.8349 122.159C22.8349 113.927 22.8349 105.695 22.8349 97.462L22.8491 97.4513Z" fill="var(--fill-0, #473DFF)"/>
<path id="Vector_6" d="M65.2739 97.298C65.2739 88.626 65.2739 79.954 65.2739 71.282C65.2635 71.008 65.2774 70.7337 65.3156 70.4621C65.399 70.0287 65.8452 69.6661 66.2521 69.6636C66.7083 69.6636 67.1261 70.0336 67.1928 70.5338C67.2258 70.8072 67.2384 71.0826 67.2303 71.3578C67.1286 77.6418 67.212 83.9258 67.2053 90.2106C67.1942 100.172 67.1875 110.133 67.1853 120.095C67.1853 121.384 67.2195 122.675 67.1944 123.967C67.1794 124.747 66.7308 125.078 66.0061 124.932C65.6125 124.849 65.339 124.65 65.3198 124.225C65.3009 123.869 65.2909 123.512 65.2898 123.153C65.2898 114.536 65.2898 105.918 65.2898 97.3013L65.2739 97.298Z" fill="var(--fill-0, #473DFF)"/>
<path id="Vector_7" d="M19.1749 99.4594C17.5579 99.5781 16.4321 98.0586 16.5305 96.9157C16.6614 95.3904 17.6555 94.353 19.1807 94.3044C20.5767 94.2599 21.7742 95.4827 21.7767 96.8588C21.7809 98.3684 20.6909 99.4594 19.1749 99.4594Z" fill="var(--fill-0, #473DFF)"/>
<path id="Vector_8" d="M38.5624 85.7601C38.6125 84.1945 39.7349 83.1084 41.2568 83.1455C42.6895 83.1809 43.8286 84.3906 43.7961 85.8425C43.7644 87.2615 42.5277 88.4077 41.0784 88.3698C39.9734 88.3409 38.444 87.395 38.5624 85.7601Z" fill="var(--fill-0, #473DFF)"/>
<path id="Vector_9" d="M71.0601 99.4158C69.5782 99.4083 68.4141 98.2448 68.4416 96.8053C68.4724 95.2034 69.8893 94.2285 71.0468 94.2145C72.4494 94.1972 73.6603 95.4638 73.6544 96.8844C73.6568 97.2202 73.5911 97.5531 73.4612 97.8634C73.3313 98.1737 73.1397 98.4551 72.8979 98.6911C72.6561 98.927 72.3689 99.1127 72.0532 99.2372C71.7376 99.3617 71.3999 99.4224 71.0601 99.4158Z" fill="var(--fill-0, #473DFF)"/>
<path id="Vector_10" d="M16.1969 120.002C17.8697 119.853 18.8137 121.065 18.782 122.423C18.7512 123.916 17.6846 125.012 16.2252 124.993C14.6708 124.973 13.5625 123.906 13.5675 122.432C13.5759 120.989 14.6466 119.998 16.1969 120.002Z" fill="var(--fill-0, #473DFF)"/>
</g>
<defs>
<clipPath id="clip0_0_524">
<rect width="86" height="125" fill="white"/>
</clipPath>
</defs>
</svg>
