<svg preserveAspectRatio="none" width="100%" height="100%" overflow="visible" style="display: block;" viewBox="0 0 157 71" fill="none" xmlns="http://www.w3.org/2000/svg">
<g id="Layer_1" clip-path="url(#clip0_0_749)">
<path id="Vector" d="M22.6171 30.0119C22.7764 29.6692 22.9357 29.33 23.0914 28.9855C23.8878 27.2214 24.6914 25.4609 25.4754 23.6913C26.4973 21.3878 27.4853 19.0699 28.5305 16.7773C28.756 16.2812 28.679 16.0558 28.2352 15.7798C24.7594 13.6152 21.298 11.4326 17.8277 9.26259C17.067 8.78638 15.2844 8.91626 14.5936 9.46281C12.2096 11.3568 9.83102 13.2508 7.43452 15.1286C7.02645 15.4461 6.87074 15.7635 6.94233 16.2686C7.04256 16.9901 7.06762 17.7117 7.1589 18.4206C7.27702 19.3225 6.56111 19.0501 6.14768 19.1421C5.73424 19.2341 5.28859 19.308 5.21163 18.6009C4.85368 15.226 4.40982 11.8619 4.07871 8.48514C3.91405 6.79677 4.89305 5.35372 6.46447 4.74223C7.79963 4.22273 9.12227 3.51383 10.5075 3.33164C12.1774 3.11518 13.5931 2.65882 15.0231 1.70821C16.4531 0.757596 18.4237 1.4214 19.4707 2.84461C19.7982 3.30455 20.2394 3.67019 20.7504 3.90526C24.5053 5.67059 28.2543 7.44855 31.9973 9.23914C32.3982 9.43233 32.8431 9.51392 33.2859 9.47544C34.1108 9.41154 34.9339 9.62007 35.6307 10.0695C36.3275 10.519 36.8602 11.1848 37.1482 11.9665C37.6672 13.424 37.1625 15.4208 35.7772 16.3804C35.3421 16.6906 35.0003 17.1156 34.7893 17.6088C32.0319 23.4075 29.2703 29.2038 26.5045 34.9976C26.2557 35.5225 25.8566 35.9807 25.751 36.6571C26.2038 36.5778 26.3595 36.2495 26.5456 35.9753C28.3211 33.3832 30.1359 30.8128 31.965 28.2622C34.204 25.1362 36.4735 22.0264 38.725 18.904C43.1123 12.8191 47.4692 6.70718 51.7956 0.568195C52.2663 -0.0974126 52.5706 -0.165958 53.2543 0.295819C54.7631 1.31498 56.3399 2.23312 57.9077 3.15487C58.416 3.4525 58.6057 3.67978 58.1994 4.23716C57.0468 5.82091 56.6584 7.59045 56.6996 9.57645C56.7927 14.2032 56.739 18.8336 56.6889 23.4658C56.6799 24.3154 56.9412 24.6167 57.7394 24.485C58.5377 24.3533 58.7274 24.6347 58.5896 25.4663C58.1636 28.0421 57.8379 30.636 57.4746 33.2227C57.4209 33.6015 57.4585 34.02 56.9376 34.1372C56.7193 34.1859 56.7354 34.406 56.7336 34.5864C56.7336 35.1564 56.7336 35.7282 56.7211 36.2982C56.7211 36.8213 57.0253 37.1514 57.437 37.366C59.4684 38.4483 59.7637 41.6375 58.484 43.3186C58.0222 43.9211 58.1439 44.2314 58.6827 44.6877C60.7355 46.4176 62.7454 48.198 64.7679 49.9639C64.8704 50.0707 64.966 50.1839 65.0542 50.303C63.8891 50.5772 62.9745 50.3138 62.1369 49.5689C60.5565 48.1619 58.9332 46.8036 57.3529 45.3948C56.909 44.998 56.483 44.8266 55.8996 45.0088C55.1549 45.262 54.3438 45.2299 53.6212 44.9186C53.0019 44.6426 52.5849 45.0016 52.1715 45.3353C50.5714 46.6322 48.9392 47.8949 47.4071 49.2712C46.4425 50.1371 45.4384 50.5898 44.1122 50.3427C44.1498 49.9819 44.4809 49.8575 44.7064 49.6699C46.8541 47.9003 49.0018 46.1326 51.1656 44.3865C51.5988 44.0384 51.7402 43.7065 51.5576 43.1599C51.3743 42.5566 51.2297 41.942 51.1245 41.32C50.9723 40.5588 51.2551 40.0176 51.9997 39.7759C52.7013 39.5487 53.3384 39.8733 53.6355 40.6436C53.7626 41.0607 53.8577 41.4871 53.9201 41.9189C54.3586 41.6573 54.8418 41.5473 55.3179 41.7385C55.6007 41.8575 55.9067 42.0614 56.0964 41.7385C56.3076 41.3777 56.671 41.017 56.4437 40.5137C56.2164 40.0104 55.8423 39.5883 55.3107 39.4513C54.2798 39.1843 53.9684 38.47 53.9613 37.5103C53.9613 36.5796 53.9451 35.647 53.9505 34.7162C53.9505 34.3771 53.9111 34.0813 53.4834 34.1426C52.576 34.2743 52.3719 33.6772 52.2306 32.9756C51.8249 30.8531 51.415 28.7306 51.001 26.6081C50.9392 26.2572 50.8377 25.9147 50.6985 25.5871C50.371 24.8403 50.6341 24.4706 51.4019 24.4543C52.6547 24.4291 52.5706 24.6996 52.5724 23.2386C52.5724 20.5671 52.5724 17.8957 52.4238 15.1683C52.0659 15.8339 51.6954 16.4941 51.35 17.1651C46.6751 26.2275 42.002 35.2898 37.3308 44.3522C36.8779 45.2307 36.3786 46.0893 36.4359 47.1427C36.4627 47.6839 36.069 47.7434 35.643 47.7416C34.3597 47.7416 33.0765 47.7687 31.795 47.7416C31.2581 47.7272 31.0791 47.8895 31.0791 48.4487C31.0558 50.4167 31.0344 50.4203 29.1104 50.4203C23.3241 50.4203 17.5395 50.4022 11.7496 50.4365C10.9192 50.4365 10.597 50.2561 10.631 49.3542C10.6901 47.7308 10.631 47.7308 8.98983 47.7308C7.16963 47.7308 5.35123 47.6983 3.53104 47.7308C2.87241 47.7416 2.60036 47.6009 2.60394 46.8433C2.63974 38.7586 2.64749 30.6733 2.62721 22.5874C2.62721 21.9615 2.84019 21.8442 3.39681 21.846C9.66099 21.864 15.9252 21.864 22.1893 21.846C22.7263 21.846 22.9053 21.9795 22.9053 22.5513C22.8784 24.2667 22.746 25.9785 22.6189 27.6795C22.5616 28.4426 22.524 29.2074 22.4775 29.9722L22.6171 30.0119ZM39.4928 23.529L39.4302 23.4298C39.4302 23.4514 39.4194 23.4821 39.4302 23.4911C39.4526 23.5056 39.4775 23.516 39.5035 23.5218C40.2964 25.7928 41.0875 28.062 41.9627 30.5675C42.437 29.6132 42.7931 28.8989 43.1475 28.1828C44.0048 26.4548 44.0191 26.4331 42.4137 25.3598C41.458 24.7231 40.6024 23.9168 39.4928 23.529ZM39.8669 32.1692L39.8955 32.2306L39.8561 32.1783C39.2046 29.8333 38.0986 27.6687 37.2735 25.1759C36.3786 26.4169 35.5983 27.501 34.8161 28.5851C34.6926 28.7654 34.6855 28.926 34.8806 29.0432C36.5594 30.0588 38.0753 31.3377 39.8669 32.1692ZM12.7644 27.3458C11.4239 27.3458 10.0798 27.3657 8.74105 27.3458C8.23812 27.3332 8.07168 27.4865 8.07705 28.0042C8.09494 30.1977 8.09136 32.3911 8.05378 34.5828C8.04304 35.2051 8.22023 35.4089 8.8538 35.4017C11.4454 35.3692 14.0382 35.3692 16.6321 35.4017C17.2317 35.4017 17.4715 35.2664 17.4572 34.608C17.4131 32.4158 17.4047 30.2229 17.4321 28.0295C17.4321 27.4378 17.212 27.3368 16.7001 27.3476C15.3918 27.3657 14.0763 27.3458 12.7644 27.3458ZM22.7388 38.4862C22.8516 38.2824 23.0037 38.0389 23.1254 37.7809C26.1859 31.3148 29.244 24.8476 32.2997 18.3791C32.8367 17.2571 32.8027 17.3256 31.7628 16.66C31.0469 16.2037 30.859 16.4797 30.5708 17.1002C28.5537 21.4293 26.5027 25.7296 24.4659 30.0425C23.4553 32.1831 22.4465 34.3254 21.4394 36.4695C21.1584 37.0594 22.0515 38.5223 22.7388 38.4862ZM6.58438 13.3482C8.91287 11.4813 11.0964 9.7406 13.2799 7.99811C13.5967 7.74738 13.4123 7.56339 13.2978 7.31266C13.0723 6.81842 12.5586 6.45405 12.6696 5.80107C12.7698 5.21843 12.4906 5.00017 11.9054 5.06691C10.044 5.27616 8.37952 6.08607 6.69535 6.81481C6.18526 7.03668 5.94544 7.60849 6.00271 8.18391C6.16737 9.84161 6.37319 11.4939 6.58438 13.3482ZM20.4551 5.92733C20.1991 5.85698 20.1723 6.06442 20.1078 6.22496C19.9969 6.50275 19.9289 6.81661 19.7642 7.05111C19.3776 7.59225 19.5298 7.82495 20.1025 8.09011C22.9661 9.41591 25.8297 10.7525 28.6611 12.1631C29.522 12.5924 29.8173 12.4806 30.2504 11.5859C30.6084 10.8283 30.4688 10.6533 29.8388 10.3611C26.8678 8.97578 23.9093 7.55798 20.9455 6.15281L20.4551 5.92733ZM34.6175 42.1353L34.7964 41.9676L31.0075 33.7314C29.9677 35.1654 29.0245 36.4695 28.0759 37.7701C27.8683 38.0551 27.9238 38.2301 28.228 38.4068C30.3614 39.6388 32.4877 40.8853 34.6175 42.1263V42.1353ZM33.7226 31.3251L33.6063 31.4694C34.664 34.0452 35.72 36.6229 36.8278 39.334C37.5885 37.9884 38.2489 36.8087 38.9344 35.6254C39.1134 35.3223 39.0561 35.1546 38.7894 34.9652C37.0975 33.7506 35.408 32.5342 33.7208 31.316L33.7226 31.3251ZM55.2481 10.3214C54.5501 11.0772 53.9953 11.8511 54.0042 12.9063C54.0185 16.4797 54.0042 20.0512 54.0042 23.6228C54.0042 24.0322 53.9004 24.4453 54.5877 24.4615C55.3036 24.4796 55.2481 24.0755 55.2481 23.6065C55.2481 19.4337 55.2481 15.2615 55.2481 11.0899V10.3214ZM43.6146 16.1514L40.9479 20.0656C40.8351 20.2298 40.7957 20.3921 40.998 20.522L45.0661 23.1411C44.565 20.7331 44.1122 18.5522 43.6146 16.1514ZM49.6515 6.54243C48.7781 8.06666 48.0282 9.37623 47.2801 10.6912C47.1369 10.9419 47.1959 11.1277 47.4465 11.2883C48.6421 12.0477 49.8287 12.8197 51.205 13.709C50.6752 11.254 50.1902 9.01907 49.6515 6.54243ZM46.8362 20.6862C47.6434 19.216 48.302 17.9913 48.9839 16.7827C49.1629 16.4616 49.0609 16.3029 48.8049 16.1333C47.7078 15.428 46.6179 14.7137 45.3829 13.911L46.8362 20.6862ZM35.4103 13.24C35.4103 12.1848 34.6139 11.4001 33.5347 11.4073C33.056 11.3964 32.592 11.5744 32.2417 11.9032C31.8913 12.2321 31.6822 12.6859 31.659 13.1679C31.6457 13.6806 31.8318 14.1783 32.1776 14.5548C32.5233 14.9312 33.0013 15.1565 33.5096 15.1827C34.5423 15.2116 35.4014 14.3277 35.4103 13.24ZM16.4997 3.31901C15.4133 3.30278 14.5936 4.07662 14.59 5.12283C14.5862 5.3769 14.6322 5.62922 14.7254 5.86532C14.8186 6.10142 14.9572 6.31664 15.1331 6.49865C15.3091 6.68065 15.5189 6.82585 15.7507 6.92592C15.9824 7.02599 16.2315 7.07895 16.4836 7.08177C16.977 7.05998 17.4443 6.85203 17.7928 6.49919C18.1412 6.14634 18.3453 5.67438 18.3646 5.17695C18.395 4.14877 17.5735 3.32623 16.4997 3.31V3.31901ZM51.5648 3.82048C51.9997 6.1023 52.4024 8.22179 52.8391 10.5217C53.5836 9.09664 54.2279 7.81593 54.9116 6.5731C55.1318 6.16904 54.8955 6.04458 54.6396 5.87322C53.6749 5.23106 52.712 4.57627 51.5648 3.81146V3.82048Z" fill="var(--fill-0, #473DFF)"/>
<path id="Vector_2" d="M91.3786 29.0937C91.3786 34.3861 91.3553 39.6767 91.4018 44.9673C91.4018 45.8692 91.1316 46.0749 90.2976 46.0496C88.0604 45.9973 85.8231 46.0063 83.5859 46.0496C82.8826 46.0622 82.6767 45.8458 82.6803 45.1333C82.7018 40.9556 82.6553 36.7762 82.6803 32.5986C82.6803 31.9005 82.5013 31.7706 81.8409 31.7778C78.5012 31.8139 75.1597 31.8229 71.8182 31.7778C71.0719 31.767 70.9681 32.0141 70.9717 32.6797C70.9896 36.8285 70.952 40.9773 70.9717 45.1261C70.9717 45.8151 70.807 46.0713 70.0768 46.0586C67.7501 46.0171 65.4234 46.0207 63.0967 46.0586C62.4255 46.0676 62.2412 45.8458 62.243 45.1802C62.2657 34.3885 62.2722 23.5957 62.2627 12.8017C62.2627 12.2912 62.3951 12.1379 62.9034 12.1433C65.35 12.1667 67.7966 12.1794 70.2414 12.1433C70.8929 12.1325 70.9412 12.3958 70.9395 12.9315C70.9251 16.3588 70.9609 19.786 70.9395 23.2133C70.9395 23.9186 71.054 24.1982 71.8433 24.1874C75.2134 24.1387 78.5853 24.1495 81.9555 24.1783C82.5604 24.1783 82.7054 23.9871 82.7018 23.4135C82.6875 19.9267 82.7215 16.44 82.7018 12.9514C82.7018 12.3399 82.8235 12.1343 83.4678 12.1451C85.8249 12.1848 88.1821 12.1812 90.5374 12.1451C91.1692 12.1451 91.3875 12.2461 91.3839 12.9676C91.3446 18.3484 91.3625 23.7292 91.3625 29.11L91.3786 29.0937Z" fill="var(--fill-0, #473DFF)"/>
<path id="Vector_3" d="M123.301 46.0496C122.019 46.0496 120.732 45.9883 119.456 46.0749C118.762 46.1218 118.547 45.7827 118.44 45.2577C118.082 43.5459 117.382 41.9514 116.893 40.2846C116.791 39.9365 116.589 39.8301 116.238 39.8301C112.838 39.8409 109.437 39.8463 106.036 39.8301C105.542 39.8301 105.457 40.1169 105.346 40.4758C104.841 42.1101 104.306 43.7371 103.824 45.3786C103.683 45.8548 103.493 46.0695 102.971 46.0622C100.375 46.028 97.7803 46.028 95.1869 46.019C94.7036 46.019 94.4423 46.0081 94.8092 45.3804C95.2084 44.695 95.4213 43.8977 95.6934 43.1383C99.2729 33.1379 102.841 23.1339 106.396 13.1264C106.683 12.3147 107.053 12.109 107.855 12.1271C110.387 12.1794 112.923 12.1667 115.458 12.1271C116.043 12.1271 116.277 12.3255 116.464 12.8594C120.219 23.6234 123.99 34.3813 127.777 45.1333C128.038 45.8765 127.911 46.0622 127.145 46.0352C125.865 45.9865 124.582 46.0226 123.299 46.0226L123.301 46.0496ZM111.195 21.1714C110.017 24.9738 108.904 28.5815 107.776 32.1855C107.624 32.6671 107.817 32.7411 108.234 32.7393C110.081 32.7284 111.928 32.7393 113.783 32.7393C114.898 32.7393 114.91 32.7212 114.554 31.6461C114.017 30.0101 113.446 28.3776 112.943 26.7362C112.372 24.9396 111.76 23.1646 111.195 21.1714Z" fill="var(--fill-0, #473DFF)"/>
<path id="Vector_4" d="M19.7199 68.1464H4.68589C1.97261 68.1464 0.342133 66.6402 0.121991 63.9038C-0.0659339 61.5101 0.00028739 59.0966 0.0575599 56.6939C0.0951449 54.9839 1.64687 53.4958 3.40084 53.2757C6.19109 52.9258 8.99028 53.1188 11.7841 53.0953C19.1776 53.0502 26.5729 53.0953 33.9665 53.1242C34.9452 53.1386 35.9202 53.2473 36.8784 53.4489C38.9098 53.8601 40.4024 55.3158 40.4221 57.7997C40.4382 59.8416 40.4544 61.8853 40.4221 63.9327C40.3971 65.8483 39.572 66.945 37.784 67.5583C36.6306 67.9633 35.4169 68.1665 34.1955 68.159C29.3811 68.1193 24.5505 68.1446 19.7199 68.1464ZM20.2568 62.5816C24.844 62.5816 29.433 62.5599 34.0201 62.6014C34.8327 62.6014 35.0636 62.3669 34.9848 61.5877C34.9164 60.9281 34.9164 60.2631 34.9848 59.6035C35.0654 58.8188 34.7486 58.6817 34.0345 58.6835C25.4543 58.707 16.8742 58.698 8.29406 58.7016C7.37233 58.7016 6.14634 58.3841 5.60941 58.8549C5.00984 59.3961 5.51634 60.6696 5.40001 61.6129C5.2962 62.4517 5.65416 62.5978 6.40407 62.5924C11.027 62.5654 15.6464 62.5816 20.264 62.5816H20.2568Z" fill="var(--fill-0, #473DFF)"/>
<path id="Vector_5" d="M124.882 12.1433C127.555 12.1433 130.085 12.2515 132.602 12.1018C134.085 12.0134 134.771 12.4896 135.344 13.8713C136.897 17.6088 138.648 21.267 140.323 24.9504C140.419 25.165 140.541 25.3671 140.717 25.6972C141.449 24.2036 142.132 22.811 142.812 21.4221C144.212 18.5685 145.628 15.7221 146.991 12.8504C147.267 12.2695 147.591 12.0946 148.208 12.1036C150.947 12.1379 153.687 12.118 156.543 12.118C155.135 14.6867 153.796 17.1507 152.439 19.6021C150.053 23.906 147.661 28.2045 145.264 32.4975C145 32.9651 144.867 33.4964 144.88 34.0344C144.88 37.7322 144.856 41.43 144.88 45.1279C144.88 45.8331 144.686 46.0604 143.985 46.0478C141.747 46.0099 139.51 46.0063 137.273 46.0478C136.571 46.0622 136.448 45.8061 136.452 45.1675C136.473 41.4697 136.452 37.7719 136.452 34.0741C136.463 33.5361 136.332 33.0047 136.07 32.5354C132.985 26.9424 129.91 21.3421 126.846 15.7347C126.225 14.5983 125.602 13.4565 124.882 12.1433Z" fill="var(--fill-0, #473DFF)"/>
<path id="Vector_6" d="M139.511 62.109C140.905 62.6195 141.2 63.745 141.3 65.0095C141.411 66.3985 141.17 67.8433 141.98 69.1294C142.174 69.4397 141.893 69.6092 141.567 69.6111C140.465 69.6111 139.36 69.6111 138.258 69.6381C137.748 69.6489 137.696 69.2773 137.622 68.931C137.409 67.9263 137.406 66.9035 137.368 65.8808C137.309 64.2754 136.756 63.7414 135.154 63.7342C134.322 63.7342 133.239 63.4492 132.727 63.8641C132.216 64.279 132.604 65.437 132.57 66.2668C132.534 67.1687 132.536 68.0706 132.552 68.9725C132.552 69.409 132.45 69.6471 131.963 69.6381C131.009 69.6183 130.055 69.6165 129.1 69.6381C128.609 69.6489 128.509 69.4072 128.511 68.9743C128.525 64.1052 128.53 59.2349 128.527 54.3634C128.527 53.9052 128.706 53.8223 129.103 53.8223C131.729 53.8421 134.352 53.8331 136.978 53.8529C137.395 53.8697 137.81 53.9234 138.218 54.0135C139.838 54.3201 141.22 55.0128 141.631 56.7625C142.097 58.7376 141.776 60.5288 139.96 61.7681C139.84 61.8474 139.727 61.9412 139.511 62.109ZM134.56 60.5649C135.183 60.5603 135.805 60.5212 136.423 60.4477C137.395 60.2853 137.839 59.636 137.814 58.5699C137.792 57.6932 137.35 57.1954 136.359 57.0799C135.62 57.0116 134.878 56.9839 134.136 56.997C132.548 56.9861 132.548 56.997 132.563 58.5591C132.579 60.5306 132.579 60.5306 134.56 60.5649Z" fill="var(--fill-0, #473DFF)"/>
<path id="Vector_7" d="M145.78 64.3042C145.959 64.316 146.138 64.316 146.317 64.3042C147.164 64.1942 147.792 64.2718 147.867 65.3973C147.91 66.0359 148.438 66.5193 149.059 66.7556C150.073 67.1488 151.197 67.1436 152.207 66.7412C152.481 66.6532 152.719 66.4764 152.883 66.2383C153.047 66.0001 153.129 65.714 153.115 65.4244C153.115 64.7859 152.723 64.4576 152.161 64.2736C150.716 63.8028 149.265 63.3518 147.831 62.8449C146.398 62.3381 145.241 61.548 144.499 60.1555C143.493 58.2705 144.117 56.5009 145.293 55.1751C145.496 54.9547 145.723 54.7581 145.97 54.5889C148.128 53.034 152.187 52.9763 154.382 54.468C154.947 54.8372 155.425 55.3275 155.78 55.904C156.136 56.4805 156.361 57.129 156.44 57.8033C156.519 58.3661 156.426 58.6619 155.781 58.615C155.281 58.5853 154.778 58.5883 154.278 58.624C153.399 58.6781 152.735 58.6944 152.347 57.5417C151.908 56.2394 149.066 56.059 148.2 57.1413C147.756 57.6987 147.917 58.2236 148.409 58.6439C148.935 59.102 149.573 59.3654 150.221 59.5945C151.541 60.0635 152.868 60.5144 154.179 61.0051C155.831 61.6238 156.834 62.8089 156.984 64.5946C157.152 66.6077 156.424 68.2961 154.573 69.1348C151.699 70.4354 148.737 70.6158 145.92 68.9148C144.386 67.9894 144.069 66.3353 143.815 64.7047C143.759 64.3439 144.012 64.3295 144.266 64.3295H145.787L145.78 64.3042Z" fill="var(--fill-0, #473DFF)"/>
<path id="Vector_8" d="M86.9985 64.3062C87.1772 64.3199 87.3567 64.3199 87.5354 64.3062C88.4303 64.1691 89.0406 64.3207 89.1462 65.4408C89.2107 66.1245 89.7816 66.5808 90.4438 66.8063C91.3843 67.1257 92.4033 67.1218 93.3415 66.7955C93.9607 66.5899 94.3562 66.1497 94.3741 65.4697C94.392 64.7897 93.9679 64.4523 93.3737 64.2575C91.8166 63.7452 90.2505 63.26 88.7203 62.6918C87.267 62.1507 86.1162 61.2271 85.5864 59.6921C84.8866 57.67 85.6437 55.4567 87.5426 54.4051C90.0268 53.0288 92.6345 53.0071 95.1885 54.2121C96.7241 54.9336 97.542 56.2666 97.7246 57.9839C97.7747 58.4583 97.6226 58.6386 97.1465 58.617C96.6096 58.5917 96.0726 58.617 95.5357 58.6278C94.6802 58.6585 93.9786 58.7487 93.6028 57.5563C93.1911 56.2576 90.3418 56.052 89.4594 57.1307C89.0174 57.6718 89.1516 58.2003 89.6492 58.635C90.1736 59.095 90.8089 59.3566 91.4568 59.5929C92.8027 60.0727 94.1594 60.5254 95.4963 61.0359C97.1787 61.6763 98.1541 62.9047 98.2436 64.7373C98.3385 66.6656 97.6494 68.3053 95.8704 69.117C92.9692 70.441 89.9838 70.6376 87.1435 68.8969C85.6472 67.9788 85.3287 66.3482 85.0602 64.7482C85.0011 64.3874 85.2159 64.3441 85.4826 64.3423H87.0021L86.9985 64.3062Z" fill="var(--fill-0, #473DFF)"/>
<path id="Vector_9" d="M114.008 61.6617C114.008 59.2878 114.024 56.9158 113.995 54.542C113.995 54.0189 114.07 53.806 114.661 53.8114C118.178 53.8403 121.697 53.8349 125.221 53.8114C125.743 53.8114 125.983 53.9089 125.937 54.5005C125.885 55.1296 125.885 55.7619 125.937 56.3909C125.981 56.9699 125.743 57.0944 125.221 57.089C123.073 57.0673 120.925 57.1016 118.778 57.0691C118.203 57.0691 118.024 57.1954 118.035 57.8051C118.072 59.7893 118.045 59.7893 119.977 59.7893C121.468 59.7893 122.958 59.8163 124.451 59.7893C125.038 59.7767 125.346 59.8831 125.265 60.5703C125.183 61.3406 125.489 62.3742 125.099 62.8323C124.641 63.3735 123.59 62.9983 122.797 63.0127C121.457 63.0488 120.113 63.0614 118.774 63.0127C118.162 62.9911 117.994 63.2039 118.058 63.7757C118.153 64.5983 117.7 65.7058 118.248 66.1784C118.717 66.5897 119.782 66.3209 120.574 66.3281C122.185 66.3444 123.796 66.3642 125.407 66.3426C125.944 66.3426 126.246 66.4237 126.166 67.0641C126.069 67.8614 126.486 68.8968 126.005 69.409C125.523 69.9213 124.481 69.575 123.689 69.5894C120.737 69.6183 117.782 69.6002 114.836 69.6345C114.181 69.6345 113.968 69.4541 113.981 68.7687C114.02 66.3967 113.995 64.0228 113.995 61.649L114.008 61.6617Z" fill="var(--fill-0, #473DFF)"/>
<path id="Vector_10" d="M76.5428 53.8259C78.7209 53.8259 78.7227 53.8259 79.4476 55.8858C80.9223 60.0707 82.3953 64.2555 83.8665 68.4404C84.2728 69.6002 84.2674 69.6039 83.1005 69.6183C82.2665 69.6309 81.4324 69.6183 80.5948 69.6544C80.0883 69.6796 79.8646 69.474 79.6999 68.996C79.4565 68.2618 79.4601 67.2228 78.8659 66.8837C78.2717 66.5446 77.3052 66.761 76.5052 66.7358H76.4229C75.5888 66.7502 74.6331 66.5121 73.9566 66.8458C73.2407 67.2066 73.3534 68.3231 73.051 69.0898C72.9131 69.4379 72.7789 69.658 72.3708 69.6471C71.3292 69.6219 70.2858 69.6039 69.2423 69.6165C68.7949 69.6165 68.7394 69.4036 68.8486 69.0591C69.2173 67.8794 69.5645 66.6889 69.9779 65.5272C70.8961 62.9676 71.8482 60.4188 72.795 57.87C73.2442 56.6597 73.7329 55.4619 74.1696 54.2462C74.3002 53.8854 74.5114 53.8132 74.8425 53.8223C75.4117 53.8367 75.9772 53.8259 76.5428 53.8259ZM76.3924 58.0414C76.0792 59.075 75.8305 59.8452 75.6211 60.61C75.3741 61.5119 74.923 62.3705 74.8837 63.3356C75.8591 63.3518 76.8345 63.3699 77.8117 63.3825C77.8636 63.3825 77.9173 63.3374 78.048 63.2797L76.3924 58.0414Z" fill="var(--fill-0, #473DFF)"/>
<path id="Vector_11" d="M105.811 53.8259C107.749 53.8259 109.688 53.8421 111.626 53.815C112.136 53.815 112.322 53.9612 112.263 54.4789C112.166 55.305 112.621 56.3765 112.073 56.905C111.578 57.3848 110.538 57.0403 109.738 57.0493C107.799 57.0709 107.807 57.0601 107.807 58.9722C107.807 62.219 107.778 65.4659 107.807 68.7128C107.807 69.3874 107.663 69.7031 106.928 69.6489C106.153 69.5984 105.376 69.5984 104.601 69.6489C103.96 69.685 103.728 69.5028 103.735 68.8012C103.769 65.1647 103.735 61.5264 103.762 57.8899C103.762 57.2441 103.672 56.988 102.96 57.0367C101.95 57.1088 100.932 57.0276 99.9173 57.0619C99.3983 57.0782 99.2426 56.8815 99.2748 56.3873C99.3303 55.8181 99.3303 55.2447 99.2748 54.6755C99.1728 53.9016 99.5236 53.8006 100.17 53.815C102.051 53.8511 103.932 53.8259 105.811 53.8259Z" fill="var(--fill-0, #473DFF)"/>
<path id="Vector_12" d="M55.8177 65.2747L51.9267 55.8245C51.5921 55.0128 51.2305 54.2011 50.937 53.3803C50.7419 52.8392 50.4609 52.6588 49.8793 52.7562C48.3508 53.0015 46.8116 53.1819 45.276 53.3839C44.9341 53.429 44.4688 53.5842 44.5762 52.9655C44.6496 52.5452 44.118 51.793 45.1382 51.7966C49.1293 51.8098 53.1217 51.8128 57.1153 51.8056C57.4356 51.8056 57.6898 51.7785 57.62 52.2728C57.0186 56.5118 56.4405 60.7561 55.8177 65.2747Z" fill="var(--fill-0, #473DFF)"/>
<path id="Vector_13" d="M54.8545 70.7962C55.9391 70.6519 57.0237 70.4967 58.1101 70.3669C58.5683 70.3127 58.8475 70.1865 58.9101 69.6345C59.3361 65.787 59.805 61.9412 60.256 58.0901C60.333 57.4443 60.4654 56.8058 60.5728 56.1636L60.6355 56.1528C60.6243 56.1735 60.617 56.1962 60.614 56.2195C61.0913 60.2108 61.5727 64.2026 62.0583 68.1951C62.2516 69.8185 62.2373 69.8185 63.8159 69.6111C64.2554 69.5368 64.6988 69.4874 65.1439 69.4631C65.5018 69.4631 66.0728 68.9617 66.1157 69.8023C66.1461 70.3867 66.2786 70.9928 65.2709 70.9549C63.2736 70.8828 61.2726 70.9549 59.2734 70.9549C57.813 70.9549 56.352 70.9549 54.8903 70.9549L54.8545 70.7962Z" fill="var(--fill-0, #473DFF)"/>
<path id="Vector_14" d="M52.3363 70.9549C50.7452 70.9729 50.7434 70.9729 50.5322 69.4307L49.2651 60.1681C49.2172 59.9945 49.1895 59.816 49.1827 59.636C49.215 59.3221 48.6548 58.9144 49.1738 58.7431C49.5318 58.6258 49.5532 59.1976 49.6624 59.4754C51.0441 62.982 52.4163 66.4935 53.7789 70.0097C54.1368 70.9459 54.1368 70.9459 53.1417 70.9549H52.3363Z" fill="var(--fill-0, #473DFF)"/>
<path id="Vector_15" d="M44.5884 68.1842C44.5884 67.4627 44.6099 66.7412 44.5884 66.0197C44.5705 65.6373 44.6672 65.4785 45.0699 65.4785C45.4278 65.4785 45.5943 65.5579 45.639 65.9619C45.8001 67.423 45.997 68.8805 46.201 70.3362C46.2583 70.7384 46.2243 71.0379 45.7482 70.9278C45.3437 70.8359 44.6332 71.3517 44.5974 70.4318C44.5687 69.6832 44.5974 68.931 44.5974 68.1806L44.5884 68.1842Z" fill="var(--fill-0, #473DFF)"/>
<path id="Vector_16" d="M64.0864 51.9246C66.125 51.7064 66.125 51.7064 66.1286 53.5643C66.1286 54.551 66.1429 55.5377 66.1286 56.5226C66.1286 56.84 66.2968 57.2441 65.6919 57.3018C65.0869 57.3595 65.0243 56.9988 64.976 56.5514C64.8435 55.3934 64.6914 54.2389 64.5482 53.0827C64.4981 52.7057 64.5124 52.3106 64.0864 51.9246Z" fill="var(--fill-0, #473DFF)"/>
</g>
<defs>
<clipPath id="clip0_0_749">
<rect width="157" height="71" fill="white"/>
</clipPath>
</defs>
</svg>
