<svg preserveAspectRatio="none" width="100%" height="100%" overflow="visible" style="display: block;" viewBox="0 0 21.25 34" fill="none" xmlns="http://www.w3.org/2000/svg">
<g id="Group">
<path id="Vector" d="M17 2.125C17.5636 2.125 18.1041 2.34888 18.5026 2.7474C18.9011 3.14591 19.125 3.68641 19.125 4.25V29.75C19.125 30.3136 18.9011 30.8541 18.5026 31.2526C18.1041 31.6511 17.5636 31.875 17 31.875H4.25C3.68641 31.875 3.14591 31.6511 2.7474 31.2526C2.34888 30.8541 2.125 30.3136 2.125 29.75V4.25C2.125 3.68641 2.34888 3.14591 2.7474 2.7474C3.14591 2.34888 3.68641 2.125 4.25 2.125H17ZM4.25 0C3.12283 0 2.04183 0.447767 1.2448 1.2448C0.447766 2.04183 0 3.12283 0 4.25V29.75C0 30.8772 0.447766 31.9582 1.2448 32.7552C2.04183 33.5522 3.12283 34 4.25 34H17C18.1272 34 19.2082 33.5522 20.0052 32.7552C20.8022 31.9582 21.25 30.8772 21.25 29.75V4.25C21.25 3.12283 20.8022 2.04183 20.0052 1.2448C19.2082 0.447767 18.1272 0 17 0L4.25 0Z" fill="var(--fill-0, white)" fill-opacity="0.7"/>
<path id="Vector_2" d="M10.625 29.75C11.1886 29.75 11.7291 29.5261 12.1276 29.1276C12.5261 28.7291 12.75 28.1886 12.75 27.625C12.75 27.0614 12.5261 26.5209 12.1276 26.1224C11.7291 25.7239 11.1886 25.5 10.625 25.5C10.0614 25.5 9.52091 25.7239 9.1224 26.1224C8.72388 26.5209 8.5 27.0614 8.5 27.625C8.5 28.1886 8.72388 28.7291 9.1224 29.1276C9.52091 29.5261 10.0614 29.75 10.625 29.75Z" fill="var(--fill-0, white)" fill-opacity="0.7"/>
</g>
</svg>
