<svg preserveAspectRatio="none" width="100%" height="100%" overflow="visible" style="display: block;" viewBox="0 0 1887 666.379" fill="none" xmlns="http://www.w3.org/2000/svg">
<g id="Rectangle 17411" filter="url(#filter0_f_0_774)">
<path d="M225 281.303C225 246.523 256.371 220.155 290.632 226.137L752.72 306.819C755.901 307.375 759.123 307.654 762.352 307.654H1111.27C1114.42 307.654 1117.56 307.388 1120.67 306.859L1596.6 225.814C1630.79 219.992 1662 246.335 1662 281.02V385.362C1662 419.698 1631.38 445.948 1597.45 440.706L1120.25 366.987C1117.42 366.55 1114.56 366.33 1111.7 366.33H761.908C758.974 366.33 756.044 366.561 753.147 367.02L289.761 440.42C255.763 445.805 225 419.531 225 385.109V281.303Z" fill="var(--fill-0, #2863C3)"/>
<path d="M1594.84 215.464C1635.44 208.55 1672.5 239.832 1672.5 281.019V385.362C1672.5 426.136 1636.14 457.308 1595.85 451.083L1118.65 377.364C1116.35 377.009 1114.03 376.83 1111.7 376.83H761.907C759.524 376.83 757.143 377.018 754.789 377.391L291.404 450.79C251.031 457.185 214.5 425.985 214.5 385.109V281.303C214.5 240.002 251.753 208.69 292.438 215.794L754.526 296.475C757.111 296.927 759.729 297.154 762.353 297.154H1111.27C1113.83 297.154 1116.38 296.937 1118.9 296.508L1594.84 215.464Z" stroke="var(--stroke-0, #3B38FF)" stroke-width="21"/>
</g>
<defs>
<filter id="filter0_f_0_774" x="0" y="-4.76837e-06" width="1887" height="666.379" filterUnits="userSpaceOnUse" color-interpolation-filters="sRGB">
<feFlood flood-opacity="0" result="BackgroundImageFix"/>
<feBlend mode="normal" in="SourceGraphic" in2="BackgroundImageFix" result="shape"/>
<feGaussianBlur stdDeviation="102" result="effect1_foregroundBlur_0_774"/>
</filter>
</defs>
</svg>
