<svg preserveAspectRatio="none" width="100%" height="100%" overflow="visible" style="display: block;" viewBox="0 0 40 40" fill="none" xmlns="http://www.w3.org/2000/svg">
<g id="Layers">
<path id="Vector" d="M30.1728 16.943L32.9062 18.3626L33.5737 18.7226C34.9955 19.4894 34.9955 21.4666 33.5737 22.2334L24.5187 27.1173C22.4187 28.2499 19.8613 28.2499 17.7613 27.1173L8.70637 22.2334C7.28452 21.4666 7.28452 19.4894 8.70637 18.7226L9.37375 18.3626L12.034 16.9" stroke="var(--stroke-0, white)" stroke-width="1.5"/>
<path id="Vector_2" opacity="0.4" d="M30.289 24.0032L33.3083 25.4771C34.8028 26.1994 34.8507 28.2437 33.3917 29.0307L24.5177 33.817C22.4177 34.9496 19.8603 34.9496 17.7603 33.817L9.01565 29.1005C7.53153 28.3 7.61332 26.2104 9.15573 25.5206L12.1973 24.1155" stroke="var(--stroke-0, white)" stroke-width="1.5"/>
<path id="Vector_3" d="M17.7613 6.71824L8.70637 11.6021C7.28452 12.369 7.28452 14.3461 8.70637 15.113L17.7613 19.9968C19.8613 21.1294 22.4187 21.1294 24.5187 19.9968L33.5737 15.113C34.9955 14.3461 34.9955 12.369 33.5737 11.6021L24.5187 6.71826C22.4187 5.58558 19.8613 5.58558 17.7613 6.71824Z" stroke="var(--stroke-0, white)" stroke-width="1.5"/>
</g>
</svg>
