<svg preserveAspectRatio="none" width="100%" height="100%" overflow="visible" style="display: block;" viewBox="0 0 19.9984 19.9984" fill="none" xmlns="http://www.w3.org/2000/svg">
<g id="Icon" clip-path="url(#clip0_0_4)">
<path id="Vector" fill-rule="evenodd" clip-rule="evenodd" d="M14.6653 0.515247C11.5919 -0.171749 8.40481 -0.171749 5.33147 0.515247L5.00032 0.58851C4.13559 0.781275 3.34133 1.21025 2.70597 1.82768C2.0706 2.44512 1.61906 3.22677 1.40162 4.08562C0.62394 7.15556 0.62394 10.371 1.40162 13.4409C1.60901 14.2599 2.02951 15.0095 2.62041 15.6134C3.2113 16.2174 3.95153 16.6542 4.76588 16.8794L5.22011 19.5912C5.23462 19.6772 5.27193 19.7579 5.32819 19.8246C5.38444 19.8914 5.45757 19.9419 5.53996 19.9709C5.62235 19.9998 5.71099 20.0061 5.79665 19.9891C5.8823 19.9721 5.96184 19.9326 6.02699 19.8744L8.69475 17.488C10.6974 17.6088 12.7071 17.4487 14.6653 17.0123L14.9974 16.939C15.8621 16.7462 16.6564 16.3172 17.2917 15.6998C17.9271 15.0824 18.3786 14.3007 18.5961 13.4419C19.3738 10.372 19.3738 7.15654 18.5961 4.0866C18.3785 3.22762 17.9269 2.44588 17.2913 1.82843C16.6558 1.211 15.8613 0.782089 14.9964 0.589487L14.6653 0.515247ZM6.15593 4.0065C5.97438 3.97991 5.7892 4.01646 5.63136 4.11004H5.61769C5.25137 4.32495 4.92119 4.59554 4.63986 4.91399C4.40542 5.18458 4.27843 5.45809 4.24522 5.72184C4.22568 5.87814 4.23936 6.03639 4.28527 6.18584L4.30285 6.19561C4.5666 6.97025 4.91045 7.71559 5.33049 8.41696C5.87235 9.40195 6.53883 10.3131 7.31349 11.1278L7.33694 11.161L7.37406 11.1883L7.39652 11.2147L7.42388 11.2381C8.24148 12.015 9.15469 12.6847 10.1415 13.2309C11.2697 13.8453 11.9545 14.1355 12.3658 14.2566V14.2625C12.4859 14.2996 12.5953 14.3162 12.7057 14.3162C13.0561 14.291 13.3878 14.1486 13.6474 13.9118C13.9649 13.6304 14.2335 13.2993 14.4425 12.931V12.9242C14.6389 12.553 14.5725 12.2033 14.2892 11.9659C13.7207 11.4681 13.1052 11.0265 12.4517 10.6471C12.0141 10.4098 11.5696 10.5534 11.3899 10.7937L11.006 11.2782C10.8087 11.5185 10.4511 11.4853 10.4511 11.4853L10.4414 11.4911C7.77359 10.8103 7.06147 8.10926 7.06147 8.10926C7.06147 8.10926 7.02825 7.74196 7.2754 7.55441L7.756 7.16758C7.98654 6.98002 8.14674 6.53653 7.8996 6.09891C7.52115 5.44581 7.0805 4.8308 6.58379 4.26243C6.47514 4.12898 6.32298 4.03802 6.15398 4.00552M10.6631 2.83233C10.5336 2.83233 10.4093 2.88379 10.3177 2.97539C10.2261 3.06698 10.1747 3.19121 10.1747 3.32075C10.1747 3.45029 10.2261 3.57452 10.3177 3.66612C10.4093 3.75772 10.5336 3.80918 10.6631 3.80918C11.8988 3.80918 12.9245 4.21261 13.7363 4.98628C14.1534 5.40925 14.4787 5.91037 14.6916 6.45936C14.9056 7.00933 15.0033 7.59641 14.9779 8.18447C14.9751 8.24861 14.9851 8.31265 15.0072 8.37294C15.0292 8.43324 15.0629 8.48858 15.1064 8.53584C15.1941 8.63129 15.3162 8.68797 15.4458 8.69341C15.5753 8.69885 15.7017 8.65261 15.7971 8.56486C15.8926 8.47711 15.9492 8.35504 15.9547 8.2255C15.9838 7.5022 15.8638 6.78065 15.6021 6.10574C15.3391 5.4274 14.9387 4.8108 14.4259 4.29467L14.4162 4.2849C13.409 3.32271 12.1343 2.83233 10.6631 2.83233ZM10.6299 4.43826C10.5004 4.43826 10.3761 4.48972 10.2845 4.58132C10.1929 4.67291 10.1415 4.79715 10.1415 4.92669C10.1415 5.05623 10.1929 5.18045 10.2845 5.27205C10.3761 5.36365 10.5004 5.41511 10.6299 5.41511H10.6465C11.5374 5.47861 12.186 5.77557 12.6403 6.26301C13.1062 6.76511 13.3475 7.38932 13.3289 8.16103C13.3259 8.29057 13.3746 8.41599 13.464 8.50968C13.5535 8.60339 13.6766 8.65771 13.8061 8.66069C13.9357 8.66366 14.0611 8.61507 14.1548 8.52557C14.2484 8.43608 14.3028 8.31303 14.3058 8.1835C14.3292 7.1705 14.003 6.29623 13.3563 5.59876V5.5968C12.695 4.88761 11.7875 4.51251 10.6954 4.43924L10.6787 4.43729L10.6299 4.43826ZM10.6113 6.07448C10.546 6.06872 10.4801 6.07617 10.4177 6.09642C10.3553 6.11667 10.2976 6.14929 10.248 6.19233C10.1985 6.23537 10.1582 6.28794 10.1294 6.34693C10.1006 6.4059 10.0841 6.47007 10.0806 6.5356C10.0772 6.60113 10.0871 6.66668 10.1095 6.72833C10.132 6.78997 10.1667 6.84647 10.2115 6.89442C10.2563 6.94237 10.3103 6.9808 10.3702 7.00743C10.4302 7.03405 10.4949 7.04832 10.5605 7.04938C10.9689 7.07087 11.2297 7.19395 11.3938 7.35904C11.5589 7.5251 11.682 7.79178 11.7044 8.20889C11.7056 8.27444 11.7201 8.33907 11.7467 8.39893C11.7735 8.45879 11.812 8.51266 11.86 8.55733C11.908 8.602 11.9645 8.63654 12.0261 8.65892C12.0877 8.68129 12.1532 8.69103 12.2187 8.68755C12.2841 8.68407 12.3482 8.66744 12.4071 8.63868C12.466 8.6099 12.5185 8.56956 12.5615 8.52007C12.6045 8.47057 12.6371 8.41293 12.6574 8.35058C12.6776 8.28821 12.685 8.22242 12.6793 8.15712C12.6481 7.57101 12.4644 7.05328 12.0883 6.67231C11.7103 6.29134 11.1955 6.10574 10.6113 6.07448Z" fill="var(--fill-0, white)"/>
</g>
<defs>
<clipPath id="clip0_0_4">
<rect width="19.9984" height="19.9984" fill="white"/>
</clipPath>
</defs>
</svg>
