<svg preserveAspectRatio="none" width="100%" height="100%" overflow="visible" style="display: block;" viewBox="0 0 4463.75 1723.74" fill="none" xmlns="http://www.w3.org/2000/svg">
<g id="Vector" style="mix-blend-mode:overlay">
<path d="M102.281 0.872368H0.872368V91.5039M102.281 0.872368V91.5039M102.281 0.872368H203.691M102.281 91.5039H0.872368M102.281 91.5039V182.136M102.281 91.5039H203.691M0.872368 91.5039V182.136M102.281 182.136H0.872368M102.281 182.136V272.767M102.281 182.136H203.691M0.872368 182.136V272.767M102.281 272.767H0.872368M102.281 272.767V363.399M102.281 272.767H203.691M0.872368 272.767V363.399M102.281 363.399H0.872368M102.281 363.399V454.03M102.281 363.399H203.691M0.872368 363.399V454.03M102.281 454.03H0.872368M102.281 454.03V544.662M102.281 454.03H203.691M0.872368 454.03V544.662M102.281 544.662H0.872368M102.281 544.662V635.293M102.281 544.662H203.691M0.872368 544.662V635.293M102.281 635.293H0.872368M102.281 635.293V725.925M102.281 635.293H203.691M0.872368 635.293V725.925M102.281 725.925H0.872368M102.281 725.925V816.557M102.281 725.925H203.691M0.872368 725.925V816.557M102.281 816.557H0.872368M102.281 816.557V907.188M102.281 816.557H203.691M0.872368 816.557V907.188M102.281 907.188H0.872368M102.281 907.188V997.82M102.281 907.188H203.691M0.872368 907.188V997.82M102.281 997.82H0.872368M102.281 997.82V1088.45M102.281 997.82H203.691M0.872368 997.82V1088.45M102.281 1088.45H0.872368M102.281 1088.45V1179.08M102.281 1088.45H203.691M0.872368 1088.45V1179.08M102.281 1179.08H0.872368M102.281 1179.08V1269.71M102.281 1179.08H203.691M0.872368 1179.08V1269.71M102.281 1269.71H0.872368M102.281 1269.71V1360.35M102.281 1269.71H203.691M0.872368 1269.71V1360.35M102.281 1360.35H0.872368M102.281 1360.35V1450.98M102.281 1360.35H203.691M0.872368 1360.35V1450.98M102.281 1450.98H0.872368M102.281 1450.98V1541.61M102.281 1450.98H203.691M0.872368 1450.98V1541.61M102.281 1541.61H0.872368M102.281 1541.61V1632.24M102.281 1541.61H203.691M0.872368 1541.61V1632.24M102.281 1632.24H0.872368M102.281 1632.24V1722.87M102.281 1632.24H203.691M0.872368 1632.24V1722.87H102.281M102.281 1722.87H203.691M203.691 0.872368V91.5039M203.691 0.872368H305.1M203.691 91.5039V182.136M203.691 91.5039H305.1M203.691 182.136V272.767M203.691 182.136H305.1M203.691 272.767V363.399M203.691 272.767H305.1M203.691 363.399V454.03M203.691 363.399H305.1M203.691 454.03V544.662M203.691 454.03H305.1M203.691 544.662V635.293M203.691 544.662H305.1M203.691 635.293V725.925M203.691 635.293H305.1M203.691 725.925V816.557M203.691 725.925H305.1M203.691 816.557V907.188M203.691 816.557H305.1M203.691 907.188V997.82M203.691 907.188H305.1M203.691 997.82V1088.45M203.691 997.82H305.1M203.691 1088.45V1179.08M203.691 1088.45H305.1M203.691 1179.08V1269.71M203.691 1179.08H305.1M203.691 1269.71V1360.35M203.691 1269.71H305.1M203.691 1360.35V1450.98M203.691 1360.35H305.1M203.691 1450.98V1541.61M203.691 1450.98H305.1M203.691 1541.61V1632.24M203.691 1541.61H305.1M203.691 1632.24V1722.87M203.691 1632.24H305.1M203.691 1722.87H305.1M305.1 0.872368V91.5039M305.1 0.872368H406.509M305.1 91.5039V182.136M305.1 91.5039H406.509M305.1 182.136V272.767M305.1 182.136H406.509M305.1 272.767V363.399M305.1 272.767H406.509M305.1 363.399V454.03M305.1 363.399H406.509M305.1 454.03V544.662M305.1 454.03H406.509M305.1 544.662V635.293M305.1 544.662H406.509M305.1 635.293V725.925M305.1 635.293H406.509M305.1 725.925V816.557M305.1 725.925H406.509M305.1 816.557V907.188M305.1 816.557H406.509M305.1 907.188V997.82M305.1 907.188H406.509M305.1 997.82V1088.45M305.1 997.82H406.509M305.1 1088.45V1179.08M305.1 1088.45H406.509M305.1 1179.08V1269.71M305.1 1179.08H406.509M305.1 1269.71V1360.35M305.1 1269.71H406.509M305.1 1360.35V1450.98M305.1 1360.35H406.509M305.1 1450.98V1541.61M305.1 1450.98H406.509M305.1 1541.61V1632.24M305.1 1541.61H406.509M305.1 1632.24V1722.87M305.1 1632.24H406.509M305.1 1722.87H406.509M406.509 0.872368V91.5039M406.509 0.872368H507.918M406.509 91.5039V182.136M406.509 91.5039H507.918M406.509 182.136V272.767M406.509 182.136H507.918M406.509 272.767V363.399M406.509 272.767H507.918M406.509 363.399V454.03M406.509 363.399H507.918M406.509 454.03V544.662M406.509 454.03H507.918M406.509 544.662V635.293M406.509 544.662H507.918M406.509 635.293V725.925M406.509 635.293H507.918M406.509 725.925V816.557M406.509 725.925H507.918M406.509 816.557V907.188M406.509 816.557H507.918M406.509 907.188V997.82M406.509 907.188H507.918M406.509 997.82V1088.45M406.509 997.82H507.918M406.509 1088.45V1179.08M406.509 1088.45H507.918M406.509 1179.08V1269.71M406.509 1179.08H507.918M406.509 1269.71V1360.35M406.509 1269.71H507.918M406.509 1360.35V1450.98M406.509 1360.35H507.918M406.509 1450.98V1541.61M406.509 1450.98H507.918M406.509 1541.61V1632.24M406.509 1541.61H507.918M406.509 1632.24V1722.87M406.509 1632.24H507.918M406.509 1722.87H507.918M507.918 0.872368V91.5039M507.918 0.872368H609.327M507.918 91.5039V182.136M507.918 91.5039H609.327M507.918 182.136V272.767M507.918 182.136H609.327M507.918 272.767V363.399M507.918 272.767H609.327M507.918 363.399V454.03M507.918 363.399H609.327M507.918 454.03V544.662M507.918 454.03H609.327M507.918 544.662V635.293M507.918 544.662H609.327M507.918 635.293V725.925M507.918 635.293H609.327M507.918 725.925V816.557M507.918 725.925H609.327M507.918 816.557V907.188M507.918 816.557H609.327M507.918 907.188V997.82M507.918 907.188H609.327M507.918 997.82V1088.45M507.918 997.82H609.327M507.918 1088.45V1179.08M507.918 1088.45H609.327M507.918 1179.08V1269.71M507.918 1179.08H609.327M507.918 1269.71V1360.35M507.918 1269.71H609.327M507.918 1360.35V1450.98M507.918 1360.35H609.327M507.918 1450.98V1541.61M507.918 1450.98H609.327M507.918 1541.61V1632.24M507.918 1541.61H609.327M507.918 1632.24V1722.87M507.918 1632.24H609.327M507.918 1722.87H609.327M609.327 0.872368V91.5039M609.327 0.872368H710.736M609.327 91.5039V182.136M609.327 91.5039H710.736M609.327 182.136V272.767M609.327 182.136H710.736M609.327 272.767V363.399M609.327 272.767H710.736M609.327 363.399V454.03M609.327 363.399H710.736M609.327 454.03V544.662M609.327 454.03H710.736M609.327 544.662V635.293M609.327 544.662H710.736M609.327 635.293V725.925M609.327 635.293H710.736M609.327 725.925V816.557M609.327 725.925H710.736M609.327 816.557V907.188M609.327 816.557H710.736M609.327 907.188V997.82M609.327 907.188H710.736M609.327 997.82V1088.45M609.327 997.82H710.736M609.327 1088.45V1179.08M609.327 1088.45H710.736M609.327 1179.08V1269.71M609.327 1179.08H710.736M609.327 1269.71V1360.35M609.327 1269.71H710.736M609.327 1360.35V1450.98M609.327 1360.35H710.736M609.327 1450.98V1541.61M609.327 1450.98H710.736M609.327 1541.61V1632.24M609.327 1541.61H710.736M609.327 1632.24V1722.87M609.327 1632.24H710.736M609.327 1722.87H710.736M710.736 0.872368V91.5039M710.736 0.872368H812.145M710.736 91.5039V182.136M710.736 91.5039H812.145M710.736 182.136V272.767M710.736 182.136H812.145M710.736 272.767V363.399M710.736 272.767H812.145M710.736 363.399V454.03M710.736 363.399H812.145M710.736 454.03V544.662M710.736 454.03H812.145M710.736 544.662V635.293M710.736 544.662H812.145M710.736 635.293V725.925M710.736 635.293H812.145M710.736 725.925V816.557M710.736 725.925H812.145M710.736 816.557V907.188M710.736 816.557H812.145M710.736 907.188V997.82M710.736 907.188H812.145M710.736 997.82V1088.45M710.736 997.82H812.145M710.736 1088.45V1179.08M710.736 1088.45H812.145M710.736 1179.08V1269.71M710.736 1179.08H812.145M710.736 1269.71V1360.35M710.736 1269.71H812.145M710.736 1360.35V1450.98M710.736 1360.35H812.145M710.736 1450.98V1541.61M710.736 1450.98H812.145M710.736 1541.61V1632.24M710.736 1541.61H812.145M710.736 1632.24V1722.87M710.736 1632.24H812.145M710.736 1722.87H812.145M812.145 0.872368V91.5039M812.145 0.872368H913.554M812.145 91.5039V182.136M812.145 91.5039H913.554M812.145 182.136V272.767M812.145 182.136H913.554M812.145 272.767V363.399M812.145 272.767H913.554M812.145 363.399V454.03M812.145 363.399H913.554M812.145 454.03V544.662M812.145 454.03H913.554M812.145 544.662V635.293M812.145 544.662H913.554M812.145 635.293V725.925M812.145 635.293H913.554M812.145 725.925V816.557M812.145 725.925H913.554M812.145 816.557V907.188M812.145 816.557H913.554M812.145 907.188V997.82M812.145 907.188H913.554M812.145 997.82V1088.45M812.145 997.82H913.554M812.145 1088.45V1179.08M812.145 1088.45H913.554M812.145 1179.08V1269.71M812.145 1179.08H913.554M812.145 1269.71V1360.35M812.145 1269.71H913.554M812.145 1360.35V1450.98M812.145 1360.35H913.554M812.145 1450.98V1541.61M812.145 1450.98H913.554M812.145 1541.61V1632.24M812.145 1541.61H913.554M812.145 1632.24V1722.87M812.145 1632.24H913.554M812.145 1722.87H913.554M913.554 0.872368V91.5039M913.554 0.872368H1014.96M913.554 91.5039V182.136M913.554 91.5039H1014.96M913.554 182.136V272.767M913.554 182.136H1014.96M913.554 272.767V363.399M913.554 272.767H1014.96M913.554 363.399V454.03M913.554 363.399H1014.96M913.554 454.03V544.662M913.554 454.03H1014.96M913.554 544.662V635.293M913.554 544.662H1014.96M913.554 635.293V725.925M913.554 635.293H1014.96M913.554 725.925V816.557M913.554 725.925H1014.96M913.554 816.557V907.188M913.554 816.557H1014.96M913.554 907.188V997.82M913.554 907.188H1014.96M913.554 997.82V1088.45M913.554 997.82H1014.96M913.554 1088.45V1179.08M913.554 1088.45H1014.96M913.554 1179.08V1269.71M913.554 1179.08H1014.96M913.554 1269.71V1360.35M913.554 1269.71H1014.96M913.554 1360.35V1450.98M913.554 1360.35H1014.96M913.554 1450.98V1541.61M913.554 1450.98H1014.96M913.554 1541.61V1632.24M913.554 1541.61H1014.96M913.554 1632.24V1722.87M913.554 1632.24H1014.96M913.554 1722.87H1014.96M1014.96 0.872368V91.5039M1014.96 0.872368H1116.37M1014.96 91.5039V182.136M1014.96 91.5039H1116.37M1014.96 182.136V272.767M1014.96 182.136H1116.37M1014.96 272.767V363.399M1014.96 272.767H1116.37M1014.96 363.399V454.03M1014.96 363.399H1116.37M1014.96 454.03V544.662M1014.96 454.03H1116.37M1014.96 544.662V635.293M1014.96 544.662H1116.37M1014.96 635.293V725.925M1014.96 635.293H1116.37M1014.96 725.925V816.557M1014.96 725.925H1116.37M1014.96 816.557V907.188M1014.96 816.557H1116.37M1014.96 907.188V997.82M1014.96 907.188H1116.37M1014.96 997.82V1088.45M1014.96 997.82H1116.37M1014.96 1088.45V1179.08M1014.96 1088.45H1116.37M1014.96 1179.08V1269.71M1014.96 1179.08H1116.37M1014.96 1269.71V1360.35M1014.96 1269.71H1116.37M1014.96 1360.35V1450.98M1014.96 1360.35H1116.37M1014.96 1450.98V1541.61M1014.96 1450.98H1116.37M1014.96 1541.61V1632.24M1014.96 1541.61H1116.37M1014.96 1632.24V1722.87M1014.96 1632.24H1116.37M1014.96 1722.87H1116.37M1116.37 0.872368V91.5039M1116.37 0.872368H1217.78M1116.37 91.5039V182.136M1116.37 91.5039H1217.78M1116.37 182.136V272.767M1116.37 182.136H1217.78M1116.37 272.767V363.399M1116.37 272.767H1217.78M1116.37 363.399V454.03M1116.37 363.399H1217.78M1116.37 454.03V544.662M1116.37 454.03H1217.78M1116.37 544.662V635.293M1116.37 544.662H1217.78M1116.37 635.293V725.925M1116.37 635.293H1217.78M1116.37 725.925V816.557M1116.37 725.925H1217.78M1116.37 816.557V907.188M1116.37 816.557H1217.78M1116.37 907.188V997.82M1116.37 907.188H1217.78M1116.37 997.82V1088.45M1116.37 997.82H1217.78M1116.37 1088.45V1179.08M1116.37 1088.45H1217.78M1116.37 1179.08V1269.71M1116.37 1179.08H1217.78M1116.37 1269.71V1360.35M1116.37 1269.71H1217.78M1116.37 1360.35V1450.98M1116.37 1360.35H1217.78M1116.37 1450.98V1541.61M1116.37 1450.98H1217.78M1116.37 1541.61V1632.24M1116.37 1541.61H1217.78M1116.37 1632.24V1722.87M1116.37 1632.24H1217.78M1116.37 1722.87H1217.78M1217.78 0.872368V91.5039M1217.78 0.872368H1319.19M1217.78 91.5039V182.136M1217.78 91.5039H1319.19M1217.78 182.136V272.767M1217.78 182.136H1319.19M1217.78 272.767V363.399M1217.78 272.767H1319.19M1217.78 363.399V454.03M1217.78 363.399H1319.19M1217.78 454.03V544.662M1217.78 454.03H1319.19M1217.78 544.662V635.293M1217.78 544.662H1319.19M1217.78 635.293V725.925M1217.78 635.293H1319.19M1217.78 725.925V816.557M1217.78 725.925H1319.19M1217.78 816.557V907.188M1217.78 816.557H1319.19M1217.78 907.188V997.82M1217.78 907.188H1319.19M1217.78 997.82V1088.45M1217.78 997.82H1319.19M1217.78 1088.45V1179.08M1217.78 1088.45H1319.19M1217.78 1179.08V1269.71M1217.78 1179.08H1319.19M1217.78 1269.71V1360.35M1217.78 1269.71H1319.19M1217.78 1360.35V1450.98M1217.78 1360.35H1319.19M1217.78 1450.98V1541.61M1217.78 1450.98H1319.19M1217.78 1541.61V1632.24M1217.78 1541.61H1319.19M1217.78 1632.24V1722.87M1217.78 1632.24H1319.19M1217.78 1722.87H1319.19M1319.19 0.872368V91.5039M1319.19 0.872368H1420.6M1319.19 91.5039V182.136M1319.19 91.5039H1420.6M1319.19 182.136V272.767M1319.19 182.136H1420.6M1319.19 272.767V363.399M1319.19 272.767H1420.6M1319.19 363.399V454.03M1319.19 363.399H1420.6M1319.19 454.03V544.662M1319.19 454.03H1420.6M1319.19 544.662V635.293M1319.19 544.662H1420.6M1319.19 635.293V725.925M1319.19 635.293H1420.6M1319.19 725.925V816.557M1319.19 725.925H1420.6M1319.19 816.557V907.188M1319.19 816.557H1420.6M1319.19 907.188V997.82M1319.19 907.188H1420.6M1319.19 997.82V1088.45M1319.19 997.82H1420.6M1319.19 1088.45V1179.08M1319.19 1088.45H1420.6M1319.19 1179.08V1269.71M1319.19 1179.08H1420.6M1319.19 1269.71V1360.35M1319.19 1269.71H1420.6M1319.19 1360.35V1450.98M1319.19 1360.35H1420.6M1319.19 1450.98V1541.61M1319.19 1450.98H1420.6M1319.19 1541.61V1632.24M1319.19 1541.61H1420.6M1319.19 1632.24V1722.87M1319.19 1632.24H1420.6M1319.19 1722.87H1420.6M1420.6 0.872368V91.5039M1420.6 0.872368H1522.01M1420.6 91.5039V182.136M1420.6 91.5039H1522.01M1420.6 182.136V272.767M1420.6 182.136H1522.01M1420.6 272.767V363.399M1420.6 272.767H1522.01M1420.6 363.399V454.03M1420.6 363.399H1522.01M1420.6 454.03V544.662M1420.6 454.03H1522.01M1420.6 544.662V635.293M1420.6 544.662H1522.01M1420.6 635.293V725.925M1420.6 635.293H1522.01M1420.6 725.925V816.557M1420.6 725.925H1522.01M1420.6 816.557V907.188M1420.6 816.557H1522.01M1420.6 907.188V997.82M1420.6 907.188H1522.01M1420.6 997.82V1088.45M1420.6 997.82H1522.01M1420.6 1088.45V1179.08M1420.6 1088.45H1522.01M1420.6 1179.08V1269.71M1420.6 1179.08H1522.01M1420.6 1269.71V1360.35M1420.6 1269.71H1522.01M1420.6 1360.35V1450.98M1420.6 1360.35H1522.01M1420.6 1450.98V1541.61M1420.6 1450.98H1522.01M1420.6 1541.61V1632.24M1420.6 1541.61H1522.01M1420.6 1632.24V1722.87M1420.6 1632.24H1522.01M1420.6 1722.87H1522.01M1522.01 0.872368V91.5039M1522.01 0.872368H1623.42M1522.01 91.5039V182.136M1522.01 91.5039H1623.42M1522.01 182.136V272.767M1522.01 182.136H1623.42M1522.01 272.767V363.399M1522.01 272.767H1623.42M1522.01 363.399V454.03M1522.01 363.399H1623.42M1522.01 454.03V544.662M1522.01 454.03H1623.42M1522.01 544.662V635.293M1522.01 544.662H1623.42M1522.01 635.293V725.925M1522.01 635.293H1623.42M1522.01 725.925V816.557M1522.01 725.925H1623.42M1522.01 816.557V907.188M1522.01 816.557H1623.42M1522.01 907.188V997.82M1522.01 907.188H1623.42M1522.01 997.82V1088.45M1522.01 997.82H1623.42M1522.01 1088.45V1179.08M1522.01 1088.45H1623.42M1522.01 1179.08V1269.71M1522.01 1179.08H1623.42M1522.01 1269.71V1360.35M1522.01 1269.71H1623.42M1522.01 1360.35V1450.98M1522.01 1360.35H1623.42M1522.01 1450.98V1541.61M1522.01 1450.98H1623.42M1522.01 1541.61V1632.24M1522.01 1541.61H1623.42M1522.01 1632.24V1722.87M1522.01 1632.24H1623.42M1522.01 1722.87H1623.42M1623.42 0.872368V91.5039M1623.42 0.872368H1724.83M1623.42 91.5039V182.136M1623.42 91.5039H1724.83M1623.42 182.136V272.767M1623.42 182.136H1724.83M1623.42 272.767V363.399M1623.42 272.767H1724.83M1623.42 363.399V454.03M1623.42 363.399H1724.83M1623.42 454.03V544.662M1623.42 454.03H1724.83M1623.42 544.662V635.293M1623.42 544.662H1724.83M1623.42 635.293V725.925M1623.42 635.293H1724.83M1623.42 725.925V816.557M1623.42 725.925H1724.83M1623.42 816.557V907.188M1623.42 816.557H1724.83M1623.42 907.188V997.82M1623.42 907.188H1724.83M1623.42 997.82V1088.45M1623.42 997.82H1724.83M1623.42 1088.45V1179.08M1623.42 1088.45H1724.83M1623.42 1179.08V1269.71M1623.42 1179.08H1724.83M1623.42 1269.71V1360.35M1623.42 1269.71H1724.83M1623.42 1360.35V1450.98M1623.42 1360.35H1724.83M1623.42 1450.98V1541.61M1623.42 1450.98H1724.83M1623.42 1541.61V1632.24M1623.42 1541.61H1724.83M1623.42 1632.24V1722.87M1623.42 1632.24H1724.83M1623.42 1722.87H1724.83M1724.83 0.872368V91.5039M1724.83 0.872368H1826.24M1724.83 91.5039V182.136M1724.83 91.5039H1826.24M1724.83 182.136V272.767M1724.83 182.136H1826.24M1724.83 272.767V363.399M1724.83 272.767H1826.24M1724.83 363.399V454.03M1724.83 363.399H1826.24M1724.83 454.03V544.662M1724.83 454.03H1826.24M1724.83 544.662V635.293M1724.83 544.662H1826.24M1724.83 635.293V725.925M1724.83 635.293H1826.24M1724.83 725.925V816.557M1724.83 725.925H1826.24M1724.83 816.557V907.188M1724.83 816.557H1826.24M1724.83 907.188V997.82M1724.83 907.188H1826.24M1724.83 997.82V1088.45M1724.83 997.82H1826.24M1724.83 1088.45V1179.08M1724.83 1088.45H1826.24M1724.83 1179.08V1269.71M1724.83 1179.08H1826.24M1724.83 1269.71V1360.35M1724.83 1269.71H1826.24M1724.83 1360.35V1450.98M1724.83 1360.35H1826.24M1724.83 1450.98V1541.61M1724.83 1450.98H1826.24M1724.83 1541.61V1632.24M1724.83 1541.61H1826.24M1724.83 1632.24V1722.87M1724.83 1632.24H1826.24M1724.83 1722.87H1826.24M1826.24 0.872368V91.5039M1826.24 0.872368H1927.65M1826.24 91.5039V182.136M1826.24 91.5039H1927.65M1826.24 182.136V272.767M1826.24 182.136H1927.65M1826.24 272.767V363.399M1826.24 272.767H1927.65M1826.24 363.399V454.03M1826.24 363.399H1927.65M1826.24 454.03V544.662M1826.24 454.03H1927.65M1826.24 544.662V635.293M1826.24 544.662H1927.65M1826.24 635.293V725.925M1826.24 635.293H1927.65M1826.24 725.925V816.557M1826.24 725.925H1927.65M1826.24 816.557V907.188M1826.24 816.557H1927.65M1826.24 907.188V997.82M1826.24 907.188H1927.65M1826.24 997.82V1088.45M1826.24 997.82H1927.65M1826.24 1088.45V1179.08M1826.24 1088.45H1927.65M1826.24 1179.08V1269.71M1826.24 1179.08H1927.65M1826.24 1269.71V1360.35M1826.24 1269.71H1927.65M1826.24 1360.35V1450.98M1826.24 1360.35H1927.65M1826.24 1450.98V1541.61M1826.24 1450.98H1927.65M1826.24 1541.61V1632.24M1826.24 1541.61H1927.65M1826.24 1632.24V1722.87M1826.24 1632.24H1927.65M1826.24 1722.87H1927.65M1927.65 0.872368V91.5039M1927.65 0.872368H2029.05M1927.65 91.5039V182.136M1927.65 91.5039H2029.05M1927.65 182.136V272.767M1927.65 182.136H2029.05M1927.65 272.767V363.399M1927.65 272.767H2029.05M1927.65 363.399V454.03M1927.65 363.399H2029.05M1927.65 454.03V544.662M1927.65 454.03H2029.05M1927.65 544.662V635.293M1927.65 544.662H2029.05M1927.65 635.293V725.925M1927.65 635.293H2029.05M1927.65 725.925V816.557M1927.65 725.925H2029.05M1927.65 816.557V907.188M1927.65 816.557H2029.05M1927.65 907.188V997.82M1927.65 907.188H2029.05M1927.65 997.82V1088.45M1927.65 997.82H2029.05M1927.65 1088.45V1179.08M1927.65 1088.45H2029.05M1927.65 1179.08V1269.71M1927.65 1179.08H2029.05M1927.65 1269.71V1360.35M1927.65 1269.71H2029.05M1927.65 1360.35V1450.98M1927.65 1360.35H2029.05M1927.65 1450.98V1541.61M1927.65 1450.98H2029.05M1927.65 1541.61V1632.24M1927.65 1541.61H2029.05M1927.65 1632.24V1722.87M1927.65 1632.24H2029.05M1927.65 1722.87H2029.05M2029.05 0.872368V91.5039M2029.05 0.872368H2130.46M2029.05 91.5039V182.136M2029.05 91.5039H2130.46M2029.05 182.136V272.767M2029.05 182.136H2130.46M2029.05 272.767V363.399M2029.05 272.767H2130.46M2029.05 363.399V454.03M2029.05 363.399H2130.46M2029.05 454.03V544.662M2029.05 454.03H2130.46M2029.05 544.662V635.293M2029.05 544.662H2130.46M2029.05 635.293V725.925M2029.05 635.293H2130.46M2029.05 725.925V816.557M2029.05 725.925H2130.46M2029.05 816.557V907.188M2029.05 816.557H2130.46M2029.05 907.188V997.82M2029.05 907.188H2130.46M2029.05 997.82V1088.45M2029.05 997.82H2130.46M2029.05 1088.45V1179.08M2029.05 1088.45H2130.46M2029.05 1179.08V1269.71M2029.05 1179.08H2130.46M2029.05 1269.71V1360.35M2029.05 1269.71H2130.46M2029.05 1360.35V1450.98M2029.05 1360.35H2130.46M2029.05 1450.98V1541.61M2029.05 1450.98H2130.46M2029.05 1541.61V1632.24M2029.05 1541.61H2130.46M2029.05 1632.24V1722.87M2029.05 1632.24H2130.46M2029.05 1722.87H2130.46M2130.46 0.872368V91.5039M2130.46 0.872368H2231.87M2130.46 91.5039V182.136M2130.46 91.5039H2231.87M2130.46 182.136V272.767M2130.46 182.136H2231.87M2130.46 272.767V363.399M2130.46 272.767H2231.87M2130.46 363.399V454.03M2130.46 363.399H2231.87M2130.46 454.03V544.662M2130.46 454.03H2231.87M2130.46 544.662V635.293M2130.46 544.662H2231.87M2130.46 635.293V725.925M2130.46 635.293H2231.87M2130.46 725.925V816.557M2130.46 725.925H2231.87M2130.46 816.557V907.188M2130.46 816.557H2231.87M2130.46 907.188V997.82M2130.46 907.188H2231.87M2130.46 997.82V1088.45M2130.46 997.82H2231.87M2130.46 1088.45V1179.08M2130.46 1088.45H2231.87M2130.46 1179.08V1269.71M2130.46 1179.08H2231.87M2130.46 1269.71V1360.35M2130.46 1269.71H2231.87M2130.46 1360.35V1450.98M2130.46 1360.35H2231.87M2130.46 1450.98V1541.61M2130.46 1450.98H2231.87M2130.46 1541.61V1632.24M2130.46 1541.61H2231.87M2130.46 1632.24V1722.87M2130.46 1632.24H2231.87M2130.46 1722.87H2231.87M2231.87 0.872368V91.5039M2231.87 0.872368H2333.28M2231.87 91.5039V182.136M2231.87 91.5039H2333.28M2231.87 182.136V272.767M2231.87 182.136H2333.28M2231.87 272.767V363.399M2231.87 272.767H2333.28M2231.87 363.399V454.03M2231.87 363.399H2333.28M2231.87 454.03V544.662M2231.87 454.03H2333.28M2231.87 544.662V635.293M2231.87 544.662H2333.28M2231.87 635.293V725.925M2231.87 635.293H2333.28M2231.87 725.925V816.557M2231.87 725.925H2333.28M2231.87 816.557V907.188M2231.87 816.557H2333.28M2231.87 907.188V997.82M2231.87 907.188H2333.28M2231.87 997.82V1088.45M2231.87 997.82H2333.28M2231.87 1088.45V1179.08M2231.87 1088.45H2333.28M2231.87 1179.08V1269.71M2231.87 1179.08H2333.28M2231.87 1269.71V1360.35M2231.87 1269.71H2333.28M2231.87 1360.35V1450.98M2231.87 1360.35H2333.28M2231.87 1450.98V1541.61M2231.87 1450.98H2333.28M2231.87 1541.61V1632.24M2231.87 1541.61H2333.28M2231.87 1632.24V1722.87M2231.87 1632.24H2333.28M2231.87 1722.87H2333.28M2333.28 0.872368V91.5039M2333.28 0.872368H2434.69M2333.28 91.5039V182.136M2333.28 91.5039H2434.69M2333.28 182.136V272.767M2333.28 182.136H2434.69M2333.28 272.767V363.399M2333.28 272.767H2434.69M2333.28 363.399V454.03M2333.28 363.399H2434.69M2333.28 454.03V544.662M2333.28 454.03H2434.69M2333.28 544.662V635.293M2333.28 544.662H2434.69M2333.28 635.293V725.925M2333.28 635.293H2434.69M2333.28 725.925V816.557M2333.28 725.925H2434.69M2333.28 816.557V907.188M2333.28 816.557H2434.69M2333.28 907.188V997.82M2333.28 907.188H2434.69M2333.28 997.82V1088.45M2333.28 997.82H2434.69M2333.28 1088.45V1179.08M2333.28 1088.45H2434.69M2333.28 1179.08V1269.71M2333.28 1179.08H2434.69M2333.28 1269.71V1360.35M2333.28 1269.71H2434.69M2333.28 1360.35V1450.98M2333.28 1360.35H2434.69M2333.28 1450.98V1541.61M2333.28 1450.98H2434.69M2333.28 1541.61V1632.24M2333.28 1541.61H2434.69M2333.28 1632.24V1722.87M2333.28 1632.24H2434.69M2333.28 1722.87H2434.69M2434.69 0.872368V91.5039M2434.69 0.872368H2536.1M2434.69 91.5039V182.136M2434.69 91.5039H2536.1M2434.69 182.136V272.767M2434.69 182.136H2536.1M2434.69 272.767V363.399M2434.69 272.767H2536.1M2434.69 363.399V454.03M2434.69 363.399H2536.1M2434.69 454.03V544.662M2434.69 454.03H2536.1M2434.69 544.662V635.293M2434.69 544.662H2536.1M2434.69 635.293V725.925M2434.69 635.293H2536.1M2434.69 725.925V816.557M2434.69 725.925H2536.1M2434.69 816.557V907.188M2434.69 816.557H2536.1M2434.69 907.188V997.82M2434.69 907.188H2536.1M2434.69 997.82V1088.45M2434.69 997.82H2536.1M2434.69 1088.45V1179.08M2434.69 1088.45H2536.1M2434.69 1179.08V1269.71M2434.69 1179.08H2536.1M2434.69 1269.71V1360.35M2434.69 1269.71H2536.1M2434.69 1360.35V1450.98M2434.69 1360.35H2536.1M2434.69 1450.98V1541.61M2434.69 1450.98H2536.1M2434.69 1541.61V1632.24M2434.69 1541.61H2536.1M2434.69 1632.24V1722.87M2434.69 1632.24H2536.1M2434.69 1722.87H2536.1M2536.1 0.872368V91.5039M2536.1 0.872368H2637.51M2536.1 91.5039V182.136M2536.1 91.5039H2637.51M2536.1 182.136V272.767M2536.1 182.136H2637.51M2536.1 272.767V363.399M2536.1 272.767H2637.51M2536.1 363.399V454.03M2536.1 363.399H2637.51M2536.1 454.03V544.662M2536.1 454.03H2637.51M2536.1 544.662V635.293M2536.1 544.662H2637.51M2536.1 635.293V725.925M2536.1 635.293H2637.51M2536.1 725.925V816.557M2536.1 725.925H2637.51M2536.1 816.557V907.188M2536.1 816.557H2637.51M2536.1 907.188V997.82M2536.1 907.188H2637.51M2536.1 997.82V1088.45M2536.1 997.82H2637.51M2536.1 1088.45V1179.08M2536.1 1088.45H2637.51M2536.1 1179.08V1269.71M2536.1 1179.08H2637.51M2536.1 1269.71V1360.35M2536.1 1269.71H2637.51M2536.1 1360.35V1450.98M2536.1 1360.35H2637.51M2536.1 1450.98V1541.61M2536.1 1450.98H2637.51M2536.1 1541.61V1632.24M2536.1 1541.61H2637.51M2536.1 1632.24V1722.87M2536.1 1632.24H2637.51M2536.1 1722.87H2637.51M2637.51 0.872368V91.5039M2637.51 0.872368H2738.92M2637.51 91.5039V182.136M2637.51 91.5039H2738.92M2637.51 182.136V272.767M2637.51 182.136H2738.92M2637.51 272.767V363.399M2637.51 272.767H2738.92M2637.51 363.399V454.03M2637.51 363.399H2738.92M2637.51 454.03V544.662M2637.51 454.03H2738.92M2637.51 544.662V635.293M2637.51 544.662H2738.92M2637.51 635.293V725.925M2637.51 635.293H2738.92M2637.51 725.925V816.557M2637.51 725.925H2738.92M2637.51 816.557V907.188M2637.51 816.557H2738.92M2637.51 907.188V997.82M2637.51 907.188H2738.92M2637.51 997.82V1088.45M2637.51 997.82H2738.92M2637.51 1088.45V1179.08M2637.51 1088.45H2738.92M2637.51 1179.08V1269.71M2637.51 1179.08H2738.92M2637.51 1269.71V1360.35M2637.51 1269.71H2738.92M2637.51 1360.35V1450.98M2637.51 1360.35H2738.92M2637.51 1450.98V1541.61M2637.51 1450.98H2738.92M2637.51 1541.61V1632.24M2637.51 1541.61H2738.92M2637.51 1632.24V1722.87M2637.51 1632.24H2738.92M2637.51 1722.87H2738.92M2738.92 0.872368V91.5039M2738.92 0.872368H2840.33M2738.92 91.5039V182.136M2738.92 91.5039H2840.33M2738.92 182.136V272.767M2738.92 182.136H2840.33M2738.92 272.767V363.399M2738.92 272.767H2840.33M2738.92 363.399V454.03M2738.92 363.399H2840.33M2738.92 454.03V544.662M2738.92 454.03H2840.33M2738.92 544.662V635.293M2738.92 544.662H2840.33M2738.92 635.293V725.925M2738.92 635.293H2840.33M2738.92 725.925V816.557M2738.92 725.925H2840.33M2738.92 816.557V907.188M2738.92 816.557H2840.33M2738.92 907.188V997.82M2738.92 907.188H2840.33M2738.92 997.82V1088.45M2738.92 997.82H2840.33M2738.92 1088.45V1179.08M2738.92 1088.45H2840.33M2738.92 1179.08V1269.71M2738.92 1179.08H2840.33M2738.92 1269.71V1360.35M2738.92 1269.71H2840.33M2738.92 1360.35V1450.98M2738.92 1360.35H2840.33M2738.92 1450.98V1541.61M2738.92 1450.98H2840.33M2738.92 1541.61V1632.24M2738.92 1541.61H2840.33M2738.92 1632.24V1722.87M2738.92 1632.24H2840.33M2738.92 1722.87H2840.33M2840.33 0.872368V91.5039M2840.33 0.872368H2941.74M2840.33 91.5039V182.136M2840.33 91.5039H2941.74M2840.33 182.136V272.767M2840.33 182.136H2941.74M2840.33 272.767V363.399M2840.33 272.767H2941.74M2840.33 363.399V454.03M2840.33 363.399H2941.74M2840.33 454.03V544.662M2840.33 454.03H2941.74M2840.33 544.662V635.293M2840.33 544.662H2941.74M2840.33 635.293V725.925M2840.33 635.293H2941.74M2840.33 725.925V816.557M2840.33 725.925H2941.74M2840.33 816.557V907.188M2840.33 816.557H2941.74M2840.33 907.188V997.82M2840.33 907.188H2941.74M2840.33 997.82V1088.45M2840.33 997.82H2941.74M2840.33 1088.45V1179.08M2840.33 1088.45H2941.74M2840.33 1179.08V1269.71M2840.33 1179.08H2941.74M2840.33 1269.71V1360.35M2840.33 1269.71H2941.74M2840.33 1360.35V1450.98M2840.33 1360.35H2941.74M2840.33 1450.98V1541.61M2840.33 1450.98H2941.74M2840.33 1541.61V1632.24M2840.33 1541.61H2941.74M2840.33 1632.24V1722.87M2840.33 1632.24H2941.74M2840.33 1722.87H2941.74M2941.74 0.872368V91.5039M2941.74 0.872368H3043.14M2941.74 91.5039V182.136M2941.74 91.5039H3043.14M2941.74 182.136V272.767M2941.74 182.136H3043.14M2941.74 272.767V363.399M2941.74 272.767H3043.14M2941.74 363.399V454.03M2941.74 363.399H3043.14M2941.74 454.03V544.662M2941.74 454.03H3043.14M2941.74 544.662V635.293M2941.74 544.662H3043.14M2941.74 635.293V725.925M2941.74 635.293H3043.14M2941.74 725.925V816.557M2941.74 725.925H3043.14M2941.74 816.557V907.188M2941.74 816.557H3043.14M2941.74 907.188V997.82M2941.74 907.188H3043.14M2941.74 997.82V1088.45M2941.74 997.82H3043.14M2941.74 1088.45V1179.08M2941.74 1088.45H3043.14M2941.74 1179.08V1269.71M2941.74 1179.08H3043.14M2941.74 1269.71V1360.35M2941.74 1269.71H3043.14M2941.74 1360.35V1450.98M2941.74 1360.35H3043.14M2941.74 1450.98V1541.61M2941.74 1450.98H3043.14M2941.74 1541.61V1632.24M2941.74 1541.61H3043.14M2941.74 1632.24V1722.87M2941.74 1632.24H3043.14M2941.74 1722.87H3043.14M3043.14 0.872368V91.5039M3043.14 0.872368H3144.55M3043.14 91.5039V182.136M3043.14 91.5039H3144.55M3043.14 182.136V272.767M3043.14 182.136H3144.55M3043.14 272.767V363.399M3043.14 272.767H3144.55M3043.14 363.399V454.03M3043.14 363.399H3144.55M3043.14 454.03V544.662M3043.14 454.03H3144.55M3043.14 544.662V635.293M3043.14 544.662H3144.55M3043.14 635.293V725.925M3043.14 635.293H3144.55M3043.14 725.925V816.557M3043.14 725.925H3144.55M3043.14 816.557V907.188M3043.14 816.557H3144.55M3043.14 907.188V997.82M3043.14 907.188H3144.55M3043.14 997.82V1088.45M3043.14 997.82H3144.55M3043.14 1088.45V1179.08M3043.14 1088.45H3144.55M3043.14 1179.08V1269.71M3043.14 1179.08H3144.55M3043.14 1269.71V1360.35M3043.14 1269.71H3144.55M3043.14 1360.35V1450.98M3043.14 1360.35H3144.55M3043.14 1450.98V1541.61M3043.14 1450.98H3144.55M3043.14 1541.61V1632.24M3043.14 1541.61H3144.55M3043.14 1632.24V1722.87M3043.14 1632.24H3144.55M3043.14 1722.87H3144.55M3144.55 0.872368V91.5039M3144.55 0.872368H3245.96M3144.55 91.5039V182.136M3144.55 91.5039H3245.96M3144.55 182.136V272.767M3144.55 182.136H3245.96M3144.55 272.767V363.399M3144.55 272.767H3245.96M3144.55 363.399V454.03M3144.55 363.399H3245.96M3144.55 454.03V544.662M3144.55 454.03H3245.96M3144.55 544.662V635.293M3144.55 544.662H3245.96M3144.55 635.293V725.925M3144.55 635.293H3245.96M3144.55 725.925V816.557M3144.55 725.925H3245.96M3144.55 816.557V907.188M3144.55 816.557H3245.96M3144.55 907.188V997.82M3144.55 907.188H3245.96M3144.55 997.82V1088.45M3144.55 997.82H3245.96M3144.55 1088.45V1179.08M3144.55 1088.45H3245.96M3144.55 1179.08V1269.71M3144.55 1179.08H3245.96M3144.55 1269.71V1360.35M3144.55 1269.71H3245.96M3144.55 1360.35V1450.98M3144.55 1360.35H3245.96M3144.55 1450.98V1541.61M3144.55 1450.98H3245.96M3144.55 1541.61V1632.24M3144.55 1541.61H3245.96M3144.55 1632.24V1722.87M3144.55 1632.24H3245.96M3144.55 1722.87H3245.96M3245.96 0.872368V91.5039M3245.96 0.872368H3347.37M3245.96 91.5039V182.136M3245.96 91.5039H3347.37M3245.96 182.136V272.767M3245.96 182.136H3347.37M3245.96 272.767V363.399M3245.96 272.767H3347.37M3245.96 363.399V454.03M3245.96 363.399H3347.37M3245.96 454.03V544.662M3245.96 454.03H3347.37M3245.96 544.662V635.293M3245.96 544.662H3347.37M3245.96 635.293V725.925M3245.96 635.293H3347.37M3245.96 725.925V816.557M3245.96 725.925H3347.37M3245.96 816.557V907.188M3245.96 816.557H3347.37M3245.96 907.188V997.82M3245.96 907.188H3347.37M3245.96 997.82V1088.45M3245.96 997.82H3347.37M3245.96 1088.45V1179.08M3245.96 1088.45H3347.37M3245.96 1179.08V1269.71M3245.96 1179.08H3347.37M3245.96 1269.71V1360.35M3245.96 1269.71H3347.37M3245.96 1360.35V1450.98M3245.96 1360.35H3347.37M3245.96 1450.98V1541.61M3245.96 1450.98H3347.37M3245.96 1541.61V1632.24M3245.96 1541.61H3347.37M3245.96 1632.24V1722.87M3245.96 1632.24H3347.37M3245.96 1722.87H3347.37M3347.37 0.872368V91.5039M3347.37 0.872368H3448.78M3347.37 91.5039V182.136M3347.37 91.5039H3448.78M3347.37 182.136V272.767M3347.37 182.136H3448.78M3347.37 272.767V363.399M3347.37 272.767H3448.78M3347.37 363.399V454.03M3347.37 363.399H3448.78M3347.37 454.03V544.662M3347.37 454.03H3448.78M3347.37 544.662V635.293M3347.37 544.662H3448.78M3347.37 635.293V725.925M3347.37 635.293H3448.78M3347.37 725.925V816.557M3347.37 725.925H3448.78M3347.37 816.557V907.188M3347.37 816.557H3448.78M3347.37 907.188V997.82M3347.37 907.188H3448.78M3347.37 997.82V1088.45M3347.37 997.82H3448.78M3347.37 1088.45V1179.08M3347.37 1088.45H3448.78M3347.37 1179.08V1269.71M3347.37 1179.08H3448.78M3347.37 1269.71V1360.35M3347.37 1269.71H3448.78M3347.37 1360.35V1450.98M3347.37 1360.35H3448.78M3347.37 1450.98V1541.61M3347.37 1450.98H3448.78M3347.37 1541.61V1632.24M3347.37 1541.61H3448.78M3347.37 1632.24V1722.87M3347.37 1632.24H3448.78M3347.37 1722.87H3448.78M3448.78 0.872368V91.5039M3448.78 0.872368H3550.19M3448.78 91.5039V182.136M3448.78 91.5039H3550.19M3448.78 182.136V272.767M3448.78 182.136H3550.19M3448.78 272.767V363.399M3448.78 272.767H3550.19M3448.78 363.399V454.03M3448.78 363.399H3550.19M3448.78 454.03V544.662M3448.78 454.03H3550.19M3448.78 544.662V635.293M3448.78 544.662H3550.19M3448.78 635.293V725.925M3448.78 635.293H3550.19M3448.78 725.925V816.557M3448.78 725.925H3550.19M3448.78 816.557V907.188M3448.78 816.557H3550.19M3448.78 907.188V997.82M3448.78 907.188H3550.19M3448.78 997.82V1088.45M3448.78 997.82H3550.19M3448.78 1088.45V1179.08M3448.78 1088.45H3550.19M3448.78 1179.08V1269.71M3448.78 1179.08H3550.19M3448.78 1269.71V1360.35M3448.78 1269.71H3550.19M3448.78 1360.35V1450.98M3448.78 1360.35H3550.19M3448.78 1450.98V1541.61M3448.78 1450.98H3550.19M3448.78 1541.61V1632.24M3448.78 1541.61H3550.19M3448.78 1632.24V1722.87M3448.78 1632.24H3550.19M3448.78 1722.87H3550.19M3550.19 0.872368V91.5039M3550.19 0.872368H3651.6M3550.19 91.5039V182.136M3550.19 91.5039H3651.6M3550.19 182.136V272.767M3550.19 182.136H3651.6M3550.19 272.767V363.399M3550.19 272.767H3651.6M3550.19 363.399V454.03M3550.19 363.399H3651.6M3550.19 454.03V544.662M3550.19 454.03H3651.6M3550.19 544.662V635.293M3550.19 544.662H3651.6M3550.19 635.293V725.925M3550.19 635.293H3651.6M3550.19 725.925V816.557M3550.19 725.925H3651.6M3550.19 816.557V907.188M3550.19 816.557H3651.6M3550.19 907.188V997.82M3550.19 907.188H3651.6M3550.19 997.82V1088.45M3550.19 997.82H3651.6M3550.19 1088.45V1179.08M3550.19 1088.45H3651.6M3550.19 1179.08V1269.71M3550.19 1179.08H3651.6M3550.19 1269.71V1360.35M3550.19 1269.71H3651.6M3550.19 1360.35V1450.98M3550.19 1360.35H3651.6M3550.19 1450.98V1541.61M3550.19 1450.98H3651.6M3550.19 1541.61V1632.24M3550.19 1541.61H3651.6M3550.19 1632.24V1722.87M3550.19 1632.24H3651.6M3550.19 1722.87H3651.6M3651.6 0.872368V91.5039M3651.6 0.872368H3753.01M3651.6 91.5039V182.136M3651.6 91.5039H3753.01M3651.6 182.136V272.767M3651.6 182.136H3753.01M3651.6 272.767V363.399M3651.6 272.767H3753.01M3651.6 363.399V454.03M3651.6 363.399H3753.01M3651.6 454.03V544.662M3651.6 454.03H3753.01M3651.6 544.662V635.293M3651.6 544.662H3753.01M3651.6 635.293V725.925M3651.6 635.293H3753.01M3651.6 725.925V816.557M3651.6 725.925H3753.01M3651.6 816.557V907.188M3651.6 816.557H3753.01M3651.6 907.188V997.82M3651.6 907.188H3753.01M3651.6 997.82V1088.45M3651.6 997.82H3753.01M3651.6 1088.45V1179.08M3651.6 1088.45H3753.01M3651.6 1179.08V1269.71M3651.6 1179.08H3753.01M3651.6 1269.71V1360.35M3651.6 1269.71H3753.01M3651.6 1360.35V1450.98M3651.6 1360.35H3753.01M3651.6 1450.98V1541.61M3651.6 1450.98H3753.01M3651.6 1541.61V1632.24M3651.6 1541.61H3753.01M3651.6 1632.24V1722.87M3651.6 1632.24H3753.01M3651.6 1722.87H3753.01M3753.01 0.872368V91.5039M3753.01 0.872368H3854.42M3753.01 91.5039V182.136M3753.01 91.5039H3854.42M3753.01 182.136V272.767M3753.01 182.136H3854.42M3753.01 272.767V363.399M3753.01 272.767H3854.42M3753.01 363.399V454.03M3753.01 363.399H3854.42M3753.01 454.03V544.662M3753.01 454.03H3854.42M3753.01 544.662V635.293M3753.01 544.662H3854.42M3753.01 635.293V725.925M3753.01 635.293H3854.42M3753.01 725.925V816.557M3753.01 725.925H3854.42M3753.01 816.557V907.188M3753.01 816.557H3854.42M3753.01 907.188V997.82M3753.01 907.188H3854.42M3753.01 997.82V1088.45M3753.01 997.82H3854.42M3753.01 1088.45V1179.08M3753.01 1088.45H3854.42M3753.01 1179.08V1269.71M3753.01 1179.08H3854.42M3753.01 1269.71V1360.35M3753.01 1269.71H3854.42M3753.01 1360.35V1450.98M3753.01 1360.35H3854.42M3753.01 1450.98V1541.61M3753.01 1450.98H3854.42M3753.01 1541.61V1632.24M3753.01 1541.61H3854.42M3753.01 1632.24V1722.87M3753.01 1632.24H3854.42M3753.01 1722.87H3854.42M3854.42 0.872368V91.5039M3854.42 0.872368H3955.83M3854.42 91.5039V182.136M3854.42 91.5039H3955.83M3854.42 182.136V272.767M3854.42 182.136H3955.83M3854.42 272.767V363.399M3854.42 272.767H3955.83M3854.42 363.399V454.03M3854.42 363.399H3955.83M3854.42 454.03V544.662M3854.42 454.03H3955.83M3854.42 544.662V635.293M3854.42 544.662H3955.83M3854.42 635.293V725.925M3854.42 635.293H3955.83M3854.42 725.925V816.557M3854.42 725.925H3955.83M3854.42 816.557V907.188M3854.42 816.557H3955.83M3854.42 907.188V997.82M3854.42 907.188H3955.83M3854.42 997.82V1088.45M3854.42 997.82H3955.83M3854.42 1088.45V1179.08M3854.42 1088.45H3955.83M3854.42 1179.08V1269.71M3854.42 1179.08H3955.83M3854.42 1269.71V1360.35M3854.42 1269.71H3955.83M3854.42 1360.35V1450.98M3854.42 1360.35H3955.83M3854.42 1450.98V1541.61M3854.42 1450.98H3955.83M3854.42 1541.61V1632.24M3854.42 1541.61H3955.83M3854.42 1632.24V1722.87M3854.42 1632.24H3955.83M3854.42 1722.87H3955.83M3955.83 0.872368V91.5039M3955.83 0.872368H4057.24M3955.83 91.5039V182.136M3955.83 91.5039H4057.24M3955.83 182.136V272.767M3955.83 182.136H4057.24M3955.83 272.767V363.399M3955.83 272.767H4057.24M3955.83 363.399V454.03M3955.83 363.399H4057.24M3955.83 454.03V544.662M3955.83 454.03H4057.24M3955.83 544.662V635.293M3955.83 544.662H4057.24M3955.83 635.293V725.925M3955.83 635.293H4057.24M3955.83 725.925V816.557M3955.83 725.925H4057.24M3955.83 816.557V907.188M3955.83 816.557H4057.24M3955.83 907.188V997.82M3955.83 907.188H4057.24M3955.83 997.82V1088.45M3955.83 997.82H4057.24M3955.83 1088.45V1179.08M3955.83 1088.45H4057.24M3955.83 1179.08V1269.71M3955.83 1179.08H4057.24M3955.83 1269.71V1360.35M3955.83 1269.71H4057.24M3955.83 1360.35V1450.98M3955.83 1360.35H4057.24M3955.83 1450.98V1541.61M3955.83 1450.98H4057.24M3955.83 1541.61V1632.24M3955.83 1541.61H4057.24M3955.83 1632.24V1722.87M3955.83 1632.24H4057.24M3955.83 1722.87H4057.24M4057.24 0.872368V91.5039M4057.24 0.872368H4158.65M4057.24 91.5039V182.136M4057.24 91.5039H4158.65M4057.24 182.136V272.767M4057.24 182.136H4158.65M4057.24 272.767V363.399M4057.24 272.767H4158.65M4057.24 363.399V454.03M4057.24 363.399H4158.65M4057.24 454.03V544.662M4057.24 454.03H4158.65M4057.24 544.662V635.293M4057.24 544.662H4158.65M4057.24 635.293V725.925M4057.24 635.293H4158.65M4057.24 725.925V816.557M4057.24 725.925H4158.65M4057.24 816.557V907.188M4057.24 816.557H4158.65M4057.24 907.188V997.82M4057.24 907.188H4158.65M4057.24 997.82V1088.45M4057.24 997.82H4158.65M4057.24 1088.45V1179.08M4057.24 1088.45H4158.65M4057.24 1179.08V1269.71M4057.24 1179.08H4158.65M4057.24 1269.71V1360.35M4057.24 1269.71H4158.65M4057.24 1360.35V1450.98M4057.24 1360.35H4158.65M4057.24 1450.98V1541.61M4057.24 1450.98H4158.65M4057.24 1541.61V1632.24M4057.24 1541.61H4158.65M4057.24 1632.24V1722.87M4057.24 1632.24H4158.65M4057.24 1722.87H4158.65M4158.65 0.872368V91.5039M4158.65 0.872368H4260.05M4158.65 91.5039V182.136M4158.65 91.5039H4260.05M4158.65 182.136V272.767M4158.65 182.136H4260.05M4158.65 272.767V363.399M4158.65 272.767H4260.05M4158.65 363.399V454.03M4158.65 363.399H4260.05M4158.65 454.03V544.662M4158.65 454.03H4260.05M4158.65 544.662V635.293M4158.65 544.662H4260.05M4158.65 635.293V725.925M4158.65 635.293H4260.05M4158.65 725.925V816.557M4158.65 725.925H4260.05M4158.65 816.557V907.188M4158.65 816.557H4260.05M4158.65 907.188V997.82M4158.65 907.188H4260.05M4158.65 997.82V1088.45M4158.65 997.82H4260.05M4158.65 1088.45V1179.08M4158.65 1088.45H4260.05M4158.65 1179.08V1269.71M4158.65 1179.08H4260.05M4158.65 1269.71V1360.35M4158.65 1269.71H4260.05M4158.65 1360.35V1450.98M4158.65 1360.35H4260.05M4158.65 1450.98V1541.61M4158.65 1450.98H4260.05M4158.65 1541.61V1632.24M4158.65 1541.61H4260.05M4158.65 1632.24V1722.87M4158.65 1632.24H4260.05M4158.65 1722.87H4260.05M4260.05 0.872368V91.5039M4260.05 0.872368H4361.46M4260.05 91.5039V182.136M4260.05 91.5039H4361.46M4260.05 182.136V272.767M4260.05 182.136H4361.46M4260.05 272.767V363.399M4260.05 272.767H4361.46M4260.05 363.399V454.03M4260.05 363.399H4361.46M4260.05 454.03V544.662M4260.05 454.03H4361.46M4260.05 544.662V635.293M4260.05 544.662H4361.46M4260.05 635.293V725.925M4260.05 635.293H4361.46M4260.05 725.925V816.557M4260.05 725.925H4361.46M4260.05 816.557V907.188M4260.05 816.557H4361.46M4260.05 907.188V997.82M4260.05 907.188H4361.46M4260.05 997.82V1088.45M4260.05 997.82H4361.46M4260.05 1088.45V1179.08M4260.05 1088.45H4361.46M4260.05 1179.08V1269.71M4260.05 1179.08H4361.46M4260.05 1269.71V1360.35M4260.05 1269.71H4361.46M4260.05 1360.35V1450.98M4260.05 1360.35H4361.46M4260.05 1450.98V1541.61M4260.05 1450.98H4361.46M4260.05 1541.61V1632.24M4260.05 1541.61H4361.46M4260.05 1632.24V1722.87M4260.05 1632.24H4361.46M4260.05 1722.87H4361.46M4361.46 0.872368V91.5039M4361.46 0.872368H4462.87V91.5039M4361.46 91.5039V182.136M4361.46 91.5039H4462.87M4361.46 182.136V272.767M4361.46 182.136H4462.87M4361.46 272.767V363.399M4361.46 272.767H4462.87M4361.46 363.399V454.03M4361.46 363.399H4462.87M4361.46 454.03V544.662M4361.46 454.03H4462.87M4361.46 544.662V635.293M4361.46 544.662H4462.87M4361.46 635.293V725.925M4361.46 635.293H4462.87M4361.46 725.925V816.557M4361.46 725.925H4462.87M4361.46 816.557V907.188M4361.46 816.557H4462.87M4361.46 907.188V997.82M4361.46 907.188H4462.87M4361.46 997.82V1088.45M4361.46 997.82H4462.87M4361.46 1088.45V1179.08M4361.46 1088.45H4462.87M4361.46 1179.08V1269.71M4361.46 1179.08H4462.87M4361.46 1269.71V1360.35M4361.46 1269.71H4462.87M4361.46 1360.35V1450.98M4361.46 1360.35H4462.87M4361.46 1450.98V1541.61M4361.46 1450.98H4462.87M4361.46 1541.61V1632.24M4361.46 1541.61H4462.87M4361.46 1632.24V1722.87M4361.46 1632.24H4462.87M4361.46 1722.87H4462.87V1632.24M4462.87 91.5039V182.136M4462.87 182.136V272.767M4462.87 272.767V363.399M4462.87 363.399V454.03M4462.87 454.03V544.662M4462.87 544.662V635.293M4462.87 635.293V725.925M4462.87 725.925V816.557M4462.87 816.557V907.188M4462.87 907.188V997.82M4462.87 997.82V1088.45M4462.87 1088.45V1179.08M4462.87 1179.08V1269.71M4462.87 1269.71V1360.35M4462.87 1360.35V1450.98M4462.87 1450.98V1541.61M4462.87 1541.61V1632.24" stroke="url(#paint0_radial_0_791)" stroke-width="1.74474"/>
</g>
<defs>
<radialGradient id="paint0_radial_0_791" cx="0" cy="0" r="1" gradientUnits="userSpaceOnUse" gradientTransform="translate(2231.87 861.872) rotate(90) scale(861 1801.57)">
<stop stop-color="white"/>
<stop offset="1" stop-color="white" stop-opacity="0.2"/>
</radialGradient>
</defs>
</svg>
