<svg preserveAspectRatio="none" width="100%" height="100%" overflow="visible" style="display: block;" viewBox="0 0 204 92" fill="none" xmlns="http://www.w3.org/2000/svg">
<g id="Layer_1" clip-path="url(#clip0_0_556)">
<path id="Vector" d="M29.3878 38.8886C29.5948 38.4445 29.8018 38.0051 30.0041 37.5587C31.039 35.2728 32.0831 32.9915 33.1017 30.6986C34.4296 27.7138 35.7133 24.7103 37.0715 21.7396C37.3645 21.0968 37.2645 20.8046 36.6877 20.447C32.1715 17.6422 27.6739 14.814 23.1646 12.0022C22.1763 11.3852 19.86 11.5535 18.9624 12.2617C15.8647 14.7159 12.7741 17.1701 9.66014 19.6033C9.12991 20.0146 8.92759 20.426 9.02061 21.0805C9.15084 22.0154 9.1834 22.9503 9.302 23.8689C9.45549 25.0376 8.52527 24.6846 7.98807 24.8038C7.45086 24.923 6.8718 25.0189 6.7718 24.1026C6.30669 19.7295 5.72995 15.3703 5.29972 10.9948C5.08577 8.80709 6.35785 6.93721 8.39969 6.14486C10.1346 5.4717 11.8531 4.55313 13.6531 4.31706C15.8229 4.03658 17.6624 3.44523 19.5205 2.21345C21.3786 0.981674 23.939 1.84181 25.2995 3.68598C25.7251 4.28196 26.2983 4.75574 26.9623 5.06033C31.8413 7.34781 36.7125 9.65164 41.5761 11.9718C42.097 12.2222 42.6751 12.3279 43.2505 12.278C44.3223 12.1952 45.3918 12.4654 46.2972 13.0478C47.2027 13.6302 47.8948 14.493 48.269 15.5059C48.9434 17.3945 48.2876 19.9819 46.4876 21.2254C45.9222 21.6272 45.478 22.178 45.2039 22.8171C41.621 30.3309 38.0327 37.8415 34.4389 45.349C34.1157 46.0292 33.5971 46.6229 33.4599 47.4994C34.0482 47.3966 34.2506 46.9712 34.4924 46.6159C36.7994 43.2571 39.1575 39.9264 41.5342 36.6214C44.4435 32.5708 47.3923 28.5412 50.3178 24.4953C56.0185 16.6107 61.6797 8.691 67.3013 0.736253C67.913 -0.126225 68.3083 -0.215044 69.1967 0.383315C71.1571 1.70391 73.2059 2.89362 75.2431 4.088C75.9036 4.47366 76.1501 4.76816 75.6222 5.4904C74.1245 7.54258 73.6199 9.83551 73.6734 12.4089C73.7943 18.4042 73.7245 24.4041 73.6594 30.4064C73.6478 31.5073 73.9873 31.8977 75.0245 31.727C76.0617 31.5564 76.3082 31.921 76.1291 32.9985C75.5757 36.3363 75.1524 39.6974 74.6803 43.0491C74.6106 43.5399 74.6594 44.0822 73.9827 44.2341C73.6989 44.2972 73.7199 44.5824 73.7175 44.8161C73.7175 45.5547 73.7175 46.2957 73.7013 47.0343C73.7013 47.7121 74.0966 48.1398 74.6315 48.418C77.271 49.8204 77.6547 53.9528 75.9919 56.1312C75.3919 56.9119 75.5501 57.3139 76.2501 57.9052C78.9175 60.1467 81.5291 62.4537 84.157 64.7419C84.2902 64.8803 84.4145 65.0271 84.5291 65.1814C83.0151 65.5366 81.8268 65.1954 80.7384 64.2301C78.6849 62.4069 76.5757 60.6469 74.5222 58.8215C73.9455 58.3073 73.392 58.0852 72.6338 58.3213C71.6663 58.6494 70.6124 58.6078 69.6734 58.2044C68.8688 57.8468 68.3269 58.3119 67.7897 58.7443C65.7107 60.4249 63.5898 62.061 61.5991 63.8444C60.3456 64.9663 59.041 65.553 57.3177 65.2328C57.3666 64.7653 57.7968 64.604 58.0898 64.361C60.8805 62.068 63.6712 59.7774 66.4827 57.5149C67.0455 57.0638 67.2293 56.6337 66.992 55.9255C66.7539 55.1437 66.5659 54.3474 66.4293 53.5414C66.2316 52.5551 66.599 51.8539 67.5665 51.5407C68.4781 51.2461 69.306 51.6669 69.692 52.6649C69.8571 53.2054 69.9807 53.7579 70.0618 54.3174C70.6315 53.9785 71.2594 53.8359 71.878 54.0837C72.2455 54.2379 72.6431 54.5021 72.8896 54.0837C73.1641 53.6162 73.6362 53.1487 73.3408 52.4966C73.0455 51.8445 72.5594 51.2976 71.8687 51.1199C70.5292 50.774 70.1246 49.8484 70.1153 48.605C70.1153 47.3989 70.0943 46.1905 70.1013 44.9844C70.1013 44.545 70.0501 44.1617 69.4943 44.2411C68.3153 44.4118 68.0502 43.6381 67.8664 42.7289C67.3393 39.9786 66.8068 37.2283 66.2688 34.4781C66.1885 34.0235 66.0566 33.5796 65.8758 33.1551C65.4502 32.1875 65.7921 31.7083 66.7897 31.6873C68.4176 31.6546 68.3083 32.0052 68.3106 30.1119C68.3106 26.6503 68.3106 23.1887 68.1176 19.6547C67.6525 20.5172 67.1711 21.3726 66.7223 22.2421C60.6479 33.9849 54.5759 45.7277 48.5062 57.4705C47.9178 58.6088 47.269 59.7213 47.3434 61.0864C47.3783 61.7876 46.8667 61.8647 46.3132 61.8624C44.6458 61.8624 42.9784 61.8974 41.3133 61.8624C40.6156 61.8437 40.383 62.054 40.383 62.7786C40.3528 65.3286 40.3249 65.3333 37.8249 65.3333C30.3064 65.3333 22.7902 65.3099 15.2671 65.3543C14.188 65.3543 13.7694 65.1206 13.8136 63.9519C13.8903 61.8483 13.8136 61.8483 11.681 61.8483C9.31596 61.8483 6.95319 61.8062 4.5881 61.8483C3.7323 61.8623 3.37882 61.68 3.38347 60.6984C3.42998 50.2224 3.44006 39.7457 3.4137 29.2682C3.4137 28.4571 3.69044 28.3052 4.41369 28.3075C12.5531 28.3309 20.6926 28.3309 28.832 28.3075C29.5297 28.3075 29.7622 28.4805 29.7622 29.2214C29.7274 31.4442 29.5553 33.6623 29.3901 35.8665C29.3157 36.8552 29.2669 37.8462 29.2064 38.8372L29.3878 38.8886ZM51.3155 30.4882L51.2341 30.3597C51.2341 30.3877 51.2201 30.4275 51.2341 30.4392C51.2633 30.458 51.2956 30.4714 51.3294 30.4789C52.3597 33.4216 53.3875 36.362 54.5247 39.6085C55.141 38.3721 55.6038 37.4465 56.0643 36.5186C57.1782 34.2794 57.1968 34.2514 55.1108 32.8606C53.8689 32.0356 52.7573 30.9908 51.3155 30.4882ZM51.8015 41.6841L51.8387 41.7636L51.7876 41.6958C50.9411 38.6572 49.5039 35.8524 48.4318 32.6222C47.269 34.2303 46.2551 35.6351 45.2388 37.0398C45.0783 37.2735 45.069 37.4816 45.3225 37.6335C47.5039 38.9494 49.4736 40.6066 51.8015 41.6841ZM16.5856 35.4341C14.8438 35.4341 13.0973 35.4598 11.3578 35.4341C10.7043 35.4177 10.488 35.6164 10.495 36.2872C10.5183 39.1294 10.5136 41.9716 10.4648 44.8115C10.4508 45.6178 10.6811 45.882 11.5043 45.8726C14.8717 45.8305 18.2407 45.8305 21.6112 45.8726C22.3902 45.8726 22.7019 45.6973 22.6832 44.8442C22.6259 42.0035 22.615 39.1621 22.6507 36.3199C22.6507 35.5533 22.3646 35.4224 21.6995 35.4364C19.9996 35.4598 18.2903 35.4341 16.5856 35.4341ZM29.546 49.8695C29.6925 49.6053 29.8901 49.2898 30.0483 48.9556C34.025 40.577 37.9986 32.1968 41.9691 23.8151C42.6667 22.3613 42.6226 22.4501 41.2714 21.5877C40.3412 20.9963 40.097 21.3539 39.7226 22.158C37.1017 27.7676 34.4366 33.3398 31.7901 38.9284C30.477 41.702 29.1661 44.478 27.8576 47.2563C27.4925 48.0206 28.6529 49.9162 29.546 49.8695ZM8.5555 17.2963C11.581 14.8772 14.4182 12.6216 17.2554 10.3638C17.667 10.0389 17.4275 9.80045 17.2787 9.47556C16.9856 8.83513 16.3182 8.36299 16.4624 7.51687C16.5926 6.76191 16.2298 6.4791 15.4694 6.56558C13.0508 6.83671 10.888 7.88617 8.69969 8.83046C8.0369 9.11795 7.72528 9.85889 7.7997 10.6045C8.01365 12.7525 8.28109 14.8935 8.5555 17.2963ZM26.5786 7.68049C26.246 7.58933 26.2111 7.85812 26.1274 8.06615C25.9832 8.4261 25.8948 8.8328 25.6809 9.13665C25.1786 9.83785 25.3762 10.1394 26.1204 10.483C29.8413 12.2009 33.5622 13.9329 37.2412 15.7607C38.3598 16.317 38.7435 16.172 39.3063 15.0127C39.7714 14.031 39.59 13.8043 38.7714 13.4257C34.911 11.6306 31.0669 9.79344 27.2158 7.97265L26.5786 7.68049ZM44.9807 54.5979L45.2132 54.3805L40.29 43.7082C38.9389 45.5664 37.7133 47.2563 36.4808 48.9415C36.211 49.3108 36.2831 49.5376 36.6784 49.7666C39.4505 51.363 42.2133 52.9781 44.9807 54.5862V54.5979ZM43.8179 40.5902L43.6667 40.7772C45.0411 44.1149 46.4132 47.455 47.8527 50.968C48.8411 49.2244 49.6992 47.6957 50.5899 46.1624C50.8225 45.7698 50.748 45.5524 50.4015 45.307C48.2031 43.7332 46.0078 42.157 43.8156 40.5785L43.8179 40.5902ZM71.7873 13.3742C70.8804 14.3536 70.1594 15.3563 70.1711 16.7237C70.1897 21.3539 70.1711 25.9819 70.1711 30.6098C70.1711 31.1404 70.0362 31.6756 70.9292 31.6966C71.8594 31.72 71.7873 31.1965 71.7873 30.5887C71.7873 25.1817 71.7873 19.7754 71.7873 14.37V13.3742ZM56.6712 20.9285L53.2062 26.0006C53.0596 26.2132 53.0085 26.4236 53.2713 26.5919L58.5573 29.9857C57.9061 26.8654 57.3177 24.0395 56.6712 20.9285ZM64.5153 8.47752C63.3805 10.4526 62.4061 12.1495 61.434 13.8534C61.2479 14.1783 61.3247 14.419 61.6502 14.6271C63.2037 15.6111 64.7456 16.6115 66.5339 17.7638C65.8455 14.5827 65.2153 11.6867 64.5153 8.47752ZM60.8572 26.8046C61.9061 24.8997 62.7619 23.3126 63.6479 21.7466C63.8805 21.3305 63.7479 21.1249 63.4153 20.9052C61.9898 19.9913 60.5735 19.0657 58.9689 18.0256L60.8572 26.8046ZM46.0109 17.1561C46.0109 15.7887 44.976 14.772 43.5737 14.7813C42.9517 14.7672 42.3489 14.9978 41.8936 15.4239C41.4383 15.85 41.1667 16.438 41.1365 17.0626C41.1193 17.727 41.3611 18.3719 41.8103 18.8597C42.2596 19.3475 42.8807 19.6395 43.5411 19.6734C44.883 19.7108 45.9993 18.5655 46.0109 17.1561ZM21.4391 4.3007C20.0275 4.27966 18.9624 5.28238 18.9577 6.63803C18.9528 6.96725 19.0126 7.2942 19.1337 7.60013C19.2548 7.90606 19.4348 8.18494 19.6634 8.42078C19.892 8.65662 20.1647 8.84477 20.4658 8.97443C20.7669 9.1041 21.0906 9.17273 21.4181 9.17638C22.0593 9.14814 22.6665 8.87869 23.1193 8.42148C23.572 7.96427 23.8372 7.35272 23.8623 6.70815C23.9018 5.37587 22.8344 4.31004 21.4391 4.28901V4.3007ZM67.0013 4.95048C67.5665 7.90721 68.0897 10.6536 68.6571 13.6337C69.6246 11.7872 70.4618 10.1277 71.3501 8.51725C71.6362 7.99369 71.3292 7.83241 70.9966 7.61037C69.7432 6.77827 68.492 5.92982 67.0013 4.93879V4.95048Z" fill="var(--fill-0, #473DFF)"/>
<path id="Vector_2" d="M118.734 37.6989C118.734 44.5567 118.704 51.4121 118.764 58.2675C118.764 59.4362 118.413 59.7026 117.329 59.6699C114.422 59.6021 111.515 59.6138 108.608 59.6699C107.695 59.6863 107.427 59.4058 107.432 58.4825C107.46 53.0693 107.399 47.6537 107.432 42.2404C107.432 41.3358 107.199 41.1675 106.341 41.1769C102.002 41.2236 97.6598 41.2353 93.318 41.1769C92.3482 41.1629 92.2133 41.4831 92.218 42.3456C92.2412 47.7214 92.1924 53.0973 92.218 58.4732C92.218 59.3661 92.004 59.698 91.0552 59.6816C88.032 59.6278 85.0088 59.6325 81.9855 59.6816C81.1134 59.6933 80.8739 59.4058 80.8762 58.5433C80.9057 44.5598 80.9142 30.5747 80.9018 16.5881C80.9018 15.9266 81.0739 15.7279 81.7344 15.735C84.9134 15.7653 88.0924 15.7817 91.2691 15.735C92.1156 15.7209 92.1784 16.0622 92.1761 16.7564C92.1575 21.1973 92.204 25.6383 92.1761 30.0792C92.1761 30.9931 92.3249 31.3554 93.3505 31.3414C97.7295 31.2783 102.111 31.2923 106.49 31.3297C107.276 31.3297 107.464 31.0819 107.46 30.3386C107.441 25.8206 107.485 21.3025 107.46 16.7821C107.46 15.9897 107.618 15.7233 108.455 15.7373C111.518 15.7887 114.581 15.784 117.641 15.7373C118.462 15.7373 118.746 15.8682 118.741 16.8031C118.69 23.7754 118.713 30.7477 118.713 37.72L118.734 37.6989Z" fill="var(--fill-0, #473DFF)"/>
<path id="Vector_3" d="M160.212 59.6699C158.547 59.6699 156.875 59.5905 155.217 59.7027C154.315 59.7634 154.035 59.324 153.896 58.6438C153.431 56.4257 152.522 54.3595 151.887 52.1998C151.754 51.7487 151.491 51.6108 151.035 51.6108C146.617 51.6248 142.198 51.6318 137.78 51.6108C137.138 51.6108 137.026 51.9824 136.882 52.4476C136.226 54.5652 135.531 56.6735 134.905 58.8004C134.722 59.4175 134.475 59.6956 133.796 59.6863C130.424 59.6419 127.052 59.6419 123.682 59.6302C123.054 59.6302 122.715 59.6162 123.192 58.8028C123.71 57.9146 123.987 56.8815 124.34 55.8975C128.992 42.9393 133.627 29.9764 138.247 17.0088C138.619 15.957 139.101 15.6906 140.143 15.7139C143.433 15.7817 146.729 15.7654 150.022 15.7139C150.782 15.7139 151.087 15.971 151.328 16.6629C156.208 30.6106 161.107 44.5505 166.028 58.4826C166.368 59.4456 166.203 59.6863 165.207 59.6512C163.545 59.5881 161.877 59.6349 160.21 59.6349L160.212 59.6699ZM144.482 27.4334C142.952 32.3605 141.505 37.0351 140.04 41.7051C139.843 42.3292 140.094 42.425 140.636 42.4227C143.036 42.4087 145.436 42.4227 147.845 42.4227C149.294 42.4227 149.31 42.3993 148.847 41.0063C148.149 38.8863 147.408 36.771 146.754 34.644C146.012 32.3161 145.217 30.0161 144.482 27.4334Z" fill="var(--fill-0, #473DFF)"/>
<path id="Vector_4" d="M25.6233 88.3023H6.08868C2.56314 88.3023 0.444554 86.3507 0.158511 82.8049C-0.0856721 79.7033 0.000373424 76.5759 0.0747912 73.4626C0.123628 71.2468 2.13988 69.3185 4.41893 69.0333C8.04447 68.5799 11.6816 68.83 15.3118 68.7996C24.9187 68.7411 34.5279 68.7996 44.1348 68.837C45.4064 68.8557 46.6734 68.9966 47.9184 69.2577C50.5579 69.7906 52.4975 71.6768 52.523 74.8954C52.544 77.5412 52.5649 80.1894 52.523 82.8423C52.4905 85.3246 51.4184 86.7457 49.0952 87.5404C47.5964 88.0651 46.0195 88.3284 44.4324 88.3187C38.1767 88.2673 31.9 88.3 25.6233 88.3023ZM26.321 81.0916C32.2814 81.0916 38.2441 81.0636 44.2045 81.1174C45.2603 81.1174 45.5603 80.8135 45.458 79.8038C45.3691 78.9491 45.3691 78.0874 45.458 77.2327C45.5626 76.216 45.151 76.0383 44.2231 76.0407C33.0744 76.071 21.9257 76.0594 10.777 76.064C9.57933 76.064 7.98633 75.6527 7.28866 76.2627C6.5096 76.9639 7.16773 78.6141 7.01657 79.8365C6.88169 80.9234 7.3468 81.1127 8.32121 81.1057C14.3281 81.0706 20.3304 81.0916 26.3303 81.0916H26.321Z" fill="var(--fill-0, #473DFF)"/>
<path id="Vector_5" d="M162.268 15.735C165.74 15.735 169.028 15.8752 172.298 15.6812C174.226 15.5667 175.116 16.1837 175.861 17.9741C177.879 22.8171 180.154 27.5572 182.33 32.3301C182.456 32.6082 182.614 32.87 182.842 33.2977C183.793 31.3624 184.681 29.558 185.565 27.7582C187.384 24.0606 189.223 20.3722 190.995 16.6512C191.353 15.8986 191.774 15.6718 192.577 15.6835C196.135 15.7279 199.695 15.7022 203.407 15.7022C201.577 19.0306 199.837 22.2234 198.074 25.3998C194.973 30.9767 191.866 36.5466 188.751 42.1095C188.408 42.7154 188.235 43.4038 188.251 44.1009C188.251 48.8924 188.221 53.684 188.251 58.4755C188.251 59.3894 188 59.6839 187.088 59.6676C184.181 59.6185 181.274 59.6138 178.367 59.6676C177.456 59.6863 177.295 59.3544 177.3 58.527C177.328 53.7354 177.3 48.9439 177.3 44.1523C177.315 43.4552 177.144 42.7667 176.805 42.1586C172.795 34.9113 168.8 27.6546 164.819 20.3886C164.012 18.9161 163.203 17.4365 162.268 15.735Z" fill="var(--fill-0, #473DFF)"/>
<path id="Vector_6" d="M181.275 80.4792C183.087 81.1407 183.47 82.5992 183.6 84.2377C183.745 86.0374 183.431 87.9096 184.484 89.5762C184.735 89.9782 184.37 90.1979 183.947 90.2002C182.514 90.2002 181.08 90.2002 179.647 90.2353C178.984 90.2493 178.917 89.7678 178.821 89.3191C178.545 88.0172 178.54 86.6919 178.491 85.3666C178.414 83.2864 177.696 82.5945 175.615 82.5852C174.533 82.5852 173.126 82.2159 172.461 82.7535C171.796 83.2911 172.301 84.7916 172.256 85.8668C172.21 87.0355 172.212 88.2041 172.233 89.3728C172.233 89.9385 172.101 90.247 171.468 90.2353C170.229 90.2096 168.989 90.2072 167.747 90.2353C167.11 90.2493 166.98 89.9361 166.982 89.3752C167.001 83.0659 167.008 76.7551 167.003 70.4427C167.003 69.849 167.236 69.7415 167.752 69.7415C171.163 69.7672 174.573 69.7555 177.984 69.7812C178.526 69.803 179.066 69.8726 179.596 69.9893C181.701 70.3866 183.496 71.2841 184.031 73.5514C184.635 76.1108 184.219 78.4317 181.859 80.0375C181.703 80.1403 181.556 80.2619 181.275 80.4792ZM174.842 78.4785C175.652 78.4726 176.46 78.4218 177.263 78.3266C178.526 78.1162 179.103 77.2748 179.07 75.8934C179.042 74.7574 178.468 74.1123 177.18 73.9627C176.219 73.8742 175.255 73.8383 174.291 73.8552C172.229 73.8412 172.229 73.8552 172.247 75.8794C172.268 78.4341 172.268 78.4341 174.842 78.4785Z" fill="var(--fill-0, #473DFF)"/>
<path id="Vector_7" d="M189.421 83.3238C189.654 83.339 189.887 83.339 190.119 83.3238C191.219 83.1812 192.035 83.2817 192.133 84.7402C192.189 85.5676 192.875 86.194 193.682 86.5002C194.999 87.0097 196.459 87.003 197.772 86.4815C198.129 86.3676 198.437 86.1385 198.651 85.8299C198.864 85.5213 198.97 85.1505 198.951 84.7753C198.951 83.9479 198.442 83.5225 197.712 83.2841C195.835 82.674 193.949 82.0897 192.086 81.4329C190.224 80.7761 188.721 79.7523 187.756 77.9479C186.449 75.5054 187.261 73.2125 188.789 71.4945C189.052 71.2089 189.347 70.9541 189.668 70.7349C192.472 68.7201 197.747 68.6453 200.598 70.5783C201.332 71.0566 201.953 71.692 202.415 72.439C202.878 73.186 203.17 74.0263 203.272 74.9C203.375 75.6293 203.254 76.0126 202.417 75.9518C201.766 75.9134 201.113 75.9173 200.463 75.9635C199.321 76.0336 198.458 76.0547 197.954 74.5611C197.384 72.8735 193.691 72.6398 192.565 74.0422C191.989 74.7645 192.198 75.4446 192.838 75.9892C193.521 76.5829 194.349 76.9242 195.191 77.221C196.907 77.8287 198.63 78.413 200.335 79.0488C202.482 79.8505 203.784 81.3861 203.979 83.7001C204.198 86.3086 203.251 88.4963 200.847 89.5832C197.112 91.2684 193.263 91.5021 189.603 89.298C187.61 88.099 187.198 85.9556 186.868 83.8427C186.796 83.3752 187.124 83.3565 187.454 83.3565H189.431L189.421 83.3238Z" fill="var(--fill-0, #473DFF)"/>
<path id="Vector_8" d="M113.043 83.3264C113.275 83.3441 113.508 83.3441 113.74 83.3264C114.903 83.1487 115.696 83.3451 115.833 84.7966C115.917 85.6824 116.659 86.2738 117.519 86.5659C118.741 86.9797 120.065 86.9748 121.284 86.5519C122.089 86.2855 122.603 85.7151 122.626 84.834C122.65 83.9528 122.098 83.5157 121.326 83.2633C119.303 82.5995 117.268 81.9707 115.28 81.2345C113.391 80.5333 111.896 79.3365 111.208 77.3475C110.299 74.7273 111.282 71.8594 113.75 70.4967C116.978 68.7133 120.366 68.6853 123.684 70.2466C125.68 71.1816 126.743 72.9089 126.98 75.134C127.045 75.7487 126.847 75.9825 126.229 75.9544C125.531 75.9217 124.833 75.9544 124.136 75.9684C123.024 76.0082 122.112 76.125 121.624 74.5801C121.089 72.8972 117.387 72.6307 116.24 74.0284C115.666 74.7296 115.84 75.4145 116.487 75.9778C117.168 76.5738 117.994 76.9127 118.836 77.2189C120.584 77.8406 122.347 78.4273 124.084 79.0888C126.27 79.9185 127.538 81.5103 127.654 83.885C127.777 86.3836 126.882 88.5083 124.57 89.5601C120.801 91.2757 116.922 91.5304 113.231 89.2749C111.287 88.0852 110.873 85.9723 110.524 83.899C110.447 83.4316 110.726 83.3755 111.073 83.3731H113.047L113.043 83.3264Z" fill="var(--fill-0, #473DFF)"/>
<path id="Vector_9" d="M148.138 79.8996C148.138 76.8237 148.158 73.7501 148.121 70.6741C148.121 69.9963 148.219 69.7205 148.986 69.7275C153.556 69.7649 158.128 69.7579 162.707 69.7275C163.386 69.7275 163.698 69.8537 163.637 70.6204C163.57 71.4355 163.57 72.2548 163.637 73.0699C163.695 73.8202 163.386 73.9815 162.707 73.9744C159.916 73.9464 157.126 73.9908 154.335 73.9487C153.589 73.9487 153.356 74.1124 153.37 74.9024C153.419 77.4734 153.384 77.4734 155.893 77.4734C157.83 77.4734 159.768 77.5085 161.707 77.4734C162.47 77.4571 162.87 77.595 162.765 78.4855C162.658 79.4836 163.056 80.8229 162.549 81.4165C161.954 82.1177 160.589 81.6316 159.558 81.6503C157.816 81.697 156.07 81.7134 154.33 81.6503C153.535 81.6222 153.317 81.898 153.4 82.639C153.523 83.7048 152.935 85.1399 153.647 85.7523C154.256 86.2852 155.64 85.9369 156.67 85.9463C158.763 85.9673 160.856 85.993 162.949 85.965C163.647 85.965 164.04 86.0702 163.935 86.8999C163.809 87.933 164.351 89.2747 163.726 89.9385C163.1 90.6023 161.747 90.1535 160.716 90.1722C156.882 90.2096 153.042 90.1862 149.214 90.2306C148.363 90.2306 148.086 89.9969 148.103 89.1087C148.154 86.0351 148.121 82.9592 148.121 79.8832L148.138 79.8996Z" fill="var(--fill-0, #473DFF)"/>
<path id="Vector_10" d="M99.4569 69.7462C102.287 69.7462 102.289 69.7462 103.231 72.4154C105.147 77.8381 107.061 83.2607 108.973 88.6833C109.501 90.1862 109.494 90.1909 107.978 90.2096C106.894 90.226 105.81 90.2096 104.722 90.2563C104.064 90.2891 103.773 90.0226 103.559 89.4032C103.243 88.4519 103.248 87.1056 102.475 86.6662C101.703 86.2268 100.448 86.5073 99.408 86.4745H99.3011C98.2173 86.4932 96.9755 86.1847 96.0964 86.6171C95.1662 87.0846 95.3127 88.5314 94.9197 89.5248C94.7406 89.9759 94.5662 90.261 94.036 90.247C92.6825 90.2143 91.3267 90.1909 89.9709 90.2073C89.3895 90.2073 89.3174 89.9315 89.4593 89.485C89.9384 87.9564 90.3895 86.4138 90.9267 84.9085C92.1197 81.5918 93.3569 78.2892 94.5872 74.9865C95.1709 73.4182 95.8057 71.8662 96.3732 70.2908C96.5429 69.8233 96.8174 69.7298 97.2476 69.7415C97.9871 69.7602 98.722 69.7462 99.4569 69.7462ZM99.2615 75.2086C98.8545 76.5479 98.5313 77.5459 98.2592 78.5369C97.9383 79.7056 97.3522 80.8182 97.3011 82.0686C98.5685 82.0897 99.8359 82.1131 101.106 82.1294C101.173 82.1294 101.243 82.071 101.413 81.9962L99.2615 75.2086Z" fill="var(--fill-0, #473DFF)"/>
<path id="Vector_11" d="M137.487 69.7462C140.006 69.7462 142.524 69.7672 145.043 69.7322C145.705 69.7322 145.947 69.9215 145.871 70.5923C145.745 71.6628 146.336 73.0512 145.624 73.736C144.98 74.3578 143.629 73.9113 142.589 73.923C140.071 73.9511 140.08 73.937 140.08 76.4146C140.08 80.6218 140.043 84.829 140.08 89.0363C140.08 89.9104 139.894 90.3195 138.938 90.2493C137.931 90.1838 136.922 90.1838 135.915 90.2493C135.082 90.2961 134.78 90.06 134.789 89.1508C134.833 84.4387 134.789 79.7243 134.824 75.0122C134.824 74.1755 134.708 73.8436 133.782 73.9067C132.471 74.0002 131.147 73.895 129.829 73.9394C129.154 73.9604 128.952 73.7057 128.994 73.0652C129.066 72.3276 129.066 71.5847 128.994 70.8471C128.861 69.8444 129.317 69.7135 130.157 69.7322C132.601 69.7789 135.045 69.7462 137.487 69.7462Z" fill="var(--fill-0, #473DFF)"/>
<path id="Vector_12" d="M72.5275 84.5813L67.4717 72.336C67.0368 71.2842 66.5671 70.2324 66.1857 69.1689C65.9322 68.4677 65.5671 68.234 64.8113 68.3602C62.8252 68.678 60.8253 68.9118 58.8299 69.1736C58.3858 69.232 57.7811 69.433 57.9206 68.6313C58.016 68.0867 57.3253 67.112 58.6509 67.1167C63.8369 67.1338 69.0244 67.1377 74.2135 67.1284C74.6298 67.1284 74.96 67.0933 74.8693 67.7338C74.0879 73.2265 73.3367 78.7263 72.5275 84.5813Z" fill="var(--fill-0, #473DFF)"/>
<path id="Vector_13" d="M71.2759 91.7359C72.6852 91.5489 74.0945 91.3479 75.5061 91.1796C76.1015 91.1095 76.4642 90.9459 76.5456 90.2306C77.0991 85.2451 77.7084 80.2619 78.2945 75.2717C78.3945 74.4349 78.5665 73.6075 78.7061 72.7754L78.7875 72.7614C78.773 72.7882 78.7635 72.8175 78.7596 72.8478C79.3797 78.0196 80.0053 83.1921 80.6363 88.3654C80.8874 90.469 80.8688 90.469 82.92 90.2002C83.4912 90.104 84.0672 90.04 84.6456 90.0086C85.1107 90.0086 85.8525 89.3588 85.9083 90.448C85.9479 91.2053 86.12 91.9906 84.8107 91.9416C82.2153 91.8481 79.6154 91.9416 77.0177 91.9416C75.1201 91.9416 73.2216 91.9416 71.3224 91.9416L71.2759 91.7359Z" fill="var(--fill-0, #473DFF)"/>
<path id="Vector_14" d="M68.0039 91.9416C65.9365 91.9649 65.9341 91.9649 65.6597 89.9665L64.0132 77.9643C63.951 77.7394 63.9151 77.508 63.9062 77.2748C63.9481 76.8681 63.2202 76.3398 63.8946 76.1178C64.3597 75.9659 64.3876 76.7068 64.5295 77.0667C66.3248 81.6105 68.1078 86.1605 69.8783 90.7168C70.3434 91.9299 70.3434 91.9299 69.0504 91.9416H68.0039Z" fill="var(--fill-0, #473DFF)"/>
<path id="Vector_15" d="M57.9365 88.3514C57.9365 87.4165 57.9645 86.4816 57.9365 85.5466C57.9133 85.0511 58.0389 84.8454 58.5621 84.8454C59.0272 84.8454 59.2435 84.9483 59.3016 85.4718C59.5109 87.3651 59.7668 89.2536 60.0319 91.1399C60.1063 91.6611 60.0621 92.0491 59.4435 91.9065C58.9179 91.7873 57.9947 92.4558 57.9482 91.2637C57.911 90.2937 57.9482 89.3191 57.9482 88.3467L57.9365 88.3514Z" fill="var(--fill-0, #473DFF)"/>
<path id="Vector_16" d="M83.2716 67.2826C85.9204 66.9998 85.9204 66.9998 85.925 69.4073C85.925 70.6858 85.9436 71.9643 85.925 73.2405C85.925 73.6519 86.1436 74.1754 85.3576 74.2502C84.5715 74.325 84.4901 73.8576 84.4274 73.2779C84.2553 71.7773 84.0576 70.2814 83.8715 68.7832C83.8064 68.2947 83.825 67.7828 83.2716 67.2826Z" fill="var(--fill-0, #473DFF)"/>
</g>
<defs>
<clipPath id="clip0_0_556">
<rect width="204" height="92" fill="white"/>
</clipPath>
</defs>
</svg>
