<svg preserveAspectRatio="none" width="100%" height="100%" overflow="visible" style="display: block;" viewBox="0 0 15.9965 15.9965" fill="none" xmlns="http://www.w3.org/2000/svg">
<g id="Icon" clip-path="url(#clip0_0_19)">
<path id="Vector" d="M7.99825 -1.86443e-07C6.34898 0.00196537 4.7678 0.664694 3.60159 1.84281C2.43537 3.02093 1.77934 4.61823 1.77739 6.28434C1.77588 7.64581 2.21608 8.9703 3.03062 10.055C3.03062 10.055 3.20027 10.2806 3.22799 10.3132L7.99825 15.9965L12.7708 10.3103C12.7957 10.2801 12.9659 10.055 12.9659 10.055L12.9665 10.0533C13.7805 8.96897 14.2204 7.64515 14.2191 6.28434C14.2172 4.61823 13.5611 3.02093 12.3949 1.84281C11.2287 0.664694 9.64752 0.00196537 7.99825 -1.86443e-07ZM7.99825 8.56956C7.55085 8.56956 7.11348 8.43553 6.74148 8.18442C6.36948 7.93332 6.07953 7.57642 5.90832 7.15885C5.7371 6.74128 5.6923 6.28181 5.77959 5.83852C5.86687 5.39523 6.08232 4.98804 6.39868 4.66845C6.71505 4.34885 7.11812 4.13121 7.55693 4.04304C7.99574 3.95486 8.45058 4.00011 8.86393 4.17308C9.27728 4.34604 9.63058 4.63894 9.87915 5.01474C10.1277 5.39054 10.2604 5.83237 10.2604 6.28434C10.2596 6.89018 10.0211 7.471 9.59699 7.89939C9.17293 8.3278 8.59798 8.5688 7.99825 8.56956Z" fill="var(--fill-0, white)"/>
</g>
<defs>
<clipPath id="clip0_0_19">
<rect width="15.9965" height="15.9965" fill="white"/>
</clipPath>
</defs>
</svg>
