<svg preserveAspectRatio="none" width="100%" height="100%" overflow="visible" style="display: block;" viewBox="0 0 900 441" fill="none" xmlns="http://www.w3.org/2000/svg">
<g id="Vector" style="mix-blend-mode:overlay">
<path d="M20.9318 0.5H0.5V23.6579M20.9318 0.5V23.6579M20.9318 0.5H41.3636M20.9318 23.6579H0.5M20.9318 23.6579V46.8158M20.9318 23.6579H41.3636M0.5 23.6579V46.8158M20.9318 46.8158H0.5M20.9318 46.8158V69.9737M20.9318 46.8158H41.3636M0.5 46.8158V69.9737M20.9318 69.9737H0.5M20.9318 69.9737V93.1316M20.9318 69.9737H41.3636M0.5 69.9737V93.1316M20.9318 93.1316H0.5M20.9318 93.1316V116.289M20.9318 93.1316H41.3636M0.5 93.1316V116.289M20.9318 116.289H0.5M20.9318 116.289V139.447M20.9318 116.289H41.3636M0.5 116.289V139.447M20.9318 139.447H0.5M20.9318 139.447V162.605M20.9318 139.447H41.3636M0.5 139.447V162.605M20.9318 162.605H0.5M20.9318 162.605V185.763M20.9318 162.605H41.3636M0.5 162.605V185.763M20.9318 185.763H0.5M20.9318 185.763V208.921M20.9318 185.763H41.3636M0.5 185.763V208.921M20.9318 208.921H0.5M20.9318 208.921V232.079M20.9318 208.921H41.3636M0.5 208.921V232.079M20.9318 232.079H0.5M20.9318 232.079V255.237M20.9318 232.079H41.3636M0.5 232.079V255.237M20.9318 255.237H0.5M20.9318 255.237V278.395M20.9318 255.237H41.3636M0.5 255.237V278.395M20.9318 278.395H0.5M20.9318 278.395V301.553M20.9318 278.395H41.3636M0.5 278.395V301.553M20.9318 301.553H0.5M20.9318 301.553V324.71M20.9318 301.553H41.3636M0.5 301.553V324.71M20.9318 324.71H0.5M20.9318 324.71V347.868M20.9318 324.71H41.3636M0.5 324.71V347.868M20.9318 347.868H0.5M20.9318 347.868V371.026M20.9318 347.868H41.3636M0.5 347.868V371.026M20.9318 371.026H0.5M20.9318 371.026V394.184M20.9318 371.026H41.3636M0.5 371.026V394.184M20.9318 394.184H0.5M20.9318 394.184V417.342M20.9318 394.184H41.3636M0.5 394.184V417.342M20.9318 417.342H0.5M20.9318 417.342V440.5M20.9318 417.342H41.3636M0.5 417.342V440.5H20.9318M20.9318 440.5H41.3636M41.3636 0.5V23.6579M41.3636 0.5H61.7955M41.3636 23.6579V46.8158M41.3636 23.6579H61.7955M41.3636 46.8158V69.9737M41.3636 46.8158H61.7955M41.3636 69.9737V93.1316M41.3636 69.9737H61.7955M41.3636 93.1316V116.289M41.3636 93.1316H61.7955M41.3636 116.289V139.447M41.3636 116.289H61.7955M41.3636 139.447V162.605M41.3636 139.447H61.7955M41.3636 162.605V185.763M41.3636 162.605H61.7955M41.3636 185.763V208.921M41.3636 185.763H61.7955M41.3636 208.921V232.079M41.3636 208.921H61.7955M41.3636 232.079V255.237M41.3636 232.079H61.7955M41.3636 255.237V278.395M41.3636 255.237H61.7955M41.3636 278.395V301.553M41.3636 278.395H61.7955M41.3636 301.553V324.71M41.3636 301.553H61.7955M41.3636 324.71V347.868M41.3636 324.71H61.7955M41.3636 347.868V371.026M41.3636 347.868H61.7955M41.3636 371.026V394.184M41.3636 371.026H61.7955M41.3636 394.184V417.342M41.3636 394.184H61.7955M41.3636 417.342V440.5M41.3636 417.342H61.7955M41.3636 440.5H61.7955M61.7955 0.5V23.6579M61.7955 0.5H82.2273M61.7955 23.6579V46.8158M61.7955 23.6579H82.2273M61.7955 46.8158V69.9737M61.7955 46.8158H82.2273M61.7955 69.9737V93.1316M61.7955 69.9737H82.2273M61.7955 93.1316V116.289M61.7955 93.1316H82.2273M61.7955 116.289V139.447M61.7955 116.289H82.2273M61.7955 139.447V162.605M61.7955 139.447H82.2273M61.7955 162.605V185.763M61.7955 162.605H82.2273M61.7955 185.763V208.921M61.7955 185.763H82.2273M61.7955 208.921V232.079M61.7955 208.921H82.2273M61.7955 232.079V255.237M61.7955 232.079H82.2273M61.7955 255.237V278.395M61.7955 255.237H82.2273M61.7955 278.395V301.553M61.7955 278.395H82.2273M61.7955 301.553V324.71M61.7955 301.553H82.2273M61.7955 324.71V347.868M61.7955 324.71H82.2273M61.7955 347.868V371.026M61.7955 347.868H82.2273M61.7955 371.026V394.184M61.7955 371.026H82.2273M61.7955 394.184V417.342M61.7955 394.184H82.2273M61.7955 417.342V440.5M61.7955 417.342H82.2273M61.7955 440.5H82.2273M82.2273 0.5V23.6579M82.2273 0.5H102.659M82.2273 23.6579V46.8158M82.2273 23.6579H102.659M82.2273 46.8158V69.9737M82.2273 46.8158H102.659M82.2273 69.9737V93.1316M82.2273 69.9737H102.659M82.2273 93.1316V116.289M82.2273 93.1316H102.659M82.2273 116.289V139.447M82.2273 116.289H102.659M82.2273 139.447V162.605M82.2273 139.447H102.659M82.2273 162.605V185.763M82.2273 162.605H102.659M82.2273 185.763V208.921M82.2273 185.763H102.659M82.2273 208.921V232.079M82.2273 208.921H102.659M82.2273 232.079V255.237M82.2273 232.079H102.659M82.2273 255.237V278.395M82.2273 255.237H102.659M82.2273 278.395V301.553M82.2273 278.395H102.659M82.2273 301.553V324.71M82.2273 301.553H102.659M82.2273 324.71V347.868M82.2273 324.71H102.659M82.2273 347.868V371.026M82.2273 347.868H102.659M82.2273 371.026V394.184M82.2273 371.026H102.659M82.2273 394.184V417.342M82.2273 394.184H102.659M82.2273 417.342V440.5M82.2273 417.342H102.659M82.2273 440.5H102.659M102.659 0.5V23.6579M102.659 0.5H123.091M102.659 23.6579V46.8158M102.659 23.6579H123.091M102.659 46.8158V69.9737M102.659 46.8158H123.091M102.659 69.9737V93.1316M102.659 69.9737H123.091M102.659 93.1316V116.289M102.659 93.1316H123.091M102.659 116.289V139.447M102.659 116.289H123.091M102.659 139.447V162.605M102.659 139.447H123.091M102.659 162.605V185.763M102.659 162.605H123.091M102.659 185.763V208.921M102.659 185.763H123.091M102.659 208.921V232.079M102.659 208.921H123.091M102.659 232.079V255.237M102.659 232.079H123.091M102.659 255.237V278.395M102.659 255.237H123.091M102.659 278.395V301.553M102.659 278.395H123.091M102.659 301.553V324.71M102.659 301.553H123.091M102.659 324.71V347.868M102.659 324.71H123.091M102.659 347.868V371.026M102.659 347.868H123.091M102.659 371.026V394.184M102.659 371.026H123.091M102.659 394.184V417.342M102.659 394.184H123.091M102.659 417.342V440.5M102.659 417.342H123.091M102.659 440.5H123.091M123.091 0.5V23.6579M123.091 0.5H143.523M123.091 23.6579V46.8158M123.091 23.6579H143.523M123.091 46.8158V69.9737M123.091 46.8158H143.523M123.091 69.9737V93.1316M123.091 69.9737H143.523M123.091 93.1316V116.289M123.091 93.1316H143.523M123.091 116.289V139.447M123.091 116.289H143.523M123.091 139.447V162.605M123.091 139.447H143.523M123.091 162.605V185.763M123.091 162.605H143.523M123.091 185.763V208.921M123.091 185.763H143.523M123.091 208.921V232.079M123.091 208.921H143.523M123.091 232.079V255.237M123.091 232.079H143.523M123.091 255.237V278.395M123.091 255.237H143.523M123.091 278.395V301.553M123.091 278.395H143.523M123.091 301.553V324.71M123.091 301.553H143.523M123.091 324.71V347.868M123.091 324.71H143.523M123.091 347.868V371.026M123.091 347.868H143.523M123.091 371.026V394.184M123.091 371.026H143.523M123.091 394.184V417.342M123.091 394.184H143.523M123.091 417.342V440.5M123.091 417.342H143.523M123.091 440.5H143.523M143.523 0.5V23.6579M143.523 0.5H163.955M143.523 23.6579V46.8158M143.523 23.6579H163.955M143.523 46.8158V69.9737M143.523 46.8158H163.955M143.523 69.9737V93.1316M143.523 69.9737H163.955M143.523 93.1316V116.289M143.523 93.1316H163.955M143.523 116.289V139.447M143.523 116.289H163.955M143.523 139.447V162.605M143.523 139.447H163.955M143.523 162.605V185.763M143.523 162.605H163.955M143.523 185.763V208.921M143.523 185.763H163.955M143.523 208.921V232.079M143.523 208.921H163.955M143.523 232.079V255.237M143.523 232.079H163.955M143.523 255.237V278.395M143.523 255.237H163.955M143.523 278.395V301.553M143.523 278.395H163.955M143.523 301.553V324.71M143.523 301.553H163.955M143.523 324.71V347.868M143.523 324.71H163.955M143.523 347.868V371.026M143.523 347.868H163.955M143.523 371.026V394.184M143.523 371.026H163.955M143.523 394.184V417.342M143.523 394.184H163.955M143.523 417.342V440.5M143.523 417.342H163.955M143.523 440.5H163.955M163.955 0.5V23.6579M163.955 0.5H184.386M163.955 23.6579V46.8158M163.955 23.6579H184.386M163.955 46.8158V69.9737M163.955 46.8158H184.386M163.955 69.9737V93.1316M163.955 69.9737H184.386M163.955 93.1316V116.289M163.955 93.1316H184.386M163.955 116.289V139.447M163.955 116.289H184.386M163.955 139.447V162.605M163.955 139.447H184.386M163.955 162.605V185.763M163.955 162.605H184.386M163.955 185.763V208.921M163.955 185.763H184.386M163.955 208.921V232.079M163.955 208.921H184.386M163.955 232.079V255.237M163.955 232.079H184.386M163.955 255.237V278.395M163.955 255.237H184.386M163.955 278.395V301.553M163.955 278.395H184.386M163.955 301.553V324.71M163.955 301.553H184.386M163.955 324.71V347.868M163.955 324.71H184.386M163.955 347.868V371.026M163.955 347.868H184.386M163.955 371.026V394.184M163.955 371.026H184.386M163.955 394.184V417.342M163.955 394.184H184.386M163.955 417.342V440.5M163.955 417.342H184.386M163.955 440.5H184.386M184.386 0.5V23.6579M184.386 0.5H204.818M184.386 23.6579V46.8158M184.386 23.6579H204.818M184.386 46.8158V69.9737M184.386 46.8158H204.818M184.386 69.9737V93.1316M184.386 69.9737H204.818M184.386 93.1316V116.289M184.386 93.1316H204.818M184.386 116.289V139.447M184.386 116.289H204.818M184.386 139.447V162.605M184.386 139.447H204.818M184.386 162.605V185.763M184.386 162.605H204.818M184.386 185.763V208.921M184.386 185.763H204.818M184.386 208.921V232.079M184.386 208.921H204.818M184.386 232.079V255.237M184.386 232.079H204.818M184.386 255.237V278.395M184.386 255.237H204.818M184.386 278.395V301.553M184.386 278.395H204.818M184.386 301.553V324.71M184.386 301.553H204.818M184.386 324.71V347.868M184.386 324.71H204.818M184.386 347.868V371.026M184.386 347.868H204.818M184.386 371.026V394.184M184.386 371.026H204.818M184.386 394.184V417.342M184.386 394.184H204.818M184.386 417.342V440.5M184.386 417.342H204.818M184.386 440.5H204.818M204.818 0.5V23.6579M204.818 0.5H225.25M204.818 23.6579V46.8158M204.818 23.6579H225.25M204.818 46.8158V69.9737M204.818 46.8158H225.25M204.818 69.9737V93.1316M204.818 69.9737H225.25M204.818 93.1316V116.289M204.818 93.1316H225.25M204.818 116.289V139.447M204.818 116.289H225.25M204.818 139.447V162.605M204.818 139.447H225.25M204.818 162.605V185.763M204.818 162.605H225.25M204.818 185.763V208.921M204.818 185.763H225.25M204.818 208.921V232.079M204.818 208.921H225.25M204.818 232.079V255.237M204.818 232.079H225.25M204.818 255.237V278.395M204.818 255.237H225.25M204.818 278.395V301.553M204.818 278.395H225.25M204.818 301.553V324.71M204.818 301.553H225.25M204.818 324.71V347.868M204.818 324.71H225.25M204.818 347.868V371.026M204.818 347.868H225.25M204.818 371.026V394.184M204.818 371.026H225.25M204.818 394.184V417.342M204.818 394.184H225.25M204.818 417.342V440.5M204.818 417.342H225.25M204.818 440.5H225.25M225.25 0.5V23.6579M225.25 0.5H245.682M225.25 23.6579V46.8158M225.25 23.6579H245.682M225.25 46.8158V69.9737M225.25 46.8158H245.682M225.25 69.9737V93.1316M225.25 69.9737H245.682M225.25 93.1316V116.289M225.25 93.1316H245.682M225.25 116.289V139.447M225.25 116.289H245.682M225.25 139.447V162.605M225.25 139.447H245.682M225.25 162.605V185.763M225.25 162.605H245.682M225.25 185.763V208.921M225.25 185.763H245.682M225.25 208.921V232.079M225.25 208.921H245.682M225.25 232.079V255.237M225.25 232.079H245.682M225.25 255.237V278.395M225.25 255.237H245.682M225.25 278.395V301.553M225.25 278.395H245.682M225.25 301.553V324.71M225.25 301.553H245.682M225.25 324.71V347.868M225.25 324.71H245.682M225.25 347.868V371.026M225.25 347.868H245.682M225.25 371.026V394.184M225.25 371.026H245.682M225.25 394.184V417.342M225.25 394.184H245.682M225.25 417.342V440.5M225.25 417.342H245.682M225.25 440.5H245.682M245.682 0.5V23.6579M245.682 0.5H266.114M245.682 23.6579V46.8158M245.682 23.6579H266.114M245.682 46.8158V69.9737M245.682 46.8158H266.114M245.682 69.9737V93.1316M245.682 69.9737H266.114M245.682 93.1316V116.289M245.682 93.1316H266.114M245.682 116.289V139.447M245.682 116.289H266.114M245.682 139.447V162.605M245.682 139.447H266.114M245.682 162.605V185.763M245.682 162.605H266.114M245.682 185.763V208.921M245.682 185.763H266.114M245.682 208.921V232.079M245.682 208.921H266.114M245.682 232.079V255.237M245.682 232.079H266.114M245.682 255.237V278.395M245.682 255.237H266.114M245.682 278.395V301.553M245.682 278.395H266.114M245.682 301.553V324.71M245.682 301.553H266.114M245.682 324.71V347.868M245.682 324.71H266.114M245.682 347.868V371.026M245.682 347.868H266.114M245.682 371.026V394.184M245.682 371.026H266.114M245.682 394.184V417.342M245.682 394.184H266.114M245.682 417.342V440.5M245.682 417.342H266.114M245.682 440.5H266.114M266.114 0.5V23.6579M266.114 0.5H286.545M266.114 23.6579V46.8158M266.114 23.6579H286.545M266.114 46.8158V69.9737M266.114 46.8158H286.545M266.114 69.9737V93.1316M266.114 69.9737H286.545M266.114 93.1316V116.289M266.114 93.1316H286.545M266.114 116.289V139.447M266.114 116.289H286.545M266.114 139.447V162.605M266.114 139.447H286.545M266.114 162.605V185.763M266.114 162.605H286.545M266.114 185.763V208.921M266.114 185.763H286.545M266.114 208.921V232.079M266.114 208.921H286.545M266.114 232.079V255.237M266.114 232.079H286.545M266.114 255.237V278.395M266.114 255.237H286.545M266.114 278.395V301.553M266.114 278.395H286.545M266.114 301.553V324.71M266.114 301.553H286.545M266.114 324.71V347.868M266.114 324.71H286.545M266.114 347.868V371.026M266.114 347.868H286.545M266.114 371.026V394.184M266.114 371.026H286.545M266.114 394.184V417.342M266.114 394.184H286.545M266.114 417.342V440.5M266.114 417.342H286.545M266.114 440.5H286.545M286.545 0.5V23.6579M286.545 0.5H306.977M286.545 23.6579V46.8158M286.545 23.6579H306.977M286.545 46.8158V69.9737M286.545 46.8158H306.977M286.545 69.9737V93.1316M286.545 69.9737H306.977M286.545 93.1316V116.289M286.545 93.1316H306.977M286.545 116.289V139.447M286.545 116.289H306.977M286.545 139.447V162.605M286.545 139.447H306.977M286.545 162.605V185.763M286.545 162.605H306.977M286.545 185.763V208.921M286.545 185.763H306.977M286.545 208.921V232.079M286.545 208.921H306.977M286.545 232.079V255.237M286.545 232.079H306.977M286.545 255.237V278.395M286.545 255.237H306.977M286.545 278.395V301.553M286.545 278.395H306.977M286.545 301.553V324.71M286.545 301.553H306.977M286.545 324.71V347.868M286.545 324.71H306.977M286.545 347.868V371.026M286.545 347.868H306.977M286.545 371.026V394.184M286.545 371.026H306.977M286.545 394.184V417.342M286.545 394.184H306.977M286.545 417.342V440.5M286.545 417.342H306.977M286.545 440.5H306.977M306.977 0.5V23.6579M306.977 0.5H327.409M306.977 23.6579V46.8158M306.977 23.6579H327.409M306.977 46.8158V69.9737M306.977 46.8158H327.409M306.977 69.9737V93.1316M306.977 69.9737H327.409M306.977 93.1316V116.289M306.977 93.1316H327.409M306.977 116.289V139.447M306.977 116.289H327.409M306.977 139.447V162.605M306.977 139.447H327.409M306.977 162.605V185.763M306.977 162.605H327.409M306.977 185.763V208.921M306.977 185.763H327.409M306.977 208.921V232.079M306.977 208.921H327.409M306.977 232.079V255.237M306.977 232.079H327.409M306.977 255.237V278.395M306.977 255.237H327.409M306.977 278.395V301.553M306.977 278.395H327.409M306.977 301.553V324.71M306.977 301.553H327.409M306.977 324.71V347.868M306.977 324.71H327.409M306.977 347.868V371.026M306.977 347.868H327.409M306.977 371.026V394.184M306.977 371.026H327.409M306.977 394.184V417.342M306.977 394.184H327.409M306.977 417.342V440.5M306.977 417.342H327.409M306.977 440.5H327.409M327.409 0.5V23.6579M327.409 0.5H347.841M327.409 23.6579V46.8158M327.409 23.6579H347.841M327.409 46.8158V69.9737M327.409 46.8158H347.841M327.409 69.9737V93.1316M327.409 69.9737H347.841M327.409 93.1316V116.289M327.409 93.1316H347.841M327.409 116.289V139.447M327.409 116.289H347.841M327.409 139.447V162.605M327.409 139.447H347.841M327.409 162.605V185.763M327.409 162.605H347.841M327.409 185.763V208.921M327.409 185.763H347.841M327.409 208.921V232.079M327.409 208.921H347.841M327.409 232.079V255.237M327.409 232.079H347.841M327.409 255.237V278.395M327.409 255.237H347.841M327.409 278.395V301.553M327.409 278.395H347.841M327.409 301.553V324.71M327.409 301.553H347.841M327.409 324.71V347.868M327.409 324.71H347.841M327.409 347.868V371.026M327.409 347.868H347.841M327.409 371.026V394.184M327.409 371.026H347.841M327.409 394.184V417.342M327.409 394.184H347.841M327.409 417.342V440.5M327.409 417.342H347.841M327.409 440.5H347.841M347.841 0.5V23.6579M347.841 0.5H368.273M347.841 23.6579V46.8158M347.841 23.6579H368.273M347.841 46.8158V69.9737M347.841 46.8158H368.273M347.841 69.9737V93.1316M347.841 69.9737H368.273M347.841 93.1316V116.289M347.841 93.1316H368.273M347.841 116.289V139.447M347.841 116.289H368.273M347.841 139.447V162.605M347.841 139.447H368.273M347.841 162.605V185.763M347.841 162.605H368.273M347.841 185.763V208.921M347.841 185.763H368.273M347.841 208.921V232.079M347.841 208.921H368.273M347.841 232.079V255.237M347.841 232.079H368.273M347.841 255.237V278.395M347.841 255.237H368.273M347.841 278.395V301.553M347.841 278.395H368.273M347.841 301.553V324.71M347.841 301.553H368.273M347.841 324.71V347.868M347.841 324.71H368.273M347.841 347.868V371.026M347.841 347.868H368.273M347.841 371.026V394.184M347.841 371.026H368.273M347.841 394.184V417.342M347.841 394.184H368.273M347.841 417.342V440.5M347.841 417.342H368.273M347.841 440.5H368.273M368.273 0.5V23.6579M368.273 0.5H388.705M368.273 23.6579V46.8158M368.273 23.6579H388.705M368.273 46.8158V69.9737M368.273 46.8158H388.705M368.273 69.9737V93.1316M368.273 69.9737H388.705M368.273 93.1316V116.289M368.273 93.1316H388.705M368.273 116.289V139.447M368.273 116.289H388.705M368.273 139.447V162.605M368.273 139.447H388.705M368.273 162.605V185.763M368.273 162.605H388.705M368.273 185.763V208.921M368.273 185.763H388.705M368.273 208.921V232.079M368.273 208.921H388.705M368.273 232.079V255.237M368.273 232.079H388.705M368.273 255.237V278.395M368.273 255.237H388.705M368.273 278.395V301.553M368.273 278.395H388.705M368.273 301.553V324.71M368.273 301.553H388.705M368.273 324.71V347.868M368.273 324.71H388.705M368.273 347.868V371.026M368.273 347.868H388.705M368.273 371.026V394.184M368.273 371.026H388.705M368.273 394.184V417.342M368.273 394.184H388.705M368.273 417.342V440.5M368.273 417.342H388.705M368.273 440.5H388.705M388.705 0.5V23.6579M388.705 0.5H409.136M388.705 23.6579V46.8158M388.705 23.6579H409.136M388.705 46.8158V69.9737M388.705 46.8158H409.136M388.705 69.9737V93.1316M388.705 69.9737H409.136M388.705 93.1316V116.289M388.705 93.1316H409.136M388.705 116.289V139.447M388.705 116.289H409.136M388.705 139.447V162.605M388.705 139.447H409.136M388.705 162.605V185.763M388.705 162.605H409.136M388.705 185.763V208.921M388.705 185.763H409.136M388.705 208.921V232.079M388.705 208.921H409.136M388.705 232.079V255.237M388.705 232.079H409.136M388.705 255.237V278.395M388.705 255.237H409.136M388.705 278.395V301.553M388.705 278.395H409.136M388.705 301.553V324.71M388.705 301.553H409.136M388.705 324.71V347.868M388.705 324.71H409.136M388.705 347.868V371.026M388.705 347.868H409.136M388.705 371.026V394.184M388.705 371.026H409.136M388.705 394.184V417.342M388.705 394.184H409.136M388.705 417.342V440.5M388.705 417.342H409.136M388.705 440.5H409.136M409.136 0.5V23.6579M409.136 0.5H429.568M409.136 23.6579V46.8158M409.136 23.6579H429.568M409.136 46.8158V69.9737M409.136 46.8158H429.568M409.136 69.9737V93.1316M409.136 69.9737H429.568M409.136 93.1316V116.289M409.136 93.1316H429.568M409.136 116.289V139.447M409.136 116.289H429.568M409.136 139.447V162.605M409.136 139.447H429.568M409.136 162.605V185.763M409.136 162.605H429.568M409.136 185.763V208.921M409.136 185.763H429.568M409.136 208.921V232.079M409.136 208.921H429.568M409.136 232.079V255.237M409.136 232.079H429.568M409.136 255.237V278.395M409.136 255.237H429.568M409.136 278.395V301.553M409.136 278.395H429.568M409.136 301.553V324.71M409.136 301.553H429.568M409.136 324.71V347.868M409.136 324.71H429.568M409.136 347.868V371.026M409.136 347.868H429.568M409.136 371.026V394.184M409.136 371.026H429.568M409.136 394.184V417.342M409.136 394.184H429.568M409.136 417.342V440.5M409.136 417.342H429.568M409.136 440.5H429.568M429.568 0.5V23.6579M429.568 0.5H450M429.568 23.6579V46.8158M429.568 23.6579H450M429.568 46.8158V69.9737M429.568 46.8158H450M429.568 69.9737V93.1316M429.568 69.9737H450M429.568 93.1316V116.289M429.568 93.1316H450M429.568 116.289V139.447M429.568 116.289H450M429.568 139.447V162.605M429.568 139.447H450M429.568 162.605V185.763M429.568 162.605H450M429.568 185.763V208.921M429.568 185.763H450M429.568 208.921V232.079M429.568 208.921H450M429.568 232.079V255.237M429.568 232.079H450M429.568 255.237V278.395M429.568 255.237H450M429.568 278.395V301.553M429.568 278.395H450M429.568 301.553V324.71M429.568 301.553H450M429.568 324.71V347.868M429.568 324.71H450M429.568 347.868V371.026M429.568 347.868H450M429.568 371.026V394.184M429.568 371.026H450M429.568 394.184V417.342M429.568 394.184H450M429.568 417.342V440.5M429.568 417.342H450M429.568 440.5H450M450 0.5V23.6579M450 0.5H470.432M450 23.6579V46.8158M450 23.6579H470.432M450 46.8158V69.9737M450 46.8158H470.432M450 69.9737V93.1316M450 69.9737H470.432M450 93.1316V116.289M450 93.1316H470.432M450 116.289V139.447M450 116.289H470.432M450 139.447V162.605M450 139.447H470.432M450 162.605V185.763M450 162.605H470.432M450 185.763V208.921M450 185.763H470.432M450 208.921V232.079M450 208.921H470.432M450 232.079V255.237M450 232.079H470.432M450 255.237V278.395M450 255.237H470.432M450 278.395V301.553M450 278.395H470.432M450 301.553V324.71M450 301.553H470.432M450 324.71V347.868M450 324.71H470.432M450 347.868V371.026M450 347.868H470.432M450 371.026V394.184M450 371.026H470.432M450 394.184V417.342M450 394.184H470.432M450 417.342V440.5M450 417.342H470.432M450 440.5H470.432M470.432 0.5V23.6579M470.432 0.5H490.864M470.432 23.6579V46.8158M470.432 23.6579H490.864M470.432 46.8158V69.9737M470.432 46.8158H490.864M470.432 69.9737V93.1316M470.432 69.9737H490.864M470.432 93.1316V116.289M470.432 93.1316H490.864M470.432 116.289V139.447M470.432 116.289H490.864M470.432 139.447V162.605M470.432 139.447H490.864M470.432 162.605V185.763M470.432 162.605H490.864M470.432 185.763V208.921M470.432 185.763H490.864M470.432 208.921V232.079M470.432 208.921H490.864M470.432 232.079V255.237M470.432 232.079H490.864M470.432 255.237V278.395M470.432 255.237H490.864M470.432 278.395V301.553M470.432 278.395H490.864M470.432 301.553V324.71M470.432 301.553H490.864M470.432 324.71V347.868M470.432 324.71H490.864M470.432 347.868V371.026M470.432 347.868H490.864M470.432 371.026V394.184M470.432 371.026H490.864M470.432 394.184V417.342M470.432 394.184H490.864M470.432 417.342V440.5M470.432 417.342H490.864M470.432 440.5H490.864M490.864 0.5V23.6579M490.864 0.5H511.295M490.864 23.6579V46.8158M490.864 23.6579H511.295M490.864 46.8158V69.9737M490.864 46.8158H511.295M490.864 69.9737V93.1316M490.864 69.9737H511.295M490.864 93.1316V116.289M490.864 93.1316H511.295M490.864 116.289V139.447M490.864 116.289H511.295M490.864 139.447V162.605M490.864 139.447H511.295M490.864 162.605V185.763M490.864 162.605H511.295M490.864 185.763V208.921M490.864 185.763H511.295M490.864 208.921V232.079M490.864 208.921H511.295M490.864 232.079V255.237M490.864 232.079H511.295M490.864 255.237V278.395M490.864 255.237H511.295M490.864 278.395V301.553M490.864 278.395H511.295M490.864 301.553V324.71M490.864 301.553H511.295M490.864 324.71V347.868M490.864 324.71H511.295M490.864 347.868V371.026M490.864 347.868H511.295M490.864 371.026V394.184M490.864 371.026H511.295M490.864 394.184V417.342M490.864 394.184H511.295M490.864 417.342V440.5M490.864 417.342H511.295M490.864 440.5H511.295M511.295 0.5V23.6579M511.295 0.5H531.727M511.295 23.6579V46.8158M511.295 23.6579H531.727M511.295 46.8158V69.9737M511.295 46.8158H531.727M511.295 69.9737V93.1316M511.295 69.9737H531.727M511.295 93.1316V116.289M511.295 93.1316H531.727M511.295 116.289V139.447M511.295 116.289H531.727M511.295 139.447V162.605M511.295 139.447H531.727M511.295 162.605V185.763M511.295 162.605H531.727M511.295 185.763V208.921M511.295 185.763H531.727M511.295 208.921V232.079M511.295 208.921H531.727M511.295 232.079V255.237M511.295 232.079H531.727M511.295 255.237V278.395M511.295 255.237H531.727M511.295 278.395V301.553M511.295 278.395H531.727M511.295 301.553V324.71M511.295 301.553H531.727M511.295 324.71V347.868M511.295 324.71H531.727M511.295 347.868V371.026M511.295 347.868H531.727M511.295 371.026V394.184M511.295 371.026H531.727M511.295 394.184V417.342M511.295 394.184H531.727M511.295 417.342V440.5M511.295 417.342H531.727M511.295 440.5H531.727M531.727 0.5V23.6579M531.727 0.5H552.159M531.727 23.6579V46.8158M531.727 23.6579H552.159M531.727 46.8158V69.9737M531.727 46.8158H552.159M531.727 69.9737V93.1316M531.727 69.9737H552.159M531.727 93.1316V116.289M531.727 93.1316H552.159M531.727 116.289V139.447M531.727 116.289H552.159M531.727 139.447V162.605M531.727 139.447H552.159M531.727 162.605V185.763M531.727 162.605H552.159M531.727 185.763V208.921M531.727 185.763H552.159M531.727 208.921V232.079M531.727 208.921H552.159M531.727 232.079V255.237M531.727 232.079H552.159M531.727 255.237V278.395M531.727 255.237H552.159M531.727 278.395V301.553M531.727 278.395H552.159M531.727 301.553V324.71M531.727 301.553H552.159M531.727 324.71V347.868M531.727 324.71H552.159M531.727 347.868V371.026M531.727 347.868H552.159M531.727 371.026V394.184M531.727 371.026H552.159M531.727 394.184V417.342M531.727 394.184H552.159M531.727 417.342V440.5M531.727 417.342H552.159M531.727 440.5H552.159M552.159 0.5V23.6579M552.159 0.5H572.591M552.159 23.6579V46.8158M552.159 23.6579H572.591M552.159 46.8158V69.9737M552.159 46.8158H572.591M552.159 69.9737V93.1316M552.159 69.9737H572.591M552.159 93.1316V116.289M552.159 93.1316H572.591M552.159 116.289V139.447M552.159 116.289H572.591M552.159 139.447V162.605M552.159 139.447H572.591M552.159 162.605V185.763M552.159 162.605H572.591M552.159 185.763V208.921M552.159 185.763H572.591M552.159 208.921V232.079M552.159 208.921H572.591M552.159 232.079V255.237M552.159 232.079H572.591M552.159 255.237V278.395M552.159 255.237H572.591M552.159 278.395V301.553M552.159 278.395H572.591M552.159 301.553V324.71M552.159 301.553H572.591M552.159 324.71V347.868M552.159 324.71H572.591M552.159 347.868V371.026M552.159 347.868H572.591M552.159 371.026V394.184M552.159 371.026H572.591M552.159 394.184V417.342M552.159 394.184H572.591M552.159 417.342V440.5M552.159 417.342H572.591M552.159 440.5H572.591M572.591 0.5V23.6579M572.591 0.5H593.023M572.591 23.6579V46.8158M572.591 23.6579H593.023M572.591 46.8158V69.9737M572.591 46.8158H593.023M572.591 69.9737V93.1316M572.591 69.9737H593.023M572.591 93.1316V116.289M572.591 93.1316H593.023M572.591 116.289V139.447M572.591 116.289H593.023M572.591 139.447V162.605M572.591 139.447H593.023M572.591 162.605V185.763M572.591 162.605H593.023M572.591 185.763V208.921M572.591 185.763H593.023M572.591 208.921V232.079M572.591 208.921H593.023M572.591 232.079V255.237M572.591 232.079H593.023M572.591 255.237V278.395M572.591 255.237H593.023M572.591 278.395V301.553M572.591 278.395H593.023M572.591 301.553V324.71M572.591 301.553H593.023M572.591 324.71V347.868M572.591 324.71H593.023M572.591 347.868V371.026M572.591 347.868H593.023M572.591 371.026V394.184M572.591 371.026H593.023M572.591 394.184V417.342M572.591 394.184H593.023M572.591 417.342V440.5M572.591 417.342H593.023M572.591 440.5H593.023M593.023 0.5V23.6579M593.023 0.5H613.455M593.023 23.6579V46.8158M593.023 23.6579H613.455M593.023 46.8158V69.9737M593.023 46.8158H613.455M593.023 69.9737V93.1316M593.023 69.9737H613.455M593.023 93.1316V116.289M593.023 93.1316H613.455M593.023 116.289V139.447M593.023 116.289H613.455M593.023 139.447V162.605M593.023 139.447H613.455M593.023 162.605V185.763M593.023 162.605H613.455M593.023 185.763V208.921M593.023 185.763H613.455M593.023 208.921V232.079M593.023 208.921H613.455M593.023 232.079V255.237M593.023 232.079H613.455M593.023 255.237V278.395M593.023 255.237H613.455M593.023 278.395V301.553M593.023 278.395H613.455M593.023 301.553V324.71M593.023 301.553H613.455M593.023 324.71V347.868M593.023 324.71H613.455M593.023 347.868V371.026M593.023 347.868H613.455M593.023 371.026V394.184M593.023 371.026H613.455M593.023 394.184V417.342M593.023 394.184H613.455M593.023 417.342V440.5M593.023 417.342H613.455M593.023 440.5H613.455M613.455 0.5V23.6579M613.455 0.5H633.886M613.455 23.6579V46.8158M613.455 23.6579H633.886M613.455 46.8158V69.9737M613.455 46.8158H633.886M613.455 69.9737V93.1316M613.455 69.9737H633.886M613.455 93.1316V116.289M613.455 93.1316H633.886M613.455 116.289V139.447M613.455 116.289H633.886M613.455 139.447V162.605M613.455 139.447H633.886M613.455 162.605V185.763M613.455 162.605H633.886M613.455 185.763V208.921M613.455 185.763H633.886M613.455 208.921V232.079M613.455 208.921H633.886M613.455 232.079V255.237M613.455 232.079H633.886M613.455 255.237V278.395M613.455 255.237H633.886M613.455 278.395V301.553M613.455 278.395H633.886M613.455 301.553V324.71M613.455 301.553H633.886M613.455 324.71V347.868M613.455 324.71H633.886M613.455 347.868V371.026M613.455 347.868H633.886M613.455 371.026V394.184M613.455 371.026H633.886M613.455 394.184V417.342M613.455 394.184H633.886M613.455 417.342V440.5M613.455 417.342H633.886M613.455 440.5H633.886M633.886 0.5V23.6579M633.886 0.5H654.318M633.886 23.6579V46.8158M633.886 23.6579H654.318M633.886 46.8158V69.9737M633.886 46.8158H654.318M633.886 69.9737V93.1316M633.886 69.9737H654.318M633.886 93.1316V116.289M633.886 93.1316H654.318M633.886 116.289V139.447M633.886 116.289H654.318M633.886 139.447V162.605M633.886 139.447H654.318M633.886 162.605V185.763M633.886 162.605H654.318M633.886 185.763V208.921M633.886 185.763H654.318M633.886 208.921V232.079M633.886 208.921H654.318M633.886 232.079V255.237M633.886 232.079H654.318M633.886 255.237V278.395M633.886 255.237H654.318M633.886 278.395V301.553M633.886 278.395H654.318M633.886 301.553V324.71M633.886 301.553H654.318M633.886 324.71V347.868M633.886 324.71H654.318M633.886 347.868V371.026M633.886 347.868H654.318M633.886 371.026V394.184M633.886 371.026H654.318M633.886 394.184V417.342M633.886 394.184H654.318M633.886 417.342V440.5M633.886 417.342H654.318M633.886 440.5H654.318M654.318 0.5V23.6579M654.318 0.5H674.75M654.318 23.6579V46.8158M654.318 23.6579H674.75M654.318 46.8158V69.9737M654.318 46.8158H674.75M654.318 69.9737V93.1316M654.318 69.9737H674.75M654.318 93.1316V116.289M654.318 93.1316H674.75M654.318 116.289V139.447M654.318 116.289H674.75M654.318 139.447V162.605M654.318 139.447H674.75M654.318 162.605V185.763M654.318 162.605H674.75M654.318 185.763V208.921M654.318 185.763H674.75M654.318 208.921V232.079M654.318 208.921H674.75M654.318 232.079V255.237M654.318 232.079H674.75M654.318 255.237V278.395M654.318 255.237H674.75M654.318 278.395V301.553M654.318 278.395H674.75M654.318 301.553V324.71M654.318 301.553H674.75M654.318 324.71V347.868M654.318 324.71H674.75M654.318 347.868V371.026M654.318 347.868H674.75M654.318 371.026V394.184M654.318 371.026H674.75M654.318 394.184V417.342M654.318 394.184H674.75M654.318 417.342V440.5M654.318 417.342H674.75M654.318 440.5H674.75M674.75 0.5V23.6579M674.75 0.5H695.182M674.75 23.6579V46.8158M674.75 23.6579H695.182M674.75 46.8158V69.9737M674.75 46.8158H695.182M674.75 69.9737V93.1316M674.75 69.9737H695.182M674.75 93.1316V116.289M674.75 93.1316H695.182M674.75 116.289V139.447M674.75 116.289H695.182M674.75 139.447V162.605M674.75 139.447H695.182M674.75 162.605V185.763M674.75 162.605H695.182M674.75 185.763V208.921M674.75 185.763H695.182M674.75 208.921V232.079M674.75 208.921H695.182M674.75 232.079V255.237M674.75 232.079H695.182M674.75 255.237V278.395M674.75 255.237H695.182M674.75 278.395V301.553M674.75 278.395H695.182M674.75 301.553V324.71M674.75 301.553H695.182M674.75 324.71V347.868M674.75 324.71H695.182M674.75 347.868V371.026M674.75 347.868H695.182M674.75 371.026V394.184M674.75 371.026H695.182M674.75 394.184V417.342M674.75 394.184H695.182M674.75 417.342V440.5M674.75 417.342H695.182M674.75 440.5H695.182M695.182 0.5V23.6579M695.182 0.5H715.614M695.182 23.6579V46.8158M695.182 23.6579H715.614M695.182 46.8158V69.9737M695.182 46.8158H715.614M695.182 69.9737V93.1316M695.182 69.9737H715.614M695.182 93.1316V116.289M695.182 93.1316H715.614M695.182 116.289V139.447M695.182 116.289H715.614M695.182 139.447V162.605M695.182 139.447H715.614M695.182 162.605V185.763M695.182 162.605H715.614M695.182 185.763V208.921M695.182 185.763H715.614M695.182 208.921V232.079M695.182 208.921H715.614M695.182 232.079V255.237M695.182 232.079H715.614M695.182 255.237V278.395M695.182 255.237H715.614M695.182 278.395V301.553M695.182 278.395H715.614M695.182 301.553V324.71M695.182 301.553H715.614M695.182 324.71V347.868M695.182 324.71H715.614M695.182 347.868V371.026M695.182 347.868H715.614M695.182 371.026V394.184M695.182 371.026H715.614M695.182 394.184V417.342M695.182 394.184H715.614M695.182 417.342V440.5M695.182 417.342H715.614M695.182 440.5H715.614M715.614 0.5V23.6579M715.614 0.5H736.045M715.614 23.6579V46.8158M715.614 23.6579H736.045M715.614 46.8158V69.9737M715.614 46.8158H736.045M715.614 69.9737V93.1316M715.614 69.9737H736.045M715.614 93.1316V116.289M715.614 93.1316H736.045M715.614 116.289V139.447M715.614 116.289H736.045M715.614 139.447V162.605M715.614 139.447H736.045M715.614 162.605V185.763M715.614 162.605H736.045M715.614 185.763V208.921M715.614 185.763H736.045M715.614 208.921V232.079M715.614 208.921H736.045M715.614 232.079V255.237M715.614 232.079H736.045M715.614 255.237V278.395M715.614 255.237H736.045M715.614 278.395V301.553M715.614 278.395H736.045M715.614 301.553V324.71M715.614 301.553H736.045M715.614 324.71V347.868M715.614 324.71H736.045M715.614 347.868V371.026M715.614 347.868H736.045M715.614 371.026V394.184M715.614 371.026H736.045M715.614 394.184V417.342M715.614 394.184H736.045M715.614 417.342V440.5M715.614 417.342H736.045M715.614 440.5H736.045M736.045 0.5V23.6579M736.045 0.5H756.477M736.045 23.6579V46.8158M736.045 23.6579H756.477M736.045 46.8158V69.9737M736.045 46.8158H756.477M736.045 69.9737V93.1316M736.045 69.9737H756.477M736.045 93.1316V116.289M736.045 93.1316H756.477M736.045 116.289V139.447M736.045 116.289H756.477M736.045 139.447V162.605M736.045 139.447H756.477M736.045 162.605V185.763M736.045 162.605H756.477M736.045 185.763V208.921M736.045 185.763H756.477M736.045 208.921V232.079M736.045 208.921H756.477M736.045 232.079V255.237M736.045 232.079H756.477M736.045 255.237V278.395M736.045 255.237H756.477M736.045 278.395V301.553M736.045 278.395H756.477M736.045 301.553V324.71M736.045 301.553H756.477M736.045 324.71V347.868M736.045 324.71H756.477M736.045 347.868V371.026M736.045 347.868H756.477M736.045 371.026V394.184M736.045 371.026H756.477M736.045 394.184V417.342M736.045 394.184H756.477M736.045 417.342V440.5M736.045 417.342H756.477M736.045 440.5H756.477M756.477 0.5V23.6579M756.477 0.5H776.909M756.477 23.6579V46.8158M756.477 23.6579H776.909M756.477 46.8158V69.9737M756.477 46.8158H776.909M756.477 69.9737V93.1316M756.477 69.9737H776.909M756.477 93.1316V116.289M756.477 93.1316H776.909M756.477 116.289V139.447M756.477 116.289H776.909M756.477 139.447V162.605M756.477 139.447H776.909M756.477 162.605V185.763M756.477 162.605H776.909M756.477 185.763V208.921M756.477 185.763H776.909M756.477 208.921V232.079M756.477 208.921H776.909M756.477 232.079V255.237M756.477 232.079H776.909M756.477 255.237V278.395M756.477 255.237H776.909M756.477 278.395V301.553M756.477 278.395H776.909M756.477 301.553V324.71M756.477 301.553H776.909M756.477 324.71V347.868M756.477 324.71H776.909M756.477 347.868V371.026M756.477 347.868H776.909M756.477 371.026V394.184M756.477 371.026H776.909M756.477 394.184V417.342M756.477 394.184H776.909M756.477 417.342V440.5M756.477 417.342H776.909M756.477 440.5H776.909M776.909 0.5V23.6579M776.909 0.5H797.341M776.909 23.6579V46.8158M776.909 23.6579H797.341M776.909 46.8158V69.9737M776.909 46.8158H797.341M776.909 69.9737V93.1316M776.909 69.9737H797.341M776.909 93.1316V116.289M776.909 93.1316H797.341M776.909 116.289V139.447M776.909 116.289H797.341M776.909 139.447V162.605M776.909 139.447H797.341M776.909 162.605V185.763M776.909 162.605H797.341M776.909 185.763V208.921M776.909 185.763H797.341M776.909 208.921V232.079M776.909 208.921H797.341M776.909 232.079V255.237M776.909 232.079H797.341M776.909 255.237V278.395M776.909 255.237H797.341M776.909 278.395V301.553M776.909 278.395H797.341M776.909 301.553V324.71M776.909 301.553H797.341M776.909 324.71V347.868M776.909 324.71H797.341M776.909 347.868V371.026M776.909 347.868H797.341M776.909 371.026V394.184M776.909 371.026H797.341M776.909 394.184V417.342M776.909 394.184H797.341M776.909 417.342V440.5M776.909 417.342H797.341M776.909 440.5H797.341M797.341 0.5V23.6579M797.341 0.5H817.773M797.341 23.6579V46.8158M797.341 23.6579H817.773M797.341 46.8158V69.9737M797.341 46.8158H817.773M797.341 69.9737V93.1316M797.341 69.9737H817.773M797.341 93.1316V116.289M797.341 93.1316H817.773M797.341 116.289V139.447M797.341 116.289H817.773M797.341 139.447V162.605M797.341 139.447H817.773M797.341 162.605V185.763M797.341 162.605H817.773M797.341 185.763V208.921M797.341 185.763H817.773M797.341 208.921V232.079M797.341 208.921H817.773M797.341 232.079V255.237M797.341 232.079H817.773M797.341 255.237V278.395M797.341 255.237H817.773M797.341 278.395V301.553M797.341 278.395H817.773M797.341 301.553V324.71M797.341 301.553H817.773M797.341 324.71V347.868M797.341 324.71H817.773M797.341 347.868V371.026M797.341 347.868H817.773M797.341 371.026V394.184M797.341 371.026H817.773M797.341 394.184V417.342M797.341 394.184H817.773M797.341 417.342V440.5M797.341 417.342H817.773M797.341 440.5H817.773M817.773 0.5V23.6579M817.773 0.5H838.205M817.773 23.6579V46.8158M817.773 23.6579H838.205M817.773 46.8158V69.9737M817.773 46.8158H838.205M817.773 69.9737V93.1316M817.773 69.9737H838.205M817.773 93.1316V116.289M817.773 93.1316H838.205M817.773 116.289V139.447M817.773 116.289H838.205M817.773 139.447V162.605M817.773 139.447H838.205M817.773 162.605V185.763M817.773 162.605H838.205M817.773 185.763V208.921M817.773 185.763H838.205M817.773 208.921V232.079M817.773 208.921H838.205M817.773 232.079V255.237M817.773 232.079H838.205M817.773 255.237V278.395M817.773 255.237H838.205M817.773 278.395V301.553M817.773 278.395H838.205M817.773 301.553V324.71M817.773 301.553H838.205M817.773 324.71V347.868M817.773 324.71H838.205M817.773 347.868V371.026M817.773 347.868H838.205M817.773 371.026V394.184M817.773 371.026H838.205M817.773 394.184V417.342M817.773 394.184H838.205M817.773 417.342V440.5M817.773 417.342H838.205M817.773 440.5H838.205M838.205 0.5V23.6579M838.205 0.5H858.636M838.205 23.6579V46.8158M838.205 23.6579H858.636M838.205 46.8158V69.9737M838.205 46.8158H858.636M838.205 69.9737V93.1316M838.205 69.9737H858.636M838.205 93.1316V116.289M838.205 93.1316H858.636M838.205 116.289V139.447M838.205 116.289H858.636M838.205 139.447V162.605M838.205 139.447H858.636M838.205 162.605V185.763M838.205 162.605H858.636M838.205 185.763V208.921M838.205 185.763H858.636M838.205 208.921V232.079M838.205 208.921H858.636M838.205 232.079V255.237M838.205 232.079H858.636M838.205 255.237V278.395M838.205 255.237H858.636M838.205 278.395V301.553M838.205 278.395H858.636M838.205 301.553V324.71M838.205 301.553H858.636M838.205 324.71V347.868M838.205 324.71H858.636M838.205 347.868V371.026M838.205 347.868H858.636M838.205 371.026V394.184M838.205 371.026H858.636M838.205 394.184V417.342M838.205 394.184H858.636M838.205 417.342V440.5M838.205 417.342H858.636M838.205 440.5H858.636M858.636 0.5V23.6579M858.636 0.5H879.068M858.636 23.6579V46.8158M858.636 23.6579H879.068M858.636 46.8158V69.9737M858.636 46.8158H879.068M858.636 69.9737V93.1316M858.636 69.9737H879.068M858.636 93.1316V116.289M858.636 93.1316H879.068M858.636 116.289V139.447M858.636 116.289H879.068M858.636 139.447V162.605M858.636 139.447H879.068M858.636 162.605V185.763M858.636 162.605H879.068M858.636 185.763V208.921M858.636 185.763H879.068M858.636 208.921V232.079M858.636 208.921H879.068M858.636 232.079V255.237M858.636 232.079H879.068M858.636 255.237V278.395M858.636 255.237H879.068M858.636 278.395V301.553M858.636 278.395H879.068M858.636 301.553V324.71M858.636 301.553H879.068M858.636 324.71V347.868M858.636 324.71H879.068M858.636 347.868V371.026M858.636 347.868H879.068M858.636 371.026V394.184M858.636 371.026H879.068M858.636 394.184V417.342M858.636 394.184H879.068M858.636 417.342V440.5M858.636 417.342H879.068M858.636 440.5H879.068M879.068 0.5V23.6579M879.068 0.5H899.5V23.6579M879.068 23.6579V46.8158M879.068 23.6579H899.5M879.068 46.8158V69.9737M879.068 46.8158H899.5M879.068 69.9737V93.1316M879.068 69.9737H899.5M879.068 93.1316V116.289M879.068 93.1316H899.5M879.068 116.289V139.447M879.068 116.289H899.5M879.068 139.447V162.605M879.068 139.447H899.5M879.068 162.605V185.763M879.068 162.605H899.5M879.068 185.763V208.921M879.068 185.763H899.5M879.068 208.921V232.079M879.068 208.921H899.5M879.068 232.079V255.237M879.068 232.079H899.5M879.068 255.237V278.395M879.068 255.237H899.5M879.068 278.395V301.553M879.068 278.395H899.5M879.068 301.553V324.71M879.068 301.553H899.5M879.068 324.71V347.868M879.068 324.71H899.5M879.068 347.868V371.026M879.068 347.868H899.5M879.068 371.026V394.184M879.068 371.026H899.5M879.068 394.184V417.342M879.068 394.184H899.5M879.068 417.342V440.5M879.068 417.342H899.5M879.068 440.5H899.5V417.342M899.5 23.6579V46.8158M899.5 46.8158V69.9737M899.5 69.9737V93.1316M899.5 93.1316V116.289M899.5 116.289V139.447M899.5 139.447V162.605M899.5 162.605V185.763M899.5 185.763V208.921M899.5 208.921V232.079M899.5 232.079V255.237M899.5 255.237V278.395M899.5 278.395V301.553M899.5 301.553V324.71M899.5 324.71V347.868M899.5 347.868V371.026M899.5 371.026V394.184M899.5 394.184V417.342" stroke="url(#paint0_radial_0_91)"/>
</g>
<defs>
<radialGradient id="paint0_radial_0_91" cx="0" cy="0" r="1" gradientUnits="userSpaceOnUse" gradientTransform="translate(450 220.5) rotate(90) scale(220 362.979)">
<stop stop-color="white"/>
<stop offset="1" stop-color="white" stop-opacity="0.2"/>
</radialGradient>
</defs>
</svg>
