<svg preserveAspectRatio="none" width="100%" height="100%" overflow="visible" style="display: block;" viewBox="0 0 25 25" fill="none" xmlns="http://www.w3.org/2000/svg">
<path id="Vector" d="M20.5066 25H20.9687C21.356 24.9875 21.7182 24.7876 21.943 24.4627L24.7785 20.377C24.9659 20.1021 25.0409 19.7648 24.9784 19.4274C24.9478 19.263 24.8845 19.1063 24.7922 18.9668C24.6999 18.8273 24.5806 18.7078 24.4413 18.6152L18.3081 14.5295C17.796 14.1921 17.109 14.2671 16.6968 14.7169L14.3484 17.2533C13.3991 16.6911 11.8127 15.679 10.5636 14.4295C9.31446 13.1801 8.30267 11.5933 7.74057 10.6562L10.2763 8.30718C10.726 7.89485 10.8134 7.20765 10.4636 6.69537L6.37903 0.560505C6.19166 0.285623 5.90437 0.0857089 5.5796 0.0232358C5.24233 -0.0392374 4.90507 0.0232359 4.63026 0.22315L0.545647 3.04694C0.220877 3.27184 0.0210175 3.63418 0.00852631 4.02152C-0.0289472 4.90864 -0.191332 12.8177 5.9918 18.9901C11.5629 24.5627 18.533 24.9875 20.5066 24.9875V25Z" fill="var(--fill-0, #473DFF)"/>
</svg>
