<svg preserveAspectRatio="none" width="100%" height="100%" overflow="visible" style="display: block;" viewBox="0 0 67 96" fill="none" xmlns="http://www.w3.org/2000/svg">
<g id="Layer_1" clip-path="url(#clip0_0_585)">
<path id="Vector" d="M0.0142931 45.082C0.0142931 30.6606 0.0142931 16.2395 0.0142931 1.81855C0.0142931 1.50212 0.00519747 1.1857 0.024688 0.869276C0.0558729 0.379451 0.389811 0.0111331 0.792615 -0.000258186C1.26883 -0.0129152 1.6554 0.366161 1.67619 0.899653C1.69438 1.3629 1.68008 1.82741 1.68008 2.29192C1.68268 7.94199 1.68377 13.5923 1.68333 19.2428C1.68333 19.5744 1.76389 19.9187 1.57613 20.2344C1.55484 20.2716 1.54415 20.3136 1.54518 20.3561C1.54621 20.3986 1.55892 20.4401 1.58198 20.4762C1.7587 20.7717 1.68528 21.0951 1.68528 21.4059C1.68788 41.4355 1.68918 61.4643 1.68918 81.4923C1.68918 82.4625 1.67359 83.4326 1.70347 84.4034C1.73921 85.5881 2.13876 86.6652 3.28026 87.1924C5.15005 88.0562 7.36287 87.5721 7.99047 85.2223C8.10611 84.7882 8.09377 84.3446 8.09377 83.9016L8.10156 40.702C8.10156 39.6266 8.10416 38.5508 8.10936 37.4745C8.10936 37.2644 8.10091 37.0537 8.17433 36.8486C8.32571 36.417 8.61481 36.2291 9.0592 36.2791C9.47175 36.3265 9.70369 36.5468 9.74916 36.9866C9.77533 37.3023 9.78488 37.6192 9.77775 37.9359C9.77775 49.5322 9.77775 61.1281 9.77775 72.7236C9.77775 77.5332 9.75306 82.3378 9.79009 87.1443C9.80179 88.6543 9.61078 90.137 9.29438 91.5932C9.03451 92.7779 8.57973 93.9303 7.64549 94.8264C6.97566 95.4713 6.19799 95.8725 5.2527 95.9605C4.73474 96.0064 4.21282 95.9851 3.7006 95.8972C2.65526 95.7226 1.99583 95.0182 1.45464 94.2176C0.856284 93.3317 0.540537 92.3406 0.35018 91.285C0.0279364 89.4909 0 87.6917 0 85.8773C0.0168918 72.2787 0.0199237 58.68 0.00909558 45.0814L0.0142931 45.082Z" fill="var(--fill-0, #473DFF)"/>
<path id="Vector_2" d="M60.4759 73.082C60.4759 67.0953 60.4759 61.1085 60.4759 55.1218C60.4648 54.805 60.4748 54.488 60.5058 54.1725C60.5336 53.9727 60.6374 53.7904 60.7965 53.6616C60.9556 53.5327 61.1586 53.4666 61.3653 53.4764C61.8545 53.4903 62.1904 53.7782 62.2313 54.2402C62.2515 54.4706 62.2398 54.7041 62.2398 54.9363C62.2398 64.8227 62.2398 74.7091 62.2398 84.5954C62.2398 85.3612 62.3151 86.1143 62.6536 86.8148C62.9232 87.373 63.3117 87.5863 63.888 87.535C64.2824 87.4996 64.5487 87.3243 64.7592 86.9749C65.2666 86.132 65.2881 85.203 65.318 84.2815C65.3491 83.3127 65.3349 82.3425 65.3349 81.3704C65.3383 72.5169 65.3405 63.6635 65.3414 54.8104C65.3414 54.6206 65.3336 54.4307 65.3517 54.2408C65.3695 54.0456 65.4604 53.8635 65.6071 53.7294C65.7538 53.5952 65.9461 53.5184 66.1472 53.5134C66.3484 53.5085 66.5444 53.5759 66.6978 53.7027C66.8512 53.8295 66.9514 54.0068 66.9792 54.201C66.9952 54.3693 66.9991 54.5384 66.9909 54.7073C66.916 66.3643 66.916 78.0214 66.9909 89.6785C66.9948 90.4164 67.0312 91.1612 66.8928 91.8865C66.7167 92.8123 66.5615 93.7452 66.0599 94.5869C65.2842 95.888 63.9725 96.2202 62.6614 95.8576C62.2434 95.7354 61.8833 95.4731 61.6447 95.1172C61.3374 94.6704 61.0482 94.2027 60.9001 93.6616C60.5753 92.47 60.4674 91.2606 60.4681 90.0341C60.472 84.3849 60.472 78.7355 60.4681 73.0858L60.4759 73.082Z" fill="var(--fill-0, #473DFF)"/>
<path id="Vector_3" d="M27.5217 73.2016C27.5217 67.0887 27.5217 60.9758 27.5217 54.8629C27.5217 54.6528 27.5126 54.4402 27.5327 54.2301C27.5743 53.8004 27.8699 53.5143 28.2753 53.4903C28.7145 53.4637 29.1602 53.7789 29.2102 54.1953C29.2396 54.532 29.2487 54.8701 29.2375 55.2078C29.2401 61.9536 29.2416 68.6987 29.242 75.4432C29.242 78.4998 29.2407 81.5563 29.2381 84.6125C29.2381 85.1631 29.3103 85.7042 29.383 86.2472C29.4347 86.6043 29.6007 86.9365 29.8573 87.1964C30.3049 87.678 31.0657 87.697 31.5127 87.204C31.9883 86.6794 32.1656 86.0187 32.2507 85.3492C32.3202 84.8081 32.306 84.2556 32.306 83.7075C32.306 80.3349 32.3034 76.9624 32.2982 73.5902C32.291 73.3589 32.3051 73.1274 32.3404 72.8985C32.4132 72.5087 32.6652 72.2834 33.0304 72.2467C33.3955 72.2099 33.645 72.3815 33.8308 72.677C33.988 72.9301 33.9795 73.1966 33.9795 73.4712C33.9795 77.6873 33.9925 81.9027 33.9795 86.1187C33.975 87.9306 34.0348 89.7456 33.8886 91.5542C33.7931 92.7364 33.5306 93.8869 32.8302 94.8944C31.7758 96.4133 29.1634 96.3721 28.3344 94.6989C27.9134 93.8496 27.6107 92.9902 27.5659 92.0479C27.5301 91.3112 27.5158 90.5733 27.5152 89.8329C27.5113 84.2891 27.5113 78.7456 27.5152 73.2023L27.5217 73.2016Z" fill="var(--fill-0, #473DFF)"/>
<path id="Vector_4" d="M39.0193 87.7761C39.0193 86.6792 39.0193 85.5823 39.0193 84.4853C39.0117 84.3164 39.0175 84.1471 39.0368 83.9791C39.1122 83.5259 39.4441 83.2481 39.8762 83.2563C40.3082 83.2646 40.6493 83.5506 40.6844 84.0063C40.7195 84.4619 40.6922 84.9334 40.7045 85.3985C40.724 86.1054 40.9748 86.7092 41.5491 87.1749C42.3099 87.7951 43.6827 87.7527 44.205 86.4687C44.5171 85.7244 44.6746 84.9273 44.6683 84.1233C44.6592 83.5538 44.6468 82.9842 44.6806 82.4147C44.767 80.9705 44.5734 79.5478 44.27 78.1467C44.0166 76.9772 43.5807 75.8552 43.0447 74.7705C42.2878 73.2409 41.1431 71.9632 40.2277 70.5373C39.0582 68.7116 38.007 66.8327 37.5133 64.7063C37.0124 62.5483 37.1085 60.4251 38.0493 58.3999C38.9023 56.5647 40.2153 55.0623 41.9266 53.9118C42.1285 53.7891 42.3432 53.6877 42.5672 53.6093C42.9934 53.4397 43.2617 53.4827 43.5008 53.7681C43.7399 54.0535 43.6898 54.3611 43.5294 54.6541C43.2857 55.1015 43.0038 55.5243 42.6198 55.8761C41.9701 56.4685 41.3815 57.1115 40.7825 57.75C39.1485 59.4916 38.8536 61.5376 39.2687 63.7659C39.476 64.879 39.9788 65.8834 40.4505 66.8972C41.2626 68.6432 42.2274 70.3146 43.2688 71.9353C43.6586 72.5397 44.0978 73.1111 44.4714 73.7282C45.1844 74.9061 45.7308 76.1725 46.0956 77.493C46.6251 79.3915 46.5913 81.3325 46.5575 83.2696C46.5361 84.472 46.551 85.6745 46.3808 86.8686C46.0904 88.9096 45.8838 90.9701 45.1399 92.9231C44.9014 93.5783 44.5848 94.2041 44.1966 94.7875C43.4696 95.85 42.586 96.1285 41.5426 95.9443C40.8566 95.8234 40.3479 95.4482 40.0074 94.8824C39.4877 94.0179 39.2168 93.0699 39.1128 92.0719C38.9621 90.6404 39.0459 89.2058 39.0193 87.7761Z" fill="var(--fill-0, #473DFF)"/>
<path id="Vector_5" d="M17.801 74.8426C17.801 68.5837 17.801 62.3246 17.801 56.0653C17.801 55.5806 17.7913 55.0964 17.801 54.6098C17.7994 54.4417 17.8242 54.2744 17.8744 54.1136C17.937 53.9448 18.0571 53.8019 18.2147 53.7088C18.3723 53.6158 18.5578 53.5782 18.7405 53.6023C19.116 53.6428 19.37 53.87 19.4317 54.2478C19.4518 54.4158 19.4581 54.5851 19.4506 54.7541C19.4363 65.3969 19.4216 76.0395 19.4064 86.6819C19.4064 87.1028 19.4369 87.5249 19.4291 87.9476C19.4239 88.2394 19.5591 88.3761 19.843 88.397C20.058 88.4134 20.2744 88.4375 20.4927 88.433C21.1846 88.4178 21.8765 88.4014 22.5678 88.3697C23.5819 88.3197 24.2225 88.8545 24.2751 89.8437C24.3005 90.3271 24.2829 90.8125 24.2797 91.2992C24.2738 92.3529 24.2868 93.4072 24.2504 94.4596C24.2121 95.5551 23.7307 95.9785 22.621 95.9722C21.2784 95.9667 19.937 95.9597 18.5969 95.9513C18.0031 95.9513 17.8569 95.838 17.8173 95.2735C17.7835 94.7906 17.79 94.3052 17.79 93.8179C17.79 87.4958 17.79 81.1734 17.79 74.8508L17.801 74.8426Z" fill="var(--fill-0, #473DFF)"/>
<path id="Vector_6" d="M50.8529 74.7249C50.8529 68.0648 50.8529 61.4047 50.8529 54.7446C50.8448 54.5342 50.8557 54.3235 50.8854 54.1149C50.9504 53.782 51.298 53.5036 51.615 53.5017C51.9704 53.5017 52.2959 53.7858 52.3479 54.1699C52.3736 54.3799 52.3834 54.5914 52.3771 54.8028C52.2978 59.6289 52.3628 64.455 52.3576 69.2817C52.3489 76.932 52.3437 84.5823 52.342 92.2326C52.342 93.2231 52.3686 94.2141 52.3492 95.207C52.3375 95.8057 51.9879 96.0601 51.4234 95.9475C51.1167 95.8842 50.9036 95.731 50.8887 95.4045C50.8739 95.1311 50.8661 94.8569 50.8653 94.5818C50.8653 87.9634 50.8653 81.3453 50.8653 74.7274L50.8529 74.7249Z" fill="var(--fill-0, #473DFF)"/>
<path id="Vector_7" d="M14.9386 76.3849C13.6788 76.476 12.8018 75.309 12.8784 74.4312C12.9804 73.2598 13.7548 72.4631 14.9431 72.4257C16.0307 72.3916 16.9636 73.3307 16.9656 74.3876C16.9688 75.547 16.1197 76.3849 14.9386 76.3849Z" fill="var(--fill-0, #473DFF)"/>
<path id="Vector_8" d="M30.0428 65.8638C30.0818 64.6613 30.9563 63.8272 32.1419 63.8557C33.2581 63.8829 34.1456 64.812 34.1202 65.927C34.0955 67.0168 33.1321 67.8971 32.0029 67.868C31.1421 67.8458 29.9506 67.1193 30.0428 65.8638Z" fill="var(--fill-0, #473DFF)"/>
<path id="Vector_9" d="M55.3608 76.3513C54.2063 76.3456 53.2993 75.452 53.3208 74.3464C53.3448 73.1162 54.4486 72.3675 55.3504 72.3568C56.4432 72.3435 57.3865 73.3162 57.3819 74.4072C57.3838 74.6651 57.3326 74.9208 57.2314 75.1591C57.1302 75.3974 56.981 75.6135 56.7926 75.7947C56.6042 75.976 56.3804 76.1186 56.1345 76.2142C55.8886 76.3098 55.6255 76.3564 55.3608 76.3513Z" fill="var(--fill-0, #473DFF)"/>
<path id="Vector_10" d="M12.6185 92.1618C13.9218 92.0472 14.6572 92.9781 14.6325 94.0211C14.6085 95.1678 13.7775 96.0089 12.6406 95.9943C11.4296 95.9791 10.5662 95.1596 10.5701 94.028C10.5765 92.9199 11.4107 92.1586 12.6185 92.1618Z" fill="var(--fill-0, #473DFF)"/>
</g>
<defs>
<clipPath id="clip0_0_585">
<rect width="67" height="96" fill="white"/>
</clipPath>
</defs>
</svg>
