<svg preserveAspectRatio="none" width="100%" height="100%" overflow="visible" style="display: block;" viewBox="0 0 19.9984 19.9984" fill="none" xmlns="http://www.w3.org/2000/svg">
<g id="Icon" clip-path="url(#clip0_0_10)">
<path id="Vector" d="M-1.05667e-07 2.68855C-1.05667e-07 2.04726 0.225213 1.5182 0.675621 1.10138C1.12603 0.684538 1.71159 0.476128 2.43224 0.476128C3.14004 0.476128 3.71269 0.681326 4.15025 1.09176C4.60065 1.51501 4.82587 2.0665 4.82587 2.74627C4.82587 3.3619 4.6071 3.87491 4.16956 4.28535C3.71915 4.70859 3.12716 4.92022 2.39363 4.92022H2.37433C1.66652 4.92022 1.09387 4.70859 0.656319 4.28535C0.218766 3.8621 -1.05667e-07 3.32983 -1.05667e-07 2.68855ZM0.250945 19.5223V6.67092H4.53632V19.5223H0.250945ZM6.91065 19.5223H11.196V12.3463C11.196 11.8973 11.2475 11.5511 11.3504 11.3074C11.5306 10.8713 11.8041 10.5026 12.1708 10.2012C12.5376 9.89976 12.9976 9.74908 13.551 9.74908C14.9924 9.74908 15.7131 10.7174 15.7131 12.654V19.5223H19.9984V12.1539C19.9984 10.2557 19.548 8.81601 18.6472 7.83484C17.7464 6.85369 16.5559 6.3631 15.076 6.3631C13.4159 6.3631 12.1226 7.07492 11.196 8.49858V8.53705H11.1767L11.196 8.49858V6.67092H6.91065C6.93638 7.08133 6.94925 8.35748 6.94925 10.4994C6.94925 12.6413 6.93638 15.6488 6.91065 19.5223Z" fill="var(--fill-0, white)"/>
</g>
<defs>
<clipPath id="clip0_0_10">
<rect width="19.9984" height="19.9984" fill="white"/>
</clipPath>
</defs>
</svg>
