<svg preserveAspectRatio="none" width="100%" height="100%" overflow="visible" style="display: block;" viewBox="0 0 19.9984 19.9984" fill="none" xmlns="http://www.w3.org/2000/svg">
<g id="Icon" clip-path="url(#clip0_0_6)">
<path id="Vector" d="M9.9992 0C15.5218 0 19.9984 4.47664 19.9984 9.9992C19.9984 15.5218 15.5218 19.9984 9.9992 19.9984C8.23211 20.0014 6.49608 19.5337 4.96962 18.6435L0.00401514 19.9984L1.35591 15.0308C0.464937 13.5038 -0.00308138 11.7671 1.52675e-05 9.9992C1.52675e-05 4.47664 4.47666 0 9.9992 0ZM6.59149 5.29958L6.3915 5.30758C6.26221 5.31648 6.13587 5.35044 6.01954 5.40757C5.91112 5.46907 5.81211 5.54586 5.72556 5.63555C5.60557 5.74854 5.53758 5.84653 5.46458 5.94152C5.09473 6.42239 4.8956 7.01275 4.89863 7.61939C4.90063 8.10935 5.02862 8.58631 5.2286 9.03228C5.63757 9.93421 6.31052 10.8891 7.19844 11.7741C7.41243 11.987 7.62241 12.201 7.84839 12.4C8.95173 13.3713 10.2665 14.0719 11.6881 14.4458L12.256 14.5328C12.441 14.5428 12.626 14.5288 12.812 14.5198C13.1032 14.5044 13.3874 14.4256 13.6449 14.2889C13.7758 14.2212 13.9036 14.1478 14.0279 14.0689C14.0279 14.0689 14.0702 14.0402 14.1529 13.9789C14.2879 13.8789 14.3709 13.8079 14.4828 13.6909C14.5668 13.6042 14.6368 13.5036 14.6928 13.3889C14.7708 13.2259 14.8488 12.915 14.8808 12.656C14.9048 12.458 14.8978 12.35 14.8948 12.283C14.8908 12.176 14.8018 12.065 14.7048 12.018L14.1229 11.7571C14.1229 11.7571 13.2529 11.3781 12.721 11.1361C12.6653 11.1119 12.6057 11.098 12.545 11.0951C12.4766 11.0879 12.4074 11.0956 12.3422 11.1175C12.277 11.1394 12.2172 11.1751 12.167 11.2221C12.162 11.2201 12.095 11.2771 11.3721 12.153C11.3306 12.2088 11.2735 12.2509 11.2079 12.2741C11.1424 12.2972 11.0714 12.3003 11.0041 12.283C10.9389 12.2656 10.8751 12.2436 10.8131 12.217C10.6891 12.165 10.6461 12.145 10.5612 12.109C9.98709 11.859 9.4557 11.5206 8.9863 11.1061C8.86031 10.9961 8.74332 10.8761 8.62333 10.7601C8.22997 10.3834 7.88714 9.95719 7.6034 9.49224L7.54441 9.39725C7.50268 9.33305 7.46845 9.26427 7.44242 9.19226C7.40443 9.04528 7.50342 8.92729 7.50342 8.92729C7.50342 8.92729 7.7464 8.66131 7.85939 8.51732C7.96938 8.37733 8.06238 8.24134 8.12237 8.14435C8.24036 7.95436 8.27736 7.75938 8.21536 7.60839C7.93538 6.92445 7.64607 6.24417 7.34743 5.56755C7.28844 5.43357 7.11345 5.33757 6.95446 5.31857C6.90047 5.3119 6.84647 5.30658 6.79248 5.30258C6.65821 5.29488 6.52359 5.29621 6.38951 5.30658L6.59149 5.29958Z" fill="var(--fill-0, white)"/>
</g>
<defs>
<clipPath id="clip0_0_6">
<rect width="19.9984" height="19.9984" fill="white"/>
</clipPath>
</defs>
</svg>
