<svg preserveAspectRatio="none" width="100%" height="100%" overflow="visible" style="display: block;" viewBox="0 0 19 19" fill="none" xmlns="http://www.w3.org/2000/svg">
<g id="Social Media Icon Square/Instagram">
<path id="Instagram" d="M9.84961 0.39502C13.4447 0.39502 15.2424 0.394824 16.5371 1.25146C17.1153 1.63402 17.6106 2.12936 17.9932 2.70752C18.8498 4.00225 18.8496 5.79995 18.8496 9.39502C18.8496 12.9901 18.8498 14.7878 17.9932 16.0825C17.6106 16.6607 17.1153 17.156 16.5371 17.5386C15.2424 18.3952 13.4447 18.395 9.84961 18.395C6.25454 18.395 4.45684 18.3952 3.16211 17.5386C2.58395 17.156 2.08861 16.6607 1.70605 16.0825C0.849414 14.7878 0.849609 12.9901 0.849609 9.39502C0.849609 5.79995 0.849414 4.00225 1.70605 2.70752C2.08861 2.12936 2.58395 1.63402 3.16211 1.25146C4.45684 0.394824 6.25454 0.39502 9.84961 0.39502ZM9.85059 4.73584C7.27736 4.73595 5.19141 6.82274 5.19141 9.396C5.19165 11.969 7.27751 14.0551 9.85059 14.0552C12.4238 14.0552 14.5095 11.9691 14.5098 9.396C14.5098 6.82268 12.4239 4.73584 9.85059 4.73584ZM9.85059 6.31299C11.5533 6.31299 12.9336 7.6933 12.9336 9.396C12.9334 11.0985 11.5531 12.479 9.85059 12.479C8.14813 12.4789 6.76782 11.0984 6.76758 9.396C6.76758 7.69337 8.14798 6.3131 9.85059 6.31299ZM14.6943 3.40674C14.0897 3.40674 13.5996 3.89779 13.5996 4.50244C13.5998 5.10692 14.0898 5.59717 14.6943 5.59717C15.2988 5.59711 15.7889 5.10688 15.7891 4.50244C15.7891 3.89782 15.2989 3.4068 14.6943 3.40674Z" fill="var(--fill-0, white)"/>
</g>
</svg>
