<svg preserveAspectRatio="none" width="100%" height="100%" overflow="visible" style="display: block;" viewBox="0 0 23.9892 15.9965" fill="none" xmlns="http://www.w3.org/2000/svg">
<g id="Icon" clip-path="url(#clip0_0_8)">
<path id="Vector" d="M21.9898 2.50079H14.9931V0.501719H21.9898V2.50079ZM23.715 12.4962C23.2732 13.7926 21.687 15.4948 18.6164 15.4948C15.5438 15.4948 13.055 13.7666 13.055 9.82241C13.055 5.91421 15.3789 3.90514 18.5184 3.90514C21.599 3.90514 23.4801 5.68632 23.8909 8.3291C23.9689 8.83486 23.9999 9.51655 23.9859 10.4681H15.9626C16.0926 13.6776 19.444 13.7786 20.5485 12.4962H23.715ZM16.0326 8.49802H20.9953C20.8903 6.95173 19.8598 6.28005 18.5194 6.28005C17.0541 6.28005 16.2435 7.04769 16.0326 8.49802ZM6.46301 15.4828H-2.61363e-07V0.522709H6.94978C12.4233 0.603671 12.5272 5.96419 9.66853 7.42552C13.1279 8.68493 13.2439 15.4828 6.46301 15.4828ZM2.99861 6.49894H6.58095C9.08779 6.49894 9.48561 3.50033 6.2691 3.50033H2.99861V6.49894ZM6.38804 9.49756H2.99861V12.5122H6.33807C9.39165 12.5122 9.20474 9.49756 6.38804 9.49756Z" fill="var(--fill-0, white)"/>
</g>
<defs>
<clipPath id="clip0_0_8">
<rect width="23.9892" height="15.9965" fill="white"/>
</clipPath>
</defs>
</svg>
