<svg width="1186" height="128" viewBox="0 0 1186 128" fill="none" xmlns="http://www.w3.org/2000/svg">
<path d="M17.28 28.62C19.98 26.1 21.24 23.04 21.24 19.44V5.40001C21.24 1.8 23.04 0 26.64 0H123.66C127.26 0 129.06 1.8 129.06 5.40001V19.44C129.06 23.04 130.32 26.1 133.02 28.62L145.98 41.04C148.86 43.74 150.3 46.62 150.3 50.04V122.4C150.3 126 148.5 127.8 144.9 127.8H130.86C127.26 127.8 125.46 126 125.46 122.4V30.24C125.46 26.64 123.66 24.84 120.06 24.84H30.24C26.64 24.84 24.84 26.64 24.84 30.24V122.4C24.84 126 23.04 127.8 19.44 127.8H5.4C1.8 127.8 0 126 0 122.4V50.04C0 46.62 1.44 43.74 4.32 41.04L17.28 28.62Z" fill="#FFFCFC"/>
<path d="M185.856 46.62C185.856 50.22 187.656 52.02 191.256 52.02H299.976C303.576 52.02 305.376 53.82 305.376 57.42V70.92C305.376 74.52 303.576 76.32 299.976 76.32H191.256C187.656 76.32 185.856 78.12 185.856 81.72V97.56C185.856 101.16 187.656 102.96 191.256 102.96H302.316C305.916 102.96 307.716 104.76 307.716 108.36V122.4C307.716 126 305.916 127.8 302.316 127.8H211.056C207.636 127.8 204.576 126.54 202.056 123.84L189.636 110.52C187.116 107.82 184.056 106.56 180.456 106.56H166.416C162.816 106.56 161.016 104.76 161.016 101.16V81.72C161.016 78.12 162.816 76.32 166.416 76.32H180.276C183.876 76.32 185.676 74.52 185.676 70.92V57.42C185.676 53.82 183.876 52.02 180.276 52.02H166.416C162.816 52.02 161.016 50.22 161.016 46.62V26.64C161.016 23.04 162.816 21.24 166.416 21.24H180.456C184.056 21.24 187.116 19.98 189.636 17.28L202.056 3.96C204.576 1.26001 207.636 0 211.056 0H302.316C305.916 0 307.716 1.8 307.716 5.40001V19.44C307.716 23.04 305.916 24.84 302.316 24.84H191.256C187.656 24.84 185.856 26.64 185.856 30.24V46.62Z" fill="#FFFCFC"/>
<path d="M341.598 46.62C341.598 50.22 343.398 52.02 346.998 52.02H455.718C459.318 52.02 461.118 53.82 461.118 57.42V70.92C461.118 74.52 459.318 76.32 455.718 76.32H346.998C343.398 76.32 341.598 78.12 341.598 81.72V97.56C341.598 101.16 343.398 102.96 346.998 102.96H458.058C461.658 102.96 463.458 104.76 463.458 108.36V122.4C463.458 126 461.658 127.8 458.058 127.8H366.798C363.378 127.8 360.318 126.54 357.798 123.84L345.378 110.52C342.858 107.82 339.798 106.56 336.198 106.56H322.158C318.558 106.56 316.758 104.76 316.758 101.16V81.72C316.758 78.12 318.558 76.32 322.158 76.32H336.018C339.618 76.32 341.418 74.52 341.418 70.92V57.42C341.418 53.82 339.618 52.02 336.018 52.02H322.158C318.558 52.02 316.758 50.22 316.758 46.62V26.64C316.758 23.04 318.558 21.24 322.158 21.24H336.198C339.798 21.24 342.858 19.98 345.378 17.28L357.798 3.96C360.318 1.26001 363.378 0 366.798 0H458.058C461.658 0 463.458 1.8 463.458 5.40001V19.44C463.458 23.04 461.658 24.84 458.058 24.84H346.998C343.398 24.84 341.598 26.64 341.598 30.24V46.62Z" fill="#FFFCFC"/>
<path d="M533.34 30.24C533.34 26.64 531.54 24.84 527.94 24.84H474.3C470.7 24.84 468.9 23.04 468.9 19.44V5.40001C468.9 1.8 470.7 0 474.3 0H508.14C511.56 0 514.62 1.26001 517.14 3.96L529.56 17.28C532.08 19.98 535.14 21.24 538.74 21.24H552.78C556.38 21.24 559.44 19.98 561.96 17.28L574.38 3.96C576.9 1.26001 579.96 0 583.38 0H617.22C620.82 0 622.62 1.8 622.62 5.40001V19.44C622.62 23.04 620.82 24.84 617.22 24.84H563.58C559.98 24.84 558.18 26.64 558.18 30.24V122.4C558.18 126 556.38 127.8 552.78 127.8H538.74C535.14 127.8 533.34 126 533.34 122.4V30.24Z" fill="#FFFCFC"/>
<path d="M629.824 88.92C629.824 85.32 631.624 83.52 635.224 83.52H649.084C652.684 83.52 654.484 81.72 654.484 78.12V64.62C654.484 61.02 652.684 59.22 649.084 59.22H635.224C631.624 59.22 629.824 57.42 629.824 53.82V26.64C629.824 23.04 631.624 21.24 635.224 21.24H649.264C652.864 21.24 655.924 19.98 658.444 17.28L670.864 3.96C673.384 1.26001 676.444 0 679.864 0H738.004C739.624 0 741.424 0.540004 743.224 1.44C745.024 2.34 746.644 3.78 747.904 5.40001L777.424 41.04C778.684 42.48 779.584 44.1 780.484 45.72C781.384 47.34 781.744 49.14 781.744 50.94V53.82C781.744 57.42 779.944 59.22 776.344 59.22H762.124C758.524 59.22 756.724 57.42 756.724 53.82V30.24C756.724 26.64 754.924 24.84 751.324 24.84H660.064C656.464 24.84 654.664 26.64 654.664 30.24V53.82C654.664 57.42 656.464 59.22 660.064 59.22H734.944C738.544 59.22 741.064 60.84 742.684 64.08L759.244 98.28C760.144 99.9 761.224 101.16 762.664 101.88C764.104 102.6 765.724 102.96 767.524 102.96H776.524C780.124 102.96 781.924 104.76 781.924 108.36V122.4C781.924 126 780.124 127.8 776.524 127.8H753.844C752.044 127.8 750.424 127.44 748.984 126.72C747.544 126 746.464 124.74 745.564 123.12L729.004 88.38C727.384 85.14 724.864 83.52 721.264 83.52H660.064C656.464 83.52 654.664 85.32 654.664 88.92V122.4C654.664 126 652.864 127.8 649.264 127.8H635.224C631.624 127.8 629.824 126 629.824 122.4V88.92Z" fill="#FFFCFC"/>
<path d="M837.413 30.24C837.413 26.64 835.613 24.84 832.013 24.84H798.173C794.573 24.84 792.773 23.04 792.773 19.44V5.40001C792.773 1.8 794.573 0 798.173 0H812.213C815.633 0 818.693 1.26001 821.213 3.96L833.633 17.28C836.153 19.98 839.213 21.24 842.813 21.24H856.853C860.453 21.24 862.253 23.04 862.253 26.64V122.4C862.253 126 860.453 127.8 856.853 127.8H842.813C839.213 127.8 837.413 126 837.413 122.4V30.24Z" fill="#FFFCFC"/>
<path d="M889.507 28.62C892.207 26.1 893.467 23.04 893.467 19.44V5.40001C893.467 1.8 895.267 0 898.867 0H995.887C999.487 0 1001.29 1.8 1001.29 5.40001V19.44C1001.29 23.04 1002.55 26.1 1005.25 28.62L1018.21 41.04C1021.09 43.74 1022.53 46.62 1022.53 50.04V122.4C1022.53 126 1020.73 127.8 1017.13 127.8H1003.09C999.487 127.8 997.687 126 997.687 122.4V30.24C997.687 26.64 995.887 24.84 992.287 24.84H902.467C898.867 24.84 897.067 26.64 897.067 30.24V122.4C897.067 126 895.267 127.8 891.667 127.8H877.627C874.027 127.8 872.227 126 872.227 122.4V50.04C872.227 46.62 873.667 43.74 876.547 41.04L889.507 28.62Z" fill="#FFFCFC"/>
<path d="M1054.48 5.40001C1054.48 1.8 1056.28 0 1059.88 0H1134.94C1138.36 0 1141.42 1.26001 1143.94 3.96L1156.72 17.28C1159.24 19.98 1162.3 21.24 1165.9 21.24H1179.58C1183.36 21.24 1185.34 23.04 1185.34 26.64V77.76C1185.34 81.18 1183.9 84.06 1181.02 86.76L1168.06 99.18C1165.36 101.7 1164.1 104.76 1164.1 108.36V122.4C1164.1 126 1162.3 127.8 1158.7 127.8H1083.28C1079.86 127.8 1076.8 126.54 1074.28 123.84L1061.86 110.52C1059.34 107.82 1056.28 106.56 1052.68 106.56H1038.64C1035.04 106.56 1033.24 104.76 1033.24 101.16V50.04C1033.24 46.62 1034.5 43.56 1037.2 41.04L1050.52 28.62C1053.22 26.1 1054.48 23.04 1054.48 19.44V5.40001ZM1155.1 102.96C1158.7 102.96 1160.5 101.16 1160.5 97.56V30.24C1160.5 26.64 1158.7 24.84 1155.1 24.84H1063.48C1059.88 24.84 1058.08 26.64 1058.08 30.24V97.56C1058.08 101.16 1059.88 102.96 1063.48 102.96H1155.1Z" fill="#FFFCFC"/>
</svg>
