<svg xmlns="http://www.w3.org/2000/svg" fill="none" overflow="visible" preserveAspectRatio="none" style="display:block" viewBox="0 0 1887 896.152"><g filter="url(#a)"><path fill="url(#b)" d="M225 281.735c0-38.838 38.572-65.884 75.086-52.647l448.166 162.471a56 56 0 0 0 19.085 3.353h339.053c6.36 0 12.67-1.083 18.67-3.203l462.27-163.442c36.44-12.884 74.67 14.147 74.67 52.797v334.032c0 37.956-36.96 64.916-73.1 53.324l-464.56-149.004a56 56 0 0 0-17.1-2.676H766.472c-5.943 0-11.849.946-17.495 2.803L298.495 667.697C262.275 679.609 225 652.628 225 614.5z"/><path stroke="var(--stroke-0, #2e2bff)" stroke-width="21" d="M1583.83 218.368c43.28-15.3 88.67 16.799 88.67 62.696v334.032c0 45.072-43.89 77.089-86.81 63.323l-464.55-149.005a45.5 45.5 0 0 0-13.9-2.174H766.473c-4.83 0-9.629.768-14.216 2.277L301.775 677.671C258.764 691.817 214.5 659.777 214.5 614.5V281.735c0-46.121 45.805-78.237 89.164-62.519L751.83 381.687a45.5 45.5 0 0 0 15.508 2.725h339.052c5.17 0 10.3-.881 15.17-2.603z"/></g><defs><radialGradient id="b" cx="0" cy="0" r="1" gradientTransform="matrix(0 245 -718.5 0 943.5 446.868)" gradientUnits="userSpaceOnUse"><stop offset=".394" stop-color="#3d8bff"/><stop offset=".654" stop-color="#2c80ff"/><stop offset="1" stop-color="#0051ff"/></radialGradient><filter id="a" width="1887" height="896.152" x="0" y="0" color-interpolation-filters="sRGB" filterUnits="userSpaceOnUse"><feFlood flood-opacity="0" result="BackgroundImageFix"/><feBlend in="SourceGraphic" in2="BackgroundImageFix" result="shape"/><feGaussianBlur result="effect1_foregroundBlur_0_445" stdDeviation="102"/></filter></defs></svg>