<svg xmlns="http://www.w3.org/2000/svg" fill="none" overflow="visible" preserveAspectRatio="none" style="display:block" viewBox="0 0 1887 1051.85"><g filter="url(#a)"><path fill="url(#b)" d="M225 282.072c0-41.458 43.482-68.542 80.692-50.263l440.129 216.217a56 56 0 0 0 24.691 5.737h332.768c8.37 0 16.64-1.878 24.19-5.497l454.33-217.674c37.18-17.81 80.2 9.285 80.2 50.503v489.673c0 40.327-41.34 67.433-78.32 51.358l-457-198.632a56 56 0 0 0-22.32-4.641H769.414a56 56 0 0 0-22.796 4.849L303.796 821.053C266.758 837.559 225 810.452 225 769.902z"/><path stroke="var(--stroke-0, #2e2bff)" stroke-width="21" d="M1577.27 221.123c44.14-21.149 95.23 11.025 95.23 59.972v489.673c0 47.887-49.09 80.077-93.01 60.988l-457-198.632a45.5 45.5 0 0 0-18.13-3.771H769.414a45.5 45.5 0 0 0-18.521 3.94L308.07 830.644c-43.982 19.601-93.57-12.589-93.57-60.742V282.071c0-49.23 51.634-81.393 95.821-59.686L750.45 438.602a45.5 45.5 0 0 0 20.063 4.661h332.767c6.8 0 13.52-1.526 19.66-4.466z"/></g><defs><radialGradient id="b" cx="0" cy="0" r="1" gradientTransform="matrix(0 332 -718.5 0 943.5 524.169)" gradientUnits="userSpaceOnUse"><stop offset=".394" stop-color="#3d8bff"/><stop offset=".654" stop-color="#2c80ff"/><stop offset="1" stop-color="#0051ff"/></radialGradient><filter id="a" width="1887" height="1051.85" x="0" y="0" color-interpolation-filters="sRGB" filterUnits="userSpaceOnUse"><feFlood flood-opacity="0" result="BackgroundImageFix"/><feBlend in="SourceGraphic" in2="BackgroundImageFix" result="shape"/><feGaussianBlur result="effect1_foregroundBlur_0_398" stdDeviation="102"/></filter></defs></svg>