<svg xmlns="http://www.w3.org/2000/svg" fill="none" overflow="visible" preserveAspectRatio="none" style="display:block" viewBox="0 0 1887 819.603"><g filter="url(#a)"><path fill="url(#b)" d="M225 281.581c0-37.504 36.147-64.408 72.074-53.644l452.562 135.605a56 56 0 0 0 16.074 2.356h342.28c5.31 0 10.6-.757 15.7-2.248l466.6-136.353c35.85-10.476 71.71 16.406 71.71 53.752v257.512c0 36.76-34.82 63.55-70.35 54.13l-468.6-124.228a56 56 0 0 0-14.35-1.87H764.976c-4.962 0-9.902.659-14.69 1.961L295.689 592.126C260.076 601.807 225 574.993 225 538.087z"/><path stroke="var(--stroke-0, black)" stroke-width="21" d="M1587.35 217.219c42.56-12.44 85.15 19.482 85.15 63.83v257.512c0 43.653-41.35 75.466-83.54 64.28l-468.6-124.229a45.5 45.5 0 0 0-11.66-1.519H764.976c-4.032 0-8.046.536-11.936 1.593L298.443 602.259c-42.29 11.495-83.943-20.347-83.943-64.172V281.581c0-44.537 42.925-76.485 85.588-63.701l452.561 135.604a45.5 45.5 0 0 0 13.061 1.914h342.28c4.31 0 8.61-.614 12.76-1.826z"/></g><defs><radialGradient id="b" cx="0" cy="0" r="1" gradientTransform="matrix(0 202.5 -718.5 0 943.5 408.842)" gradientUnits="userSpaceOnUse"><stop offset=".394" stop-color="#3d8bff"/><stop offset=".654" stop-color="#2c80ff"/><stop offset="1" stop-color="#0051ff"/></radialGradient><filter id="a" width="1887" height="819.603" x="0" y="0" color-interpolation-filters="sRGB" filterUnits="userSpaceOnUse"><feFlood flood-opacity="0" result="BackgroundImageFix"/><feBlend in="SourceGraphic" in2="BackgroundImageFix" result="shape"/><feGaussianBlur result="effect1_foregroundBlur_0_453" stdDeviation="102"/></filter></defs></svg>