<svg xmlns="http://www.w3.org/2000/svg" fill="none" overflow="visible" preserveAspectRatio="none" style="display:block" viewBox="0 0 555.02 32.58"><path fill="url(#a)" d="M551.734 12.067V10h-546v2.067c0 6.039 0 9.058 1.175 11.365a10.78 10.78 0 0 0 4.71 4.712c2.305 1.175 5.322 1.175 11.358 1.175h511.515c6.036 0 9.053 0 11.358-1.175a10.78 10.78 0 0 0 4.71-4.712c1.174-2.307 1.174-5.326 1.174-11.365"/><path fill="url(#b)" d="M520.303 30.667c.719-.18 1.198-.973 1.347-1.348h-35.696c.15.375.629 1.168 1.347 1.348.075.524.404 1.573 1.122 1.573h30.758c.718 0 1.048-1.049 1.122-1.573"/><path fill="url(#c)" d="M520.271 30.842c-.115.552-.445 1.397-1.09 1.397h-30.758c-.67 0-.999-.912-1.101-1.46h32.949z"/><path fill="var(--fill-0, #383838)" d="M520.271 30.842c-.033.158-.086.34-.156.52h-32.624a3.3 3.3 0 0 1-.169-.583h32.949z"/><path fill="url(#d)" d="M69.719 30.667c.718-.18 1.197-.973 1.347-1.348H35.369c.15.375.629 1.168 1.347 1.348.075.524.404 1.573 1.123 1.573h30.757c.719 0 1.048-1.049 1.123-1.573"/><path fill="url(#e)" d="M69.686 30.843c-.115.552-.445 1.396-1.09 1.396H37.84c-.67 0-1-.912-1.102-1.46h32.949z"/><path fill="var(--fill-0, #383838)" d="M69.686 30.843a3.3 3.3 0 0 1-.156.518H36.906a3.3 3.3 0 0 1-.17-.582h32.95z"/><path fill="url(#f)" d="M231.139 10h94.966a7.413 7.413 0 0 1-7.413 7.413h-80.14A7.413 7.413 0 0 1 231.139 10"/><path stroke="var(--stroke-0, white)" stroke-opacity=".1" d="M325.585 10.5a6.91 6.91 0 0 1-6.893 6.413h-80.14a6.91 6.91 0 0 1-6.893-6.413z"/><path fill="url(#g)" d="M509.303 10h36.37v14.826h-36.37z"/><path fill="url(#h)" d="M0 0h37.717v14.826H0z" transform="matrix(-1 0 0 1 43.676 10)"/><g filter="url(#i)"><path fill="var(--fill-0, #d2d2da)" d="M541.183 10h5.837v9.038a3.54 3.54 0 0 1-3.542 3.542 2.295 2.295 0 0 1-2.295-2.295z"/></g><g filter="url(#j)"><path fill="var(--fill-0, #d2d2da)" d="M14.94 10H10v9.583a2.997 2.997 0 0 0 2.997 2.997c1.072 0 1.942-.87 1.942-1.942z"/></g><defs><linearGradient id="a" x1="278.734" x2="278.734" y1="10" y2="29.319" gradientUnits="userSpaceOnUse"><stop stop-color="#aeafb4"/><stop offset=".193" stop-color="#afb0b5"/><stop offset=".376" stop-color="#afb0b5"/><stop offset=".599" stop-color="#7d7e82"/><stop offset=".714" stop-color="#696a6f"/><stop offset=".852" stop-color="#838489"/><stop offset=".931" stop-color="#abacb0"/></linearGradient><linearGradient id="b" x1="485.954" x2="521.65" y1="30.779" y2="30.779" gradientUnits="userSpaceOnUse"><stop stop-color="#8c8d91"/><stop offset=".173" stop-color="#525358"/><stop offset=".318" stop-color="#78797d"/><stop offset=".465" stop-color="#a0a0a2"/><stop offset=".691" stop-color="#9a9a9c"/><stop offset=".826" stop-color="#4f5055"/><stop offset=".941" stop-color="#9e9ea0"/><stop offset="1" stop-color="#848589"/></linearGradient><linearGradient id="c" x1="487.322" x2="520.271" y1="31.509" y2="31.509" gradientUnits="userSpaceOnUse"><stop stop-color="#575757"/><stop offset=".083" stop-color="#2d2d2d"/><stop offset=".49" stop-color="#4e4e4e"/><stop offset=".825" stop-color="#2a2a2a"/><stop offset="1" stop-color="#5c5c5c"/></linearGradient><linearGradient id="d" x1="35.369" x2="71.066" y1="30.779" y2="30.779" gradientUnits="userSpaceOnUse"><stop stop-color="#8c8d91"/><stop offset=".173" stop-color="#525358"/><stop offset=".318" stop-color="#78797d"/><stop offset=".465" stop-color="#a0a0a2"/><stop offset=".691" stop-color="#9a9a9c"/><stop offset=".826" stop-color="#4f5055"/><stop offset=".941" stop-color="#9e9ea0"/><stop offset="1" stop-color="#848589"/></linearGradient><linearGradient id="e" x1="36.737" x2="69.686" y1="31.509" y2="31.509" gradientUnits="userSpaceOnUse"><stop stop-color="#575757"/><stop offset=".083" stop-color="#2d2d2d"/><stop offset=".49" stop-color="#4e4e4e"/><stop offset=".825" stop-color="#2a2a2a"/><stop offset="1" stop-color="#5c5c5c"/></linearGradient><linearGradient id="f" x1="231.363" x2="326.105" y1="13.594" y2="13.594" gradientUnits="userSpaceOnUse"><stop stop-color="#25262b"/><stop offset=".016" stop-color="#606166"/><stop offset=".036" stop-color="#9fa0a4"/><stop offset=".05" stop-color="#c8c8ce"/><stop offset=".479" stop-color="#d7d8dd"/><stop offset=".941" stop-color="#cbcbd3"/><stop offset=".97" stop-color="#a7a8ac"/><stop offset=".98" stop-color="#595a5e"/><stop offset="1" stop-color="#27282c"/></linearGradient><linearGradient id="g" x1="545.673" x2="509.303" y1="17.638" y2="17.638" gradientUnits="userSpaceOnUse"><stop stop-color="#65666b" stop-opacity="0"/><stop offset=".26" stop-color="#65666b"/><stop offset="1" stop-color="#65666b" stop-opacity="0"/></linearGradient><linearGradient id="h" x1="37.717" x2="0" y1="7.638" y2="7.638" gradientUnits="userSpaceOnUse"><stop stop-color="#65666b" stop-opacity="0"/><stop offset=".26" stop-color="#65666b"/><stop offset="1" stop-color="#65666b" stop-opacity="0"/></linearGradient><filter id="i" width="21.837" height="28.58" x="533.183" y="2" color-interpolation-filters="sRGB" filterUnits="userSpaceOnUse"><feFlood flood-opacity="0" result="BackgroundImageFix"/><feBlend in="SourceGraphic" in2="BackgroundImageFix" result="shape"/><feGaussianBlur result="effect1_foregroundBlur_0_880" stdDeviation="4"/></filter><filter id="j" width="24.939" height="32.58" x="0" y="0" color-interpolation-filters="sRGB" filterUnits="userSpaceOnUse"><feFlood flood-opacity="0" result="BackgroundImageFix"/><feBlend in="SourceGraphic" in2="BackgroundImageFix" result="shape"/><feGaussianBlur result="effect1_foregroundBlur_0_880" stdDeviation="5"/></filter></defs></svg>