<svg xmlns="http://www.w3.org/2000/svg" fill="none" overflow="visible" preserveAspectRatio="none" style="display:block" viewBox="0 0 147 147"><g filter="url(#a)"><circle cx="73.5" cy="73.5" r="39.5" fill="var(--fill-0, white)"/></g><path fill="var(--fill-0, #473dff)" fill-rule="evenodd" d="M65.657 59.289a103.5 103.5 0 0 1 16.458.08l3.3.28a5.43 5.43 0 0 1 3.24 1.434 5.4 5.4 0 0 1 1.654 3.12l.207 1.353a41.7 41.7 0 0 1-.195 13.822 4.73 4.73 0 0 1-1.633 2.79 4.77 4.77 0 0 1-3.051 1.1h-18.24c-.421 0-.834.102-1.204.3l-7.947 4.251a1.53 1.53 0 0 1-2.048-.588 1.5 1.5 0 0 1-.198-.748V69.259a9.94 9.94 0 0 1 2.673-6.778 10.04 10.04 0 0 1 6.592-3.162zm-.004 10.004c-.674 0-1.32.267-1.797.74a2.52 2.52 0 0 0 0 3.576 2.546 2.546 0 0 0 3.593 0 2.52 2.52 0 0 0 0-3.575 2.55 2.55 0 0 0-1.796-.74m8.128 0a2.55 2.55 0 0 0-1.796.74 2.52 2.52 0 0 0 0 3.576 2.546 2.546 0 0 0 3.593 0 2.52 2.52 0 0 0 0-3.575 2.55 2.55 0 0 0-1.797-.74m5.589 2.528c0-.67.267-1.313.744-1.787a2.547 2.547 0 0 1 3.592 0 2.52 2.52 0 0 1 0 3.575 2.546 2.546 0 0 1-3.592 0 2.52 2.52 0 0 1-.744-1.788" clip-rule="evenodd"/><defs><filter id="a" width="147" height="147" x="0" y="0" color-interpolation-filters="sRGB" filterUnits="userSpaceOnUse"><feFlood flood-opacity="0" result="BackgroundImageFix"/><feColorMatrix in="SourceAlpha" result="hardAlpha" values="0 0 0 0 0 0 0 0 0 0 0 0 0 0 0 0 0 0 127 0"/><feOffset/><feGaussianBlur stdDeviation="17"/><feComposite in2="hardAlpha" operator="out"/><feColorMatrix values="0 0 0 0 0.278241 0 0 0 0 0.240253 0 0 0 0 1 0 0 0 0.3 0"/><feBlend in2="BackgroundImageFix" result="effect1_dropShadow_0_715"/><feBlend in="SourceGraphic" in2="effect1_dropShadow_0_715" result="shape"/></filter></defs></svg>