<svg xmlns="http://www.w3.org/2000/svg" fill="none" aria-hidden="true" viewBox="0 0 1186 128"><path fill="#fffcfc" d="M17.28 28.62c2.7-2.52 3.96-5.58 3.96-9.18V5.4q0-5.4 5.4-5.4h97.02q5.4 0 5.4 5.4v14.04c0 3.6 1.26 6.66 3.96 9.18l12.96 12.42c2.88 2.7 4.32 5.58 4.32 9v72.36q0 5.4-5.4 5.4h-14.04q-5.4 0-5.4-5.4V30.24q0-5.4-5.4-5.4H30.24q-5.4 0-5.4 5.4v92.16q0 5.4-5.4 5.4H5.4q-5.4 0-5.4-5.4V50.04c0-3.42 1.44-6.3 4.32-9zm168.575 18q0 5.4 5.4 5.4h108.72q5.4 0 5.4 5.4v13.5q0 5.4-5.4 5.4h-108.72q-5.4 0-5.4 5.4v15.84q0 5.4 5.4 5.4h111.06q5.4 0 5.4 5.4v14.04q0 5.4-5.4 5.4h-91.26c-3.42 0-6.48-1.26-9-3.96l-12.42-13.32c-2.52-2.7-5.58-3.96-9.18-3.96h-14.04q-5.4 0-5.4-5.4V81.72q0-5.4 5.4-5.4h13.86q5.4 0 5.4-5.4v-13.5q0-5.4-5.4-5.4h-13.86q-5.4 0-5.4-5.4V26.64q0-5.4 5.4-5.4h14.04c3.6 0 6.66-1.26 9.18-3.96l12.42-13.32c2.52-2.7 5.58-3.96 9-3.96h91.26q5.4 0 5.4 5.4v14.04q0 5.4-5.4 5.4h-111.06q-5.4 0-5.4 5.4zm155.742 0q0 5.4 5.4 5.4h108.72q5.4 0 5.4 5.4v13.5q0 5.4-5.4 5.4h-108.72q-5.4 0-5.4 5.4v15.84q0 5.4 5.4 5.4h111.06q5.4 0 5.4 5.4v14.04q0 5.4-5.4 5.4h-91.26c-3.42 0-6.48-1.26-9-3.96l-12.42-13.32c-2.52-2.7-5.58-3.96-9.18-3.96h-14.04q-5.4 0-5.4-5.4V81.72q0-5.4 5.4-5.4h13.86q5.4 0 5.4-5.4v-13.5q0-5.4-5.4-5.4h-13.86q-5.4 0-5.4-5.4V26.64q0-5.4 5.4-5.4h14.04c3.6 0 6.66-1.26 9.18-3.96l12.42-13.32c2.52-2.7 5.58-3.96 9-3.96h91.26q5.4 0 5.4 5.4v14.04q0 5.4-5.4 5.4h-111.06q-5.4 0-5.4 5.4zM533.34 30.24q0-5.4-5.4-5.4H474.3q-5.4 0-5.4-5.4V5.4q0-5.4 5.4-5.4h33.84c3.42 0 6.48 1.26 9 3.96l12.42 13.32c2.52 2.7 5.58 3.96 9.18 3.96h14.04c3.6 0 6.66-1.26 9.18-3.96l12.42-13.32c2.52-2.7 5.58-3.96 9-3.96h33.84q5.4 0 5.4 5.4v14.04q0 5.4-5.4 5.4h-53.64q-5.4 0-5.4 5.4v92.16q0 5.4-5.4 5.4h-14.04q-5.4 0-5.4-5.4zm96.484 58.68q0-5.4 5.4-5.4h13.86q5.4 0 5.4-5.4v-13.5q0-5.4-5.4-5.4h-13.86q-5.4 0-5.4-5.4V26.64q0-5.4 5.4-5.4h14.04c3.6 0 6.66-1.26 9.18-3.96l12.42-13.32c2.52-2.7 5.58-3.96 9-3.96h58.14c1.62 0 3.42.54 5.22 1.44s3.42 2.34 4.68 3.96l29.52 35.64c1.26 1.44 2.16 3.06 3.06 4.68s1.26 3.42 1.26 5.22v2.88q0 5.4-5.4 5.4h-14.22q-5.4 0-5.4-5.4V30.24q0-5.4-5.4-5.4h-91.26q-5.4 0-5.4 5.4v23.58q0 5.4 5.4 5.4h74.88c3.6 0 6.12 1.62 7.74 4.86l16.56 34.2c.9 1.62 1.98 2.88 3.42 3.6q2.16 1.08 4.86 1.08h9q5.4 0 5.4 5.4v14.04q0 5.4-5.4 5.4h-22.68q-2.7 0-4.86-1.08c-1.44-.72-2.52-1.98-3.42-3.6l-16.56-34.74c-1.62-3.24-4.14-4.86-7.74-4.86h-61.2q-5.4 0-5.4 5.4v33.48q0 5.4-5.4 5.4h-14.04q-5.4 0-5.4-5.4zm207.589-58.68q0-5.4-5.4-5.4h-33.84q-5.4 0-5.4-5.4V5.4q0-5.4 5.4-5.4h14.04c3.42 0 6.48 1.26 9 3.96l12.42 13.32c2.52 2.7 5.58 3.96 9.18 3.96h14.04q5.4 0 5.4 5.4v95.76q0 5.4-5.4 5.4h-14.04q-5.4 0-5.4-5.4zm52.093-1.62c2.7-2.52 3.96-5.58 3.96-9.18V5.4q0-5.4 5.4-5.4h97.02q5.402 0 5.404 5.4v14.04c0 3.6 1.26 6.66 3.96 9.18l12.96 12.42c2.88 2.7 4.32 5.58 4.32 9v72.36q0 5.4-5.4 5.4h-14.04q-5.405 0-5.404-5.4V30.24q0-5.4-5.4-5.4h-89.82q-5.4 0-5.4 5.4v92.16q0 5.4-5.4 5.4h-14.04q-5.4 0-5.4-5.4V50.04c0-3.42 1.44-6.3 4.32-9zM1054.48 5.4q0-5.4 5.4-5.4h75.06c3.42 0 6.48 1.26 9 3.96l12.78 13.32c2.52 2.7 5.58 3.96 9.18 3.96h13.68c3.78 0 5.76 1.8 5.76 5.4v51.12c0 3.42-1.44 6.3-4.32 9l-12.96 12.42c-2.7 2.52-3.96 5.58-3.96 9.18v14.04q0 5.4-5.4 5.4h-75.42c-3.42 0-6.48-1.26-9-3.96l-12.42-13.32c-2.52-2.7-5.58-3.96-9.18-3.96h-14.04q-5.4 0-5.4-5.4V50.04c0-3.42 1.26-6.48 3.96-9l13.32-12.42c2.7-2.52 3.96-5.58 3.96-9.18zm100.62 97.56q5.4 0 5.4-5.4V30.24q0-5.4-5.4-5.4h-91.62q-5.4 0-5.4 5.4v67.32q0 5.4 5.4 5.4z"/></svg>