<svg xmlns="http://www.w3.org/2000/svg" fill="none" overflow="visible" preserveAspectRatio="none" style="display:block" viewBox="0 0 1756 1044.52"><g filter="url(#a)" opacity=".57" style="mix-blend-mode:screen"><path fill="url(#b)" d="M225 282.206c0-42.413 45.317-69.432 82.629-49.264l388.865 210.195a56 56 0 0 0 26.629 6.736h297.797c9.1 0 18.06-2.218 26.11-6.462l401.86-211.844c37.29-19.659 82.11 7.381 82.11 49.538v482.318c0 41.2-42.99 68.295-80.16 50.519l-404.61-193.499a56 56 0 0 0-24.16-5.48H721.947a56 56 0 0 0-24.655 5.719L305.656 812.728c-37.208 18.245-80.656-8.84-80.656-50.28z"/><path stroke="var(--stroke-0, #2e2bff)" stroke-width="21" d="M1443.99 222.279c44.28-23.346 97.51 8.765 97.51 58.826v482.317c0 48.926-51.05 81.101-95.19 59.993l-404.61-193.5a45.5 45.5 0 0 0-19.63-4.453H721.947a45.5 45.5 0 0 0-20.032 4.648L310.278 822.156c-44.184 21.666-95.778-10.498-95.778-59.708V282.206c0-50.365 53.814-82.45 98.121-58.5L701.486 433.9a45.5 45.5 0 0 0 21.636 5.473h297.798a45.56 45.56 0 0 0 21.22-5.25z"/></g><defs><radialGradient id="b" cx="0" cy="0" r="1" gradientTransform="matrix(0 332 -653 0 878 520.279)" gradientUnits="userSpaceOnUse"><stop offset=".394" stop-color="#3d8bff"/><stop offset=".654" stop-color="#2c80ff"/><stop offset="1" stop-color="#0051ff"/></radialGradient><filter id="a" width="1756" height="1044.52" x="0" y="0" color-interpolation-filters="sRGB" filterUnits="userSpaceOnUse"><feFlood flood-opacity="0" result="BackgroundImageFix"/><feBlend in="SourceGraphic" in2="BackgroundImageFix" result="shape"/><feGaussianBlur result="effect1_foregroundBlur_0_721" stdDeviation="102"/></filter></defs></svg>