<svg xmlns="http://www.w3.org/2000/svg" fill="none" overflow="visible" preserveAspectRatio="none" style="display:block" viewBox="0 0 738 448.436"><g filter="url(#a)"><path fill="url(#b)" d="M145 202.207c0-42.423 45.337-69.441 82.649-49.252l70.893 38.358a56 56 0 0 0 26.649 6.747h83.719a56 56 0 0 0 26.135-6.472l75.82-40.01c37.293-19.679 82.135 7.36 82.135 49.527v46.236c0 41.211-43.01 68.305-80.18 50.511l-78.574-37.615a56 56 0 0 0-24.181-5.489h-86.05a56 56 0 0 0-24.675 5.729l-73.664 36.159C188.467 314.9 145 287.815 145 246.365z"/><path stroke="var(--stroke-0, #2e2bff)" stroke-width="21" d="M505.965 142.291c44.285-23.368 97.535 8.741 97.535 58.814v46.236c0 48.937-51.074 81.112-95.214 59.982l-78.574-37.616a45.5 45.5 0 0 0-19.647-4.46h-86.049a45.5 45.5 0 0 0-20.049 4.656l-73.665 36.159c-44.186 21.688-95.802-10.475-95.802-59.696v-44.159c0-50.378 53.837-82.46 98.146-58.487l70.893 38.358a45.5 45.5 0 0 0 21.652 5.482h83.718c7.401 0 14.69-1.805 21.236-5.259z"/></g><defs><radialGradient id="b" cx="0" cy="0" r="1" gradientTransform="matrix(0 114 -224 0 369 222.236)" gradientUnits="userSpaceOnUse"><stop offset=".394" stop-color="#3d8bff"/><stop offset=".654" stop-color="#2c80ff"/><stop offset="1" stop-color="#0051ff"/></radialGradient><filter id="a" width="738" height="448.436" x="0" y="0" color-interpolation-filters="sRGB" filterUnits="userSpaceOnUse"><feFlood flood-opacity="0" result="BackgroundImageFix"/><feBlend in="SourceGraphic" in2="BackgroundImageFix" result="shape"/><feGaussianBlur result="effect1_foregroundBlur_0_54" stdDeviation="62"/></filter></defs></svg>