<svg xmlns="http://www.w3.org/2000/svg" fill="none" overflow="visible" preserveAspectRatio="none" style="display:block" viewBox="0 0 1887 666.379"><g filter="url(#a)"><path fill="var(--fill-0, #2863c3)" d="M225 281.303c0-34.78 31.371-61.148 65.632-55.166l462.088 80.682c3.181.556 6.403.835 9.632.835h348.918c3.15 0 6.29-.266 9.4-.795l475.93-81.045c34.19-5.822 65.4 20.521 65.4 55.206v104.342c0 34.336-30.62 60.586-64.55 55.344l-477.2-73.719a56 56 0 0 0-8.55-.657H761.908c-2.934 0-5.864.231-8.761.69l-463.386 73.4C255.763 445.805 225 419.531 225 385.109z"/><path stroke="var(--stroke-0, #3b38ff)" stroke-width="21" d="M1594.84 215.464c40.6-6.914 77.66 24.368 77.66 65.555v104.343c0 40.774-36.36 71.946-76.65 65.721l-477.2-73.719c-2.3-.355-4.62-.534-6.95-.534H761.907c-2.383 0-4.764.188-7.118.561L291.404 450.79c-40.373 6.395-76.904-24.805-76.904-65.681V281.303c0-41.301 37.253-72.613 77.938-65.509l462.088 80.681c2.585.452 5.203.679 7.827.679h348.917c2.56 0 5.11-.217 7.63-.646z"/></g><defs><filter id="a" width="1887" height="666.379" x="0" y="0" color-interpolation-filters="sRGB" filterUnits="userSpaceOnUse"><feFlood flood-opacity="0" result="BackgroundImageFix"/><feBlend in="SourceGraphic" in2="BackgroundImageFix" result="shape"/><feGaussianBlur result="effect1_foregroundBlur_0_625" stdDeviation="102"/></filter></defs></svg>