<svg xmlns="http://www.w3.org/2000/svg" fill="none" overflow="visible" preserveAspectRatio="none" style="display:block" viewBox="0 0 19 19"><path fill="var(--fill-0, white)" d="M9.85.395c3.595 0 5.392 0 6.687.856a5.2 5.2 0 0 1 1.456 1.457c.857 1.294.857 3.092.857 6.687s0 5.393-.857 6.688a5.2 5.2 0 0 1-1.456 1.456c-1.295.856-3.092.856-6.687.856s-5.393 0-6.688-.856a5.2 5.2 0 0 1-1.456-1.457C.85 14.789.85 12.99.85 9.395s0-5.393.856-6.687A5.2 5.2 0 0 1 3.162 1.25C4.457.395 6.255.395 9.85.395m0 4.34a4.66 4.66 0 1 0 .001 9.32 4.66 4.66 0 0 0 0-9.32m0 1.577a3.083 3.083 0 1 1 0 6.167 3.083 3.083 0 0 1 0-6.167m4.844-2.905a1.095 1.095 0 1 0 0 2.19 1.095 1.095 0 0 0 0-2.19"/></svg>