<svg xmlns="http://www.w3.org/2000/svg" fill="none" overflow="visible" preserveAspectRatio="none" style="display:block" viewBox="0 0 18.796 20.472"><path fill="var(--fill-0, white)" fill-rule="evenodd" d="M14.175.527a21.9 21.9 0 0 0-9.555 0l-.339.075a4.9 4.9 0 0 0-3.684 3.58 19.5 19.5 0 0 0 0 9.578 4.9 4.9 0 0 0 3.444 3.52l.465 2.775a.5.5 0 0 0 .826.29l2.731-2.442a22 22 0 0 0 6.112-.487l.34-.076a4.9 4.9 0 0 0 3.684-3.58 19.5 19.5 0 0 0 0-9.577 4.9 4.9 0 0 0-3.685-3.58zm-8.71 3.574a.82.82 0 0 0-.538.106h-.014c-.375.22-.713.497-1 .823-.24.277-.37.557-.405.827-.02.16-.006.322.041.475l.018.01c.27.793.622 1.556 1.052 2.274a13.4 13.4 0 0 0 2.03 2.776l.024.034.038.027.023.027.028.024a13.6 13.6 0 0 0 2.782 2.04c1.155.63 1.856.926 2.277 1.05v.007c.123.037.235.054.348.054a1.6 1.6 0 0 0 .964-.413c.325-.289.6-.628.814-1.005v-.007c.201-.38.133-.738-.157-.98a12 12 0 0 0-1.88-1.35c-.449-.244-.904-.097-1.088.15l-.393.495c-.202.246-.568.213-.568.213l-.01.006c-2.73-.697-3.46-3.463-3.46-3.463s-.034-.376.22-.568l.491-.396c.236-.192.4-.646.147-1.094a12 12 0 0 0-1.347-1.88.75.75 0 0 0-.44-.263m4.616-1.2a.5.5 0 1 0 0 1c1.265 0 2.315.412 3.146 1.204.427.433.76.946.978 1.508.22.563.32 1.164.293 1.766a.5.5 0 1 0 1 .042 5.4 5.4 0 0 0-1.565-4.024l-.01-.01C12.89 3.401 11.584 2.9 10.078 2.9m-.034 1.643a.5.5 0 1 0 0 1h.017c.912.065 1.576.37 2.041.868.477.514.724 1.153.705 1.943a.5.5 0 1 0 1 .023c.024-1.037-.31-1.932-.972-2.646V5.73c-.677-.726-1.606-1.11-2.724-1.185l-.017-.002zm-.019 1.675a.5.5 0 1 0-.052.998c.418.022.685.148.853.317.17.17.295.443.318.87a.5.5 0 1 0 .998-.053c-.032-.6-.22-1.13-.605-1.52-.387-.39-.914-.58-1.512-.612" clip-rule="evenodd"/></svg>