<svg xmlns="http://www.w3.org/2000/svg" fill="none" overflow="visible" preserveAspectRatio="none" style="display:block" viewBox="0 0 4463.75 1723.74"><path stroke="url(#a)" stroke-width="1.745" d="M102.281.872H.872v90.632M102.281.872v90.632m0-90.632h101.41m-101.41 90.632H.872m101.409 0v90.632m0-90.632h101.41m-202.819 0v90.632m101.409 0H.872m101.409 0v90.631m0-90.631h101.41m-202.819 0v90.631m101.409 0H.872m101.409 0v90.632m0-90.632h101.41m-202.819 0v90.632m101.409 0H.872m101.409 0v90.631m0-90.631h101.41m-202.819 0v90.631m101.409 0H.872m101.409 0v90.632m0-90.632h101.41m-202.819 0v90.632m101.409 0H.872m101.409 0v90.631m0-90.631h101.41m-202.819 0v90.631m101.409 0H.872m101.409 0v90.632m0-90.632h101.41m-202.819 0v90.632m101.409 0H.872m101.409 0v90.632m0-90.632h101.41m-202.819 0v90.632m101.409 0H.872m101.409 0v90.631m0-90.631h101.41m-202.819 0v90.631m101.409 0H.872m101.409 0v90.632m0-90.632h101.41m-202.819 0v90.632m101.409 0H.872m101.409 0v90.63m0-90.63h101.41m-202.819 0v90.63m101.409 0H.872m101.409 0v90.63m0-90.63h101.41m-202.819 0v90.63m101.409 0H.872m101.409 0v90.63m0-90.63h101.41m-202.819 0v90.63m101.409 0H.872m101.409 0v90.64m0-90.64h101.41m-202.819 0v90.64m101.409 0H.872m101.409 0v90.63m0-90.63h101.41m-202.819 0v90.63m101.409 0H.872m101.409 0v90.63m0-90.63h101.41m-202.819 0v90.63m101.409 0H.872m101.409 0v90.63m0-90.63h101.41m-202.819 0v90.63m101.409 0H.872m101.409 0v90.63m0-90.63h101.41m-202.819 0v90.63h101.409m0 0h101.41m0-1721.998v90.632m0-90.632H305.1M203.691 91.504v90.632m0-90.632H305.1m-101.409 90.632v90.631m0-90.631H305.1m-101.409 90.631v90.632m0-90.632H305.1m-101.409 90.632v90.631m0-90.631H305.1M203.691 454.03v90.632m0-90.632H305.1m-101.409 90.632v90.631m0-90.631H305.1m-101.409 90.631v90.632m0-90.632H305.1m-101.409 90.632v90.632m0-90.632H305.1m-101.409 90.632v90.631m0-90.631H305.1m-101.409 90.631v90.632m0-90.632H305.1M203.691 997.82v90.63m0-90.63H305.1m-101.409 90.63v90.63m0-90.63H305.1m-101.409 90.63v90.63m0-90.63H305.1m-101.409 90.63v90.64m0-90.64H305.1m-101.409 90.64v90.63m0-90.63H305.1m-101.409 90.63v90.63m0-90.63H305.1m-101.409 90.63v90.63m0-90.63H305.1m-101.409 90.63v90.63m0-90.63H305.1m-101.409 90.63H305.1M305.1.872v90.632m0-90.632h101.409M305.1 91.504v90.632m0-90.632h101.409M305.1 182.136v90.631m0-90.631h101.409M305.1 272.767v90.632m0-90.632h101.409M305.1 363.399v90.631m0-90.631h101.409M305.1 454.03v90.632m0-90.632h101.409M305.1 544.662v90.631m0-90.631h101.409M305.1 635.293v90.632m0-90.632h101.409M305.1 725.925v90.632m0-90.632h101.409M305.1 816.557v90.631m0-90.631h101.409M305.1 907.188v90.632m0-90.632h101.409M305.1 997.82v90.63m0-90.63h101.409M305.1 1088.45v90.63m0-90.63h101.409M305.1 1179.08v90.63m0-90.63h101.409M305.1 1269.71v90.64m0-90.64h101.409M305.1 1360.35v90.63m0-90.63h101.409M305.1 1450.98v90.63m0-90.63h101.409M305.1 1541.61v90.63m0-90.63h101.409M305.1 1632.24v90.63m0-90.63h101.409M305.1 1722.87h101.409m0-1721.998v90.632m0-90.632h101.409M406.509 91.504v90.632m0-90.632h101.409m-101.409 90.632v90.631m0-90.631h101.409m-101.409 90.631v90.632m0-90.632h101.409m-101.409 90.632v90.631m0-90.631h101.409M406.509 454.03v90.632m0-90.632h101.409m-101.409 90.632v90.631m0-90.631h101.409m-101.409 90.631v90.632m0-90.632h101.409m-101.409 90.632v90.632m0-90.632h101.409m-101.409 90.632v90.631m0-90.631h101.409m-101.409 90.631v90.632m0-90.632h101.409M406.509 997.82v90.63m0-90.63h101.409m-101.409 90.63v90.63m0-90.63h101.409m-101.409 90.63v90.63m0-90.63h101.409m-101.409 90.63v90.64m0-90.64h101.409m-101.409 90.64v90.63m0-90.63h101.409m-101.409 90.63v90.63m0-90.63h101.409m-101.409 90.63v90.63m0-90.63h101.409m-101.409 90.63v90.63m0-90.63h101.409m-101.409 90.63h101.409m0-1721.998v90.632m0-90.632h101.409M507.918 91.504v90.632m0-90.632h101.409m-101.409 90.632v90.631m0-90.631h101.409m-101.409 90.631v90.632m0-90.632h101.409m-101.409 90.632v90.631m0-90.631h101.409M507.918 454.03v90.632m0-90.632h101.409m-101.409 90.632v90.631m0-90.631h101.409m-101.409 90.631v90.632m0-90.632h101.409m-101.409 90.632v90.632m0-90.632h101.409m-101.409 90.632v90.631m0-90.631h101.409m-101.409 90.631v90.632m0-90.632h101.409M507.918 997.82v90.63m0-90.63h101.409m-101.409 90.63v90.63m0-90.63h101.409m-101.409 90.63v90.63m0-90.63h101.409m-101.409 90.63v90.64m0-90.64h101.409m-101.409 90.64v90.63m0-90.63h101.409m-101.409 90.63v90.63m0-90.63h101.409m-101.409 90.63v90.63m0-90.63h101.409m-101.409 90.63v90.63m0-90.63h101.409m-101.409 90.63h101.409m0-1721.998v90.632m0-90.632h101.409M609.327 91.504v90.632m0-90.632h101.409m-101.409 90.632v90.631m0-90.631h101.409m-101.409 90.631v90.632m0-90.632h101.409m-101.409 90.632v90.631m0-90.631h101.409M609.327 454.03v90.632m0-90.632h101.409m-101.409 90.632v90.631m0-90.631h101.409m-101.409 90.631v90.632m0-90.632h101.409m-101.409 90.632v90.632m0-90.632h101.409m-101.409 90.632v90.631m0-90.631h101.409m-101.409 90.631v90.632m0-90.632h101.409M609.327 997.82v90.63m0-90.63h101.409m-101.409 90.63v90.63m0-90.63h101.409m-101.409 90.63v90.63m0-90.63h101.409m-101.409 90.63v90.64m0-90.64h101.409m-101.409 90.64v90.63m0-90.63h101.409m-101.409 90.63v90.63m0-90.63h101.409m-101.409 90.63v90.63m0-90.63h101.409m-101.409 90.63v90.63m0-90.63h101.409m-101.409 90.63h101.409m0-1721.998v90.632m0-90.632h101.409M710.736 91.504v90.632m0-90.632h101.409m-101.409 90.632v90.631m0-90.631h101.409m-101.409 90.631v90.632m0-90.632h101.409m-101.409 90.632v90.631m0-90.631h101.409M710.736 454.03v90.632m0-90.632h101.409m-101.409 90.632v90.631m0-90.631h101.409m-101.409 90.631v90.632m0-90.632h101.409m-101.409 90.632v90.632m0-90.632h101.409m-101.409 90.632v90.631m0-90.631h101.409m-101.409 90.631v90.632m0-90.632h101.409M710.736 997.82v90.63m0-90.63h101.409m-101.409 90.63v90.63m0-90.63h101.409m-101.409 90.63v90.63m0-90.63h101.409m-101.409 90.63v90.64m0-90.64h101.409m-101.409 90.64v90.63m0-90.63h101.409m-101.409 90.63v90.63m0-90.63h101.409m-101.409 90.63v90.63m0-90.63h101.409m-101.409 90.63v90.63m0-90.63h101.409m-101.409 90.63h101.409m0-1721.998v90.632m0-90.632h101.409M812.145 91.504v90.632m0-90.632h101.409m-101.409 90.632v90.631m0-90.631h101.409m-101.409 90.631v90.632m0-90.632h101.409m-101.409 90.632v90.631m0-90.631h101.409M812.145 454.03v90.632m0-90.632h101.409m-101.409 90.632v90.631m0-90.631h101.409m-101.409 90.631v90.632m0-90.632h101.409m-101.409 90.632v90.632m0-90.632h101.409m-101.409 90.632v90.631m0-90.631h101.409m-101.409 90.631v90.632m0-90.632h101.409M812.145 997.82v90.63m0-90.63h101.409m-101.409 90.63v90.63m0-90.63h101.409m-101.409 90.63v90.63m0-90.63h101.409m-101.409 90.63v90.64m0-90.64h101.409m-101.409 90.64v90.63m0-90.63h101.409m-101.409 90.63v90.63m0-90.63h101.409m-101.409 90.63v90.63m0-90.63h101.409m-101.409 90.63v90.63m0-90.63h101.409m-101.409 90.63h101.409m0-1721.998v90.632m0-90.632h101.406M913.554 91.504v90.632m0-90.632h101.406m-101.406 90.632v90.631m0-90.631h101.406m-101.406 90.631v90.632m0-90.632h101.406m-101.406 90.632v90.631m0-90.631h101.406M913.554 454.03v90.632m0-90.632h101.406m-101.406 90.632v90.631m0-90.631h101.406m-101.406 90.631v90.632m0-90.632h101.406m-101.406 90.632v90.632m0-90.632h101.406m-101.406 90.632v90.631m0-90.631h101.406m-101.406 90.631v90.632m0-90.632h101.406M913.554 997.82v90.63m0-90.63h101.406m-101.406 90.63v90.63m0-90.63h101.406m-101.406 90.63v90.63m0-90.63h101.406m-101.406 90.63v90.64m0-90.64h101.406m-101.406 90.64v90.63m0-90.63h101.406m-101.406 90.63v90.63m0-90.63h101.406m-101.406 90.63v90.63m0-90.63h101.406m-101.406 90.63v90.63m0-90.63h101.406m-101.406 90.63h101.406m0-1721.998v90.632m0-90.632h101.41m-101.41 90.632v90.632m0-90.632h101.41m-101.41 90.632v90.631m0-90.631h101.41m-101.41 90.631v90.632m0-90.632h101.41m-101.41 90.632v90.631m0-90.631h101.41m-101.41 90.631v90.632m0-90.632h101.41m-101.41 90.632v90.631m0-90.631h101.41m-101.41 90.631v90.632m0-90.632h101.41m-101.41 90.632v90.632m0-90.632h101.41m-101.41 90.632v90.631m0-90.631h101.41m-101.41 90.631v90.632m0-90.632h101.41m-101.41 90.632v90.63m0-90.63h101.41m-101.41 90.63v90.63m0-90.63h101.41m-101.41 90.63v90.63m0-90.63h101.41m-101.41 90.63v90.64m0-90.64h101.41m-101.41 90.64v90.63m0-90.63h101.41m-101.41 90.63v90.63m0-90.63h101.41m-101.41 90.63v90.63m0-90.63h101.41m-101.41 90.63v90.63m0-90.63h101.41m-101.41 90.63h101.41m0-1721.998v90.632m0-90.632h101.41m-101.41 90.632v90.632m0-90.632h101.41m-101.41 90.632v90.631m0-90.631h101.41m-101.41 90.631v90.632m0-90.632h101.41m-101.41 90.632v90.631m0-90.631h101.41m-101.41 90.631v90.632m0-90.632h101.41m-101.41 90.632v90.631m0-90.631h101.41m-101.41 90.631v90.632m0-90.632h101.41m-101.41 90.632v90.632m0-90.632h101.41m-101.41 90.632v90.631m0-90.631h101.41m-101.41 90.631v90.632m0-90.632h101.41m-101.41 90.632v90.63m0-90.63h101.41m-101.41 90.63v90.63m0-90.63h101.41m-101.41 90.63v90.63m0-90.63h101.41m-101.41 90.63v90.64m0-90.64h101.41m-101.41 90.64v90.63m0-90.63h101.41m-101.41 90.63v90.63m0-90.63h101.41m-101.41 90.63v90.63m0-90.63h101.41m-101.41 90.63v90.63m0-90.63h101.41m-101.41 90.63h101.41m0-1721.998v90.632m0-90.632h101.41m-101.41 90.632v90.632m0-90.632h101.41m-101.41 90.632v90.631m0-90.631h101.41m-101.41 90.631v90.632m0-90.632h101.41m-101.41 90.632v90.631m0-90.631h101.41m-101.41 90.631v90.632m0-90.632h101.41m-101.41 90.632v90.631m0-90.631h101.41m-101.41 90.631v90.632m0-90.632h101.41m-101.41 90.632v90.632m0-90.632h101.41m-101.41 90.632v90.631m0-90.631h101.41m-101.41 90.631v90.632m0-90.632h101.41m-101.41 90.632v90.63m0-90.63h101.41m-101.41 90.63v90.63m0-90.63h101.41m-101.41 90.63v90.63m0-90.63h101.41m-101.41 90.63v90.64m0-90.64h101.41m-101.41 90.64v90.63m0-90.63h101.41m-101.41 90.63v90.63m0-90.63h101.41m-101.41 90.63v90.63m0-90.63h101.41m-101.41 90.63v90.63m0-90.63h101.41m-101.41 90.63h101.41m0-1721.998v90.632m0-90.632h101.41m-101.41 90.632v90.632m0-90.632h101.41m-101.41 90.632v90.631m0-90.631h101.41m-101.41 90.631v90.632m0-90.632h101.41m-101.41 90.632v90.631m0-90.631h101.41m-101.41 90.631v90.632m0-90.632h101.41m-101.41 90.632v90.631m0-90.631h101.41m-101.41 90.631v90.632m0-90.632h101.41m-101.41 90.632v90.632m0-90.632h101.41m-101.41 90.632v90.631m0-90.631h101.41m-101.41 90.631v90.632m0-90.632h101.41m-101.41 90.632v90.63m0-90.63h101.41m-101.41 90.63v90.63m0-90.63h101.41m-101.41 90.63v90.63m0-90.63h101.41m-101.41 90.63v90.64m0-90.64h101.41m-101.41 90.64v90.63m0-90.63h101.41m-101.41 90.63v90.63m0-90.63h101.41m-101.41 90.63v90.63m0-90.63h101.41m-101.41 90.63v90.63m0-90.63h101.41m-101.41 90.63h101.41m0-1721.998v90.632m0-90.632h101.41M1420.6 91.504v90.632m0-90.632h101.41m-101.41 90.632v90.631m0-90.631h101.41m-101.41 90.631v90.632m0-90.632h101.41m-101.41 90.632v90.631m0-90.631h101.41M1420.6 454.03v90.632m0-90.632h101.41m-101.41 90.632v90.631m0-90.631h101.41m-101.41 90.631v90.632m0-90.632h101.41m-101.41 90.632v90.632m0-90.632h101.41m-101.41 90.632v90.631m0-90.631h101.41m-101.41 90.631v90.632m0-90.632h101.41M1420.6 997.82v90.63m0-90.63h101.41m-101.41 90.63v90.63m0-90.63h101.41m-101.41 90.63v90.63m0-90.63h101.41m-101.41 90.63v90.64m0-90.64h101.41m-101.41 90.64v90.63m0-90.63h101.41m-101.41 90.63v90.63m0-90.63h101.41m-101.41 90.63v90.63m0-90.63h101.41m-101.41 90.63v90.63m0-90.63h101.41m-101.41 90.63h101.41m0-1721.998v90.632m0-90.632h101.41m-101.41 90.632v90.632m0-90.632h101.41m-101.41 90.632v90.631m0-90.631h101.41m-101.41 90.631v90.632m0-90.632h101.41m-101.41 90.632v90.631m0-90.631h101.41m-101.41 90.631v90.632m0-90.632h101.41m-101.41 90.632v90.631m0-90.631h101.41m-101.41 90.631v90.632m0-90.632h101.41m-101.41 90.632v90.632m0-90.632h101.41m-101.41 90.632v90.631m0-90.631h101.41m-101.41 90.631v90.632m0-90.632h101.41m-101.41 90.632v90.63m0-90.63h101.41m-101.41 90.63v90.63m0-90.63h101.41m-101.41 90.63v90.63m0-90.63h101.41m-101.41 90.63v90.64m0-90.64h101.41m-101.41 90.64v90.63m0-90.63h101.41m-101.41 90.63v90.63m0-90.63h101.41m-101.41 90.63v90.63m0-90.63h101.41m-101.41 90.63v90.63m0-90.63h101.41m-101.41 90.63h101.41m0-1721.998v90.632m0-90.632h101.41m-101.41 90.632v90.632m0-90.632h101.41m-101.41 90.632v90.631m0-90.631h101.41m-101.41 90.631v90.632m0-90.632h101.41m-101.41 90.632v90.631m0-90.631h101.41m-101.41 90.631v90.632m0-90.632h101.41m-101.41 90.632v90.631m0-90.631h101.41m-101.41 90.631v90.632m0-90.632h101.41m-101.41 90.632v90.632m0-90.632h101.41m-101.41 90.632v90.631m0-90.631h101.41m-101.41 90.631v90.632m0-90.632h101.41m-101.41 90.632v90.63m0-90.63h101.41m-101.41 90.63v90.63m0-90.63h101.41m-101.41 90.63v90.63m0-90.63h101.41m-101.41 90.63v90.64m0-90.64h101.41m-101.41 90.64v90.63m0-90.63h101.41m-101.41 90.63v90.63m0-90.63h101.41m-101.41 90.63v90.63m0-90.63h101.41m-101.41 90.63v90.63m0-90.63h101.41m-101.41 90.63h101.41m0-1721.998v90.632m0-90.632h101.41m-101.41 90.632v90.632m0-90.632h101.41m-101.41 90.632v90.631m0-90.631h101.41m-101.41 90.631v90.632m0-90.632h101.41m-101.41 90.632v90.631m0-90.631h101.41m-101.41 90.631v90.632m0-90.632h101.41m-101.41 90.632v90.631m0-90.631h101.41m-101.41 90.631v90.632m0-90.632h101.41m-101.41 90.632v90.632m0-90.632h101.41m-101.41 90.632v90.631m0-90.631h101.41m-101.41 90.631v90.632m0-90.632h101.41m-101.41 90.632v90.63m0-90.63h101.41m-101.41 90.63v90.63m0-90.63h101.41m-101.41 90.63v90.63m0-90.63h101.41m-101.41 90.63v90.64m0-90.64h101.41m-101.41 90.64v90.63m0-90.63h101.41m-101.41 90.63v90.63m0-90.63h101.41m-101.41 90.63v90.63m0-90.63h101.41m-101.41 90.63v90.63m0-90.63h101.41m-101.41 90.63h101.41m0-1721.998v90.632m0-90.632h101.41m-101.41 90.632v90.632m0-90.632h101.41m-101.41 90.632v90.631m0-90.631h101.41m-101.41 90.631v90.632m0-90.632h101.41m-101.41 90.632v90.631m0-90.631h101.41m-101.41 90.631v90.632m0-90.632h101.41m-101.41 90.632v90.631m0-90.631h101.41m-101.41 90.631v90.632m0-90.632h101.41m-101.41 90.632v90.632m0-90.632h101.41m-101.41 90.632v90.631m0-90.631h101.41m-101.41 90.631v90.632m0-90.632h101.41m-101.41 90.632v90.63m0-90.63h101.41m-101.41 90.63v90.63m0-90.63h101.41m-101.41 90.63v90.63m0-90.63h101.41m-101.41 90.63v90.64m0-90.64h101.41m-101.41 90.64v90.63m0-90.63h101.41m-101.41 90.63v90.63m0-90.63h101.41m-101.41 90.63v90.63m0-90.63h101.41m-101.41 90.63v90.63m0-90.63h101.41m-101.41 90.63h101.41m0-1721.998v90.632m0-90.632h101.4m-101.4 90.632v90.632m0-90.632h101.4m-101.4 90.632v90.631m0-90.631h101.4m-101.4 90.631v90.632m0-90.632h101.4m-101.4 90.632v90.631m0-90.631h101.4m-101.4 90.631v90.632m0-90.632h101.4m-101.4 90.632v90.631m0-90.631h101.4m-101.4 90.631v90.632m0-90.632h101.4m-101.4 90.632v90.632m0-90.632h101.4m-101.4 90.632v90.631m0-90.631h101.4m-101.4 90.631v90.632m0-90.632h101.4m-101.4 90.632v90.63m0-90.63h101.4m-101.4 90.63v90.63m0-90.63h101.4m-101.4 90.63v90.63m0-90.63h101.4m-101.4 90.63v90.64m0-90.64h101.4m-101.4 90.64v90.63m0-90.63h101.4m-101.4 90.63v90.63m0-90.63h101.4m-101.4 90.63v90.63m0-90.63h101.4m-101.4 90.63v90.63m0-90.63h101.4m-101.4 90.63h101.4m0-1721.998v90.632m0-90.632h101.41m-101.41 90.632v90.632m0-90.632h101.41m-101.41 90.632v90.631m0-90.631h101.41m-101.41 90.631v90.632m0-90.632h101.41m-101.41 90.632v90.631m0-90.631h101.41m-101.41 90.631v90.632m0-90.632h101.41m-101.41 90.632v90.631m0-90.631h101.41m-101.41 90.631v90.632m0-90.632h101.41m-101.41 90.632v90.632m0-90.632h101.41m-101.41 90.632v90.631m0-90.631h101.41m-101.41 90.631v90.632m0-90.632h101.41m-101.41 90.632v90.63m0-90.63h101.41m-101.41 90.63v90.63m0-90.63h101.41m-101.41 90.63v90.63m0-90.63h101.41m-101.41 90.63v90.64m0-90.64h101.41m-101.41 90.64v90.63m0-90.63h101.41m-101.41 90.63v90.63m0-90.63h101.41m-101.41 90.63v90.63m0-90.63h101.41m-101.41 90.63v90.63m0-90.63h101.41m-101.41 90.63h101.41m0-1721.998v90.632m0-90.632h101.41m-101.41 90.632v90.632m0-90.632h101.41m-101.41 90.632v90.631m0-90.631h101.41m-101.41 90.631v90.632m0-90.632h101.41m-101.41 90.632v90.631m0-90.631h101.41m-101.41 90.631v90.632m0-90.632h101.41m-101.41 90.632v90.631m0-90.631h101.41m-101.41 90.631v90.632m0-90.632h101.41m-101.41 90.632v90.632m0-90.632h101.41m-101.41 90.632v90.631m0-90.631h101.41m-101.41 90.631v90.632m0-90.632h101.41m-101.41 90.632v90.63m0-90.63h101.41m-101.41 90.63v90.63m0-90.63h101.41m-101.41 90.63v90.63m0-90.63h101.41m-101.41 90.63v90.64m0-90.64h101.41m-101.41 90.64v90.63m0-90.63h101.41m-101.41 90.63v90.63m0-90.63h101.41m-101.41 90.63v90.63m0-90.63h101.41m-101.41 90.63v90.63m0-90.63h101.41m-101.41 90.63h101.41m0-1721.998v90.632m0-90.632h101.41m-101.41 90.632v90.632m0-90.632h101.41m-101.41 90.632v90.631m0-90.631h101.41m-101.41 90.631v90.632m0-90.632h101.41m-101.41 90.632v90.631m0-90.631h101.41m-101.41 90.631v90.632m0-90.632h101.41m-101.41 90.632v90.631m0-90.631h101.41m-101.41 90.631v90.632m0-90.632h101.41m-101.41 90.632v90.632m0-90.632h101.41m-101.41 90.632v90.631m0-90.631h101.41m-101.41 90.631v90.632m0-90.632h101.41m-101.41 90.632v90.63m0-90.63h101.41m-101.41 90.63v90.63m0-90.63h101.41m-101.41 90.63v90.63m0-90.63h101.41m-101.41 90.63v90.64m0-90.64h101.41m-101.41 90.64v90.63m0-90.63h101.41m-101.41 90.63v90.63m0-90.63h101.41m-101.41 90.63v90.63m0-90.63h101.41m-101.41 90.63v90.63m0-90.63h101.41m-101.41 90.63h101.41m0-1721.998v90.632m0-90.632h101.41m-101.41 90.632v90.632m0-90.632h101.41m-101.41 90.632v90.631m0-90.631h101.41m-101.41 90.631v90.632m0-90.632h101.41m-101.41 90.632v90.631m0-90.631h101.41m-101.41 90.631v90.632m0-90.632h101.41m-101.41 90.632v90.631m0-90.631h101.41m-101.41 90.631v90.632m0-90.632h101.41m-101.41 90.632v90.632m0-90.632h101.41m-101.41 90.632v90.631m0-90.631h101.41m-101.41 90.631v90.632m0-90.632h101.41m-101.41 90.632v90.63m0-90.63h101.41m-101.41 90.63v90.63m0-90.63h101.41m-101.41 90.63v90.63m0-90.63h101.41m-101.41 90.63v90.64m0-90.64h101.41m-101.41 90.64v90.63m0-90.63h101.41m-101.41 90.63v90.63m0-90.63h101.41m-101.41 90.63v90.63m0-90.63h101.41m-101.41 90.63v90.63m0-90.63h101.41m-101.41 90.63h101.41m0-1721.998v90.632m0-90.632h101.41m-101.41 90.632v90.632m0-90.632h101.41m-101.41 90.632v90.631m0-90.631h101.41m-101.41 90.631v90.632m0-90.632h101.41m-101.41 90.632v90.631m0-90.631h101.41m-101.41 90.631v90.632m0-90.632h101.41m-101.41 90.632v90.631m0-90.631h101.41m-101.41 90.631v90.632m0-90.632h101.41m-101.41 90.632v90.632m0-90.632h101.41m-101.41 90.632v90.631m0-90.631h101.41m-101.41 90.631v90.632m0-90.632h101.41m-101.41 90.632v90.63m0-90.63h101.41m-101.41 90.63v90.63m0-90.63h101.41m-101.41 90.63v90.63m0-90.63h101.41m-101.41 90.63v90.64m0-90.64h101.41m-101.41 90.64v90.63m0-90.63h101.41m-101.41 90.63v90.63m0-90.63h101.41m-101.41 90.63v90.63m0-90.63h101.41m-101.41 90.63v90.63m0-90.63h101.41m-101.41 90.63h101.41m0-1721.998v90.632m0-90.632h101.41M2536.1 91.504v90.632m0-90.632h101.41m-101.41 90.632v90.631m0-90.631h101.41m-101.41 90.631v90.632m0-90.632h101.41m-101.41 90.632v90.631m0-90.631h101.41M2536.1 454.03v90.632m0-90.632h101.41m-101.41 90.632v90.631m0-90.631h101.41m-101.41 90.631v90.632m0-90.632h101.41m-101.41 90.632v90.632m0-90.632h101.41m-101.41 90.632v90.631m0-90.631h101.41m-101.41 90.631v90.632m0-90.632h101.41M2536.1 997.82v90.63m0-90.63h101.41m-101.41 90.63v90.63m0-90.63h101.41m-101.41 90.63v90.63m0-90.63h101.41m-101.41 90.63v90.64m0-90.64h101.41m-101.41 90.64v90.63m0-90.63h101.41m-101.41 90.63v90.63m0-90.63h101.41m-101.41 90.63v90.63m0-90.63h101.41m-101.41 90.63v90.63m0-90.63h101.41m-101.41 90.63h101.41m0-1721.998v90.632m0-90.632h101.41m-101.41 90.632v90.632m0-90.632h101.41m-101.41 90.632v90.631m0-90.631h101.41m-101.41 90.631v90.632m0-90.632h101.41m-101.41 90.632v90.631m0-90.631h101.41m-101.41 90.631v90.632m0-90.632h101.41m-101.41 90.632v90.631m0-90.631h101.41m-101.41 90.631v90.632m0-90.632h101.41m-101.41 90.632v90.632m0-90.632h101.41m-101.41 90.632v90.631m0-90.631h101.41m-101.41 90.631v90.632m0-90.632h101.41m-101.41 90.632v90.63m0-90.63h101.41m-101.41 90.63v90.63m0-90.63h101.41m-101.41 90.63v90.63m0-90.63h101.41m-101.41 90.63v90.64m0-90.64h101.41m-101.41 90.64v90.63m0-90.63h101.41m-101.41 90.63v90.63m0-90.63h101.41m-101.41 90.63v90.63m0-90.63h101.41m-101.41 90.63v90.63m0-90.63h101.41m-101.41 90.63h101.41m0-1721.998v90.632m0-90.632h101.41m-101.41 90.632v90.632m0-90.632h101.41m-101.41 90.632v90.631m0-90.631h101.41m-101.41 90.631v90.632m0-90.632h101.41m-101.41 90.632v90.631m0-90.631h101.41m-101.41 90.631v90.632m0-90.632h101.41m-101.41 90.632v90.631m0-90.631h101.41m-101.41 90.631v90.632m0-90.632h101.41m-101.41 90.632v90.632m0-90.632h101.41m-101.41 90.632v90.631m0-90.631h101.41m-101.41 90.631v90.632m0-90.632h101.41m-101.41 90.632v90.63m0-90.63h101.41m-101.41 90.63v90.63m0-90.63h101.41m-101.41 90.63v90.63m0-90.63h101.41m-101.41 90.63v90.64m0-90.64h101.41m-101.41 90.64v90.63m0-90.63h101.41m-101.41 90.63v90.63m0-90.63h101.41m-101.41 90.63v90.63m0-90.63h101.41m-101.41 90.63v90.63m0-90.63h101.41m-101.41 90.63h101.41m0-1721.998v90.632m0-90.632h101.41m-101.41 90.632v90.632m0-90.632h101.41m-101.41 90.632v90.631m0-90.631h101.41m-101.41 90.631v90.632m0-90.632h101.41m-101.41 90.632v90.631m0-90.631h101.41m-101.41 90.631v90.632m0-90.632h101.41m-101.41 90.632v90.631m0-90.631h101.41m-101.41 90.631v90.632m0-90.632h101.41m-101.41 90.632v90.632m0-90.632h101.41m-101.41 90.632v90.631m0-90.631h101.41m-101.41 90.631v90.632m0-90.632h101.41m-101.41 90.632v90.63m0-90.63h101.41m-101.41 90.63v90.63m0-90.63h101.41m-101.41 90.63v90.63m0-90.63h101.41m-101.41 90.63v90.64m0-90.64h101.41m-101.41 90.64v90.63m0-90.63h101.41m-101.41 90.63v90.63m0-90.63h101.41m-101.41 90.63v90.63m0-90.63h101.41m-101.41 90.63v90.63m0-90.63h101.41m-101.41 90.63h101.41m0-1721.998v90.632m0-90.632h101.4m-101.4 90.632v90.632m0-90.632h101.4m-101.4 90.632v90.631m0-90.631h101.4m-101.4 90.631v90.632m0-90.632h101.4m-101.4 90.632v90.631m0-90.631h101.4m-101.4 90.631v90.632m0-90.632h101.4m-101.4 90.632v90.631m0-90.631h101.4m-101.4 90.631v90.632m0-90.632h101.4m-101.4 90.632v90.632m0-90.632h101.4m-101.4 90.632v90.631m0-90.631h101.4m-101.4 90.631v90.632m0-90.632h101.4m-101.4 90.632v90.63m0-90.63h101.4m-101.4 90.63v90.63m0-90.63h101.4m-101.4 90.63v90.63m0-90.63h101.4m-101.4 90.63v90.64m0-90.64h101.4m-101.4 90.64v90.63m0-90.63h101.4m-101.4 90.63v90.63m0-90.63h101.4m-101.4 90.63v90.63m0-90.63h101.4m-101.4 90.63v90.63m0-90.63h101.4m-101.4 90.63h101.4m0-1721.998v90.632m0-90.632h101.41m-101.41 90.632v90.632m0-90.632h101.41m-101.41 90.632v90.631m0-90.631h101.41m-101.41 90.631v90.632m0-90.632h101.41m-101.41 90.632v90.631m0-90.631h101.41m-101.41 90.631v90.632m0-90.632h101.41m-101.41 90.632v90.631m0-90.631h101.41m-101.41 90.631v90.632m0-90.632h101.41m-101.41 90.632v90.632m0-90.632h101.41m-101.41 90.632v90.631m0-90.631h101.41m-101.41 90.631v90.632m0-90.632h101.41m-101.41 90.632v90.63m0-90.63h101.41m-101.41 90.63v90.63m0-90.63h101.41m-101.41 90.63v90.63m0-90.63h101.41m-101.41 90.63v90.64m0-90.64h101.41m-101.41 90.64v90.63m0-90.63h101.41m-101.41 90.63v90.63m0-90.63h101.41m-101.41 90.63v90.63m0-90.63h101.41m-101.41 90.63v90.63m0-90.63h101.41m-101.41 90.63h101.41m0-1721.998v90.632m0-90.632h101.41m-101.41 90.632v90.632m0-90.632h101.41m-101.41 90.632v90.631m0-90.631h101.41m-101.41 90.631v90.632m0-90.632h101.41m-101.41 90.632v90.631m0-90.631h101.41m-101.41 90.631v90.632m0-90.632h101.41m-101.41 90.632v90.631m0-90.631h101.41m-101.41 90.631v90.632m0-90.632h101.41m-101.41 90.632v90.632m0-90.632h101.41m-101.41 90.632v90.631m0-90.631h101.41m-101.41 90.631v90.632m0-90.632h101.41m-101.41 90.632v90.63m0-90.63h101.41m-101.41 90.63v90.63m0-90.63h101.41m-101.41 90.63v90.63m0-90.63h101.41m-101.41 90.63v90.64m0-90.64h101.41m-101.41 90.64v90.63m0-90.63h101.41m-101.41 90.63v90.63m0-90.63h101.41m-101.41 90.63v90.63m0-90.63h101.41m-101.41 90.63v90.63m0-90.63h101.41m-101.41 90.63h101.41m0-1721.998v90.632m0-90.632h101.41m-101.41 90.632v90.632m0-90.632h101.41m-101.41 90.632v90.631m0-90.631h101.41m-101.41 90.631v90.632m0-90.632h101.41m-101.41 90.632v90.631m0-90.631h101.41m-101.41 90.631v90.632m0-90.632h101.41m-101.41 90.632v90.631m0-90.631h101.41m-101.41 90.631v90.632m0-90.632h101.41m-101.41 90.632v90.632m0-90.632h101.41m-101.41 90.632v90.631m0-90.631h101.41m-101.41 90.631v90.632m0-90.632h101.41m-101.41 90.632v90.63m0-90.63h101.41m-101.41 90.63v90.63m0-90.63h101.41m-101.41 90.63v90.63m0-90.63h101.41m-101.41 90.63v90.64m0-90.64h101.41m-101.41 90.64v90.63m0-90.63h101.41m-101.41 90.63v90.63m0-90.63h101.41m-101.41 90.63v90.63m0-90.63h101.41m-101.41 90.63v90.63m0-90.63h101.41m-101.41 90.63h101.41m0-1721.998v90.632m0-90.632h101.41m-101.41 90.632v90.632m0-90.632h101.41m-101.41 90.632v90.631m0-90.631h101.41m-101.41 90.631v90.632m0-90.632h101.41m-101.41 90.632v90.631m0-90.631h101.41m-101.41 90.631v90.632m0-90.632h101.41m-101.41 90.632v90.631m0-90.631h101.41m-101.41 90.631v90.632m0-90.632h101.41m-101.41 90.632v90.632m0-90.632h101.41m-101.41 90.632v90.631m0-90.631h101.41m-101.41 90.631v90.632m0-90.632h101.41m-101.41 90.632v90.63m0-90.63h101.41m-101.41 90.63v90.63m0-90.63h101.41m-101.41 90.63v90.63m0-90.63h101.41m-101.41 90.63v90.64m0-90.64h101.41m-101.41 90.64v90.63m0-90.63h101.41m-101.41 90.63v90.63m0-90.63h101.41m-101.41 90.63v90.63m0-90.63h101.41m-101.41 90.63v90.63m0-90.63h101.41m-101.41 90.63h101.41m0-1721.998v90.632m0-90.632h101.41m-101.41 90.632v90.632m0-90.632h101.41m-101.41 90.632v90.631m0-90.631h101.41m-101.41 90.631v90.632m0-90.632h101.41m-101.41 90.632v90.631m0-90.631h101.41m-101.41 90.631v90.632m0-90.632h101.41m-101.41 90.632v90.631m0-90.631h101.41m-101.41 90.631v90.632m0-90.632h101.41m-101.41 90.632v90.632m0-90.632h101.41m-101.41 90.632v90.631m0-90.631h101.41m-101.41 90.631v90.632m0-90.632h101.41m-101.41 90.632v90.63m0-90.63h101.41m-101.41 90.63v90.63m0-90.63h101.41m-101.41 90.63v90.63m0-90.63h101.41m-101.41 90.63v90.64m0-90.64h101.41m-101.41 90.64v90.63m0-90.63h101.41m-101.41 90.63v90.63m0-90.63h101.41m-101.41 90.63v90.63m0-90.63h101.41m-101.41 90.63v90.63m0-90.63h101.41m-101.41 90.63h101.41m0-1721.998v90.632m0-90.632h101.41m-101.41 90.632v90.632m0-90.632h101.41m-101.41 90.632v90.631m0-90.631h101.41m-101.41 90.631v90.632m0-90.632h101.41m-101.41 90.632v90.631m0-90.631h101.41m-101.41 90.631v90.632m0-90.632h101.41m-101.41 90.632v90.631m0-90.631h101.41m-101.41 90.631v90.632m0-90.632h101.41m-101.41 90.632v90.632m0-90.632h101.41m-101.41 90.632v90.631m0-90.631h101.41m-101.41 90.631v90.632m0-90.632h101.41m-101.41 90.632v90.63m0-90.63h101.41m-101.41 90.63v90.63m0-90.63h101.41m-101.41 90.63v90.63m0-90.63h101.41m-101.41 90.63v90.64m0-90.64h101.41m-101.41 90.64v90.63m0-90.63h101.41m-101.41 90.63v90.63m0-90.63h101.41m-101.41 90.63v90.63m0-90.63h101.41m-101.41 90.63v90.63m0-90.63h101.41m-101.41 90.63h101.41m0-1721.998v90.632m0-90.632h101.41M3651.6 91.504v90.632m0-90.632h101.41m-101.41 90.632v90.631m0-90.631h101.41m-101.41 90.631v90.632m0-90.632h101.41m-101.41 90.632v90.631m0-90.631h101.41M3651.6 454.03v90.632m0-90.632h101.41m-101.41 90.632v90.631m0-90.631h101.41m-101.41 90.631v90.632m0-90.632h101.41m-101.41 90.632v90.632m0-90.632h101.41m-101.41 90.632v90.631m0-90.631h101.41m-101.41 90.631v90.632m0-90.632h101.41M3651.6 997.82v90.63m0-90.63h101.41m-101.41 90.63v90.63m0-90.63h101.41m-101.41 90.63v90.63m0-90.63h101.41m-101.41 90.63v90.64m0-90.64h101.41m-101.41 90.64v90.63m0-90.63h101.41m-101.41 90.63v90.63m0-90.63h101.41m-101.41 90.63v90.63m0-90.63h101.41m-101.41 90.63v90.63m0-90.63h101.41m-101.41 90.63h101.41m0-1721.998v90.632m0-90.632h101.41m-101.41 90.632v90.632m0-90.632h101.41m-101.41 90.632v90.631m0-90.631h101.41m-101.41 90.631v90.632m0-90.632h101.41m-101.41 90.632v90.631m0-90.631h101.41m-101.41 90.631v90.632m0-90.632h101.41m-101.41 90.632v90.631m0-90.631h101.41m-101.41 90.631v90.632m0-90.632h101.41m-101.41 90.632v90.632m0-90.632h101.41m-101.41 90.632v90.631m0-90.631h101.41m-101.41 90.631v90.632m0-90.632h101.41m-101.41 90.632v90.63m0-90.63h101.41m-101.41 90.63v90.63m0-90.63h101.41m-101.41 90.63v90.63m0-90.63h101.41m-101.41 90.63v90.64m0-90.64h101.41m-101.41 90.64v90.63m0-90.63h101.41m-101.41 90.63v90.63m0-90.63h101.41m-101.41 90.63v90.63m0-90.63h101.41m-101.41 90.63v90.63m0-90.63h101.41m-101.41 90.63h101.41m0-1721.998v90.632m0-90.632h101.41m-101.41 90.632v90.632m0-90.632h101.41m-101.41 90.632v90.631m0-90.631h101.41m-101.41 90.631v90.632m0-90.632h101.41m-101.41 90.632v90.631m0-90.631h101.41m-101.41 90.631v90.632m0-90.632h101.41m-101.41 90.632v90.631m0-90.631h101.41m-101.41 90.631v90.632m0-90.632h101.41m-101.41 90.632v90.632m0-90.632h101.41m-101.41 90.632v90.631m0-90.631h101.41m-101.41 90.631v90.632m0-90.632h101.41m-101.41 90.632v90.63m0-90.63h101.41m-101.41 90.63v90.63m0-90.63h101.41m-101.41 90.63v90.63m0-90.63h101.41m-101.41 90.63v90.64m0-90.64h101.41m-101.41 90.64v90.63m0-90.63h101.41m-101.41 90.63v90.63m0-90.63h101.41m-101.41 90.63v90.63m0-90.63h101.41m-101.41 90.63v90.63m0-90.63h101.41m-101.41 90.63h101.41m0-1721.998v90.632m0-90.632h101.41m-101.41 90.632v90.632m0-90.632h101.41m-101.41 90.632v90.631m0-90.631h101.41m-101.41 90.631v90.632m0-90.632h101.41m-101.41 90.632v90.631m0-90.631h101.41m-101.41 90.631v90.632m0-90.632h101.41m-101.41 90.632v90.631m0-90.631h101.41m-101.41 90.631v90.632m0-90.632h101.41m-101.41 90.632v90.632m0-90.632h101.41m-101.41 90.632v90.631m0-90.631h101.41m-101.41 90.631v90.632m0-90.632h101.41m-101.41 90.632v90.63m0-90.63h101.41m-101.41 90.63v90.63m0-90.63h101.41m-101.41 90.63v90.63m0-90.63h101.41m-101.41 90.63v90.64m0-90.64h101.41m-101.41 90.64v90.63m0-90.63h101.41m-101.41 90.63v90.63m0-90.63h101.41m-101.41 90.63v90.63m0-90.63h101.41m-101.41 90.63v90.63m0-90.63h101.41m-101.41 90.63h101.41m0-1721.998v90.632m0-90.632h101.41m-101.41 90.632v90.632m0-90.632h101.41m-101.41 90.632v90.631m0-90.631h101.41m-101.41 90.631v90.632m0-90.632h101.41m-101.41 90.632v90.631m0-90.631h101.41m-101.41 90.631v90.632m0-90.632h101.41m-101.41 90.632v90.631m0-90.631h101.41m-101.41 90.631v90.632m0-90.632h101.41m-101.41 90.632v90.632m0-90.632h101.41m-101.41 90.632v90.631m0-90.631h101.41m-101.41 90.631v90.632m0-90.632h101.41m-101.41 90.632v90.63m0-90.63h101.41m-101.41 90.63v90.63m0-90.63h101.41m-101.41 90.63v90.63m0-90.63h101.41m-101.41 90.63v90.64m0-90.64h101.41m-101.41 90.64v90.63m0-90.63h101.41m-101.41 90.63v90.63m0-90.63h101.41m-101.41 90.63v90.63m0-90.63h101.41m-101.41 90.63v90.63m0-90.63h101.41m-101.41 90.63h101.41m0-1721.998v90.632m0-90.632h101.4m-101.4 90.632v90.632m0-90.632h101.4m-101.4 90.632v90.631m0-90.631h101.4m-101.4 90.631v90.632m0-90.632h101.4m-101.4 90.632v90.631m0-90.631h101.4m-101.4 90.631v90.632m0-90.632h101.4m-101.4 90.632v90.631m0-90.631h101.4m-101.4 90.631v90.632m0-90.632h101.4m-101.4 90.632v90.632m0-90.632h101.4m-101.4 90.632v90.631m0-90.631h101.4m-101.4 90.631v90.632m0-90.632h101.4m-101.4 90.632v90.63m0-90.63h101.4m-101.4 90.63v90.63m0-90.63h101.4m-101.4 90.63v90.63m0-90.63h101.4m-101.4 90.63v90.64m0-90.64h101.4m-101.4 90.64v90.63m0-90.63h101.4m-101.4 90.63v90.63m0-90.63h101.4m-101.4 90.63v90.63m0-90.63h101.4m-101.4 90.63v90.63m0-90.63h101.4m-101.4 90.63h101.4m0-1721.998v90.632m0-90.632h101.41m-101.41 90.632v90.632m0-90.632h101.41m-101.41 90.632v90.631m0-90.631h101.41m-101.41 90.631v90.632m0-90.632h101.41m-101.41 90.632v90.631m0-90.631h101.41m-101.41 90.631v90.632m0-90.632h101.41m-101.41 90.632v90.631m0-90.631h101.41m-101.41 90.631v90.632m0-90.632h101.41m-101.41 90.632v90.632m0-90.632h101.41m-101.41 90.632v90.631m0-90.631h101.41m-101.41 90.631v90.632m0-90.632h101.41m-101.41 90.632v90.63m0-90.63h101.41m-101.41 90.63v90.63m0-90.63h101.41m-101.41 90.63v90.63m0-90.63h101.41m-101.41 90.63v90.64m0-90.64h101.41m-101.41 90.64v90.63m0-90.63h101.41m-101.41 90.63v90.63m0-90.63h101.41m-101.41 90.63v90.63m0-90.63h101.41m-101.41 90.63v90.63m0-90.63h101.41m-101.41 90.63h101.41m0-1721.998v90.632m0-90.632h101.41v90.632m-101.41 0v90.632m0-90.632h101.41m-101.41 90.632v90.631m0-90.631h101.41m-101.41 90.631v90.632m0-90.632h101.41m-101.41 90.632v90.631m0-90.631h101.41m-101.41 90.631v90.632m0-90.632h101.41m-101.41 90.632v90.631m0-90.631h101.41m-101.41 90.631v90.632m0-90.632h101.41m-101.41 90.632v90.632m0-90.632h101.41m-101.41 90.632v90.631m0-90.631h101.41m-101.41 90.631v90.632m0-90.632h101.41m-101.41 90.632v90.63m0-90.63h101.41m-101.41 90.63v90.63m0-90.63h101.41m-101.41 90.63v90.63m0-90.63h101.41m-101.41 90.63v90.64m0-90.64h101.41m-101.41 90.64v90.63m0-90.63h101.41m-101.41 90.63v90.63m0-90.63h101.41m-101.41 90.63v90.63m0-90.63h101.41m-101.41 90.63v90.63m0-90.63h101.41m-101.41 90.63h101.41v-90.63m0-1540.736v90.632m0 0v90.631m0 0v90.632m0 0v90.631m0 0v90.632m0 0v90.631m0 0v90.632m0 0v90.632m0 0v90.631m0 0v90.632m0 0v90.63m0 0v90.63m0 0v90.63m0 0v90.64m0 0v90.63m0 0v90.63m0 0v90.63" style="mix-blend-mode:overlay"/><defs><radialGradient id="a" cx="0" cy="0" r="1" gradientTransform="matrix(0 861 -1801.57 0 2231.87 861.872)" gradientUnits="userSpaceOnUse"><stop stop-color="#fff"/><stop offset="1" stop-color="#fff" stop-opacity=".2"/></radialGradient></defs></svg>