<svg xmlns="http://www.w3.org/2000/svg" fill="none" overflow="visible" preserveAspectRatio="none" style="display:block" viewBox="0 0 18 18"><path fill="var(--fill-0, white)" d="M14.765 18h.332a.9.9 0 0 0 .702-.387l2.042-2.942a.91.91 0 0 0 .01-1.015.9.9 0 0 0-.253-.253l-4.416-2.942a.9.9 0 0 0-1.16.135l-1.691 1.826c-.684-.404-1.826-1.133-2.725-2.033-.9-.9-1.628-2.042-2.033-2.717L7.4 5.982a.89.89 0 0 0 .135-1.161L4.593.404a.9.9 0 0 0-.576-.387.87.87 0 0 0-.683.144L.393 2.194a.9.9 0 0 0-.387.701c-.027.64-.144 6.334 4.308 10.778 4.011 4.012 9.03 4.318 10.45 4.318z"/></svg>