<svg xmlns="http://www.w3.org/2000/svg" fill="none" overflow="visible" preserveAspectRatio="none" style="display:block" viewBox="0 0 14 18"><path fill="var(--fill-0, white)" d="M7 0a6.97 6.97 0 0 0-4.947 2.074A7.12 7.12 0 0 0 0 7.07a7.05 7.05 0 0 0 1.41 4.243s.191.254.222.29L7 18l5.37-6.398c.028-.034.22-.288.22-.288v-.002A7.05 7.05 0 0 0 14 7.072a7.12 7.12 0 0 0-2.053-4.998A6.97 6.97 0 0 0 7 0m0 9.643c-.503 0-.996-.15-1.414-.434a2.57 2.57 0 0 1-.938-1.154A2.6 2.6 0 0 1 5.2 5.253a2.52 2.52 0 0 1 2.774-.557c.465.194.863.524 1.142.947A2.59 2.59 0 0 1 8.8 8.889a2.54 2.54 0 0 1-1.8.754"/></svg>