<svg xmlns="http://www.w3.org/2000/svg" fill="none" overflow="visible" preserveAspectRatio="none" style="display:block" viewBox="0 0 24 24"><path fill="var(--fill-0, white)" d="M7.35 23.056a12.2 12.2 0 0 1-3.824-2.58 12.2 12.2 0 0 1-2.58-3.826A11.65 11.65 0 0 1 0 11.986q0-2.475.946-4.65a12.2 12.2 0 0 1 2.58-3.81A12.2 12.2 0 0 1 7.35.946 11.6 11.6 0 0 1 12.016 0q2.475 0 4.65.946 2.175.945 3.81 2.58t2.58 3.81Q24 9.51 24 11.986t-.944 4.664a12.2 12.2 0 0 1-2.58 3.826 12.2 12.2 0 0 1-3.81 2.58q-2.175.942-4.65.944-2.476 0-4.666-.944M12 21.54q.78-1.08 1.35-2.25t.93-2.49H9.72q.36 1.32.93 2.49T12 21.54m-3.12-.48a17 17 0 0 1-.944-2.056A18 18 0 0 1 7.26 16.8H3.72q.87 1.5 2.176 2.61Q7.2 20.52 8.88 21.06m6.24 0a8.6 8.6 0 0 0 2.986-1.65 10 10 0 0 0 2.174-2.61h-3.54q-.27 1.14-.674 2.206-.405 1.065-.946 2.054M2.7 14.4h4.08A16 16 0 0 1 6.6 12q-.001-.631.046-1.214.046-.584.134-1.186H2.7q-.15.6-.224 1.186A9.8 9.8 0 0 0 2.7 14.4m6.48 0h5.64q.09-.6.136-1.184Q15 12.63 15 12a16.4 16.4 0 0 0-.18-2.4H9.18A16 16 0 0 0 9 12q-.001.629.046 1.216.046.586.134 1.184m8.04 0h4.08q.15-.6.226-1.184.075-.585.074-1.216t-.074-1.214A10 10 0 0 0 21.3 9.6h-4.08q.09.6.136 1.186.045.585.044 1.214 0 .629-.046 1.216-.045.586-.134 1.184m-.48-7.2h3.54q-.87-1.5-2.174-2.61a8.6 8.6 0 0 0-2.986-1.65q.54.99.946 2.056.405 1.065.674 2.204m-7.02 0h4.56q-.36-1.32-.93-2.49T12 2.46q-.78 1.08-1.35 2.25T9.72 7.2m-6 0h3.54q.27-1.14.676-2.206.405-1.065.944-2.054a8.6 8.6 0 0 0-2.986 1.65A10 10 0 0 0 3.72 7.2"/></svg>