<svg xmlns="http://www.w3.org/2000/svg" fill="none" overflow="visible" preserveAspectRatio="none" style="display:block" viewBox="0 0 20 15"><path fill="var(--fill-0, white)" fill-rule="evenodd" d="m7.172 8.834 2.83 1.935 2.728-1.882 6.115 6.033a1.7 1.7 0 0 1-.512.08H1.667c-.22 0-.43-.043-.623-.12zM20 3.876v9.457c0 .247-.054.481-.15.692l-5.994-5.914zM0 3.929l6.042 4.132-5.936 5.858A1.7 1.7 0 0 1 0 13.333zM18.333 0C19.253 0 20 .746 20 1.667v.586L9.998 9.148 0 2.31v-.643C0 .747.746 0 1.667 0z" clip-rule="evenodd"/></svg>