<svg xmlns="http://www.w3.org/2000/svg" fill="none" overflow="visible" preserveAspectRatio="none" style="display:block" viewBox="0 0 900 441"><path stroke="url(#a)" d="M20.932.5H.5v23.158M20.932.5v23.158m0-23.158h20.432M20.932 23.658H.5m20.432 0v23.158m0-23.158h20.432m-40.864 0v23.158m20.432 0H.5m20.432 0v23.158m0-23.158h20.432m-40.864 0v23.158m20.432 0H.5m20.432 0v23.158m0-23.158h20.432m-40.864 0v23.158m20.432 0H.5m20.432 0v23.157m0-23.157h20.432m-40.864 0v23.157m20.432 0H.5m20.432 0v23.158m0-23.158h20.432m-40.864 0v23.158m20.432 0H.5m20.432 0v23.158m0-23.158h20.432m-40.864 0v23.158m20.432 0H.5m20.432 0v23.158m0-23.158h20.432m-40.864 0v23.158m20.432 0H.5m20.432 0v23.158m0-23.158h20.432m-40.864 0v23.158m20.432 0H.5m20.432 0v23.158m0-23.158h20.432m-40.864 0v23.158m20.432 0H.5m20.432 0v23.158m0-23.158h20.432m-40.864 0v23.158m20.432 0H.5m20.432 0v23.158m0-23.158h20.432m-40.864 0v23.158m20.432 0H.5m20.432 0v23.158m0-23.158h20.432m-40.864 0v23.158m20.432 0H.5m20.432 0v23.157m0-23.157h20.432m-40.864 0v23.157m20.432 0H.5m20.432 0v23.158m0-23.158h20.432m-40.864 0v23.158m20.432 0H.5m20.432 0v23.158m0-23.158h20.432m-40.864 0v23.158m20.432 0H.5m20.432 0v23.158m0-23.158h20.432m-40.864 0v23.158m20.432 0H.5m20.432 0v23.158m0-23.158h20.432m-40.864 0v23.158m20.432 0H.5m20.432 0V440.5m0-23.158h20.432m-40.864 0V440.5h20.432m0 0h20.432m0-440v23.158m0-23.158h20.432M41.364 23.658v23.158m0-23.158h20.432M41.364 46.816v23.158m0-23.158h20.432M41.364 69.974v23.158m0-23.158h20.432M41.364 93.132v23.157m0-23.157h20.432m-20.432 23.157v23.158m0-23.158h20.432m-20.432 23.158v23.158m0-23.158h20.432m-20.432 23.158v23.158m0-23.158h20.432m-20.432 23.158v23.158m0-23.158h20.432m-20.432 23.158v23.158m0-23.158h20.432m-20.432 23.158v23.158m0-23.158h20.432m-20.432 23.158v23.158m0-23.158h20.432m-20.432 23.158v23.158m0-23.158h20.432m-20.432 23.158v23.157m0-23.157h20.432M41.364 324.71v23.158m0-23.158h20.432m-20.432 23.158v23.158m0-23.158h20.432m-20.432 23.158v23.158m0-23.158h20.432m-20.432 23.158v23.158m0-23.158h20.432m-20.432 23.158V440.5m0-23.158h20.432M41.364 440.5h20.432m0-440v23.158m0-23.158h20.431M61.795 23.658v23.158m0-23.158h20.432M61.795 46.816v23.158m0-23.158h20.432M61.795 69.974v23.158m0-23.158h20.432M61.795 93.132v23.157m0-23.157h20.432m-20.432 23.157v23.158m0-23.158h20.432m-20.432 23.158v23.158m0-23.158h20.432m-20.432 23.158v23.158m0-23.158h20.432m-20.432 23.158v23.158m0-23.158h20.432m-20.432 23.158v23.158m0-23.158h20.432m-20.432 23.158v23.158m0-23.158h20.432m-20.432 23.158v23.158m0-23.158h20.432m-20.432 23.158v23.158m0-23.158h20.432m-20.432 23.158v23.157m0-23.157h20.432M61.795 324.71v23.158m0-23.158h20.432m-20.432 23.158v23.158m0-23.158h20.432m-20.432 23.158v23.158m0-23.158h20.432m-20.432 23.158v23.158m0-23.158h20.432m-20.432 23.158V440.5m0-23.158h20.432M61.795 440.5h20.432m0-440v23.158m0-23.158h20.432M82.227 23.658v23.158m0-23.158h20.432M82.227 46.816v23.158m0-23.158h20.432M82.227 69.974v23.158m0-23.158h20.432M82.227 93.132v23.157m0-23.157h20.432m-20.432 23.157v23.158m0-23.158h20.432m-20.432 23.158v23.158m0-23.158h20.432m-20.432 23.158v23.158m0-23.158h20.432m-20.432 23.158v23.158m0-23.158h20.432m-20.432 23.158v23.158m0-23.158h20.432m-20.432 23.158v23.158m0-23.158h20.432m-20.432 23.158v23.158m0-23.158h20.432m-20.432 23.158v23.158m0-23.158h20.432m-20.432 23.158v23.157m0-23.157h20.432M82.227 324.71v23.158m0-23.158h20.432m-20.432 23.158v23.158m0-23.158h20.432m-20.432 23.158v23.158m0-23.158h20.432m-20.432 23.158v23.158m0-23.158h20.432m-20.432 23.158V440.5m0-23.158h20.432M82.227 440.5h20.432m0-440v23.158m0-23.158h20.432m-20.432 23.158v23.158m0-23.158h20.432m-20.432 23.158v23.158m0-23.158h20.432m-20.432 23.158v23.158m0-23.158h20.432m-20.432 23.158v23.157m0-23.157h20.432m-20.432 23.157v23.158m0-23.158h20.432m-20.432 23.158v23.158m0-23.158h20.432m-20.432 23.158v23.158m0-23.158h20.432m-20.432 23.158v23.158m0-23.158h20.432m-20.432 23.158v23.158m0-23.158h20.432m-20.432 23.158v23.158m0-23.158h20.432m-20.432 23.158v23.158m0-23.158h20.432m-20.432 23.158v23.158m0-23.158h20.432m-20.432 23.158v23.157m0-23.157h20.432m-20.432 23.157v23.158m0-23.158h20.432m-20.432 23.158v23.158m0-23.158h20.432m-20.432 23.158v23.158m0-23.158h20.432m-20.432 23.158v23.158m0-23.158h20.432m-20.432 23.158V440.5m0-23.158h20.432M102.659 440.5h20.432m0-440v23.158m0-23.158h20.432m-20.432 23.158v23.158m0-23.158h20.432m-20.432 23.158v23.158m0-23.158h20.432m-20.432 23.158v23.158m0-23.158h20.432m-20.432 23.158v23.157m0-23.157h20.432m-20.432 23.157v23.158m0-23.158h20.432m-20.432 23.158v23.158m0-23.158h20.432m-20.432 23.158v23.158m0-23.158h20.432m-20.432 23.158v23.158m0-23.158h20.432m-20.432 23.158v23.158m0-23.158h20.432m-20.432 23.158v23.158m0-23.158h20.432m-20.432 23.158v23.158m0-23.158h20.432m-20.432 23.158v23.158m0-23.158h20.432m-20.432 23.158v23.157m0-23.157h20.432m-20.432 23.157v23.158m0-23.158h20.432m-20.432 23.158v23.158m0-23.158h20.432m-20.432 23.158v23.158m0-23.158h20.432m-20.432 23.158v23.158m0-23.158h20.432m-20.432 23.158V440.5m0-23.158h20.432M123.091 440.5h20.432m0-440v23.158m0-23.158h20.432m-20.432 23.158v23.158m0-23.158h20.432m-20.432 23.158v23.158m0-23.158h20.432m-20.432 23.158v23.158m0-23.158h20.432m-20.432 23.158v23.157m0-23.157h20.432m-20.432 23.157v23.158m0-23.158h20.432m-20.432 23.158v23.158m0-23.158h20.432m-20.432 23.158v23.158m0-23.158h20.432m-20.432 23.158v23.158m0-23.158h20.432m-20.432 23.158v23.158m0-23.158h20.432m-20.432 23.158v23.158m0-23.158h20.432m-20.432 23.158v23.158m0-23.158h20.432m-20.432 23.158v23.158m0-23.158h20.432m-20.432 23.158v23.157m0-23.157h20.432m-20.432 23.157v23.158m0-23.158h20.432m-20.432 23.158v23.158m0-23.158h20.432m-20.432 23.158v23.158m0-23.158h20.432m-20.432 23.158v23.158m0-23.158h20.432m-20.432 23.158V440.5m0-23.158h20.432M143.523 440.5h20.432m0-440v23.158m0-23.158h20.431m-20.431 23.158v23.158m0-23.158h20.431m-20.431 23.158v23.158m0-23.158h20.431m-20.431 23.158v23.158m0-23.158h20.431m-20.431 23.158v23.157m0-23.157h20.431m-20.431 23.157v23.158m0-23.158h20.431m-20.431 23.158v23.158m0-23.158h20.431m-20.431 23.158v23.158m0-23.158h20.431m-20.431 23.158v23.158m0-23.158h20.431m-20.431 23.158v23.158m0-23.158h20.431m-20.431 23.158v23.158m0-23.158h20.431m-20.431 23.158v23.158m0-23.158h20.431m-20.431 23.158v23.158m0-23.158h20.431m-20.431 23.158v23.157m0-23.157h20.431m-20.431 23.157v23.158m0-23.158h20.431m-20.431 23.158v23.158m0-23.158h20.431m-20.431 23.158v23.158m0-23.158h20.431m-20.431 23.158v23.158m0-23.158h20.431m-20.431 23.158V440.5m0-23.158h20.431M163.955 440.5h20.431m0-440v23.158m0-23.158h20.432m-20.432 23.158v23.158m0-23.158h20.432m-20.432 23.158v23.158m0-23.158h20.432m-20.432 23.158v23.158m0-23.158h20.432m-20.432 23.158v23.157m0-23.157h20.432m-20.432 23.157v23.158m0-23.158h20.432m-20.432 23.158v23.158m0-23.158h20.432m-20.432 23.158v23.158m0-23.158h20.432m-20.432 23.158v23.158m0-23.158h20.432m-20.432 23.158v23.158m0-23.158h20.432m-20.432 23.158v23.158m0-23.158h20.432m-20.432 23.158v23.158m0-23.158h20.432m-20.432 23.158v23.158m0-23.158h20.432m-20.432 23.158v23.157m0-23.157h20.432m-20.432 23.157v23.158m0-23.158h20.432m-20.432 23.158v23.158m0-23.158h20.432m-20.432 23.158v23.158m0-23.158h20.432m-20.432 23.158v23.158m0-23.158h20.432m-20.432 23.158V440.5m0-23.158h20.432M184.386 440.5h20.432m0-440v23.158m0-23.158h20.432m-20.432 23.158v23.158m0-23.158h20.432m-20.432 23.158v23.158m0-23.158h20.432m-20.432 23.158v23.158m0-23.158h20.432m-20.432 23.158v23.157m0-23.157h20.432m-20.432 23.157v23.158m0-23.158h20.432m-20.432 23.158v23.158m0-23.158h20.432m-20.432 23.158v23.158m0-23.158h20.432m-20.432 23.158v23.158m0-23.158h20.432m-20.432 23.158v23.158m0-23.158h20.432m-20.432 23.158v23.158m0-23.158h20.432m-20.432 23.158v23.158m0-23.158h20.432m-20.432 23.158v23.158m0-23.158h20.432m-20.432 23.158v23.157m0-23.157h20.432m-20.432 23.157v23.158m0-23.158h20.432m-20.432 23.158v23.158m0-23.158h20.432m-20.432 23.158v23.158m0-23.158h20.432m-20.432 23.158v23.158m0-23.158h20.432m-20.432 23.158V440.5m0-23.158h20.432M204.818 440.5h20.432m0-440v23.158m0-23.158h20.432M225.25 23.658v23.158m0-23.158h20.432M225.25 46.816v23.158m0-23.158h20.432M225.25 69.974v23.158m0-23.158h20.432M225.25 93.132v23.157m0-23.157h20.432m-20.432 23.157v23.158m0-23.158h20.432m-20.432 23.158v23.158m0-23.158h20.432m-20.432 23.158v23.158m0-23.158h20.432m-20.432 23.158v23.158m0-23.158h20.432m-20.432 23.158v23.158m0-23.158h20.432m-20.432 23.158v23.158m0-23.158h20.432m-20.432 23.158v23.158m0-23.158h20.432m-20.432 23.158v23.158m0-23.158h20.432m-20.432 23.158v23.157m0-23.157h20.432M225.25 324.71v23.158m0-23.158h20.432m-20.432 23.158v23.158m0-23.158h20.432m-20.432 23.158v23.158m0-23.158h20.432m-20.432 23.158v23.158m0-23.158h20.432m-20.432 23.158V440.5m0-23.158h20.432M225.25 440.5h20.432m0-440v23.158m0-23.158h20.432m-20.432 23.158v23.158m0-23.158h20.432m-20.432 23.158v23.158m0-23.158h20.432m-20.432 23.158v23.158m0-23.158h20.432m-20.432 23.158v23.157m0-23.157h20.432m-20.432 23.157v23.158m0-23.158h20.432m-20.432 23.158v23.158m0-23.158h20.432m-20.432 23.158v23.158m0-23.158h20.432m-20.432 23.158v23.158m0-23.158h20.432m-20.432 23.158v23.158m0-23.158h20.432m-20.432 23.158v23.158m0-23.158h20.432m-20.432 23.158v23.158m0-23.158h20.432m-20.432 23.158v23.158m0-23.158h20.432m-20.432 23.158v23.157m0-23.157h20.432m-20.432 23.157v23.158m0-23.158h20.432m-20.432 23.158v23.158m0-23.158h20.432m-20.432 23.158v23.158m0-23.158h20.432m-20.432 23.158v23.158m0-23.158h20.432m-20.432 23.158V440.5m0-23.158h20.432M245.682 440.5h20.432m0-440v23.158m0-23.158h20.431m-20.431 23.158v23.158m0-23.158h20.431m-20.431 23.158v23.158m0-23.158h20.431m-20.431 23.158v23.158m0-23.158h20.431m-20.431 23.158v23.157m0-23.157h20.431m-20.431 23.157v23.158m0-23.158h20.431m-20.431 23.158v23.158m0-23.158h20.431m-20.431 23.158v23.158m0-23.158h20.431m-20.431 23.158v23.158m0-23.158h20.431m-20.431 23.158v23.158m0-23.158h20.431m-20.431 23.158v23.158m0-23.158h20.431m-20.431 23.158v23.158m0-23.158h20.431m-20.431 23.158v23.158m0-23.158h20.431m-20.431 23.158v23.157m0-23.157h20.431m-20.431 23.157v23.158m0-23.158h20.431m-20.431 23.158v23.158m0-23.158h20.431m-20.431 23.158v23.158m0-23.158h20.431m-20.431 23.158v23.158m0-23.158h20.431m-20.431 23.158V440.5m0-23.158h20.431M266.114 440.5h20.431m0-440v23.158m0-23.158h20.432m-20.432 23.158v23.158m0-23.158h20.432m-20.432 23.158v23.158m0-23.158h20.432m-20.432 23.158v23.158m0-23.158h20.432m-20.432 23.158v23.157m0-23.157h20.432m-20.432 23.157v23.158m0-23.158h20.432m-20.432 23.158v23.158m0-23.158h20.432m-20.432 23.158v23.158m0-23.158h20.432m-20.432 23.158v23.158m0-23.158h20.432m-20.432 23.158v23.158m0-23.158h20.432m-20.432 23.158v23.158m0-23.158h20.432m-20.432 23.158v23.158m0-23.158h20.432m-20.432 23.158v23.158m0-23.158h20.432m-20.432 23.158v23.157m0-23.157h20.432m-20.432 23.157v23.158m0-23.158h20.432m-20.432 23.158v23.158m0-23.158h20.432m-20.432 23.158v23.158m0-23.158h20.432m-20.432 23.158v23.158m0-23.158h20.432m-20.432 23.158V440.5m0-23.158h20.432M286.545 440.5h20.432m0-440v23.158m0-23.158h20.432m-20.432 23.158v23.158m0-23.158h20.432m-20.432 23.158v23.158m0-23.158h20.432m-20.432 23.158v23.158m0-23.158h20.432m-20.432 23.158v23.157m0-23.157h20.432m-20.432 23.157v23.158m0-23.158h20.432m-20.432 23.158v23.158m0-23.158h20.432m-20.432 23.158v23.158m0-23.158h20.432m-20.432 23.158v23.158m0-23.158h20.432m-20.432 23.158v23.158m0-23.158h20.432m-20.432 23.158v23.158m0-23.158h20.432m-20.432 23.158v23.158m0-23.158h20.432m-20.432 23.158v23.158m0-23.158h20.432m-20.432 23.158v23.157m0-23.157h20.432m-20.432 23.157v23.158m0-23.158h20.432m-20.432 23.158v23.158m0-23.158h20.432m-20.432 23.158v23.158m0-23.158h20.432m-20.432 23.158v23.158m0-23.158h20.432m-20.432 23.158V440.5m0-23.158h20.432M306.977 440.5h20.432m0-440v23.158m0-23.158h20.432m-20.432 23.158v23.158m0-23.158h20.432m-20.432 23.158v23.158m0-23.158h20.432m-20.432 23.158v23.158m0-23.158h20.432m-20.432 23.158v23.157m0-23.157h20.432m-20.432 23.157v23.158m0-23.158h20.432m-20.432 23.158v23.158m0-23.158h20.432m-20.432 23.158v23.158m0-23.158h20.432m-20.432 23.158v23.158m0-23.158h20.432m-20.432 23.158v23.158m0-23.158h20.432m-20.432 23.158v23.158m0-23.158h20.432m-20.432 23.158v23.158m0-23.158h20.432m-20.432 23.158v23.158m0-23.158h20.432m-20.432 23.158v23.157m0-23.157h20.432m-20.432 23.157v23.158m0-23.158h20.432m-20.432 23.158v23.158m0-23.158h20.432m-20.432 23.158v23.158m0-23.158h20.432m-20.432 23.158v23.158m0-23.158h20.432m-20.432 23.158V440.5m0-23.158h20.432M327.409 440.5h20.432m0-440v23.158m0-23.158h20.432m-20.432 23.158v23.158m0-23.158h20.432m-20.432 23.158v23.158m0-23.158h20.432m-20.432 23.158v23.158m0-23.158h20.432m-20.432 23.158v23.157m0-23.157h20.432m-20.432 23.157v23.158m0-23.158h20.432m-20.432 23.158v23.158m0-23.158h20.432m-20.432 23.158v23.158m0-23.158h20.432m-20.432 23.158v23.158m0-23.158h20.432m-20.432 23.158v23.158m0-23.158h20.432m-20.432 23.158v23.158m0-23.158h20.432m-20.432 23.158v23.158m0-23.158h20.432m-20.432 23.158v23.158m0-23.158h20.432m-20.432 23.158v23.157m0-23.157h20.432m-20.432 23.157v23.158m0-23.158h20.432m-20.432 23.158v23.158m0-23.158h20.432m-20.432 23.158v23.158m0-23.158h20.432m-20.432 23.158v23.158m0-23.158h20.432m-20.432 23.158V440.5m0-23.158h20.432M347.841 440.5h20.432m0-440v23.158m0-23.158h20.432m-20.432 23.158v23.158m0-23.158h20.432m-20.432 23.158v23.158m0-23.158h20.432m-20.432 23.158v23.158m0-23.158h20.432m-20.432 23.158v23.157m0-23.157h20.432m-20.432 23.157v23.158m0-23.158h20.432m-20.432 23.158v23.158m0-23.158h20.432m-20.432 23.158v23.158m0-23.158h20.432m-20.432 23.158v23.158m0-23.158h20.432m-20.432 23.158v23.158m0-23.158h20.432m-20.432 23.158v23.158m0-23.158h20.432m-20.432 23.158v23.158m0-23.158h20.432m-20.432 23.158v23.158m0-23.158h20.432m-20.432 23.158v23.157m0-23.157h20.432m-20.432 23.157v23.158m0-23.158h20.432m-20.432 23.158v23.158m0-23.158h20.432m-20.432 23.158v23.158m0-23.158h20.432m-20.432 23.158v23.158m0-23.158h20.432m-20.432 23.158V440.5m0-23.158h20.432M368.273 440.5h20.432m0-440v23.158m0-23.158h20.431m-20.431 23.158v23.158m0-23.158h20.431m-20.431 23.158v23.158m0-23.158h20.431m-20.431 23.158v23.158m0-23.158h20.431m-20.431 23.158v23.157m0-23.157h20.431m-20.431 23.157v23.158m0-23.158h20.431m-20.431 23.158v23.158m0-23.158h20.431m-20.431 23.158v23.158m0-23.158h20.431m-20.431 23.158v23.158m0-23.158h20.431m-20.431 23.158v23.158m0-23.158h20.431m-20.431 23.158v23.158m0-23.158h20.431m-20.431 23.158v23.158m0-23.158h20.431m-20.431 23.158v23.158m0-23.158h20.431m-20.431 23.158v23.157m0-23.157h20.431m-20.431 23.157v23.158m0-23.158h20.431m-20.431 23.158v23.158m0-23.158h20.431m-20.431 23.158v23.158m0-23.158h20.431m-20.431 23.158v23.158m0-23.158h20.431m-20.431 23.158V440.5m0-23.158h20.431M388.705 440.5h20.431m0-440v23.158m0-23.158h20.432m-20.432 23.158v23.158m0-23.158h20.432m-20.432 23.158v23.158m0-23.158h20.432m-20.432 23.158v23.158m0-23.158h20.432m-20.432 23.158v23.157m0-23.157h20.432m-20.432 23.157v23.158m0-23.158h20.432m-20.432 23.158v23.158m0-23.158h20.432m-20.432 23.158v23.158m0-23.158h20.432m-20.432 23.158v23.158m0-23.158h20.432m-20.432 23.158v23.158m0-23.158h20.432m-20.432 23.158v23.158m0-23.158h20.432m-20.432 23.158v23.158m0-23.158h20.432m-20.432 23.158v23.158m0-23.158h20.432m-20.432 23.158v23.157m0-23.157h20.432m-20.432 23.157v23.158m0-23.158h20.432m-20.432 23.158v23.158m0-23.158h20.432m-20.432 23.158v23.158m0-23.158h20.432m-20.432 23.158v23.158m0-23.158h20.432m-20.432 23.158V440.5m0-23.158h20.432M409.136 440.5h20.432m0-440v23.158m0-23.158H450m-20.432 23.158v23.158m0-23.158H450m-20.432 23.158v23.158m0-23.158H450m-20.432 23.158v23.158m0-23.158H450m-20.432 23.158v23.157m0-23.157H450m-20.432 23.157v23.158m0-23.158H450m-20.432 23.158v23.158m0-23.158H450m-20.432 23.158v23.158m0-23.158H450m-20.432 23.158v23.158m0-23.158H450m-20.432 23.158v23.158m0-23.158H450m-20.432 23.158v23.158m0-23.158H450m-20.432 23.158v23.158m0-23.158H450m-20.432 23.158v23.158m0-23.158H450m-20.432 23.158v23.157m0-23.157H450m-20.432 23.157v23.158m0-23.158H450m-20.432 23.158v23.158m0-23.158H450m-20.432 23.158v23.158m0-23.158H450m-20.432 23.158v23.158m0-23.158H450m-20.432 23.158V440.5m0-23.158H450M429.568 440.5H450m0-440v23.158M450 .5h20.432M450 23.658v23.158m0-23.158h20.432M450 46.816v23.158m0-23.158h20.432M450 69.974v23.158m0-23.158h20.432M450 93.132v23.157m0-23.157h20.432M450 116.289v23.158m0-23.158h20.432M450 139.447v23.158m0-23.158h20.432M450 162.605v23.158m0-23.158h20.432M450 185.763v23.158m0-23.158h20.432M450 208.921v23.158m0-23.158h20.432M450 232.079v23.158m0-23.158h20.432M450 255.237v23.158m0-23.158h20.432M450 278.395v23.158m0-23.158h20.432M450 301.553v23.157m0-23.157h20.432M450 324.71v23.158m0-23.158h20.432M450 347.868v23.158m0-23.158h20.432M450 371.026v23.158m0-23.158h20.432M450 394.184v23.158m0-23.158h20.432M450 417.342V440.5m0-23.158h20.432M450 440.5h20.432m0-440v23.158m0-23.158h20.432m-20.432 23.158v23.158m0-23.158h20.432m-20.432 23.158v23.158m0-23.158h20.432m-20.432 23.158v23.158m0-23.158h20.432m-20.432 23.158v23.157m0-23.157h20.432m-20.432 23.157v23.158m0-23.158h20.432m-20.432 23.158v23.158m0-23.158h20.432m-20.432 23.158v23.158m0-23.158h20.432m-20.432 23.158v23.158m0-23.158h20.432m-20.432 23.158v23.158m0-23.158h20.432m-20.432 23.158v23.158m0-23.158h20.432m-20.432 23.158v23.158m0-23.158h20.432m-20.432 23.158v23.158m0-23.158h20.432m-20.432 23.158v23.157m0-23.157h20.432m-20.432 23.157v23.158m0-23.158h20.432m-20.432 23.158v23.158m0-23.158h20.432m-20.432 23.158v23.158m0-23.158h20.432m-20.432 23.158v23.158m0-23.158h20.432m-20.432 23.158V440.5m0-23.158h20.432M470.432 440.5h20.432m0-440v23.158m0-23.158h20.431m-20.431 23.158v23.158m0-23.158h20.431m-20.431 23.158v23.158m0-23.158h20.431m-20.431 23.158v23.158m0-23.158h20.431m-20.431 23.158v23.157m0-23.157h20.431m-20.431 23.157v23.158m0-23.158h20.431m-20.431 23.158v23.158m0-23.158h20.431m-20.431 23.158v23.158m0-23.158h20.431m-20.431 23.158v23.158m0-23.158h20.431m-20.431 23.158v23.158m0-23.158h20.431m-20.431 23.158v23.158m0-23.158h20.431m-20.431 23.158v23.158m0-23.158h20.431m-20.431 23.158v23.158m0-23.158h20.431m-20.431 23.158v23.157m0-23.157h20.431m-20.431 23.157v23.158m0-23.158h20.431m-20.431 23.158v23.158m0-23.158h20.431m-20.431 23.158v23.158m0-23.158h20.431m-20.431 23.158v23.158m0-23.158h20.431m-20.431 23.158V440.5m0-23.158h20.431M490.864 440.5h20.431m0-440v23.158m0-23.158h20.432m-20.432 23.158v23.158m0-23.158h20.432m-20.432 23.158v23.158m0-23.158h20.432m-20.432 23.158v23.158m0-23.158h20.432m-20.432 23.158v23.157m0-23.157h20.432m-20.432 23.157v23.158m0-23.158h20.432m-20.432 23.158v23.158m0-23.158h20.432m-20.432 23.158v23.158m0-23.158h20.432m-20.432 23.158v23.158m0-23.158h20.432m-20.432 23.158v23.158m0-23.158h20.432m-20.432 23.158v23.158m0-23.158h20.432m-20.432 23.158v23.158m0-23.158h20.432m-20.432 23.158v23.158m0-23.158h20.432m-20.432 23.158v23.157m0-23.157h20.432m-20.432 23.157v23.158m0-23.158h20.432m-20.432 23.158v23.158m0-23.158h20.432m-20.432 23.158v23.158m0-23.158h20.432m-20.432 23.158v23.158m0-23.158h20.432m-20.432 23.158V440.5m0-23.158h20.432M511.295 440.5h20.432m0-440v23.158m0-23.158h20.432m-20.432 23.158v23.158m0-23.158h20.432m-20.432 23.158v23.158m0-23.158h20.432m-20.432 23.158v23.158m0-23.158h20.432m-20.432 23.158v23.157m0-23.157h20.432m-20.432 23.157v23.158m0-23.158h20.432m-20.432 23.158v23.158m0-23.158h20.432m-20.432 23.158v23.158m0-23.158h20.432m-20.432 23.158v23.158m0-23.158h20.432m-20.432 23.158v23.158m0-23.158h20.432m-20.432 23.158v23.158m0-23.158h20.432m-20.432 23.158v23.158m0-23.158h20.432m-20.432 23.158v23.158m0-23.158h20.432m-20.432 23.158v23.157m0-23.157h20.432m-20.432 23.157v23.158m0-23.158h20.432m-20.432 23.158v23.158m0-23.158h20.432m-20.432 23.158v23.158m0-23.158h20.432m-20.432 23.158v23.158m0-23.158h20.432m-20.432 23.158V440.5m0-23.158h20.432M531.727 440.5h20.432m0-440v23.158m0-23.158h20.432m-20.432 23.158v23.158m0-23.158h20.432m-20.432 23.158v23.158m0-23.158h20.432m-20.432 23.158v23.158m0-23.158h20.432m-20.432 23.158v23.157m0-23.157h20.432m-20.432 23.157v23.158m0-23.158h20.432m-20.432 23.158v23.158m0-23.158h20.432m-20.432 23.158v23.158m0-23.158h20.432m-20.432 23.158v23.158m0-23.158h20.432m-20.432 23.158v23.158m0-23.158h20.432m-20.432 23.158v23.158m0-23.158h20.432m-20.432 23.158v23.158m0-23.158h20.432m-20.432 23.158v23.158m0-23.158h20.432m-20.432 23.158v23.157m0-23.157h20.432m-20.432 23.157v23.158m0-23.158h20.432m-20.432 23.158v23.158m0-23.158h20.432m-20.432 23.158v23.158m0-23.158h20.432m-20.432 23.158v23.158m0-23.158h20.432m-20.432 23.158V440.5m0-23.158h20.432M552.159 440.5h20.432m0-440v23.158m0-23.158h20.432m-20.432 23.158v23.158m0-23.158h20.432m-20.432 23.158v23.158m0-23.158h20.432m-20.432 23.158v23.158m0-23.158h20.432m-20.432 23.158v23.157m0-23.157h20.432m-20.432 23.157v23.158m0-23.158h20.432m-20.432 23.158v23.158m0-23.158h20.432m-20.432 23.158v23.158m0-23.158h20.432m-20.432 23.158v23.158m0-23.158h20.432m-20.432 23.158v23.158m0-23.158h20.432m-20.432 23.158v23.158m0-23.158h20.432m-20.432 23.158v23.158m0-23.158h20.432m-20.432 23.158v23.158m0-23.158h20.432m-20.432 23.158v23.157m0-23.157h20.432m-20.432 23.157v23.158m0-23.158h20.432m-20.432 23.158v23.158m0-23.158h20.432m-20.432 23.158v23.158m0-23.158h20.432m-20.432 23.158v23.158m0-23.158h20.432m-20.432 23.158V440.5m0-23.158h20.432M572.591 440.5h20.432m0-440v23.158m0-23.158h20.432m-20.432 23.158v23.158m0-23.158h20.432m-20.432 23.158v23.158m0-23.158h20.432m-20.432 23.158v23.158m0-23.158h20.432m-20.432 23.158v23.157m0-23.157h20.432m-20.432 23.157v23.158m0-23.158h20.432m-20.432 23.158v23.158m0-23.158h20.432m-20.432 23.158v23.158m0-23.158h20.432m-20.432 23.158v23.158m0-23.158h20.432m-20.432 23.158v23.158m0-23.158h20.432m-20.432 23.158v23.158m0-23.158h20.432m-20.432 23.158v23.158m0-23.158h20.432m-20.432 23.158v23.158m0-23.158h20.432m-20.432 23.158v23.157m0-23.157h20.432m-20.432 23.157v23.158m0-23.158h20.432m-20.432 23.158v23.158m0-23.158h20.432m-20.432 23.158v23.158m0-23.158h20.432m-20.432 23.158v23.158m0-23.158h20.432m-20.432 23.158V440.5m0-23.158h20.432M593.023 440.5h20.432m0-440v23.158m0-23.158h20.431m-20.431 23.158v23.158m0-23.158h20.431m-20.431 23.158v23.158m0-23.158h20.431m-20.431 23.158v23.158m0-23.158h20.431m-20.431 23.158v23.157m0-23.157h20.431m-20.431 23.157v23.158m0-23.158h20.431m-20.431 23.158v23.158m0-23.158h20.431m-20.431 23.158v23.158m0-23.158h20.431m-20.431 23.158v23.158m0-23.158h20.431m-20.431 23.158v23.158m0-23.158h20.431m-20.431 23.158v23.158m0-23.158h20.431m-20.431 23.158v23.158m0-23.158h20.431m-20.431 23.158v23.158m0-23.158h20.431m-20.431 23.158v23.157m0-23.157h20.431m-20.431 23.157v23.158m0-23.158h20.431m-20.431 23.158v23.158m0-23.158h20.431m-20.431 23.158v23.158m0-23.158h20.431m-20.431 23.158v23.158m0-23.158h20.431m-20.431 23.158V440.5m0-23.158h20.431M613.455 440.5h20.431m0-440v23.158m0-23.158h20.432m-20.432 23.158v23.158m0-23.158h20.432m-20.432 23.158v23.158m0-23.158h20.432m-20.432 23.158v23.158m0-23.158h20.432m-20.432 23.158v23.157m0-23.157h20.432m-20.432 23.157v23.158m0-23.158h20.432m-20.432 23.158v23.158m0-23.158h20.432m-20.432 23.158v23.158m0-23.158h20.432m-20.432 23.158v23.158m0-23.158h20.432m-20.432 23.158v23.158m0-23.158h20.432m-20.432 23.158v23.158m0-23.158h20.432m-20.432 23.158v23.158m0-23.158h20.432m-20.432 23.158v23.158m0-23.158h20.432m-20.432 23.158v23.157m0-23.157h20.432m-20.432 23.157v23.158m0-23.158h20.432m-20.432 23.158v23.158m0-23.158h20.432m-20.432 23.158v23.158m0-23.158h20.432m-20.432 23.158v23.158m0-23.158h20.432m-20.432 23.158V440.5m0-23.158h20.432M633.886 440.5h20.432m0-440v23.158m0-23.158h20.432m-20.432 23.158v23.158m0-23.158h20.432m-20.432 23.158v23.158m0-23.158h20.432m-20.432 23.158v23.158m0-23.158h20.432m-20.432 23.158v23.157m0-23.157h20.432m-20.432 23.157v23.158m0-23.158h20.432m-20.432 23.158v23.158m0-23.158h20.432m-20.432 23.158v23.158m0-23.158h20.432m-20.432 23.158v23.158m0-23.158h20.432m-20.432 23.158v23.158m0-23.158h20.432m-20.432 23.158v23.158m0-23.158h20.432m-20.432 23.158v23.158m0-23.158h20.432m-20.432 23.158v23.158m0-23.158h20.432m-20.432 23.158v23.157m0-23.157h20.432m-20.432 23.157v23.158m0-23.158h20.432m-20.432 23.158v23.158m0-23.158h20.432m-20.432 23.158v23.158m0-23.158h20.432m-20.432 23.158v23.158m0-23.158h20.432m-20.432 23.158V440.5m0-23.158h20.432M654.318 440.5h20.432m0-440v23.158m0-23.158h20.432M674.75 23.658v23.158m0-23.158h20.432M674.75 46.816v23.158m0-23.158h20.432M674.75 69.974v23.158m0-23.158h20.432M674.75 93.132v23.157m0-23.157h20.432m-20.432 23.157v23.158m0-23.158h20.432m-20.432 23.158v23.158m0-23.158h20.432m-20.432 23.158v23.158m0-23.158h20.432m-20.432 23.158v23.158m0-23.158h20.432m-20.432 23.158v23.158m0-23.158h20.432m-20.432 23.158v23.158m0-23.158h20.432m-20.432 23.158v23.158m0-23.158h20.432m-20.432 23.158v23.158m0-23.158h20.432m-20.432 23.158v23.157m0-23.157h20.432M674.75 324.71v23.158m0-23.158h20.432m-20.432 23.158v23.158m0-23.158h20.432m-20.432 23.158v23.158m0-23.158h20.432m-20.432 23.158v23.158m0-23.158h20.432m-20.432 23.158V440.5m0-23.158h20.432M674.75 440.5h20.432m0-440v23.158m0-23.158h20.432m-20.432 23.158v23.158m0-23.158h20.432m-20.432 23.158v23.158m0-23.158h20.432m-20.432 23.158v23.158m0-23.158h20.432m-20.432 23.158v23.157m0-23.157h20.432m-20.432 23.157v23.158m0-23.158h20.432m-20.432 23.158v23.158m0-23.158h20.432m-20.432 23.158v23.158m0-23.158h20.432m-20.432 23.158v23.158m0-23.158h20.432m-20.432 23.158v23.158m0-23.158h20.432m-20.432 23.158v23.158m0-23.158h20.432m-20.432 23.158v23.158m0-23.158h20.432m-20.432 23.158v23.158m0-23.158h20.432m-20.432 23.158v23.157m0-23.157h20.432m-20.432 23.157v23.158m0-23.158h20.432m-20.432 23.158v23.158m0-23.158h20.432m-20.432 23.158v23.158m0-23.158h20.432m-20.432 23.158v23.158m0-23.158h20.432m-20.432 23.158V440.5m0-23.158h20.432M695.182 440.5h20.432m0-440v23.158m0-23.158h20.431m-20.431 23.158v23.158m0-23.158h20.431m-20.431 23.158v23.158m0-23.158h20.431m-20.431 23.158v23.158m0-23.158h20.431m-20.431 23.158v23.157m0-23.157h20.431m-20.431 23.157v23.158m0-23.158h20.431m-20.431 23.158v23.158m0-23.158h20.431m-20.431 23.158v23.158m0-23.158h20.431m-20.431 23.158v23.158m0-23.158h20.431m-20.431 23.158v23.158m0-23.158h20.431m-20.431 23.158v23.158m0-23.158h20.431m-20.431 23.158v23.158m0-23.158h20.431m-20.431 23.158v23.158m0-23.158h20.431m-20.431 23.158v23.157m0-23.157h20.431m-20.431 23.157v23.158m0-23.158h20.431m-20.431 23.158v23.158m0-23.158h20.431m-20.431 23.158v23.158m0-23.158h20.431m-20.431 23.158v23.158m0-23.158h20.431m-20.431 23.158V440.5m0-23.158h20.431M715.614 440.5h20.431m0-440v23.158m0-23.158h20.432m-20.432 23.158v23.158m0-23.158h20.432m-20.432 23.158v23.158m0-23.158h20.432m-20.432 23.158v23.158m0-23.158h20.432m-20.432 23.158v23.157m0-23.157h20.432m-20.432 23.157v23.158m0-23.158h20.432m-20.432 23.158v23.158m0-23.158h20.432m-20.432 23.158v23.158m0-23.158h20.432m-20.432 23.158v23.158m0-23.158h20.432m-20.432 23.158v23.158m0-23.158h20.432m-20.432 23.158v23.158m0-23.158h20.432m-20.432 23.158v23.158m0-23.158h20.432m-20.432 23.158v23.158m0-23.158h20.432m-20.432 23.158v23.157m0-23.157h20.432m-20.432 23.157v23.158m0-23.158h20.432m-20.432 23.158v23.158m0-23.158h20.432m-20.432 23.158v23.158m0-23.158h20.432m-20.432 23.158v23.158m0-23.158h20.432m-20.432 23.158V440.5m0-23.158h20.432M736.045 440.5h20.432m0-440v23.158m0-23.158h20.432m-20.432 23.158v23.158m0-23.158h20.432m-20.432 23.158v23.158m0-23.158h20.432m-20.432 23.158v23.158m0-23.158h20.432m-20.432 23.158v23.157m0-23.157h20.432m-20.432 23.157v23.158m0-23.158h20.432m-20.432 23.158v23.158m0-23.158h20.432m-20.432 23.158v23.158m0-23.158h20.432m-20.432 23.158v23.158m0-23.158h20.432m-20.432 23.158v23.158m0-23.158h20.432m-20.432 23.158v23.158m0-23.158h20.432m-20.432 23.158v23.158m0-23.158h20.432m-20.432 23.158v23.158m0-23.158h20.432m-20.432 23.158v23.157m0-23.157h20.432m-20.432 23.157v23.158m0-23.158h20.432m-20.432 23.158v23.158m0-23.158h20.432m-20.432 23.158v23.158m0-23.158h20.432m-20.432 23.158v23.158m0-23.158h20.432m-20.432 23.158V440.5m0-23.158h20.432M756.477 440.5h20.432m0-440v23.158m0-23.158h20.432m-20.432 23.158v23.158m0-23.158h20.432m-20.432 23.158v23.158m0-23.158h20.432m-20.432 23.158v23.158m0-23.158h20.432m-20.432 23.158v23.157m0-23.157h20.432m-20.432 23.157v23.158m0-23.158h20.432m-20.432 23.158v23.158m0-23.158h20.432m-20.432 23.158v23.158m0-23.158h20.432m-20.432 23.158v23.158m0-23.158h20.432m-20.432 23.158v23.158m0-23.158h20.432m-20.432 23.158v23.158m0-23.158h20.432m-20.432 23.158v23.158m0-23.158h20.432m-20.432 23.158v23.158m0-23.158h20.432m-20.432 23.158v23.157m0-23.157h20.432m-20.432 23.157v23.158m0-23.158h20.432m-20.432 23.158v23.158m0-23.158h20.432m-20.432 23.158v23.158m0-23.158h20.432m-20.432 23.158v23.158m0-23.158h20.432m-20.432 23.158V440.5m0-23.158h20.432M776.909 440.5h20.432m0-440v23.158m0-23.158h20.432m-20.432 23.158v23.158m0-23.158h20.432m-20.432 23.158v23.158m0-23.158h20.432m-20.432 23.158v23.158m0-23.158h20.432m-20.432 23.158v23.157m0-23.157h20.432m-20.432 23.157v23.158m0-23.158h20.432m-20.432 23.158v23.158m0-23.158h20.432m-20.432 23.158v23.158m0-23.158h20.432m-20.432 23.158v23.158m0-23.158h20.432m-20.432 23.158v23.158m0-23.158h20.432m-20.432 23.158v23.158m0-23.158h20.432m-20.432 23.158v23.158m0-23.158h20.432m-20.432 23.158v23.158m0-23.158h20.432m-20.432 23.158v23.157m0-23.157h20.432m-20.432 23.157v23.158m0-23.158h20.432m-20.432 23.158v23.158m0-23.158h20.432m-20.432 23.158v23.158m0-23.158h20.432m-20.432 23.158v23.158m0-23.158h20.432m-20.432 23.158V440.5m0-23.158h20.432M797.341 440.5h20.432m0-440v23.158m0-23.158h20.432m-20.432 23.158v23.158m0-23.158h20.432m-20.432 23.158v23.158m0-23.158h20.432m-20.432 23.158v23.158m0-23.158h20.432m-20.432 23.158v23.157m0-23.157h20.432m-20.432 23.157v23.158m0-23.158h20.432m-20.432 23.158v23.158m0-23.158h20.432m-20.432 23.158v23.158m0-23.158h20.432m-20.432 23.158v23.158m0-23.158h20.432m-20.432 23.158v23.158m0-23.158h20.432m-20.432 23.158v23.158m0-23.158h20.432m-20.432 23.158v23.158m0-23.158h20.432m-20.432 23.158v23.158m0-23.158h20.432m-20.432 23.158v23.157m0-23.157h20.432m-20.432 23.157v23.158m0-23.158h20.432m-20.432 23.158v23.158m0-23.158h20.432m-20.432 23.158v23.158m0-23.158h20.432m-20.432 23.158v23.158m0-23.158h20.432m-20.432 23.158V440.5m0-23.158h20.432M817.773 440.5h20.432m0-440v23.158m0-23.158h20.431m-20.431 23.158v23.158m0-23.158h20.431m-20.431 23.158v23.158m0-23.158h20.431m-20.431 23.158v23.158m0-23.158h20.431m-20.431 23.158v23.157m0-23.157h20.431m-20.431 23.157v23.158m0-23.158h20.431m-20.431 23.158v23.158m0-23.158h20.431m-20.431 23.158v23.158m0-23.158h20.431m-20.431 23.158v23.158m0-23.158h20.431m-20.431 23.158v23.158m0-23.158h20.431m-20.431 23.158v23.158m0-23.158h20.431m-20.431 23.158v23.158m0-23.158h20.431m-20.431 23.158v23.158m0-23.158h20.431m-20.431 23.158v23.157m0-23.157h20.431m-20.431 23.157v23.158m0-23.158h20.431m-20.431 23.158v23.158m0-23.158h20.431m-20.431 23.158v23.158m0-23.158h20.431m-20.431 23.158v23.158m0-23.158h20.431m-20.431 23.158V440.5m0-23.158h20.431M838.205 440.5h20.431m0-440v23.158m0-23.158h20.432m-20.432 23.158v23.158m0-23.158h20.432m-20.432 23.158v23.158m0-23.158h20.432m-20.432 23.158v23.158m0-23.158h20.432m-20.432 23.158v23.157m0-23.157h20.432m-20.432 23.157v23.158m0-23.158h20.432m-20.432 23.158v23.158m0-23.158h20.432m-20.432 23.158v23.158m0-23.158h20.432m-20.432 23.158v23.158m0-23.158h20.432m-20.432 23.158v23.158m0-23.158h20.432m-20.432 23.158v23.158m0-23.158h20.432m-20.432 23.158v23.158m0-23.158h20.432m-20.432 23.158v23.158m0-23.158h20.432m-20.432 23.158v23.157m0-23.157h20.432m-20.432 23.157v23.158m0-23.158h20.432m-20.432 23.158v23.158m0-23.158h20.432m-20.432 23.158v23.158m0-23.158h20.432m-20.432 23.158v23.158m0-23.158h20.432m-20.432 23.158V440.5m0-23.158h20.432M858.636 440.5h20.432m0-440v23.158m0-23.158H899.5v23.158m-20.432 0v23.158m0-23.158H899.5m-20.432 23.158v23.158m0-23.158H899.5m-20.432 23.158v23.158m0-23.158H899.5m-20.432 23.158v23.157m0-23.157H899.5m-20.432 23.157v23.158m0-23.158H899.5m-20.432 23.158v23.158m0-23.158H899.5m-20.432 23.158v23.158m0-23.158H899.5m-20.432 23.158v23.158m0-23.158H899.5m-20.432 23.158v23.158m0-23.158H899.5m-20.432 23.158v23.158m0-23.158H899.5m-20.432 23.158v23.158m0-23.158H899.5m-20.432 23.158v23.158m0-23.158H899.5m-20.432 23.158v23.157m0-23.157H899.5m-20.432 23.157v23.158m0-23.158H899.5m-20.432 23.158v23.158m0-23.158H899.5m-20.432 23.158v23.158m0-23.158H899.5m-20.432 23.158v23.158m0-23.158H899.5m-20.432 23.158V440.5m0-23.158H899.5M879.068 440.5H899.5v-23.158m0-393.684v23.158m0 0v23.158m0 0v23.158m0 0v23.157m0 0v23.158m0 0v23.158m0 0v23.158m0 0v23.158m0 0v23.158m0 0v23.158m0 0v23.158m0 0v23.158m0 0v23.157m0 0v23.158m0 0v23.158m0 0v23.158m0 0v23.158" style="mix-blend-mode:overlay"/><defs><radialGradient id="a" cx="0" cy="0" r="1" gradientTransform="matrix(0 220 -362.979 0 450 220.5)" gradientUnits="userSpaceOnUse"><stop stop-color="#fff"/><stop offset="1" stop-color="#fff" stop-opacity=".2"/></radialGradient></defs></svg>